<svg xmlns="http://www.w3.org/2000/svg" width="1116" height="501" viewBox="0 0 1116 501" xmlns:xlink="http://www.w3.org/1999/xlink">
  <defs>
    <linearGradient id="b" x1="-.002%" x2="99.998%" y1="50%" y2="50%">
      <stop stop-color="#EEF8E7" offset="2.25%"/>
      <stop stop-color="#EBF7E3" offset="2.38%"/>
      <stop stop-color="#C3E7AB" offset="4.51%"/>
      <stop stop-color="#A4DA7E" offset="6.47%"/>
      <stop stop-color="#8DD15E" offset="8.21%"/>
      <stop stop-color="#7FCB4A" offset="9.68%"/>
      <stop stop-color="#7AC943" offset="10.67%"/>
      <stop stop-color="#98D56D" offset="17.55%"/>
      <stop stop-color="#C8E8B1" offset="29.32%"/>
      <stop stop-color="#DBF0CC" offset="34.83%"/>
      <stop stop-color="#C7E4B3" offset="38.39%"/>
      <stop stop-color="#9FCD7F" offset="46.35%"/>
      <stop stop-color="#82BB59" offset="53.29%"/>
      <stop stop-color="#70B142" offset="58.86%"/>
      <stop stop-color="#69AD3A" offset="62.36%"/>
      <stop stop-color="#589130" offset="93.26%"/>
      <stop stop-color="#7AC943" offset="100%"/>
    </linearGradient>
    <linearGradient id="c" x1="0%" x2="99.998%" y1="50.001%" y2="50.001%">
      <stop stop-color="#EEF8E7" offset="2.25%"/>
      <stop stop-color="#EBF7E3" offset="2.38%"/>
      <stop stop-color="#C3E7AB" offset="4.51%"/>
      <stop stop-color="#A4DA7E" offset="6.47%"/>
      <stop stop-color="#8DD15E" offset="8.21%"/>
      <stop stop-color="#7FCB4A" offset="9.68%"/>
      <stop stop-color="#7AC943" offset="10.67%"/>
      <stop stop-color="#98D56D" offset="17.55%"/>
      <stop stop-color="#C8E8B1" offset="29.32%"/>
      <stop stop-color="#DBF0CC" offset="34.83%"/>
      <stop stop-color="#C7E4B3" offset="38.39%"/>
      <stop stop-color="#9FCD7F" offset="46.35%"/>
      <stop stop-color="#82BB59" offset="53.29%"/>
      <stop stop-color="#70B142" offset="58.86%"/>
      <stop stop-color="#69AD3A" offset="62.36%"/>
      <stop stop-color="#589130" offset="93.26%"/>
      <stop stop-color="#7AC943" offset="100%"/>
    </linearGradient>
    <linearGradient id="d" x1="-.001%" x2="99.996%" y1="50.001%" y2="50.001%">
      <stop stop-color="#EEF8E7" offset="2.25%"/>
      <stop stop-color="#EBF7E3" offset="2.38%"/>
      <stop stop-color="#C3E7AB" offset="4.51%"/>
      <stop stop-color="#A4DA7E" offset="6.47%"/>
      <stop stop-color="#8DD15E" offset="8.21%"/>
      <stop stop-color="#7FCB4A" offset="9.68%"/>
      <stop stop-color="#7AC943" offset="10.67%"/>
      <stop stop-color="#98D56D" offset="17.55%"/>
      <stop stop-color="#C8E8B1" offset="29.32%"/>
      <stop stop-color="#DBF0CC" offset="34.83%"/>
      <stop stop-color="#C7E4B3" offset="38.39%"/>
      <stop stop-color="#9FCD7F" offset="46.35%"/>
      <stop stop-color="#82BB59" offset="53.29%"/>
      <stop stop-color="#70B142" offset="58.86%"/>
      <stop stop-color="#69AD3A" offset="62.36%"/>
      <stop stop-color="#589130" offset="93.26%"/>
      <stop stop-color="#7AC943" offset="100%"/>
    </linearGradient>
    <linearGradient id="e" x1=".002%" x2="100.002%" y1="50%" y2="50%">
      <stop stop-color="#EEF8E7" offset="2.25%"/>
      <stop stop-color="#EBF7E3" offset="2.38%"/>
      <stop stop-color="#C3E7AB" offset="4.51%"/>
      <stop stop-color="#A4DA7E" offset="6.47%"/>
      <stop stop-color="#8DD15E" offset="8.21%"/>
      <stop stop-color="#7FCB4A" offset="9.68%"/>
      <stop stop-color="#7AC943" offset="10.67%"/>
      <stop stop-color="#98D56D" offset="17.55%"/>
      <stop stop-color="#C8E8B1" offset="29.32%"/>
      <stop stop-color="#DBF0CC" offset="34.83%"/>
      <stop stop-color="#C7E4B3" offset="38.39%"/>
      <stop stop-color="#9FCD7F" offset="46.35%"/>
      <stop stop-color="#82BB59" offset="53.29%"/>
      <stop stop-color="#70B142" offset="58.86%"/>
      <stop stop-color="#69AD3A" offset="62.36%"/>
      <stop stop-color="#589130" offset="93.26%"/>
      <stop stop-color="#7AC943" offset="100%"/>
    </linearGradient>
    <linearGradient id="f" x1="-.003%" x2="99.997%" y1="50.001%" y2="50.001%">
      <stop stop-color="#EEF8E7" offset="2.25%"/>
      <stop stop-color="#EBF7E3" offset="2.38%"/>
      <stop stop-color="#C3E7AB" offset="4.51%"/>
      <stop stop-color="#A4DA7E" offset="6.47%"/>
      <stop stop-color="#8DD15E" offset="8.21%"/>
      <stop stop-color="#7FCB4A" offset="9.68%"/>
      <stop stop-color="#7AC943" offset="10.67%"/>
      <stop stop-color="#98D56D" offset="17.55%"/>
      <stop stop-color="#C8E8B1" offset="29.32%"/>
      <stop stop-color="#DBF0CC" offset="34.83%"/>
      <stop stop-color="#C7E4B3" offset="38.39%"/>
      <stop stop-color="#9FCD7F" offset="46.35%"/>
      <stop stop-color="#82BB59" offset="53.29%"/>
      <stop stop-color="#70B142" offset="58.86%"/>
      <stop stop-color="#69AD3A" offset="62.36%"/>
      <stop stop-color="#589130" offset="93.26%"/>
      <stop stop-color="#7AC943" offset="100%"/>
    </linearGradient>
    <radialGradient id="g" cx="50.001%" cy="50.001%" r="41.357%" fx="50.001%" fy="50.001%">
      <stop stop-color="#FFFFFF" offset="0%"/>
      <stop stop-color="#9FD4FA" offset="35.96%"/>
      <stop stop-color="#93CEF9" offset="48.31%"/>
      <stop stop-color="#72C0F8" offset="70.84%"/>
      <stop stop-color="#3FA9F5" offset="100%"/>
    </radialGradient>
    <linearGradient id="h" x1="0%" x2="99.998%" y1="49.999%" y2="49.999%">
      <stop stop-color="#FFFFFF" offset="0%"/>
      <stop stop-color="#000000" offset="100%"/>
    </linearGradient>
    <path id="a" d="M27.503012,171.966823 C27.503012,171.966823 75.3408277,197.755905 109.603619,218.863973 C118.617034,224.416813 106.035796,166.478432 115.94332,171.966823 C146.141997,188.695741 179.190233,208.817897 206.63749,218.863973 C218.929537,223.363032 194.817172,174.688639 206.63749,179.339553 C240.454118,192.645304 269.363034,223.882062 287.973267,224.448027 C316.8727,225.3269 301.764116,126.222079 301.764116,126.222079 L348.467168,126.222079 L370.692771,444 L27.503012,444 L27.503012,171.966823 Z"/>
    <mask id="i" width="343.19" height="317.778" x="0" y="0" fill="white">
      <use xlink:href="#a"/>
    </mask>
    <filter id="j" width="200%" height="200%" x="-50%" y="-50%" filterUnits="objectBoundingBox">
      <feOffset dy="16" in="SourceAlpha" result="shadowOffsetOuter1"/>
      <feGaussianBlur stdDeviation="14.5" in="shadowOffsetOuter1" result="shadowBlurOuter1"/>
      <feColorMatrix values="0 0 0 0 0.607892215 0 0 0 0 0.607803345 0 0 0 0 0.607922554 0 0 0 1 0" in="shadowBlurOuter1" result="shadowMatrixOuter1"/>
      <feMerge>
        <feMergeNode in="shadowMatrixOuter1"/>
        <feMergeNode in="SourceGraphic"/>
      </feMerge>
    </filter>
  </defs>
  <g fill="none" fill-rule="evenodd" transform="translate(0 12)">
    <g transform="translate(0 101)">
      <g transform="translate(15.87 178.62)">
        <rect width="12.42" height="39.736" x=".9" y=".871" fill="url(#b)"/>
        <path fill="#000000" d="M13.3209704,40.0896552 L1.09507278,40.0896552 C0.975698113,40.0896552 1.41800539,40.9868966 1.41800539,40.2282759 L1.41800539,38.862069 L1.41800539,33.2041379 L1.41800539,3.26827586 L1.41800539,0.887586207 C1.41800539,1.47310345 0.553401617,1.38896552 1.32623181,1.38896552 L2.46753639,1.38896552 L6.76571429,1.38896552 L13.1263827,1.38896552 C13.2457574,1.38896552 12.8034501,0.492413793 12.8034501,1.25034483 L12.8034501,2.93172414 L12.8034501,32.6503448 L12.8034501,40.6082759 C12.8034501,41.2758621 13.8384906,41.2758621 13.8384906,40.6082759 L13.8384906,0.872413793 C13.8384906,0.591034483 13.6031914,0.355172414 13.3209704,0.355172414 L0.900485175,0.355172414 C0.618264151,0.355172414 0.38296496,0.591034483 0.38296496,0.872413793 L0.38296496,40.6082759 C0.38296496,40.8903448 0.618264151,41.1255172 0.900485175,41.1255172 L13.3209704,41.1255172 C13.9882264,41.1241379 13.9882264,40.0896552 13.3209704,40.0896552 L13.3209704,40.0896552 Z"/>
      </g>
      <g transform="translate(89.013 291.034)">
        <rect width="14.246" height="39.736" x=".716" y=".739" fill="url(#c)"/>
        <path fill="#000000" d="M14.9611644,39.9572414 L2.11010243,39.9572414 L1.09024259,39.9572414 C0.373994609,39.9572414 1.23376819,39.8841379 1.23376819,40.4593103 L1.23376819,39.7448276 L1.23376819,35.1406897 L1.23376819,4.69724138 L1.23376819,1.11724138 C1.23376819,0.36 0.843212938,1.25586207 0.886684636,1.25586207 L3.62126146,1.25586207 L11.4710081,1.25586207 L14.311159,1.25586207 C15.3441294,1.25586207 14.4436442,0.66137931 14.4436442,0.982758621 L14.4436442,27.6606897 L14.4436442,40.4744828 C14.4436442,41.142069 15.4786846,41.142069 15.4786846,40.4744828 L15.4786846,0.73862069 C15.4786846,0.456551724 15.2433854,0.22137931 14.9611644,0.22137931 L0.715557951,0.22137931 C0.433336927,0.22137931 0.198037736,0.456551724 0.198037736,0.73862069 L0.198037736,40.4744828 C0.198037736,40.7565517 0.433336927,40.9917241 0.715557951,40.9917241 L14.9611644,40.9917241 C15.6284205,40.9917241 15.6284205,39.9572414 14.9611644,39.9572414 L14.9611644,39.9572414 Z"/>
      </g>
      <g transform="translate(155.256 291.034)">
        <rect width="14.246" height="39.736" x=".642" y=".739" fill="url(#d)"/>
        <path fill="#000000" d="M14.8866415,39.9572414 L2.03557951,39.9572414 L1.01571968,39.9572414 C0.299471698,39.9572414 1.15855526,39.8841379 1.15855526,40.4593103 L1.15855526,39.7448276 L1.15855526,35.1406897 L1.15855526,4.69724138 L1.15855526,1.11724138 C1.15855526,0.36 0.768,1.25586207 0.811471698,1.25586207 L3.54604852,1.25586207 L11.3957951,1.25586207 L14.2359461,1.25586207 C15.2689164,1.25586207 14.3684313,0.66137931 14.3684313,0.982758621 L14.3684313,27.6606897 L14.3684313,40.4744828 C14.3684313,41.142069 15.4034717,41.142069 15.4034717,40.4744828 L15.4034717,0.73862069 C15.4034717,0.456551724 15.1681725,0.22137931 14.8859515,0.22137931 L0.640345013,0.22137931 C0.358123989,0.22137931 0.122824798,0.456551724 0.122824798,0.73862069 L0.122824798,40.4744828 C0.122824798,40.7565517 0.358123989,40.9917241 0.640345013,40.9917241 L14.8859515,40.9917241 C15.5545876,40.9917241 15.5545876,39.9572414 14.8866415,39.9572414 L14.8866415,39.9572414 Z"/>
      </g>
      <g transform="translate(225.639 178.62)">
        <rect width="12.42" height="39.736" x=".68" y=".871" fill="url(#e)"/>
        <path fill="#000000" d="M13.1008518,40.0896552 L0.874264151,40.0896552 C0.754889488,40.0896552 1.19788679,40.9868966 1.19788679,40.2282759 L1.19788679,38.862069 L1.19788679,33.2041379 L1.19788679,3.26827586 L1.19788679,0.887586207 C1.19788679,1.47310345 0.333283019,1.38896552 1.10611321,1.38896552 L2.24741779,1.38896552 L6.54559569,1.38896552 L12.9069542,1.38896552 C13.0263288,1.38896552 12.5833315,0.492413793 12.5833315,1.25034483 L12.5833315,2.93172414 L12.5833315,32.6503448 L12.5833315,40.6082759 C12.5833315,41.2758621 13.618372,41.2758621 13.618372,40.6082759 L13.618372,0.872413793 C13.618372,0.591034483 13.3830728,0.355172414 13.1008518,0.355172414 L0.680366577,0.355172414 C0.398145553,0.355172414 0.162846361,0.591034483 0.162846361,0.872413793 L0.162846361,40.6082759 C0.162846361,40.8903448 0.398145553,41.1255172 0.680366577,41.1255172 L13.1008518,41.1255172 C13.7687978,41.1241379 13.7687978,40.0896552 13.1008518,40.0896552 L13.1008518,40.0896552 Z"/>
      </g>
      <g transform="translate(121.445 15.172)">
        <rect width="10.35" height="31.728" x="1.136" y=".562" fill="url(#f)"/>
        <path fill="#333333" d="M11.4861887,31.7731034 L1.19236658,31.7731034 C1.73886792,31.7731034 1.65330458,32.6648276 1.65330458,31.8275862 L1.65330458,30.1862069 L1.65330458,24.2655172 L1.65330458,0.58137931 C1.65330458,1.29931034 1.00881941,1.07931034 2.39025337,1.07931034 L5.97356334,1.07931034 L9.74042049,1.07931034 L11.0031698,1.07931034 C11.8346523,1.07931034 10.9679784,1.1737931 10.9679784,0.58137931 L10.9679784,9.1937931 L10.9679784,32.2903448 C10.9679784,32.9572414 12.0030189,32.9572414 12.0030189,32.2903448 L12.0030189,0.562068966 C12.0030189,0.28 11.7670296,0.0448275862 11.4854987,0.0448275862 L1.13509434,0.0448275862 C0.853563342,0.0448275862 0.617574124,0.28 0.617574124,0.562068966 L0.617574124,32.2903448 C0.617574124,32.5724138 0.853563342,32.8075862 1.13509434,32.8075862 L11.4854987,32.8075862 C12.1527547,32.8075862 12.1527547,31.7731034 11.4861887,31.7731034 L11.4861887,31.7731034 Z"/>
      </g>
      <g transform="translate(110.404 31.034)">
        <ellipse cx="17.351" cy="17.116" fill="#8F8F8F" rx="16.561" ry="16.552"/>
        <path fill="#333333" d="M33.3945445,17.1158621 C33.1454447,26.0372414 26.2782965,32.9013793 17.3514178,33.1503448 C8.42729919,33.3993103 1.54704043,25.6634483 1.30829111,17.1158621 C1.05919137,8.19655172 8.79922372,1.32 17.3514178,1.08137931 C26.2755364,0.833103448 33.1564852,8.56896552 33.3945445,17.1158621 C33.4131752,17.7813793 34.4482156,17.7834483 34.4295849,17.1158621 C34.1646146,7.62344828 26.8489488,0.311724138 17.3514178,0.0468965517 C7.8566469,-0.217931034 0.527180593,8.02206897 0.273250674,17.1158621 C0.00828032345,26.6055172 8.25203235,33.9310345 17.3514178,34.1848276 C26.8461887,34.4496552 34.175655,26.2103448 34.4295849,17.1158621 C34.4489057,16.4489655 33.4138652,16.4503448 33.3945445,17.1158621 L33.3945445,17.1158621 Z"/>
      </g>
      <g transform="translate(66.243 40.69)">
        <g transform="translate(0 15.862)">
          <rect width="121.812" height="33.779" x=".607" y="1.204" fill="#8F8F8F"/>
          <path fill="#333333" d="M122.419062,34.4662069 L18.9978221,34.4662069 L1.73334771,34.4662069 L0.653455526,34.4662069 C0.870123989,34.4662069 1.12474394,35.3289655 1.12474394,34.697931 L1.12474394,32.9662069 L1.12474394,18.7786207 L1.12474394,3.96551724 L1.12474394,1.22206897 C1.12474394,1.87586207 0.220808625,1.72137931 1.45802695,1.72137931 L17.9876226,1.72137931 L122.398361,1.72137931 C121.716615,1.72137931 121.901542,0.92137931 121.901542,2.30344828 L121.901542,5.7337931 L121.901542,17.4096552 L121.901542,34.9841379 C121.901542,35.6510345 122.936582,35.6510345 122.936582,34.9841379 L122.936582,1.20482759 C122.936582,0.922758621 122.701283,0.687586207 122.419062,0.687586207 L18.9978221,0.687586207 L0.60722372,0.687586207 C0.325002695,0.687586207 0.089703504,0.922758621 0.089703504,1.20482759 L0.089703504,34.9841379 C0.089703504,35.2662069 0.325002695,35.5013793 0.60722372,35.5013793 L104.028464,35.5013793 L122.419062,35.5013793 C123.087008,35.5006897 123.087008,34.4662069 122.419062,34.4662069 L122.419062,34.4662069 Z"/>
        </g>
        <g transform="translate(6.9)">
          <rect width="107.026" height="66.854" x="1.1" y=".528" fill="#BFBFBF"/>
          <path fill="#333333" d="M108.125154,66.8655172 L6.93201078,66.8655172 L1.46906739,66.8655172 C0.696927224,66.8655172 1.61673315,67.5882759 1.61673315,67.1531034 L1.61673315,64.5848276 L1.61673315,37.3848276 L1.61673315,6.96275862 L1.61673315,0.612413793 C1.61673315,1.05724138 0.684506739,1.0462069 1.67400539,1.0462069 L4.02216712,1.0462069 L107.550361,1.0462069 C108.443946,1.0462069 107.607633,0.0972413793 107.607633,1.42689655 L107.607633,7.3937931 L107.607633,30.5268966 L107.607633,67.3827586 C107.607633,68.0496552 108.642674,68.0496552 108.642674,67.3827586 L108.642674,0.528965517 C108.642674,0.246896552 108.407375,0.0117241379 108.125154,0.0117241379 L6.93201078,0.0117241379 L1.09921294,0.0117241379 C0.816991914,0.0117241379 0.581692722,0.246896552 0.581692722,0.528965517 L0.581692722,67.3827586 C0.581692722,67.6648276 0.816991914,67.9 1.09921294,67.9 L102.292356,67.9 L108.124464,67.9 C108.7931,67.9 108.7931,66.8655172 108.125154,66.8655172 L108.125154,66.8655172 Z"/>
        </g>
        <g transform="translate(24.841 11.724)">
          <ellipse cx="14.351" cy="14.49" fill="#8F8F8F" rx="13.378" ry="13.371"/>
          <path fill="#333333" d="M27.211903,14.4896552 C26.9593531,21.6765517 21.5419515,27.0903448 14.3504906,27.3434483 C7.16385984,27.5958621 1.72989757,21.2986207 1.49045822,14.4896552 C1.23790836,7.30689655 7.53785445,1.87517241 14.3504906,1.63586207 C21.5371213,1.38344828 26.9724636,7.68068966 27.211903,14.4896552 C27.2353639,15.1544828 28.2704043,15.1572414 28.2469434,14.4896552 C27.9736927,6.72413793 22.1201941,0.874482759 14.3504906,0.60137931 C6.58630728,0.328275862 0.714177898,7.13655172 0.45541779,14.4896552 C0.182167116,22.2496552 6.99342318,28.1193103 14.3504906,28.377931 C22.1153639,28.6510345 27.9881833,21.8434483 28.2469434,14.4896552 C28.2704043,13.822069 27.2353639,13.8248276 27.211903,14.4896552 L27.211903,14.4896552 Z"/>
        </g>
        <g transform="translate(26.221 13.103)">
          <ellipse cx="12.971" cy="13.11" fill="#FFF729" rx="11.97" ry="11.963"/>
          <path fill="#333333" d="M24.423504,13.1103448 C24.1764744,19.5324138 19.3959677,24.3096552 12.9704367,24.5572414 C6.5511159,24.8041379 1.75197844,19.1572414 1.51874933,13.1103448 C1.27171968,6.69448276 6.92028032,1.89724138 12.9704367,1.66413793 C19.3897574,1.41724138 24.1902749,7.06344828 24.423504,13.1103448 C24.449035,13.7751724 25.4840755,13.777931 25.4585445,13.1103448 C25.189434,6.11862069 19.9659299,0.89862069 12.9704367,0.629655172 C5.98115364,0.360689655 0.737638814,6.52206897 0.483708895,13.1103448 C0.214598383,20.0958621 6.37791914,25.337931 12.9704367,25.5917241 C19.9604097,25.8606897 25.2039245,19.6993103 25.4585445,13.1103448 C25.4840755,12.4427586 24.449035,12.4455172 24.423504,13.1103448 L24.423504,13.1103448 Z"/>
        </g>
        <g transform="translate(70.383 11.724)">
          <ellipse cx="14.364" cy="14.49" fill="#8F8F8F" rx="13.378" ry="13.371"/>
          <path fill="#333333" d="M27.2250135,14.4896552 C26.9724636,21.6765517 21.554372,27.0903448 14.3636011,27.3434483 C7.17697035,27.5958621 1.74300809,21.2986207 1.50356873,14.4896552 C1.25101887,7.30689655 7.55096496,1.87517241 14.3636011,1.63586207 C21.5502318,1.38344828 26.9855741,7.68068966 27.2250135,14.4896552 C27.2484744,15.1544828 28.2835148,15.1572414 28.2600539,14.4896552 C27.9868032,6.72413793 22.1333046,0.874482759 14.3636011,0.60137931 C6.59941779,0.328275862 0.72728841,7.13655172 0.468528302,14.4896552 C0.195277628,22.2496552 7.00653369,28.1193103 14.3636011,28.377931 C22.1284744,28.6510345 28.0012938,21.8434483 28.2600539,14.4896552 C28.2835148,13.822069 27.2484744,13.8248276 27.2250135,14.4896552 L27.2250135,14.4896552 Z"/>
        </g>
        <g transform="translate(71.763 13.103)">
          <ellipse cx="12.985" cy="13.11" fill="#FFF729" rx="12.03" ry="12.023"/>
          <path fill="#333333" d="M24.4973369,13.1103448 C24.2489272,19.5648276 19.4435795,24.3682759 12.9849272,24.6172414 C6.53179515,24.8655172 1.70643666,19.1889655 1.47251752,13.1103448 C1.22410782,6.66068966 6.90233962,1.83862069 12.9849272,1.60413793 C19.4380593,1.35655172 24.2634178,7.03172414 24.4973369,13.1103448 C24.5228679,13.7751724 25.5579084,13.777931 25.5323774,13.1103448 C25.2611968,6.08482759 20.0142318,0.84 12.9849272,0.569655172 C5.96114286,0.299310345 0.692787062,6.48965517 0.437477089,13.1103448 C0.166986523,20.1296552 6.36135849,25.3965517 12.9849272,25.6517241 C20.0087116,25.922069 25.2770674,19.7303448 25.5323774,13.1103448 C25.5579084,12.4427586 24.5228679,12.4455172 24.4973369,13.1103448 L24.4973369,13.1103448 Z"/>
        </g>
        <g transform="translate(21.39 44.828)">
          <rect width="78.157" height="16.186" x="1.045" y="1.092" fill="#BFBFBF"/>
          <path fill="#000000" d="M79.2006038,16.76 L29.8857574,16.76 L4.0345876,16.76 L1.54704043,16.76 L1.07644205,16.76 C1.75404852,16.76 1.561531,17.482069 1.561531,16.0786207 L1.561531,1.94137931 C1.561531,0.727586207 0.669326146,1.60896552 1.54704043,1.60896552 L4.32715903,1.60896552 L15.1143504,1.60896552 L47.6649919,1.60896552 L74.9665984,1.60896552 L78.0862102,1.60896552 C79.5235364,1.60896552 78.6817035,1.71310345 78.6817035,1.23586207 L78.6817035,14.7482759 L78.6817035,17.2772414 C78.6817035,17.9441379 79.7167439,17.9441379 79.7167439,17.2772414 L79.7167439,1.09103448 C79.7167439,0.808965517 79.4814447,0.573793103 79.1992237,0.573793103 L1.04263073,0.573793103 C0.760409704,0.573793103 0.525110512,0.808965517 0.525110512,1.09103448 L0.525110512,17.2772414 C0.525110512,17.5593103 0.760409704,17.7944828 1.04263073,17.7944828 L79.1992237,17.7944828 C79.8685499,17.7944828 79.8685499,16.76 79.2006038,16.76 L79.2006038,16.76 Z"/>
        </g>
        <g fill="#000000" transform="translate(24.841 48.276)">
          <rect width="72.171" height="9.5" x=".587" y=".986"/>
          <path d="M72.7571321,9.96896552 L22.2174879,9.96896552 L1.00329919,9.96896552 L0.594803235,9.96896552 C1.2082372,9.96896552 1.1033531,10.8351724 1.1033531,9.96 L1.1033531,8.60275862 L1.1033531,1.22827586 C1.1033531,0.751034483 0.242199461,1.50344828 0.801121294,1.50344828 L1.59948248,1.50344828 L5.1303504,1.50344828 L51.1261671,1.50344828 L69.8424582,1.50344828 L71.9166792,1.50344828 C73.1318167,1.50344828 72.2403019,1.64827586 72.2403019,1.04896552 L72.2403019,10.4868966 C72.2403019,11.1537931 73.2753423,11.1537931 73.2753423,10.4868966 L73.2753423,0.986896552 C73.2753423,0.704827586 73.0400431,0.469655172 72.7578221,0.469655172 L0.586522911,0.469655172 C0.304301887,0.469655172 0.0690026954,0.704827586 0.0690026954,0.986896552 L0.0690026954,10.4868966 C0.0690026954,10.7689655 0.304301887,11.0041379 0.586522911,11.0041379 L72.7578221,11.0041379 C73.4250782,11.0034483 73.4250782,9.96896552 72.7571321,9.96896552 L72.7571321,9.96896552 Z"/>
        </g>
        <path fill="#FFFFFF" d="M47.0839892 25.8510345C47.0839892 28.7848276 39.2611536 26.8751724 42.1965283 26.8751724 43.6373046 26.8751724 39.2073315 28.5255172 39.2073315 25.9358621 39.2073315 23.0027586 38.834027 20.5393103 41.7694016 20.5393103 44.7047763 20.5393103 47.0839892 22.9172414 47.0839892 25.8510345L47.0839892 25.8510345zM92.6409488 25.8510345C92.6409488 28.7848276 84.8188032 26.8751724 87.7527978 26.8751724 89.1935741 26.8751724 84.7636011 28.5255172 84.7636011 25.9358621 84.7636011 23.0027586 84.3916765 20.5393103 87.3270512 20.5393103 90.2610458 20.5393103 92.6409488 22.9172414 92.6409488 25.8510345L92.6409488 25.8510345z"/>
      </g>
      <g transform="translate(116.615)">
        <ellipse cx="11.141" cy="10.986" fill="#FF0000" rx="10.005" ry="10"/>
        <path fill="#000000" d="M20.6290458,10.9855172 C20.0480431,23.1972414 2.23430728,23.1972414 1.65330458,10.9855172 C1.39937466,5.64068966 6.16815094,1.73862069 11.1411752,1.50275862 C16.4888841,1.24896552 20.3923666,6.01517241 20.6290458,10.9855172 C20.6607871,11.6496552 21.6958275,11.6524138 21.6640863,10.9855172 C21.3818652,5.0537931 17.076097,0.750344828 11.1411752,0.468275862 C5.21522372,0.186896552 0.879784367,5.47793103 0.618264151,10.9855172 C0.336733154,16.9082759 5.63061995,21.2413793 11.1411752,21.5027586 C17.0671267,21.7841379 21.401876,16.4931034 21.6640863,10.9855172 C21.6951375,10.3186207 20.660097,10.3213793 20.6290458,10.9855172 L20.6290458,10.9855172 Z"/>
      </g>
      <g transform="translate(95.914 107.586)">
        <path fill="#8F33BF" d="M62.745531,5.84 C62.745531,3.4937931 61.0384043,1.55034483 58.7992668,1.17034483 L58.7992668,1.09862069 L5.68168194,1.09862069 C3.0616496,1.09862069 0.937746631,3.22137931 0.937746631,5.84 C0.937746631,8.45862069 3.0616496,10.5813793 5.68168194,10.5813793 L58.7992668,10.5813793 L58.7992668,10.5096552 C61.0384043,10.1296552 62.745531,8.1862069 62.745531,5.84 L62.745531,5.84 Z"/>
        <path fill="#000000" d="M63.2630512,5.84 C63.1436765,4.52413793 62.8393747,3.59724138 62.0589542,2.50689655 C61.848496,2.21241379 59.3167871,0.255862069 59.3167871,1.09862069 C59.3167871,0.816551724 59.0814879,0.58137931 58.7992668,0.58137931 L8.43488949,0.58137931 C6.05291644,0.58137931 3.19206469,0.282758621 1.60638275,2.52413793 C-0.948097035,6.13586207 1.26757951,11.0986207 5.86660916,11.0986207 L29.4972722,11.0986207 L58.7992668,11.0986207 C59.0814879,11.0986207 59.3167871,10.8634483 59.3167871,10.5813793 C59.3167871,11.4413793 61.7560323,9.49655172 61.977531,9.27793103 C62.9056173,8.36344828 63.1519569,7.06758621 63.2630512,5.84 C63.3230836,5.17517241 62.2873531,5.18137931 62.2280108,5.84 C62.0237628,8.0937931 60.7893046,9.45172414 58.6619515,10.0103448 C58.4397628,10.0682759 58.2817466,10.2813793 58.2817466,10.5089655 C58.2817466,9.98896552 59.1732615,10.0634483 58.3873208,10.0634483 L57.2115148,10.0634483 L52.4606792,10.0634483 L37.6996226,10.0634483 L8.43419946,10.0634483 L5.86591914,10.0634483 C0.247719677,10.0634483 0.14283558,1.61517241 5.78587601,1.61517241 L13.4713962,1.61517241 L45.4320647,1.61517241 L54.989628,1.61517241 L57.6821132,1.61517241 C59.0676873,1.61517241 58.2803666,1.79655172 58.2803666,1.16965517 C58.2803666,1.39793103 58.4383827,1.61034483 58.6605714,1.66827586 C60.7879245,2.22758621 62.0223827,3.58551724 62.2266307,5.83862069 C62.2873531,6.49862069 63.3230836,6.50482759 63.2630512,5.84 L63.2630512,5.84 Z"/>
      </g>
      <g transform="translate(95.914 117.241)">
        <path fill="#8F33BF" d="M62.745531,5.66758621 C62.745531,3.32137931 61.0384043,1.37793103 58.7992668,0.997931034 L58.7992668,0.926206897 L5.68168194,0.926206897 C3.0616496,0.926206897 0.937746631,3.04896552 0.937746631,5.66758621 C0.937746631,8.2862069 3.0616496,10.4089655 5.68168194,10.4089655 L58.7992668,10.4089655 L58.7992668,10.3372414 C61.0384043,9.95724138 62.745531,8.0137931 62.745531,5.66758621 L62.745531,5.66758621 Z"/>
        <path fill="#000000" d="M63.2630512,5.66758621 C63.1436765,4.35172414 62.8393747,3.42482759 62.0589542,2.33448276 C61.848496,2.04 59.3167871,0.0834482759 59.3167871,0.926206897 C59.3167871,0.644137931 59.0814879,0.408965517 58.7992668,0.408965517 L8.43488949,0.408965517 C6.05291644,0.408965517 3.19206469,0.110344828 1.60638275,2.35172414 C-0.948097035,5.96344828 1.26757951,10.9262069 5.86660916,10.9262069 L29.4972722,10.9262069 L58.7992668,10.9262069 C59.0814879,10.9262069 59.3167871,10.6910345 59.3167871,10.4089655 C59.3167871,11.2689655 61.7560323,9.32413793 61.977531,9.10551724 C62.9056173,8.19103448 63.1519569,6.89517241 63.2630512,5.66758621 C63.3230836,5.00275862 62.2873531,5.00896552 62.2280108,5.66758621 C62.0237628,7.92137931 60.7893046,9.27931034 58.6619515,9.83793103 C58.4397628,9.89586207 58.2817466,10.1089655 58.2817466,10.3365517 C58.2817466,9.81655172 59.1732615,9.89103448 58.3873208,9.89103448 L57.2115148,9.89103448 L52.4606792,9.89103448 L37.6996226,9.89103448 L8.43419946,9.89103448 L5.86591914,9.89103448 C0.247719677,9.89103448 0.14283558,1.44275862 5.78587601,1.44275862 L13.4713962,1.44275862 L45.4320647,1.44275862 L54.989628,1.44275862 L57.6821132,1.44275862 C59.0676873,1.44275862 58.2803666,1.62413793 58.2803666,0.997241379 C58.2803666,1.22551724 58.4383827,1.43793103 58.6605714,1.49586207 C60.7879245,2.05517241 62.0223827,3.41310345 62.2266307,5.6662069 C62.2873531,6.3262069 63.3230836,6.33241379 63.2630512,5.66758621 L63.2630512,5.66758621 Z"/>
      </g>
      <g transform="translate(202.868 131.724)">
        <path fill="#8F33BF" d="M4.09669003,43.5744828 C5.73067385,43.5744828 7.08450674,42.3868966 7.34947709,40.8296552 L7.39915903,40.8296552 L7.39915903,3.87103448 C7.39915903,2.04827586 5.92043127,0.570344828 4.09669003,0.570344828 C2.27294879,0.570344828 0.794221024,2.04827586 0.794221024,3.87103448 L0.794221024,40.8296552 L0.844592992,40.8296552 C1.10818329,42.3868966 2.46201617,43.5744828 4.09669003,43.5744828 L4.09669003,43.5744828 Z"/>
        <path fill="#000000" d="M4.23400539,44.0731034 C4.94473315,43.9703448 5.65477089,43.9193103 6.23715364,43.4227586 C6.28614555,43.38 8.28791375,41.3462069 7.39915903,41.3462069 C7.68138005,41.3462069 7.91667925,41.1103448 7.91667925,40.8289655 L7.91667925,18.6082759 L7.91667925,6.06344828 C7.91667925,3.41724138 7.65791914,0.0524137931 4.09669003,0.0524137931 C0.730048518,0.0524137931 0.276700809,3.1537931 0.276700809,5.73034483 L0.276700809,17.9393103 L0.276700809,40.8289655 C0.276700809,41.1103448 0.512,41.3462069 0.794221024,41.3462069 C0.0524420485,41.3462069 1.47734771,43.0137931 1.26757951,42.8337931 C2.15702426,43.5931034 2.7980593,43.9055172 3.95937466,44.0731034 C4.61145013,44.1675862 4.89298113,43.1710345 4.23400539,43.0758621 C3.27072776,42.2813793 2.30676011,41.4862069 1.34417251,40.6917241 C1.27309973,40.4710345 1.08196226,40.3117241 0.844592992,40.3117241 C1.3876442,40.3117241 1.31174124,41.1965517 1.31174124,40.4234483 L1.31174124,39.277931 L1.31174124,35.182069 L1.31174124,22.6917241 L1.31174124,3.87034483 C1.31174124,0.116551724 6.88163881,2.19103448 6.88163881,4.13172414 L6.88163881,5.13724138 L6.88163881,9.01655172 L6.88163881,22.0068966 L6.88163881,34.6634483 L6.88163881,38.9682759 L6.88163881,40.2496552 C6.88163881,41.2151724 6.77537466,40.3110345 7.34947709,40.3110345 C7.11210782,40.3110345 6.92097035,40.4696552 6.84989757,40.6910345 C5.88661995,41.4855172 4.92265229,42.2806897 3.95937466,43.0751724 C3.30039892,43.1717241 3.58123989,44.1675862 4.23400539,44.0731034 L4.23400539,44.0731034 Z"/>
      </g>
      <g transform="translate(44.162 131.724)">
        <path fill="#8F33BF" d="M4.38512129,43.5744828 C6.01910512,43.5744828 7.37293801,42.3868966 7.63790836,40.8296552 L7.6875903,40.8296552 L7.6875903,3.87103448 C7.6875903,2.04827586 6.20886253,0.570344828 4.38512129,0.570344828 C2.56138005,0.570344828 1.08265229,2.04827586 1.08265229,3.87103448 L1.08265229,40.8296552 L1.13302426,40.8296552 C1.39730458,42.3868966 2.75113747,43.5744828 4.38512129,43.5744828 L4.38512129,43.5744828 Z"/>
        <path fill="#000000" d="M4.52243666,44.0731034 C5.23316442,43.9703448 5.94320216,43.9193103 6.52558491,43.4227586 C6.57526685,43.38 8.57634501,41.3462069 7.6875903,41.3462069 C7.96981132,41.3462069 8.20511051,41.1103448 8.20511051,40.8289655 L8.20511051,18.6082759 L8.20511051,6.06344828 C8.20511051,3.41724138 7.9463504,0.0524137931 4.38512129,0.0524137931 C1.01847978,0.0524137931 0.565132075,3.1537931 0.565132075,5.73034483 L0.565132075,17.9393103 L0.565132075,40.8289655 C0.565132075,41.1103448 0.800431267,41.3462069 1.08265229,41.3462069 C0.340873315,41.3462069 1.76577898,43.0137931 1.55532075,42.8337931 C2.44545553,43.5931034 3.08649057,43.9055172 4.24780593,44.0731034 C4.90057143,44.1675862 5.1814124,43.1710345 4.52243666,43.0758621 C3.55915903,42.2813793 2.5958814,41.4862069 1.63191375,40.6917241 C1.561531,40.4710345 1.37039353,40.3117241 1.13302426,40.3117241 C1.67607547,40.3117241 1.60017251,41.1965517 1.60017251,40.4234483 L1.60017251,39.277931 L1.60017251,35.182069 L1.60017251,22.6917241 L1.60017251,3.87034483 C1.60017251,0.116551724 7.17007008,2.19103448 7.17007008,4.13172414 L7.17007008,5.13724138 L7.17007008,9.01655172 L7.17007008,22.0068966 L7.17007008,34.6634483 L7.17007008,38.9682759 L7.17007008,40.2496552 C7.17007008,41.2151724 7.06380593,40.3110345 7.63790836,40.3110345 C7.40053908,40.3110345 7.20940162,40.4696552 7.13901887,40.6910345 C6.17505121,41.4855172 5.21177358,42.2806897 4.24780593,43.0751724 C3.58883019,43.1717241 3.86967116,44.1675862 4.52243666,44.0731034 L4.52243666,44.0731034 Z"/>
      </g>
      <g transform="translate(51.062 127.586)">
        <polygon fill="#BFBFBF" points="1.477 .871 .787 70.262 24.682 172.595 126.672 172.595 152.599 70.262 151.872 6.386 152.35 .754"/>
        <path fill="#333333" d="M0.959827493,0.871034483 C0.790770889,17.8682759 0.621714286,34.8648276 0.452657682,51.862069 C0.39193531,57.9924138 0.330522911,64.122069 0.269800539,70.2524138 C0.260140162,71.2172414 0.746609164,72.3627586 0.962587601,73.2882759 C1.6408841,76.1931034 2.31918059,79.097931 2.99747709,82.0027586 C10.0592129,112.246207 17.1202588,142.488966 24.1819946,172.732414 C24.2337466,172.955172 24.4573154,173.112414 24.6808841,173.112414 L123.864668,173.112414 L126.671008,173.112414 C126.897337,173.112414 127.114005,172.954483 127.170588,172.732414 C135.410199,140.211034 143.650501,107.689655 151.889423,75.1682759 C152.476636,72.8531034 153.122501,70.8193103 153.09559,68.4489655 C153.005887,60.5758621 152.916183,52.7041379 152.82648,44.8317241 C152.660183,30.2075862 151.629283,15.3413793 152.866501,0.753793103 C152.889962,0.472413793 152.613261,0.236551724 152.348981,0.236551724 C119.057251,0.262758621 85.7648302,0.288275862 52.4730997,0.313793103 C35.4742857,0.327586207 18.4754717,0.340689655 1.47665768,0.353793103 C0.809401617,0.354482759 0.809401617,1.38896552 1.47665768,1.38827586 C34.7690782,1.36206897 68.0608086,1.33655172 101.352539,1.31103448 C117.314933,1.29862069 133.276636,1.2862069 149.23834,1.2737931 C150.26234,1.27310345 151.28703,1.27241379 152.31103,1.27172414 C151.600992,1.27241379 151.837671,0.672413793 151.723127,2.0262069 C151.621693,3.2262069 151.519569,4.42551724 151.418135,5.62551724 C151.369143,6.20551724 151.357412,6.75034483 151.364313,7.33103448 C151.457466,15.4931034 151.55062,23.6551724 151.643084,31.8172414 C151.761768,42.2386207 151.880453,52.6606897 151.999827,63.082069 C152.041919,66.7489655 152.260658,69.4910345 151.434005,72.7544828 C146.94055,90.4889655 142.447784,108.223448 137.954329,125.957931 C134.057747,141.337241 130.160474,156.716552 126.264582,172.095172 C126.081035,172.817241 126.72621,172.078621 126.518512,172.078621 L124.768604,172.078621 L116.675278,172.078621 L87.9722264,172.078621 L29.4475903,172.078621 L24.7788679,172.078621 C24.9920863,172.078621 25.2577466,172.791724 25.0721294,171.996552 C24.9016927,171.266207 24.7312561,170.536552 24.5608194,169.806207 C22.9006146,162.694483 21.2397197,155.582759 19.5795148,148.471034 C14.7168949,127.644138 9.85358491,106.816552 4.99027493,85.9889655 C3.77720755,80.7944828 2.56483019,75.6006897 1.3517628,70.4055172 C1.21513747,69.8213793 1.32485175,68.2337931 1.33451213,67.242069 C1.37177358,63.5013793 1.40903504,59.7606897 1.4462965,56.0206897 C1.62915364,37.6372414 1.81201078,19.2544828 1.99486792,0.871724138 C2.00176819,0.203448276 0.966727763,0.204137931 0.959827493,0.871034483 L0.959827493,0.871034483 Z"/>
      </g>
      <g transform="translate(.69 127.586)">
        <rect width="43.146" height="52.53" x=".718" y=".754" fill="#8F8F8F"/>
        <path fill="#333333" d="M43.8643235,52.7675862 L20.2288302,52.7675862 L5.29457682,52.7675862 L1.40075472,52.7675862 C0.308442049,52.7675862 1.23583827,53.6441379 1.23583827,52.7241379 L1.23583827,1.48137931 C1.23583827,0.32 0.655525606,1.27103448 1.07161186,1.27103448 L4.85916981,1.27103448 L19.5443235,1.27103448 L43.8505229,1.27103448 C43.2667601,1.27103448 43.3474933,0.375862069 43.3474933,1.16827586 L43.3474933,2.35034483 L43.3474933,7.12206897 L43.3474933,21.9096552 L43.3474933,50.8372414 L43.3474933,53.2848276 C43.3474933,53.9524138 44.3825337,53.9524138 44.3825337,53.2848276 L44.3825337,0.754482759 C44.3825337,0.472413793 44.1472345,0.237241379 43.8650135,0.237241379 L0.719008086,0.237241379 C0.436787062,0.237241379 0.201487871,0.472413793 0.201487871,0.754482759 L0.201487871,53.2848276 C0.201487871,53.5668966 0.436787062,53.802069 0.719008086,53.802069 L43.8650135,53.802069 C44.5315795,53.802069 44.5315795,52.7675862 43.8643235,52.7675862 L43.8643235,52.7675862 Z"/>
      </g>
      <g transform="translate(209.768 126.897)">
        <rect width="43.145" height="52.53" x="1.189" y=".634" fill="#8F8F8F"/>
        <path fill="#333333" d="M44.3342318,52.6475862 L20.6987385,52.6475862 L5.76379515,52.6475862 L1.86997305,52.6475862 C0.778350404,52.6475862 1.70574663,53.5241379 1.70574663,52.6041379 L1.70574663,1.36137931 C1.70574663,0.2 1.12543396,1.15103448 1.54152022,1.15103448 L5.32838814,1.15103448 L20.0135418,1.15103448 L44.3190512,1.15103448 C43.7352884,1.15103448 43.8160216,0.255862069 43.8160216,1.04827586 L43.8160216,2.23034483 L43.8160216,7.00206897 L43.8160216,21.7896552 L43.8160216,50.7172414 L43.8160216,53.1648276 C43.8160216,53.8324138 44.851062,53.8324138 44.851062,53.1648276 L44.851062,0.634482759 C44.851062,0.352413793 44.6157628,0.117241379 44.3335418,0.117241379 L1.18822642,0.117241379 C0.906005391,0.117241379 0.670706199,0.352413793 0.670706199,0.634482759 L0.670706199,53.1648276 C0.670706199,53.4468966 0.906005391,53.682069 1.18822642,53.682069 L44.3335418,53.682069 C45.0021779,53.682069 45.0021779,52.6475862 44.3342318,52.6475862 L44.3342318,52.6475862 Z"/>
      </g>
      <g fill="#000000" transform="translate(0 215.862)">
        <path d="M9.46923989,41.402069 L16.1756119,34.6993103 C12.4004744,32.3986207 9.87083558,28.2572414 9.87083558,23.5151724 C9.87083558,16.2786207 15.7408949,10.4117241 22.9813477,10.4117241 C30.2224906,10.4117241 36.0918598,16.2786207 36.0918598,23.5151724 C36.0918598,28.2572414 33.562221,32.3993103 29.7870836,34.6993103 L36.4934555,41.402069 C41.907407,37.3103448 45.4072237,30.822069 45.4072237,23.5151724 C45.4072237,11.1365517 35.3666415,1.10137931 22.9813477,1.10137931 C10.5960539,1.10137931 0.555471698,11.1365517 0.555471698,23.5151724 C0.555471698,30.822069 4.05528841,37.3110345 9.46923989,41.402069 L9.46923989,41.402069 Z"/>
        <path d="M9.83495418,41.7675862 C12.0706415,39.5337931 14.3056388,37.2993103 16.5413261,35.0648276 C16.7869757,34.8193103 16.7131429,34.4344828 16.436442,34.2524138 C5.94251213,27.3303448 10.4759892,11.3675862 22.9813477,10.9289655 C28.2835148,10.742069 32.895655,14.4317241 34.8070296,19.1737931 C37.0799784,24.8124138 34.3840431,31.0489655 29.5262534,34.2524138 C29.2502426,34.4344828 29.1757197,34.8186207 29.4213693,35.0648276 C31.6570566,37.2986207 33.8920539,39.5331034 36.1277412,41.7675862 C36.3444097,41.9834483 36.6383612,41.9427586 36.8598598,41.7675862 C45.1519137,35.2013793 48.0865984,24.2455172 44.0561509,14.4475862 C40.5659946,5.96344828 31.9765391,0.771034483 22.9820377,0.584137931 C14.0661995,0.39862069 5.29112668,6.22206897 1.90792453,14.4475862 C-2.12252291,24.2455172 0.812161725,35.202069 9.10421563,41.7675862 C9.62173585,42.1772414 10.3586846,41.4503448 9.83633423,41.0358621 C2.06180054,34.88 -0.839762803,24.8834483 2.56483019,15.5517241 C5.65822102,7.0737931 14.1745337,1.80137931 22.9820377,1.61862069 C31.9903396,1.43172414 40.0443342,7.39448276 43.3992453,15.5517241 C45.1091321,19.7075862 45.2236765,24.3358621 44.2769596,28.6793103 C43.7711698,31 42.7361294,33.1565517 41.523062,35.1813793 C41.2808625,35.5848276 36.7121941,40.8889655 36.8150081,40.9917241 C35.3204097,39.497931 33.8258113,38.0041379 32.3312129,36.5103448 C31.6618868,35.8413793 30.9932507,35.1731034 30.3239245,34.5048276 C30.9304582,35.1110345 33.0384906,32.6903448 33.662965,31.9531034 C37.656841,27.2358621 37.5657574,19.5006897 33.4987385,14.8572414 C23.8376712,3.82551724 6.13778976,13.4482759 9.96122911,27.542069 C10.4849596,29.4724138 11.6331644,31.1655172 12.9083342,32.6717241 C13.5493693,33.4289655 14.3435903,34.0262069 15.1247008,34.6255172 C15.4497035,34.8744828 16.1003989,34.0427586 15.1723127,34.9710345 C13.1491536,36.9931034 11.1259946,39.0144828 9.10352561,41.0365517 C8.63085714,41.5089655 9.36228571,42.24 9.83495418,41.7675862 L9.83495418,41.7675862 Z"/>
      </g>
      <g fill="#000000" transform="translate(209.078 215.862)">
        <path d="M9.93914825,41.402069 L16.6455202,34.6993103 C12.8703827,32.3986207 10.3407439,28.2572414 10.3407439,23.5151724 C10.3407439,16.2786207 16.2108032,10.4117241 23.4512561,10.4117241 C30.6923989,10.4117241 36.5617682,16.2786207 36.5617682,23.5151724 C36.5617682,28.2572414 34.0321294,32.3993103 30.2569919,34.6993103 L36.9633639,41.402069 C42.3773154,37.3103448 45.8771321,30.822069 45.8771321,23.5151724 C45.8771321,11.1365517 35.8365499,1.10137931 23.4512561,1.10137931 C11.0659623,1.10137931 1.02538005,11.1365517 1.02538005,23.5151724 C1.02538005,30.822069 4.52588679,37.3110345 9.93914825,41.402069 L9.93914825,41.402069 Z"/>
        <path d="M10.3055526,41.7675862 C12.5405499,39.5337931 14.7762372,37.2993103 17.0119245,35.0648276 C17.2575741,34.8193103 17.1837412,34.4344828 16.9077305,34.2524138 C6.41380054,27.3303448 10.9465876,11.3682759 23.4519461,10.9289655 C28.7541132,10.742069 33.3662534,14.4317241 35.277628,19.1737931 C37.5505768,24.8124138 34.8546415,31.0489655 29.9968518,34.2524138 C29.720841,34.4344828 29.6463181,34.8186207 29.8926577,35.0648276 C32.127655,37.2986207 34.3633423,39.5331034 36.5990296,41.7675862 C36.8150081,41.9834483 37.1096496,41.9427586 37.3311482,41.7675862 C45.6232022,35.2013793 48.5578868,24.2455172 44.5274394,14.4475862 C41.037283,5.96344828 32.4478275,0.771034483 23.4533261,0.584137931 C14.5374879,0.39862069 5.76241509,6.22206897 2.37921294,14.4475862 C-1.6512345,24.2455172 1.28345013,35.202069 9.57550404,41.7675862 C10.0923342,42.1772414 10.829973,41.4503448 10.3076226,41.0358621 C2.53308895,34.88 -0.368474394,24.8834483 3.03680863,15.5517241 C6.13019946,7.0737931 14.6465121,1.80137931 23.4540162,1.61862069 C32.4630081,1.43172414 40.5163127,7.39448276 43.8712237,15.5517241 C45.5811105,19.7075862 45.696345,24.3358621 44.748938,28.6793103 C44.2438383,31 43.2081078,33.1565517 41.9957305,35.1813793 C41.753531,35.5848276 37.1848625,40.8889655 37.2883666,40.9917241 C35.7937682,39.497931 34.2991698,38.0041379 32.8045714,36.5103448 C32.1352453,35.8413793 31.4666092,35.1731034 30.797283,34.5048276 C31.4038167,35.1110345 33.511159,32.6903448 34.1356334,31.9531034 C38.1295094,27.2358621 38.0384259,19.5006897 33.972097,14.8572414 C24.3110296,3.82551724 6.61045822,13.4482759 10.4345876,27.542069 C10.9590081,29.4724138 12.1065229,31.1655172 13.3816927,32.6717241 C14.0234178,33.4289655 14.8169488,34.0262069 15.5980593,34.6255172 C15.923062,34.8744828 16.5737574,34.0427586 15.6449811,34.9710345 C13.6218221,36.9931034 11.5993531,39.0144828 9.57619407,41.0365517 C9.1007655,41.5089655 9.8328841,42.24 10.3055526,41.7675862 L10.3055526,41.7675862 Z"/>
      </g>
      <g fill="#000000" transform="translate(71.073 330.345)">
        <polygon points="50.768 29.082 50.769 29.081 45.996 11.828 33.501 1.164 18.057 1.164 5.562 11.828 .789 29.081 .79 29.082"/>
        <path d="M51.2151806,29.3434483 C51.4994717,28.7758621 50.893628,27.5924138 50.7473423,27.0634483 C50.0338544,24.4841379 49.3203666,21.9041379 48.6061887,19.3234483 C47.9354825,16.9006897 47.7215741,12.6234483 45.7053154,10.902069 C42.0674933,7.79793103 38.4303612,4.69310345 34.7925391,1.58827586 C32.6493154,-0.240689655 29.1460485,0.646896552 26.4590836,0.646896552 L19.3297251,0.646896552 C18.3843881,0.646896552 17.9662318,0.562758621 17.2617143,1.16413793 C13.6508032,4.2462069 10.0398922,7.32827586 6.42898113,10.4096552 C4.20985445,12.3034483 4.07874933,15.2475862 3.31143935,18.0193103 C2.61244205,20.5462069 1.91344474,23.0731034 1.21444744,25.6 C0.977078167,26.4572414 0.0372614555,28.3013793 0.289811321,29.217931 C0.304301887,29.2606897 0.322242588,29.302069 0.342253369,29.3427586 C0.422296496,29.502069 0.615504043,29.5986207 0.788700809,29.5986207 L50.7673531,29.5986207 C51.4352992,29.5986207 51.4352992,28.5641379 50.7673531,28.5641379 L1.75473854,28.5641379 C0.31258221,28.5641379 1.29656065,29.1841379 1.42766577,28.7110345 C2.02384906,26.5544828 2.62072237,24.397931 3.21690566,22.2413793 C3.90417251,19.7565517 4.59212938,17.2717241 5.27939623,14.7862069 C5.62026954,13.5544828 5.8189973,12.2855172 6.35514825,11.8275862 C9.9660593,8.74551724 13.5769704,5.66344828 17.1878814,2.58206897 C18.5141132,1.45034483 17.8020054,1.68068966 19.329035,1.68068966 L27.1346199,1.68068966 L32.9094555,1.68068966 C33.5691213,1.68068966 33.2965606,1.66689655 33.2461887,1.62413793 C33.7347278,2.04068966 34.2232668,2.45793103 34.7118059,2.87448276 C38.042566,5.71724138 41.3733261,8.56 44.7040863,11.4027586 C45.6756442,12.2317241 45.4686361,11.8648276 45.8005391,13.0641379 C46.3422102,15.0227586 46.8838814,16.982069 47.4255526,18.9406897 C48.0652075,21.2517241 48.7048625,23.5627586 49.3431375,25.8737931 C49.5508356,26.622069 49.7571536,27.3696552 49.9641617,28.117931 C50.1152776,28.6655172 50.0407547,29.3758621 50.3202156,28.8193103 C50.023504,29.4158621 50.9163989,29.94 51.2151806,29.3434483 L51.2151806,29.3434483 Z"/>
      </g>
      <g fill="#000000" transform="translate(137.315 330.345)">
        <polygon points="50.694 29.082 50.694 29.081 45.922 11.828 33.427 1.164 17.983 1.164 5.488 11.828 .716 29.081 .716 29.082"/>
        <path d="M51.2117305,29.082069 C51.2117305,28.1489655 50.6576388,27.0075862 50.4126792,26.1227586 C49.7254124,23.6372414 49.0381456,21.1524138 48.3508787,18.6675862 C47.6387709,16.0910345 47.4779946,12.477931 45.363062,10.6724138 C41.7252399,7.56758621 38.0874178,4.46275862 34.4502857,1.35793103 C32.4416173,-0.355862069 28.1696604,0.646896552 25.7055741,0.646896552 C23.5409596,0.646896552 18.9640108,-0.351724138 17.1885714,1.16413793 C13.5783504,4.2462069 9.96674933,7.32827586 6.35583827,10.4096552 C4.13671159,12.3034483 4.0062965,15.2475862 3.23898652,18.0193103 C2.53929919,20.5462069 1.84099191,23.0731034 1.14199461,25.6 C0.854253369,26.6386207 0.198727763,27.9875862 0.198727763,29.0813793 C0.198727763,29.3634483 0.434026954,29.5986207 0.716247978,29.5986207 L50.6949003,29.5986207 C51.3628464,29.5986207 51.3628464,28.5641379 50.6949003,28.5641379 L1.68228571,28.5641379 C0.24012938,28.5641379 1.22479784,29.1841379 1.35590296,28.7110345 C1.95208625,26.5544828 2.54895957,24.397931 3.14514286,22.2413793 C3.8324097,19.7565517 4.51967655,17.2717241 5.2069434,14.7862069 C5.54781671,13.5544828 5.74654447,12.2855172 6.28338544,11.8275862 C9.89360647,8.74551724 13.5052075,5.66344828 17.1161186,2.58206897 C18.4416604,1.45034483 17.7302426,1.68068966 19.2565822,1.68068966 L27.0628571,1.68068966 L32.8376927,1.68068966 C33.4973585,1.68068966 33.2247978,1.66689655 33.1737358,1.62413793 C33.6622749,2.04068966 34.150814,2.45793103 34.6393531,2.87448276 C37.9701132,5.71724138 41.3008733,8.56 44.6309434,11.4027586 C45.6025013,12.2317241 45.3961833,11.8648276 45.7280863,13.0641379 C46.2697574,15.0227586 46.8114286,16.982069 47.3530997,18.9406897 C47.9927547,21.2517241 48.6317197,23.5627586 49.2706846,25.8737931 C49.5039137,26.7165517 50.17669,28.557931 50.17669,29.08 C50.17669,29.7496552 51.2117305,29.7496552 51.2117305,29.082069 L51.2117305,29.082069 Z"/>
      </g>
      <g transform="translate(60.032 203.448)">
        <path fill="#00FFFF" d="M134.275795,1.02137931 C125.888518,30.0303448 117.49986,59.04 109.112582,88.0496552 C108.741348,89.3337931 110.738286,89.8786207 111.10883,88.5993103 C119.496108,59.5903448 127.884765,30.5806897 136.272043,1.57103448 C136.642588,0.286896552 134.64565,-0.257931034 134.275795,1.02137931 L134.275795,1.02137931 L134.275795,1.02137931 Z"/>
        <path fill="#12FFED" d="M124.729962,1.02137931 C117.540571,30.0303448 110.350491,59.04 103.1611,88.0496552 C102.839547,89.3448276 104.836485,89.8944828 105.157348,88.5993103 C112.346739,59.5903448 119.536819,30.5806897 126.72621,1.57103448 C127.047073,0.275862069 125.050825,-0.273103448 124.729962,1.02137931 L124.729962,1.02137931 L124.729962,1.02137931 Z"/>
        <path fill="#24FFDB" d="M115.183439,1.02137931 C109.191935,30.0303448 103.201121,59.04 97.2096173,88.0496552 C96.9405067,89.3517241 98.9360647,89.9055172 99.2058652,88.5993103 C105.197369,59.5903448 111.188183,30.5806897 117.179687,1.57103448 C117.448108,0.269655172 115.45255,-0.284827586 115.183439,1.02137931 L115.183439,1.02137931 L115.183439,1.02137931 Z"/>
        <path fill="#37FFC8" d="M105.637606,1.02137931 C100.844679,30.0303448 96.051752,59.04 91.2588248,88.0496552 C91.0428464,89.3544828 93.0377143,89.9131034 93.2550728,88.5993103 C98.048,59.5903448 102.840927,30.5806897 107.633854,1.57103448 C107.849143,0.266896552 105.854275,-0.292413793 105.637606,1.02137931 L105.637606,1.02137931 L105.637606,1.02137931 Z"/>
        <path fill="#49FFB6" d="M96.0545121,1.29655172 C92.4594717,30.3055172 88.8651213,59.3158621 85.2700809,88.3248276 C85.1065445,89.6468966 87.1786954,89.6310345 87.3401617,88.3248276 C90.9352022,59.3158621 94.5295526,30.3055172 98.124593,1.29655172 C98.2881294,-0.0255172414 96.2159784,-0.00965517241 96.0545121,1.29655172 L96.0545121,1.29655172 L96.0545121,1.29655172 Z"/>
        <path fill="#5BFFA4" d="M86.5079892,1.29655172 C84.1115256,30.3055172 81.715062,59.3158621 79.3185984,88.3248276 C79.2088841,89.6558621 81.279655,89.6448276 81.3886792,88.3248276 C83.7851429,59.3158621 86.1816065,30.3055172 88.5780701,1.29655172 C88.6877844,-0.0344827586 86.6170135,-0.0234482759 86.5079892,1.29655172 L86.5079892,1.29655172 L86.5079892,1.29655172 Z"/>
        <path fill="#6DFF92" d="M76.9621563,1.29655172 C75.7642695,30.3055172 74.5650027,59.3158621 73.3671159,88.3248276 C73.3119137,89.66 75.3826846,89.6544828 75.4371968,88.3248276 C76.6350836,59.3158621 77.8343504,30.3055172 79.0322372,1.29655172 C79.0874394,-0.0386206897 77.0173585,-0.0331034483 76.9621563,1.29655172 L76.9621563,1.29655172 L76.9621563,1.29655172 Z"/>
        <path fill="#80FF7F" d="M67.4156334,1.29655172 L67.4156334,88.3248276 C67.4156334,89.6593103 69.4857143,89.6593103 69.4857143,88.3248276 L69.4857143,1.29655172 C69.4857143,-0.0379310345 67.4156334,-0.0379310345 67.4156334,1.29655172 L67.4156334,1.29655172 L67.4156334,1.29655172 Z"/>
        <path fill="#92FF6D" d="M57.8698005,1.29655172 C59.0676873,30.3055172 60.2662642,59.3158621 61.4641509,88.3248276 C61.5193531,89.6544828 63.589434,89.66 63.5342318,88.3248276 C62.336345,59.3158621 61.1377682,30.3055172 59.9398814,1.29655172 C59.8846792,-0.0331034483 57.8145984,-0.0386206897 57.8698005,1.29655172 L57.8698005,1.29655172 L57.8698005,1.29655172 Z"/>
        <path fill="#A4FF5B" d="M48.3239677,1.29655172 C50.7204313,30.3055172 53.1168949,59.3158621 55.5133585,88.3248276 C55.6223827,89.6448276 57.6931536,89.6558621 57.5834394,88.3248276 C55.1869757,59.3158621 52.7905121,30.3055172 50.3940485,1.29655172 C50.2850243,-0.0234482759 48.2142534,-0.0344827586 48.3239677,1.29655172 L48.3239677,1.29655172 L48.3239677,1.29655172 Z"/>
        <path fill="#B6FF49" d="M38.7781348,1.29655172 C42.3724852,30.3055172 45.9675256,59.3158621 49.561876,88.3248276 C49.7233423,89.6310345 51.7954933,89.6468966 51.6319569,88.3248276 C48.0376065,59.3158621 44.442566,30.3055172 40.8482156,1.29655172 C40.6860593,-0.00965517241 38.6139084,-0.0255172414 38.7781348,1.29655172 L38.7781348,1.29655172 L38.7781348,1.29655172 Z"/>
        <path fill="#C8FF37" d="M29.2688733,1.57103448 C34.0618005,30.5806897 38.8547278,59.5903448 43.647655,88.5993103 C43.8643235,89.9131034 45.8591914,89.3544828 45.643903,88.0496552 C40.8509757,59.04 36.0580485,30.0303448 31.2651213,1.02137931 C31.0477628,-0.292413793 29.0528949,0.266896552 29.2688733,1.57103448 L29.2688733,1.57103448 L29.2688733,1.57103448 Z"/>
        <path fill="#DBFF24" d="M19.7230404,1.57103448 C25.7145445,30.5806897 31.7053585,59.5903448 37.6968625,88.5993103 C37.9666631,89.9062069 39.961531,89.3517241 39.6931105,88.0496552 C33.7016065,59.04 27.7107925,30.0303448 21.7192884,1.02137931 C21.4487978,-0.284827586 19.4539299,0.269655172 19.7230404,1.57103448 L19.7230404,1.57103448 L19.7230404,1.57103448 Z"/>
        <path fill="#EDFF12" d="M10.1772075,1.57103448 C17.3665984,30.5806897 24.5559892,59.5903448 31.7453801,88.5993103 C32.0662426,89.8944828 34.0624906,89.3448276 33.741628,88.0496552 C26.5522372,59.04 19.3628464,30.0303448 12.1734555,1.02137931 C11.851903,-0.273103448 9.85565499,0.275862069 10.1772075,1.57103448 L10.1772075,1.57103448 L10.1772075,1.57103448 Z"/>
        <path fill="#FFFF00" d="M0.630684636,1.57103448 C9.01796226,30.5806897 17.4059299,59.5903448 25.7938976,88.5993103 C26.163752,89.8786207 28.1613801,89.3337931 27.7901456,88.0496552 C19.4028679,59.04 11.0149003,30.0303448 2.62693261,1.02137931 C2.25707817,-0.257931034 0.258760108,0.286896552 0.630684636,1.57103448 L0.630684636,1.57103448 L0.630684636,1.57103448 Z"/>
      </g>
      <rect width="84.141" height="51.034" x="66.85" y="141.297" fill="#8F8F8F" stroke="#333333" stroke-width=".5"/>
      <rect width="79.199" height="44.709" x="69.32" y="144.459" fill="url(#g)"/>
      <ellipse cx="177.133" cy="154.055" fill="#42210B" stroke="#333333" stroke-width=".5" rx="12.765" ry="12.759"/>
      <ellipse cx="177.133" cy="154.055" fill="#FF0000" stroke="#333333" stroke-width=".5" rx="11.202" ry="11.196"/>
      <g transform="translate(158.706 169.655)">
        <rect width="37.377" height="20.181" x="1.119" y="1.007" fill="#F7931E"/>
        <path fill="#000000" d="M38.4959137,20.6710345 L13.7529272,20.6710345 L1.88998383,20.6710345 C0.730048518,20.6710345 1.63674394,21.5655172 1.63674394,20.1648276 L1.63674394,13.1489655 L1.63674394,5.25172414 L1.63674394,2.37793103 L1.63674394,1.47793103 C1.63674394,0.64137931 1.72851752,1.52482759 1.13578437,1.52482759 L10.008841,1.52482759 L37.9252615,1.52482759 C38.8850889,1.52482759 37.9783935,1.63241379 37.9783935,1.03793103 L37.9783935,2.37724138 L37.9783935,9.0462069 L37.9783935,21.1875862 C37.9783935,21.8551724 39.013434,21.8551724 39.013434,21.1875862 L39.013434,1.00689655 C39.013434,0.724827586 38.7781348,0.489655172 38.4959137,0.489655172 L1.11853369,0.489655172 C0.836312668,0.489655172 0.601013477,0.724827586 0.601013477,1.00689655 L0.601013477,21.1875862 C0.601013477,21.4696552 0.836312668,21.7048276 1.11853369,21.7048276 L38.4959137,21.7048276 C39.1638598,21.7055172 39.1638598,20.6710345 38.4959137,20.6710345 L38.4959137,20.6710345 Z"/>
      </g>
      <rect width="14.113" height="10.908" x="163.02" y="175.299" fill="#00FF1E"/>
      <ellipse cx="188.01" cy="180.062" fill="url(#h)" rx="6.938" ry="6.934"/>
    </g>
    <g transform="translate(471 189)">
      <g transform="translate(0 134.085)">
        <path fill="#B97990" d="M76.5785172,10.9090149 C61.0336552,13.2055458 44.3873793,20.130118 28.6582759,31.6786953 C27.2085517,28.8789994 25.7655517,26.1156283 24.3346552,23.3899273 C39.8781724,10.9870458 56.5244483,3.21086026 72.2548966,0.0600252083 C73.7046207,3.638685 75.1462759,7.25770562 76.5785172,10.9090149 L76.5785172,10.9090149 Z"/>
        <polygon fill="#B97990" stroke="#B97990" stroke-width="2.238" points=".371 25.525 .087 30.337 18.563 31.42 10.121 47.889 14.408 50.089 23.3 32.732 19.832 26.669"/>
        <ellipse cx="24.243" cy="28.181" fill="#BB97A1" rx="6.754" ry="6.756"/>
      </g>
      <g transform="translate(59.172 213.912)">
        <rect width="10.036" height="27.501" x="26.956" y=".696" fill="#5C4B36"/>
        <path fill="#978353" d="M42.081,27.8530052 C42.081,33.6313299 37.401,38.3078041 31.629,38.3078041 C25.8516207,38.3078041 21.1702759,33.6313299 21.1702759,27.8530052 C21.1702759,22.0787165 25.8516207,17.3982062 31.629,17.3982062 C37.401,17.3982062 42.081,22.0787165 42.081,27.8530052 L42.081,27.8530052 Z"/>
        <path fill="#5C4B36" d="M52.0152414,41.4478763 C52.0381034,41.2258918 52.0918966,41.0052526 52.0918966,40.7751959 C52.0918966,32.9182887 47.2343793,26.5506959 30.5491034,26.5506959 C13.8557586,26.5506959 0.332172414,32.9182887 0.332172414,40.7751959 C0.332172414,41.0052526 0.383275862,41.2258918 0.403448276,41.4478763 L52.0152414,41.4478763 L52.0152414,41.4478763 Z"/>
        <rect width="51.612" height="4.543" x=".403" y="41.448" fill="#978353"/>
      </g>
      <g transform="translate(121.929 212.115)">
        <polygon fill="#322B29" points="14.564 .298 25.888 17.059 14.589 41.2 5.748 40.321 13.862 19.069 6.335 3.512"/>
        <path fill="#817D7C" d="M40.8758494,43.2447623 C40.8933322,43.0227778 40.9309873,42.8021386 40.9309873,42.5720819 C40.9309873,39.458917 41.0493322,32.9352623 36.8117804,30.5916438 C30.3606425,27.0277829 16.4188149,28.3475819 16.4188149,28.3475819 L9.0074701,36.5166128 C9.0074701,36.5166128 3.20722873,35.2143036 2.34384941,36.3982211 C0.98691838,38.2669273 0.229780449,40.3616541 0.229780449,42.5720819 C0.229780449,42.8021386 0.258021829,43.0227778 0.27415976,43.2447623 L40.8758494,43.2447623 L40.8758494,43.2447623 Z"/>
        <rect width="40.401" height="4.543" x=".475" y="43.245" fill="#322B29"/>
        <polygon fill="#817D7C" points="24.414 13.029 28.526 17.143 25.379 20.296 12.239 20.702 12.087 18.968"/>
      </g>
      <g transform="translate(158.24 137.227)">
        <path fill="#849AA5" d="M33.9378839 40.4845979C33.9378839 43.6058351 31.4136425 46.1256959 28.3017115 46.1256959 25.1884356 46.1256959 22.6668839 43.6058351 22.6668839 40.4845979 22.6668839 37.3727784 25.1884356 34.8502268 28.3017115 34.8502268 31.4136425 34.8488814 33.9378839 37.371433 33.9378839 40.4845979L33.9378839 40.4845979zM25.4358839 70.4821082C25.4358839 73.0046598 23.3944356 75.0536443 20.8648149 75.0536443 18.3486425 75.0536443 16.3045046 73.0046598 16.3045046 70.4821082 16.3045046 67.9582113 18.3486425 65.9119175 20.8648149 65.9119175 23.3957804 65.9105722 25.4358839 67.9582113 25.4358839 70.4821082L25.4358839 70.4821082zM25.9536425 16.0084485C25.9536425 23.0662113 20.2354356 28.7907216 13.1845046 28.7907216 6.1308839 28.7907216.415366656 23.0662113.415366656 16.0084485.415366656 8.93992268 6.1308839 3.22213918 13.1845046 3.22213918 20.2354356 3.22348454 25.9536425 8.94126804 25.9536425 16.0084485L25.9536425 16.0084485z"/>
        <polygon fill="#3F4B57" points="36.591 38.041 19.837 38.138 19.56 .631 36.31 4.872"/>
        <polygon fill="#3F4B57" points="20.417 40.939 36.494 45.645 27.532 71.343 15.44 66.924"/>
        <g transform="translate(5.38 68.613)">
          <polygon fill="#849AA5" points="6.542 2.225 1.549 3.575 .012 9.088 3.336 12.851"/>
          <polygon fill="#3F4B57" points="17.226 18.527 5.671 16.968 .694 13.425 4.818 2.691 8.772 .305 20.978 6.069"/>
        </g>
      </g>
      <polygon fill="#978353" points="146.66 218.731 120.4 218.731 118.233 200.164 148.821 200.164"/>
      <g transform="translate(64.552 117.046)">
        <polygon fill="#978353" points="41.483 101.685 15.211 101.685 13.043 83.118 43.646 83.118"/>
        <path fill="#5C4B36" d="M89.5924138,89.8095619 C89.4700345,91.2208454 88.2139655,92.2729175 86.8018966,92.1491443 L3.12134483,84.7698402 C1.71062069,84.6433763 0.65762069,83.3881546 0.781344828,81.9768711 L7.78117241,2.53196907 C7.90489655,1.12068557 9.15962069,0.0659226804 10.5716897,0.192386598 L94.2508966,7.57169072 C95.6629655,7.69546392 96.7173103,8.95068557 96.5908966,10.3646598 L89.5924138,89.8095619 L89.5924138,89.8095619 Z"/>
        <path fill="#64522C" d="M102.069724,75.0953505 C101.946,76.5093247 100.691276,77.5613969 99.2792069,77.434933 L39.156,72.1315206 C37.7452759,72.0050567 36.6936207,70.7498351 36.816,69.3385515 L41.7447931,13.456299 C41.8698621,12.0423247 43.125931,10.9902526 44.5366552,11.1153711 L104.655828,16.4174381 C106.067897,16.5425567 107.120897,17.7977784 106.995828,19.2090619 L102.069724,75.0953505 L102.069724,75.0953505 Z"/>
      </g>
      <g fill="#CF9D25" transform="translate(118.345 100.902)">
        <rect width="26.677" height="3.202" x="5.19" y="7.589"/>
        <rect width="26.674" height="3.203" x="5.19" y="15.221" transform="rotate(6.603 18.527 16.823)"/>
        <rect width="26.677" height="3.197" x=".567" y="1.264" transform="rotate(-3.916 13.905 2.862)"/>
      </g>
      <g fill="#C0D72F" transform="translate(96.377 125.119)">
        <polygon points="12.162 .309 29.094 2.192 18.182 13.101"/>
        <g transform="translate(0 15.693)">
          <polygon points="22.933 5.456 10.038 3.397 10.726 .147 23.284 2.147"/>
          <polygon points="22.168 12.612 8.535 10.437 9.306 6.815 22.559 8.933"/>
          <polygon points="21.313 20.651 6.853 18.341 7.719 14.274 21.752 16.515"/>
          <polygon points="20.346 29.731 4.942 27.275 5.926 22.667 20.846 25.049"/>
          <polygon points="19.25 40.07 2.777 37.448 3.897 32.194 19.82 34.726"/>
          <polygon points="17.984 51.956 .28 49.132 1.573 43.077 18.635 45.796"/>
        </g>
      </g>
      <g transform="translate(60.517)">
        <rect width="13.203" height="10.015" x="103.366" y="71.137" fill="#322B29" transform="rotate(-2.883 109.967 76.145)"/>
        <rect width="13.207" height="10.012" x="10.232" y="75.802" fill="#322B29" transform="rotate(-2.883 16.835 80.808)"/>
        <g fill="#322B29" transform="translate(75.31)">
          <rect width="3.155" height="34.691" x="9.355" y=".161"/>
          <rect width="20.549" height="2.439" x=".66" y="5.976"/>
          <rect width="16.358" height="2.432" x="2.754" y="10.704"/>
          <rect width="13.019" height="2.432" x="4.429" y="15.429"/>
        </g>
        <g fill="#BDB69A" transform="translate(0 22.42)">
          <polygon points="31.43 17.25 29.983 20.06 .23 4.602 2.929 3.605"/>
          <rect width="16.368" height="2.436" x="2.113" y="6.937" transform="rotate(-62.741 10.297 8.155)"/>
          <polygon points="18.592 5.077 12.619 16.667 10.459 15.548 16.427 3.966"/>
        </g>
        <path fill="#959494" d="M109.107207,93.2052526 C109.244379,94.6138454 108.199448,95.8771392 106.788724,96.014366 L23.1713793,104.02599 C21.7606552,104.161871 20.4951724,103.116526 20.3620345,101.705242 L15.4924138,50.9326701 C15.3606207,49.5213866 16.1043103,47.584067 17.1478966,46.6302062 L28.3180345,36.4108454 C29.3616207,35.4569845 31.3707931,34.5650103 32.7815172,34.4277835 L100.277069,27.960634 C101.686448,27.8234072 102.950586,28.8687526 103.087759,30.2800361 L109.107207,93.2052526 L109.107207,93.2052526 Z"/>
        <path fill="#960B18" d="M91.2411724,57.9769794 C91.2411724,65.6912784 84.9917586,71.9512423 77.2791724,71.9512423 C69.5746552,71.9512423 63.3144828,65.6926237 63.3144828,57.9769794 C63.3144828,50.2599897 69.5733103,44.0040619 77.2791724,44.0040619 C84.9904138,44.0040619 91.2411724,50.2586443 91.2411724,57.9769794 L91.2411724,57.9769794 Z"/>
        <path fill="#4E0000" d="M83.5245517,57.9769794 C83.5245517,61.4264845 80.73,64.2302165 77.2778276,64.2302165 C73.8323793,64.2302165 71.0297586,61.4264845 71.0297586,57.9769794 C71.0297586,54.5247835 73.8323793,51.7250876 77.2778276,51.7250876 C80.73,51.7237423 83.5245517,54.5234381 83.5245517,57.9769794 L83.5245517,57.9769794 Z"/>
        <path fill="#7DB6D1" d="M49.998,59.6358093 C49.998,64.3822423 46.1464138,68.2313196 41.4005172,68.2313196 C36.6505862,68.2313196 32.8057241,64.3835876 32.8057241,59.6358093 C32.8057241,54.8853402 36.6505862,51.0389536 41.4005172,51.0389536 C46.1464138,51.040299 49.998,54.8853402 49.998,59.6358093 L49.998,59.6358093 Z"/>
        <ellipse cx="41.401" cy="59.636" fill="#4A6EA3" rx="6.953" ry="6.956"/>
        <path fill="#ACC6D4" d="M78.1048966,85.1411598 C67.7658621,92.4599227 55.5790345,94.6474794 45.1445172,91.7065206 C44.8621034,89.9696598 44.5810345,88.2274175 44.2999655,86.4824845 C54.6376552,89.7005876 66.8231379,87.7915206 77.2576552,80.7499021 C77.5414138,82.2190361 77.8224828,83.6814433 78.1048966,85.1411598 L78.1048966,85.1411598 Z"/>
        <polygon fill="#3F4B57" points="58.114 66.424 52.482 72.055 57.361 74.298 51.717 79.943 63.758 78.062"/>
        <g fill="#5C5857" transform="translate(20.172 52.47)">
          <path d="M6.32741379 2.79027835C6.51972414 4.47332474 5.31475862 5.98820103 3.63506897 6.18193299 1.95672414 6.37162887.439758621 5.16618557.250137931 3.48852062.0578275862 1.80951031 1.25875862.297324742 2.9397931.104938144 4.61948276-.0901391753 6.13644828 1.11126804 6.32741379 2.79027835L6.32741379 2.79027835zM7.40462069 12.2454742C7.59693103 13.9258299 6.396 15.4420515 4.71496552 15.6317474 3.03527586 15.824134 1.521 14.6186907 1.32868966 12.9437165 1.13637931 11.2593247 2.34134483 9.74444845 4.01834483 9.55475258 5.69937931 9.36371134 7.21365517 10.5651186 7.40462069 12.2454742L7.40462069 12.2454742z"/>
          <ellipse cx="5.444" cy="22.045" rx="3.059" ry="3.061"/>
          <path d="M9.56441379 31.1477938C9.75537931 32.8294948 8.55041379 34.3470619 6.86937931 34.534067 5.19506897 34.7304897 3.67272414 33.5183196 3.48310345 31.8433454 3.29348276 30.1656804 4.49844828 28.6521495 6.17813793 28.4570722 7.85648276 28.2687216 9.3747931 29.4701289 9.56441379 31.1477938L9.56441379 31.1477938zM10.6429655 40.6029897C10.8366207 42.2954536 9.62762069 43.8210928 7.94793103 44.0054072 6.27362069 44.2018299 4.758 42.9923505 4.56703448 41.2971959 4.37472414 39.6195309 5.58103448 38.1046546 7.25668966 37.908232 8.93503448 37.7198814 10.452 38.922634 10.6429655 40.6029897L10.6429655 40.6029897z"/>
        </g>
      </g>
      <g transform="translate(123.274 139.466)">
        <polygon fill="#BDA468" points="35.471 44.2 .335 41.103 3.924 .258 39.058 3.356"/>
        <path fill="#AD182B" d="M13.3700908,9.09950459 C13.1939184,11.1000561 11.4321942,12.5732262 9.43109079,12.3996747 C7.43133217,12.2220871 5.95336666,10.4650458 6.1308839,8.4604582 C6.30705631,6.45856129 8.0714701,4.98539119 10.0698839,5.16297882 C12.0682977,5.33383964 13.547608,7.09626232 13.3700908,9.09950459 L13.3700908,9.09950459 Z"/>
        <path fill="#AAC9E9" d="M23.3500563,9.97802521 C23.1711942,11.9812675 21.4108149,13.4571283 19.4124011,13.2781953 C17.4207115,13.101953 15.9373667,11.338185 16.1175736,9.34166954 C16.2910563,7.33708191 18.0514356,5.85987572 20.0498494,6.03611799 C22.0482632,6.21236026 23.5235391,7.9761283 23.3500563,9.97802521 L23.3500563,9.97802521 Z"/>
        <path fill="#38834B" d="M33.3246425,10.8565458 C33.1484701,12.8517159 31.3921253,14.3329582 29.3923667,14.1567159 C27.3939529,13.9804737 25.918677,12.2193963 26.0961942,10.2201902 C26.269677,8.21963861 28.0287115,6.74108706 30.0257804,6.91463861 C32.0268839,7.09491696 33.5021598,8.85599428 33.3246425,10.8565458 L33.3246425,10.8565458 Z"/>
        <path fill="#AFD136" d="M30.7371942 33.3550149C30.6054011 34.1945201 29.8173322 34.760917 28.9889184 34.6290716 28.1484011 34.4985716 27.5755046 33.7128809 27.7099873 32.8733757 27.8444701 32.039252 28.6271598 31.4674737 29.467677 31.6020097 30.2934011 31.729819 30.8676425 32.512819 30.7371942 33.3550149L30.7371942 33.3550149zM26.3517115 33.0549994C26.2172287 33.8891231 25.4372287 34.4582108 24.6047804 34.3263654 23.7669529 34.1931747 23.196746 33.4101747 23.3298839 32.5679788 23.4603322 31.7378912 24.241677 31.1620768 25.0795046 31.3019943 25.9119529 31.4284582 26.4794701 32.2168396 26.3517115 33.0549994L26.3517115 33.0549994zM21.9675736 32.7509479C21.8344356 33.5877623 21.0504011 34.15685 20.2179529 34.02635 19.3841598 33.8891231 18.812608 33.1088139 18.9417115 32.2746902 19.0775391 31.4338396 19.8602287 30.8634067 20.6967115 30.9925613 21.5345391 31.1297881 22.1034011 31.9127881 21.9675736 32.7509479L21.9675736 32.7509479zM17.5861253 32.4468963C17.455677 33.2850561 16.6649184 33.8541438 15.8338149 33.7182623 14.9973322 33.5891077 14.4284701 32.8087984 14.5575736 31.9733293 14.6880218 31.1311335 15.4734011 30.5593551 16.3125736 30.6925458 17.143677 30.8243912 17.7152287 31.6154634 17.5861253 32.4468963L17.5861253 32.4468963z"/>
        <g transform="translate(13.448 14.799)">
          <rect width="17.251" height="1.14" x="2.345" y=".969" fill="#64522C" transform="rotate(5.025 10.97 1.539)"/>
          <rect width="17.25" height="1.148" x="2.088" y="3.949" fill="#64522C" transform="rotate(5.025 10.713 4.522)"/>
          <rect width="17.251" height="1.142" x="1.783" y="6.958" fill="#64522C" transform="rotate(5.02 10.409 7.529)"/>
          <rect width="17.251" height="1.15" x="1.523" y="9.941" fill="#64522C" transform="rotate(5.02 10.148 10.516)"/>
          <rect width="17.251" height="1.142" x="1.233" y="12.903" fill="#64522C" transform="rotate(5.054 9.86 13.474)"/>
          <rect width="17.251" height="1.141" x=".206" y="22.083" fill="#AD182B" transform="rotate(5.025 8.832 22.653)"/>
        </g>
        <g fill="#FFF229" transform="translate(5.83 14.799)">
          <rect width="3.783" height="3.789" x="2.343" y=".342" transform="rotate(5.02 4.235 2.236)"/>
          <rect width="3.787" height="3.788" x="1.72" y="6.995" transform="rotate(5.054 3.613 8.89)"/>
          <rect width="3.784" height="3.79" x="1.168" y="13.639" transform="rotate(5.054 3.06 15.534)"/>
          <polygon points="4.177 24.283 .405 23.947 .736 20.179 4.509 20.504"/>
        </g>
      </g>
    </g>
    <g transform="translate(302 189)">
      <path fill="#7FC4EC" d="M62.4144512 250.453287C62.4144512 252.704213 60.5908233 254.528565 58.3435163 254.528565L49.6616326 254.528565C47.4143256 254.528565 45.5906977 252.704213 45.5906977 250.453287L45.5906977 241.759676C45.5906977 239.509537 47.4143256 237.685185 49.6616326 237.685185L58.3435163 237.685185C60.5908233 237.685185 62.4144512 239.509537 62.4144512 241.759676L62.4144512 250.453287M108.003577 250.453287C108.003577 252.704213 106.181521 254.528565 103.934214 254.528565L95.2507581 254.528565C93.0034512 254.528565 91.1813953 252.704213 91.1813953 250.453287L91.1813953 241.759676C91.1813953 239.509537 93.0034512 237.685185 95.2507581 237.685185L103.934214 237.685185C106.181521 237.685185 108.003577 239.509537 108.003577 241.759676L108.003577 250.453287"/>
      <polyline fill="#231F1F" points="91.637 138.608 66.948 138.987 66.814 130.24 91.503 129.861 91.637 138.608"/>
      <g fill="#231F1F" transform="translate(0 159.769)">
        <path d="M29.5547784,17.8951527 C29.0972993,19.2929305 27.5943784,20.0524212 26.1991458,19.5935786 C24.8031272,19.1370971 24.0430202,17.6314953 24.5004993,16.2337175 L28.7003458,3.40737491 C29.1578249,2.01195824 30.6607458,1.25089342 32.0559784,1.70580083 C33.451997,2.1662175 34.213676,3.6686712 33.7554109,5.06802305 L29.5547784,17.8951527"/>
        <polyline points="9.664 43.191 1.572 20.635 14.073 2.361 30.983 7.973 28.934 14.163 16.676 10.095 8.827 21.568 15.794 40.987 9.664 43.191"/>
        <path d="M20.8286605 5.70523148C20.8286605 8.85652778 18.2779395 11.410463 15.1306093 11.410463 11.9832791 11.410463 9.43255814 8.85652778 9.43255814 5.70523148 9.43255814 2.55314815 11.9832791 0 15.1306093 0 18.2779395 0 20.8286605 2.55314815 20.8286605 5.70523148M10.9897163 21.2421296C10.9897163 24.2808796 8.5293907 26.7435185 5.49446512 26.7435185 2.46032558 26.7435185 0 24.2808796 0 21.2421296 0 18.2033796 2.46032558 15.7407407 5.49446512 15.7407407 8.5293907 15.7407407 10.9897163 18.2033796 10.9897163 21.2421296M23.9324476 44.4938943C23.9120104 44.4254221 23.9104383 44.3553758 23.8876429 44.2837554 22.2707453 39.3317184 16.9484243 36.6282462 12.0002615 38.2471813 7.05288479 39.8684776 4.35438711 45.1959313 5.97128479 50.1495425 5.99408014 50.2211628 6.03416851 50.2786165 6.0577499 50.3455147L23.9324476 44.4938943"/>
      </g>
      <g fill="#231F1F" transform="translate(118.693 159.769)">
        <path d="M4.33361042,17.8951527 C4.79030344,19.2929305 6.29401042,20.0524212 7.69002903,19.5935786 C9.08526158,19.1370971 9.84694065,17.6314953 9.38867554,16.2337175 L5.18804298,3.40737491 C4.73056391,2.01195824 3.22842903,1.25089342 1.83241042,1.70580083 C0.436391817,2.1662175 -0.324501206,3.6686712 0.132977864,5.06802305 L4.33361042,17.8951527"/>
        <polyline points="24.462 43.191 32.555 20.635 20.054 2.361 3.144 7.973 5.193 14.163 17.451 10.095 25.3 21.568 18.333 40.987 24.462 43.191"/>
        <path d="M12.5767442 5.70523148C12.5767442 8.85652778 15.1282512 11.410463 18.2747953 11.410463 21.4221256 11.410463 23.9728465 8.85652778 23.9728465 5.70523148 23.9728465 2.55314815 21.4221256 0 18.2747953 0 15.1282512 0 12.5767442 2.55314815 12.5767442 5.70523148M23.5813953 21.2421296C23.5813953 24.2808796 26.0417209 26.7435185 29.0766465 26.7435185 32.110786 26.7435185 34.5703256 24.2808796 34.5703256 21.2421296 34.5703256 18.2033796 32.110786 15.7407407 29.0766465 15.7407407 26.0417209 15.7407407 23.5813953 18.2033796 23.5813953 21.2421296M10.2186047 44.4938943C10.2398279 44.4254221 10.242186 44.3553758 10.2649814 44.2837554 11.8826651 39.3317184 17.203414 36.6282462 22.1515767 38.2471813 27.0997395 39.8684776 29.7982372 45.1959313 28.1805535 50.1495425 28.1577581 50.2211628 28.1184558 50.2786165 28.0956605 50.3455147L10.2186047 44.4938943"/>
      </g>
      <g transform="translate(29.87 141.667)">
        <path fill="#7FC4EC" d="M93.3398791,46.729537 C93.3398791,72.5364815 72.4459767,93.458287 46.6699395,93.458287 C20.8946884,93.458287 0,72.5364815 0,46.729537 C0,20.9218056 20.8946884,0 46.6699395,0 C72.4459767,0 93.3398791,20.9218056 93.3398791,46.729537"/>
        <path fill="#231F1F" d="M52.7578698 21.6899537C52.7578698 24.5406019 50.4484651 26.8521296 47.6014047 26.8521296 44.7543442 26.8521296 42.4465116 24.5406019 42.4465116 21.6899537 42.4465116 18.8393056 44.7543442 16.5277778 47.6014047 16.5277778 50.4484651 16.5277778 52.7578698 18.8393056 52.7578698 21.6899537M52.7578698 47.6621759C52.7578698 50.5136111 50.4484651 52.8243519 47.6014047 52.8243519 44.7543442 52.8243519 42.4465116 50.5136111 42.4465116 47.6621759 42.4465116 44.8115278 44.7543442 42.5 47.6014047 42.5 50.4484651 42.5 52.7578698 44.8115278 52.7578698 47.6621759M52.7578698 72.8473611C52.7578698 75.6987963 50.4484651 78.009537 47.6014047 78.009537 44.7543442 78.009537 42.4465116 75.6987963 42.4465116 72.8473611 42.4465116 69.9959259 44.7543442 67.6851852 47.6014047 67.6851852 50.4484651 67.6851852 52.7578698 69.9959259 52.7578698 72.8473611"/>
      </g>
      <g transform="translate(5.502)">
        <polyline fill="#7FC4EC" points="0 41.45 45.585 128.386 104.193 128.386 136.753 56.664 109.621 33.843 0 41.45"/>
        <path fill="#FFFFFF" d="M68.2704977 71.1686111C68.2704977 81.3520833 60.0256558 89.6057407 49.8565721 89.6057407 39.6867023 89.6057407 31.4418605 81.3520833 31.4418605 71.1686111 31.4418605 60.986713 39.6867023 52.7314815 49.8565721 52.7314815 60.0256558 52.7314815 68.2704977 60.986713 68.2704977 71.1686111M103.642591 90.0575C103.642591 100.240972 95.3977488 108.49463 85.2294512 108.49463 75.0580093 108.49463 66.8139535 100.240972 66.8139535 90.0575 66.8139535 79.8756019 75.0580093 71.6203704 85.2294512 71.6203704 95.3977488 71.6203704 103.642591 79.8756019 103.642591 90.0575"/>
        <path fill="#231F1F" d="M55.7511349 71.5928241C55.7511349 75.9231019 52.2445814 79.4348611 47.9189674 79.4348611 43.5941395 79.4348611 40.0883721 75.9231019 40.0883721 71.5928241 40.0883721 67.2617593 43.5941395 63.75 47.9189674 63.75 52.2445814 63.75 55.7511349 67.2617593 55.7511349 71.5928241M93.4829395 89.6946759C93.4829395 94.0249537 89.9756 97.5359259 85.6507721 97.5359259 81.3251581 97.5359259 77.8186047 94.0249537 77.8186047 89.6946759 77.8186047 85.3636111 81.3251581 81.8518519 85.6507721 81.8518519 89.9756 81.8518519 93.4829395 85.3636111 93.4829395 89.6946759"/>
        <polyline fill="#231F1F" points="47.163 103.889 52.861 117.744 65.681 115.911 47.163 103.889"/>
        <g fill="#231F1F" transform="translate(113.977)">
          <path d="M21.5754047,41.3161453 L11.4762791,32.6563767 C8.06090698,29.7262379 2.92409302,30.1236916 0,33.5441545 L22.4620651,52.8053119 C25.3869442,49.386423 24.9892047,44.2415619 21.5754047,41.3161453"/>
          <polyline points="13.363 32.501 38.133 8.657 41.85 10.804 22.931 41.434 13.363 32.501"/>
          <path d="M46.6350019,11.842395 C43.8398205,14.328645 39.5613694,14.074432 37.0798205,11.2757283 C34.5974856,8.47702459 34.8513787,4.19475607 37.645774,1.70850607 C40.4401694,-0.774595783 44.7186205,-0.521956894 47.2001694,2.27674681 C49.6817182,5.07545051 49.4293973,9.35850607 46.6350019,11.842395"/>
        </g>
      </g>
    </g>
    <g transform="translate(692)">
      <use fill="#D8D8D8" stroke="#979797" stroke-width="2" mask="url(#i)" xlink:href="#a"/>
      <ellipse cx="280.71" cy="35.005" fill="#D8D8D8" stroke="#979797" rx="21.823" ry="21.841"/>
      <ellipse cx="324.655" cy="81.978" fill="#D8D8D8" stroke="#979797" rx="18.535" ry="18.55"/>
      <g fill="#000000" filter="url(#j)">
        <path d="M62.2505748 240.67376C58.4685377 240.67376 55.9471796 243.199088 55.9471796 246.98708L55.9471796 256.457061C55.9471796 260.245053 58.4685377 262.770381 62.2505748 262.770381 66.032612 262.770381 68.5539701 260.245053 68.5539701 256.457061L68.5539701 246.98708C68.5539701 243.199088 66.032612 240.67376 62.2505748 240.67376L62.2505748 240.67376zM112.047397 240.67376C108.26536 240.67376 105.744002 243.199088 105.744002 246.98708L105.744002 256.457061C105.744002 260.245053 108.26536 262.770381 112.047397 262.770381 115.829434 262.770381 118.350792 260.245053 118.350792 256.457061L118.350792 246.98708C118.350792 243.199088 115.199095 240.67376 112.047397 240.67376L112.047397 240.67376zM161.21388 240.67376C157.431843 240.67376 154.910485 243.199088 154.910485 246.98708L154.910485 256.457061C154.910485 260.245053 157.431843 262.770381 161.21388 262.770381 164.995917 262.770381 167.517275 260.245053 167.517275 256.457061L167.517275 246.98708C167.517275 243.199088 164.995917 240.67376 161.21388 240.67376L161.21388 240.67376zM62.2505748 279.185015C58.4685377 279.185015 55.9471796 281.710343 55.9471796 285.498335L55.9471796 294.968316C55.9471796 298.756308 58.4685377 301.281636 62.2505748 301.281636 66.032612 301.281636 68.5539701 298.756308 68.5539701 294.968316L68.5539701 285.498335C68.5539701 282.341675 66.032612 279.185015 62.2505748 279.185015L62.2505748 279.185015zM112.047397 279.185015C108.26536 279.185015 105.744002 281.710343 105.744002 285.498335L105.744002 294.968316C105.744002 298.756308 108.26536 301.281636 112.047397 301.281636 115.829434 301.281636 118.350792 298.756308 118.350792 294.968316L118.350792 285.498335C118.350792 282.341675 115.199095 279.185015 112.047397 279.185015L112.047397 279.185015zM161.21388 279.185015C157.431843 279.185015 154.910485 281.710343 154.910485 285.498335L154.910485 294.968316C154.910485 298.756308 157.431843 301.281636 161.21388 301.281636 164.995917 301.281636 167.517275 298.756308 167.517275 294.968316L167.517275 285.498335C167.517275 282.341675 164.995917 279.185015 161.21388 279.185015L161.21388 279.185015zM62.2505748 318.327601C58.4685377 318.327601 55.9471796 320.852929 55.9471796 324.640922L55.9471796 334.110902C55.9471796 337.898894 58.4685377 340.424223 62.2505748 340.424223 66.032612 340.424223 68.5539701 337.898894 68.5539701 334.110902L68.5539701 324.640922C68.5539701 320.852929 66.032612 318.327601 62.2505748 318.327601L62.2505748 318.327601zM112.047397 318.327601C108.26536 318.327601 105.744002 320.852929 105.744002 324.640922L105.744002 334.110902C105.744002 337.898894 108.26536 340.424223 112.047397 340.424223 115.829434 340.424223 118.350792 337.898894 118.350792 334.110902L118.350792 324.640922C118.350792 320.852929 115.199095 318.327601 112.047397 318.327601L112.047397 318.327601zM161.21388 318.327601C157.431843 318.327601 154.910485 320.852929 154.910485 324.640922L154.910485 334.110902C154.910485 337.898894 157.431843 340.424223 161.21388 340.424223 164.995917 340.424223 167.517275 337.898894 167.517275 334.110902L167.517275 324.640922C167.517275 320.852929 164.995917 318.327601 161.21388 318.327601L161.21388 318.327601zM62.2505748 356.838856C58.4685377 356.838856 55.9471796 359.364184 55.9471796 363.152176L55.9471796 372.622157C55.9471796 376.410149 58.4685377 378.935477 62.2505748 378.935477 66.032612 378.935477 68.5539701 376.410149 68.5539701 372.622157L68.5539701 363.152176C68.5539701 359.995516 66.032612 356.838856 62.2505748 356.838856L62.2505748 356.838856zM112.047397 356.838856C108.26536 356.838856 105.744002 359.364184 105.744002 363.152176L105.744002 372.622157C105.744002 376.410149 108.26536 378.935477 112.047397 378.935477 115.829434 378.935477 118.350792 376.410149 118.350792 372.622157L118.350792 363.152176C118.350792 359.995516 115.199095 356.838856 112.047397 356.838856L112.047397 356.838856zM161.21388 356.838856C157.431843 356.838856 154.910485 359.364184 154.910485 363.152176L154.910485 372.622157C154.910485 376.410149 157.431843 378.935477 161.21388 378.935477 164.995917 378.935477 167.517275 376.410149 167.517275 372.622157L167.517275 363.152176C167.517275 359.995516 164.995917 356.838856 161.21388 356.838856L161.21388 356.838856zM62.2505748 395.981442C58.4685377 395.981442 55.9471796 398.506771 55.9471796 402.294763L55.9471796 411.764743C55.9471796 415.552736 58.4685377 418.078064 62.2505748 418.078064 66.032612 418.078064 68.5539701 415.552736 68.5539701 411.764743L68.5539701 402.294763C68.5539701 398.506771 66.032612 395.981442 62.2505748 395.981442L62.2505748 395.981442zM112.047397 395.981442C108.26536 395.981442 105.744002 398.506771 105.744002 402.294763L105.744002 411.764743C105.744002 415.552736 108.26536 418.078064 112.047397 418.078064 115.829434 418.078064 118.350792 415.552736 118.350792 411.764743L118.350792 402.294763C118.350792 398.506771 115.199095 395.981442 112.047397 395.981442L112.047397 395.981442zM161.21388 395.981442C157.431843 395.981442 154.910485 398.506771 154.910485 402.294763L154.910485 411.764743C154.910485 415.552736 157.431843 418.078064 161.21388 418.078064 164.995917 418.078064 167.517275 415.552736 167.517275 411.764743L167.517275 402.294763C167.517275 398.506771 164.995917 395.981442 161.21388 395.981442L161.21388 395.981442zM211.010702 240.67376C207.228665 240.67376 204.707307 243.199088 204.707307 246.98708L204.707307 256.457061C204.707307 260.245053 207.228665 262.770381 211.010702 262.770381 214.792739 262.770381 217.314097 260.245053 217.314097 256.457061L217.314097 246.98708C217.314097 243.199088 214.792739 240.67376 211.010702 240.67376L211.010702 240.67376zM260.807524 240.67376C257.025487 240.67376 254.504129 243.199088 254.504129 246.98708L254.504129 256.457061C254.504129 260.245053 257.025487 262.770381 260.807524 262.770381 264.589562 262.770381 267.11092 260.245053 267.11092 256.457061L267.11092 246.98708C267.11092 243.199088 263.959222 240.67376 260.807524 240.67376L260.807524 240.67376zM211.010702 279.185015C207.228665 279.185015 204.707307 281.710343 204.707307 285.498335L204.707307 294.968316C204.707307 298.756308 207.228665 301.281636 211.010702 301.281636 214.792739 301.281636 217.314097 298.756308 217.314097 294.968316L217.314097 285.498335C217.314097 282.341675 214.792739 279.185015 211.010702 279.185015L211.010702 279.185015zM260.807524 279.185015C257.025487 279.185015 254.504129 281.710343 254.504129 285.498335L254.504129 294.968316C254.504129 298.756308 257.025487 301.281636 260.807524 301.281636 264.589562 301.281636 267.11092 298.756308 267.11092 294.968316L267.11092 285.498335C267.11092 282.341675 263.959222 279.185015 260.807524 279.185015L260.807524 279.185015zM211.010702 318.327601C207.228665 318.327601 204.707307 320.852929 204.707307 324.640922L204.707307 334.110902C204.707307 337.898894 207.228665 340.424223 211.010702 340.424223 214.792739 340.424223 217.314097 337.898894 217.314097 334.110902L217.314097 324.640922C217.314097 320.852929 214.792739 318.327601 211.010702 318.327601L211.010702 318.327601zM260.807524 318.327601C257.025487 318.327601 254.504129 320.852929 254.504129 324.640922L254.504129 334.110902C254.504129 337.898894 257.025487 340.424223 260.807524 340.424223 264.589562 340.424223 267.11092 337.898894 267.11092 334.110902L267.11092 324.640922C267.11092 320.852929 263.959222 318.327601 260.807524 318.327601L260.807524 318.327601zM211.010702 356.838856C207.228665 356.838856 204.707307 359.364184 204.707307 363.152176L204.707307 372.622157C204.707307 376.410149 207.228665 378.935477 211.010702 378.935477 214.792739 378.935477 217.314097 376.410149 217.314097 372.622157L217.314097 363.152176C217.314097 359.995516 214.792739 356.838856 211.010702 356.838856L211.010702 356.838856zM260.807524 356.838856C257.025487 356.838856 254.504129 359.364184 254.504129 363.152176L254.504129 372.622157C254.504129 376.410149 257.025487 378.935477 260.807524 378.935477 264.589562 378.935477 267.11092 376.410149 267.11092 372.622157L267.11092 363.152176C267.11092 359.995516 263.959222 356.838856 260.807524 356.838856L260.807524 356.838856zM211.010702 395.981442C207.228665 395.981442 204.707307 398.506771 204.707307 402.294763L204.707307 411.764743C204.707307 415.552736 207.228665 418.078064 211.010702 418.078064 214.792739 418.078064 217.314097 415.552736 217.314097 411.764743L217.314097 402.294763C217.314097 398.506771 214.792739 395.981442 211.010702 395.981442L211.010702 395.981442zM260.807524 395.981442C257.025487 395.981442 254.504129 398.506771 254.504129 402.294763L254.504129 411.764743C254.504129 415.552736 257.025487 418.078064 260.807524 418.078064 264.589562 418.078064 267.11092 415.552736 267.11092 411.764743L267.11092 402.294763C267.11092 398.506771 263.959222 395.981442 260.807524 395.981442L260.807524 395.981442z"/>
        <path d="M390.657466 430.704705L368.595583 430.704705 355.988792 125.139996C355.988792 121.983336 352.837095 118.826676 349.685397 118.826676L303.040272 118.826676C299.888575 118.826676 296.736877 121.352004 296.736877 125.139996L292.95484 221.102467 205.337646 166.807911C203.446628 165.545247 200.92527 165.545247 199.034251 166.807911 197.143233 168.070575 195.882554 169.964571 195.882554 172.489899L195.882554 212.263818 195.882554 214.157814 116.459774 166.807911C114.568755 165.545247 112.047397 165.545247 110.156379 166.807911 108.26536 168.070575 107.004681 169.964571 107.004681 172.489899L107.004681 213.526482 28.2122406 166.807911C26.3212221 165.545247 23.799864 165.545247 21.9088454 166.807911 20.0178268 168.070575 18.7571478 169.964571 18.7571478 172.489899L18.7571478 431.336037 6.78069685 431.336037C2.99865972 431.336037.477301629 433.861365.477301629 437.649357.477301629 441.437349 2.99865972 443.962678 6.78069685 443.962678L390.657466 443.962678C394.439503 443.962678 396.960861 441.437349 396.960861 437.649357 396.960861 433.861365 394.439503 430.704705 390.657466 430.704705L390.657466 430.704705zM309.343668 131.453317L343.382002 131.453317 355.988792 430.704705 297.367217 430.704705 309.343668 131.453317 309.343668 131.453317zM31.3639382 183.222544L110.156379 229.941115C112.047397 231.203779 114.568755 231.203779 116.459774 229.941115 118.350792 228.678451 119.611471 226.784455 119.611471 224.259127L119.611471 182.591212 198.403912 229.941115C200.29493 231.203779 202.816288 231.203779 204.707307 229.941115 206.598325 228.678451 207.859005 226.784455 207.859005 224.890459L208.489344 212.263818 208.489344 183.222544 292.324501 234.991772 284.130087 430.704705 31.3639382 430.704705 31.3639382 183.222544 31.3639382 183.222544zM326.362835 103.674707C338.339286 103.674707 347.794379 94.2047263 347.794379 82.2094175 347.794379 70.2141087 338.339286 60.744128 326.362835 60.744128 314.386384 60.744128 304.931291 70.2141087 304.931291 82.2094175 305.561631 94.2047263 315.016723 103.674707 326.362835 103.674707L326.362835 103.674707zM326.362835 74.0021009C331.405551 74.0021009 335.187588 77.7900932 335.187588 82.8407495 335.187588 87.8914058 331.405551 91.6793981 326.362835 91.6793981 321.320119 91.6793981 317.538081 87.8914058 317.538081 82.8407495 318.168421 77.7900932 321.950458 74.0021009 326.362835 74.0021009L326.362835 74.0021009zM278.457031.136252C260.807524.136252 246.309715 14.656889 246.309715 32.3341861 246.309715 50.0114833 260.807524 64.5321203 278.457031 64.5321203 296.106538 64.5321203 310.604347 50.0114833 310.604347 32.3341861 310.604347 14.656889 296.106538.136252 278.457031.136252L278.457031.136252zM278.457031 52.5368115C267.741259 52.5368115 258.916506 43.6981629 258.916506 32.9655182 258.916506 22.2328735 267.741259 13.3942249 278.457031 13.3942249 289.172803 13.3942249 297.997556 22.2328735 297.997556 32.9655182 297.997556 43.6981629 289.172803 52.5368115 278.457031 52.5368115L278.457031 52.5368115z"/>
      </g>
    </g>
  </g>
</svg>
