<svg width="673" height="479" viewBox="0 0 673 479" xmlns="http://www.w3.org/2000/svg">
    <title>
        Friends
    </title>
    <g fill="none" fill-rule="evenodd">
        <path id="whatz" d="M115.965 464.566a7.562 7.562 0 0 1-7.563 7.56H92.27a7.562 7.562 0 0 1-7.564-7.56V448.44c0-4.173 3.388-7.557 7.564-7.557h16.13c4.176 0 7.564 3.384 7.564 7.557v16.126m84.706 0a7.56 7.56 0 0 1-7.561 7.56h-16.134a7.56 7.56 0 0 1-7.561-7.56V448.44a7.56 7.56 0 0 1 7.56-7.557h16.135a7.56 7.56 0 0 1 7.56 7.557v16.126" fill="#7FC4EC"/>
        <path fill="#231F1F" d="M170.26 257.105l-45.87.702-.25-16.225 45.871-.702.249 16.225"/>
        <g fill="#231F1F">
            <path d="M54.912 329.549a4.938 4.938 0 0 1-6.234 3.15 4.937 4.937 0 0 1-3.156-6.232l7.803-23.792a4.95 4.95 0 0 1 6.235-3.156 4.943 4.943 0 0 1 3.157 6.237l-7.805 23.793"/>
            <path d="M17.956 376.47L2.921 334.631l23.227-33.896 31.418 10.41-3.808 11.48-22.774-7.546L16.4 336.361l12.944 36.021-11.389 4.088"/>
            <path d="M38.7 306.938c0 5.845-4.74 10.582-10.588 10.582-5.847 0-10.586-4.737-10.586-10.582 0-5.847 4.739-10.583 10.586-10.583 5.848 0 10.587 4.736 10.587 10.583m-18.28 28.819c0 5.637-4.571 10.205-10.21 10.205C4.57 345.962 0 341.394 0 335.757c0-5.637 4.571-10.205 10.209-10.205 5.639 0 10.21 4.568 10.21 10.205m24.047 43.13c-.038-.127-.04-.257-.083-.39-3.004-9.186-12.893-14.2-22.087-11.197-9.192 3.007-14.206 12.889-11.201 22.077.042.133.116.24.16.364l33.211-10.854"/>
        </g>
        <g fill="#231F1F">
            <path d="M228.582 329.549a4.938 4.938 0 0 0 6.236 3.15 4.937 4.937 0 0 0 3.156-6.232l-7.804-23.792a4.95 4.95 0 0 0-6.235-3.156 4.944 4.944 0 0 0-3.158 6.237l7.805 23.793"/>
            <path d="M265.98 376.47l15.037-41.839-23.227-33.896-31.418 10.41 3.806 11.48 22.776-7.546 14.583 21.282-12.944 36.021 11.387 4.088"/>
            <path d="M243.898 306.938c0 5.845 4.74 10.582 10.587 10.582 5.847 0 10.586-4.737 10.586-10.582 0-5.847-4.739-10.583-10.586-10.583s-10.587 4.736-10.587 10.583m20.446 28.819c0 5.637 4.571 10.205 10.21 10.205 5.638 0 10.207-4.568 10.207-10.205 0-5.637-4.57-10.205-10.207-10.205-5.639 0-10.21 4.568-10.21 10.205m-24.828 43.13c.04-.127.044-.257.086-.39 3.006-9.186 12.892-14.2 22.086-11.197 9.193 3.007 14.207 12.889 11.201 22.077-.042.133-.115.24-.157.364l-33.216-10.854"/>
        </g>
        <path d="M228.922 349.456c0 47.87-38.82 86.678-86.712 86.678-47.89 0-86.712-38.808-86.712-86.678s38.822-86.678 86.712-86.678c47.891 0 86.712 38.808 86.712 86.678" fill="#7FC4EC"/>
        <path d="M153.521 303.01c0 5.288-4.29 9.576-9.58 9.576s-9.578-4.288-9.578-9.575c0-5.288 4.288-9.576 9.578-9.576 5.29 0 9.58 4.288 9.58 9.576m0 48.175c0 5.29-4.29 9.576-9.58 9.576s-9.578-4.286-9.578-9.576c0-5.287 4.288-9.575 9.578-9.575 5.29 0 9.58 4.288 9.58 9.575m0 46.716c0 5.29-4.29 9.576-9.58 9.576s-9.578-4.286-9.578-9.576c0-5.289 4.288-9.575 9.578-9.575 5.29 0 9.58 4.286 9.58 9.575" fill="#231F1F"/>
        <path fill="#7FC4EC" d="M10.223 76.886L94.92 238.144h108.892l60.497-133.039-50.41-42.33-203.676 14.11"/>
        <path d="M137.069 132.01c0 18.89-15.319 34.2-34.213 34.2-18.895 0-34.214-15.31-34.214-34.2 0-18.886 15.319-34.198 34.214-34.198 18.894 0 34.213 15.312 34.213 34.199m65.721 35.037c0 18.89-15.319 34.199-34.211 34.199-18.899 0-34.216-15.31-34.216-34.2 0-18.886 15.317-34.198 34.216-34.198 18.892 0 34.211 15.312 34.211 34.199" fill="#FFF"/>
        <path d="M113.808 132.798c0 8.032-6.515 14.546-14.552 14.546-8.035 0-14.549-6.514-14.549-14.546 0-8.034 6.514-14.548 14.55-14.548 8.036 0 14.551 6.514 14.551 14.548m70.105 33.577c0 8.032-6.516 14.545-14.552 14.545-8.037 0-14.552-6.513-14.552-14.545 0-8.034 6.515-14.548 14.552-14.548 8.036 0 14.552 6.514 14.552 14.548m-86.062 26.329l10.587 25.7 23.82-3.4-34.407-22.3" fill="#231F1F"/>
        <g fill="#231F1F">
            <path d="M262.078 76.637l-18.765-16.063c-6.345-5.435-15.89-4.698-21.322 1.647l41.734 35.728c5.434-6.342 4.695-15.885-1.647-21.312m-15.259-16.351l46.023-44.227 6.905 3.98-35.152 56.818-17.776-16.571"/>
            <path d="M308.638 21.966c-5.193 4.612-13.143 4.14-17.753-1.05-4.613-5.192-4.14-13.135 1.051-17.747 5.192-4.606 13.141-4.137 17.752 1.054 4.61 5.191 4.142 13.136-1.05 17.743"/>
        </g>
        <g>
            <g transform="translate(314 246.408)">
                <path d="M140.759 20.33c-28.573 4.224-59.17 16.963-88.082 38.208a3058.333 3058.333 0 0 0-7.948-15.248C73.3 20.473 103.897 6.167 132.811.37a1939.93 1939.93 0 0 1 7.948 19.958z" fill="#B97990"/>
                <path stroke="#B97990" stroke-width="2.238" fill="#B97990" d="M.682 47.218L.161 56.07l33.959 1.992L18.604 88.36l7.88 4.046 16.344-31.93-6.375-11.155z"/>
                <ellipse fill="#BB97A1" cx="44.561" cy="52.103" rx="12.414" ry="12.429"/>
            </g>
            <path fill="#5C4B36" d="M472.312 394.804h18.448v50.59h-18.448z"/>
            <path d="M500.113 444.764c0 10.63-8.602 19.233-19.211 19.233-10.62 0-19.225-8.603-19.225-19.233 0-10.623 8.605-19.233 19.225-19.233 10.609 0 19.211 8.61 19.211 19.233z" fill="#978353"/>
            <path d="M518.373 469.774c.042-.409.141-.815.141-1.238 0-14.454-8.928-26.168-39.597-26.168-30.684 0-55.542 11.714-55.542 26.168 0 .423.094.83.131 1.238h94.867z" fill="#5C4B36"/>
            <path fill="#978353" d="M423.506 469.774h94.867v8.358h-94.867z"/>
            <path fill="#322B29" d="M564.887 390.767l20.814 30.833-20.769 44.412-16.25-1.617 14.915-39.097-13.835-28.618z"/>
            <path d="M613.25 469.774c.033-.409.102-.815.102-1.238 0-5.727.217-17.728-7.572-22.04-11.857-6.556-37.484-4.128-37.484-4.128l-13.622 15.028s-10.662-2.396-12.249-.218c-2.494 3.438-3.886 7.292-3.886 11.358 0 .423.052.83.082 1.238h74.63z" fill="#817D7C"/>
            <path fill="#322B29" d="M538.99 469.773h74.26v8.358h-74.26z"/>
            <path fill="#817D7C" d="M582.992 414.188l7.559 7.568-5.784 5.8-24.153.747-.28-3.19z"/>
            <path d="M667.24 326.927c0 5.742-4.64 10.377-10.36 10.377-5.723 0-10.357-4.635-10.357-10.377 0-5.725 4.634-10.365 10.357-10.365 5.72-.003 10.36 4.638 10.36 10.365zm-15.628 55.185c0 4.64-3.752 8.41-8.402 8.41-4.625 0-8.382-3.77-8.382-8.41 0-4.643 3.757-8.408 8.382-8.408 4.652-.002 8.402 3.765 8.402 8.408zm.952-100.212c0 12.983-10.51 23.514-23.47 23.514-12.966 0-23.472-10.53-23.472-23.515 0-13.003 10.506-23.522 23.471-23.522 12.96.002 23.471 10.521 23.471 23.522z" fill="#849AA5"/>
            <path fill="#3F4B57" d="M672.117 322.432l-30.795.178-.51-69 30.788 7.801zm-29.73 5.331l29.552 8.658-16.473 47.275-22.227-8.13z"/>
            <path fill="#849AA5" d="M626.772 382.768l-9.178 2.482-2.826 10.143 6.11 6.922z"/>
            <path fill="#3F4B57" d="M646.409 412.757l-21.239-2.868-9.148-6.517 7.581-19.748 7.267-4.388 22.436 10.603z"/>
            <path fill="#978353" d="M583.575 402.39h-48.269l-3.982-34.158h56.224zM508.901 402.39h-48.289l-3.985-34.158h56.251z"/>
            <path d="M597.331 380.543a4.745 4.745 0 0 1-5.129 4.304L438.39 371.27a4.757 4.757 0 0 1-4.3-5.138l12.866-146.15c.227-2.597 2.533-4.537 5.129-4.305l153.81 13.576a4.746 4.746 0 0 1 4.301 5.138l-12.864 146.15z" fill="#5C4B36"/>
            <path d="M620.266 353.474c-.228 2.6-2.534 4.536-5.13 4.304l-110.511-9.757c-2.593-.232-4.527-2.542-4.302-5.138l9.06-102.804c.23-2.6 2.539-4.536 5.132-4.306l110.504 9.754a4.75 4.75 0 0 1 4.302 5.135l-9.055 102.812z" fill="#64522C"/>
            <path d="M541.068 199.586h49.035v5.89h-49.035zm.502 11.241l48.705 5.639-.678 5.854-48.705-5.639zm-9.142-21.196l48.92-3.349.402 5.868-48.92 3.349z" fill="#CF9D25"/>
            <path d="M513.506 230.744l31.122 3.462-20.058 20.07zm19.798 38.337l-23.703-3.789 1.265-5.977 23.083 3.678zm-1.407 13.165l-25.058-4.002 1.417-6.663 24.36 3.896zm-1.572 14.788l-26.578-4.25 1.592-7.482 25.794 4.124zm-1.777 16.704l-28.314-4.517 1.81-8.477 27.423 4.38zm-2.015 19.02l-30.278-4.824 2.059-9.665 29.267 4.658zm-2.326 21.866l-32.543-5.195 2.378-11.14 31.362 5.002z" fill="#C0D72F"/>
            <g>
                <path fill="#322B29" d="M614.784 131.49l24.238-1.22.926 18.399-24.237 1.22zm-171.188 8.581l24.245-1.22.926 18.394-24.245 1.22z"/>
                <g transform="translate(425.236)">
                    <g fill="#322B29">
                        <path d="M155.622.297h5.8v63.82h-5.8z"/>
                        <path d="M139.641 10.994h37.771v4.487h-37.77zm3.849 8.697h30.068v4.475H143.49zm3.077 8.692h23.931v4.475h-23.93z"/>
                    </g>
                    <g fill="#BDB69A">
                        <path d="M57.771 72.978l-2.66 5.17L.423 49.71l4.96-1.834z"/>
                        <path d="M10.044 68.593l13.78-26.745L27.81 43.9 14.03 70.646zm24.13-18.009l-10.98 21.322-3.97-2.06 10.97-21.306z"/>
                    </g>
                    <path d="M200.55 171.465c.251 2.591-1.67 4.915-4.262 5.168L42.59 191.37c-2.593.25-4.919-1.673-5.164-4.269l-8.95-93.404c-.243-2.596 1.124-6.16 3.042-7.915l20.532-18.8c1.918-1.755 5.611-3.395 8.205-3.648l124.063-11.897c2.59-.253 4.914 1.67 5.166 4.267l11.064 115.76z" fill="#959494"/>
                    <path d="M167.71 106.657c0 14.192-11.487 25.708-25.664 25.708-14.161 0-25.668-11.514-25.668-25.708 0-14.196 11.504-25.705 25.668-25.705 14.174 0 25.664 11.506 25.664 25.705z" fill="#960B18"/>
                    <path d="M153.526 106.657c0 6.346-5.137 11.504-11.482 11.504-6.333 0-11.485-5.158-11.485-11.504 0-6.35 5.152-11.5 11.485-11.5 6.345-.003 11.482 5.147 11.482 11.5z" fill="#4E0000"/>
                    <path d="M91.901 109.709c0 8.732-7.08 15.813-15.803 15.813-8.73 0-15.798-7.079-15.798-15.813 0-8.74 7.067-15.815 15.798-15.815 8.723.002 15.803 7.076 15.803 15.815z" fill="#7DB6D1"/>
                    <ellipse fill="#4A6EA3" cx="76.098" cy="109.709" rx="12.78" ry="12.796"/>
                </g>
                <path d="M568.8 156.63c-19.004 13.464-41.404 17.488-60.584 12.078-.519-3.195-1.035-6.4-1.552-9.61 19.002 5.92 41.4 2.408 60.58-10.546.52 2.702 1.037 5.393 1.557 8.078z" fill="#ACC6D4"/>
                <path fill="#3F4B57" d="M532.055 122.198l-10.352 10.358 8.968 4.125-10.374 10.386 22.133-3.46z"/>
                <g transform="translate(462.315 96.525)" fill="#5C5857">
                    <path d="M11.63 5.133a5.631 5.631 0 0 1-4.948 6.24A5.625 5.625 0 0 1 .46 6.418 5.614 5.614 0 0 1 5.404.193a5.61 5.61 0 0 1 6.226 4.94zm1.98 17.394a5.615 5.615 0 0 1-4.943 6.23 5.621 5.621 0 0 1-6.225-4.945c-.353-3.099 1.862-5.886 4.944-6.235a5.617 5.617 0 0 1 6.224 4.95z"/>
                    <ellipse cx="10.006" cy="40.555" rx="5.624" ry="5.631"/>
                    <path d="M17.58 57.301c.351 3.094-1.864 5.886-4.953 6.23-3.078.36-5.876-1.869-6.225-4.95a5.636 5.636 0 0 1 4.954-6.23c3.085-.346 5.876 1.864 6.224 4.95zm1.983 17.394c.356 3.114-1.867 5.92-4.954 6.26-3.077.36-5.863-1.864-6.214-4.983a5.636 5.636 0 0 1 4.943-6.234 5.629 5.629 0 0 1 6.225 4.957z"/>
                </g>
            </g>
            <g>
                <path fill="#BDA468" d="M605.788 337.881l-64.584-5.697 6.598-75.141 64.578 5.7z"/>
                <path d="M565.164 273.309a6.68 6.68 0 1 1-13.306-1.176 6.672 6.672 0 0 1 7.24-6.066c3.674.314 6.393 3.556 6.066 7.242z" fill="#AD182B"/>
                <path d="M583.508 274.925c-.328 3.685-3.564 6.4-7.237 6.07-3.661-.323-6.388-3.568-6.057-7.241.32-3.688 3.555-6.405 7.228-6.081 3.674.324 6.385 3.569 6.066 7.252z" fill="#AAC9E9"/>
                <path d="M601.843 276.54c-.324 3.671-3.552 6.396-7.228 6.072a6.672 6.672 0 0 1-6.059-7.242c.319-3.68 3.552-6.4 7.223-6.08a6.685 6.685 0 0 1 6.064 7.25z" fill="#38834B"/>
                <path d="M597.087 317.93a2.811 2.811 0 0 1-3.214 2.344 2.819 2.819 0 1 1 .88-5.569c1.518.235 2.573 1.676 2.334 3.225zm-8.061-.552a2.811 2.811 0 0 1-3.211 2.34 2.82 2.82 0 0 1-2.344-3.236 2.794 2.794 0 0 1 3.216-2.329c1.53.233 2.574 1.683 2.339 3.225zm-8.059-.559a2.818 2.818 0 0 1-3.216 2.346 2.833 2.833 0 0 1-2.346-3.222 2.832 2.832 0 0 1 3.226-2.359 2.82 2.82 0 0 1 2.336 3.235zm-8.053-.559a2.807 2.807 0 0 1-3.221 2.338 2.808 2.808 0 0 1-2.346-3.21 2.815 2.815 0 0 1 3.226-2.356c1.528.243 2.578 1.698 2.34 3.228z" fill="#AFD136"/>
                <path fill="#64522C" d="M569.771 284.192l31.587 2.777-.183 2.088-31.587-2.777zm-.471 5.481l31.584 2.777-.185 2.103-31.584-2.777zm-.56 5.537l31.586 2.775-.184 2.093-31.587-2.775zm-.48 5.487l31.586 2.775-.185 2.108-31.586-2.775zm-.53 5.441l31.585 2.793-.185 2.093-31.585-2.793z"/>
                <path fill="#AD182B" d="M565.84 323.034l31.586 2.777-.183 2.091-31.588-2.777z"/>
                <path d="M555.93 284.13l6.927.61-.61 6.942-6.928-.608zm-1.145 12.24l6.934.613-.614 6.943-6.934-.614zm-1.012 12.222l6.929.613-.615 6.944-6.929-.612zm5.209 19.874l-6.934-.619.608-6.932 6.937.599z" fill="#FFF229"/>
            </g>
        </g>
    </g>
</svg>
