<?xml version="1.0" encoding="UTF-8" standalone="no"?>
<svg width="673px" height="479px" viewBox="0 0 673 479" version="1.1" xmlns="http://www.w3.org/2000/svg" xmlns:xlink="http://www.w3.org/1999/xlink">
    <!-- Generator: Sketch 40.3 (33839) - http://www.bohemiancoding.com/sketch -->
    <title>Friends</title>
    <desc>Created with Sketch.</desc>
    <defs></defs>
    <g id="Story-Boards" stroke="none" stroke-width="1" fill="none" fill-rule="evenodd">
        <g id="Page-3" transform="translate(-326.000000, -250.000000)">
            <g id="Friends" transform="translate(326.000000, 250.000000)">
                <g id="GloBot">
                    <path d="M115.965312,464.566293 C115.965312,468.74154 112.577033,472.125534 108.401563,472.125534 L92.2707256,472.125534 C88.0952558,472.125534 84.7069767,468.74154 84.7069767,464.566293 L84.7069767,448.440497 C84.7069767,444.26671 88.0952558,440.882716 92.2707256,440.882716 L108.401563,440.882716 C112.577033,440.882716 115.965312,444.26671 115.965312,448.440497 L115.965312,464.566293" id="Left-Foot" fill="#7FC4EC"></path>
                    <path d="M200.669367,464.566293 C200.669367,468.74154 197.284009,472.125534 193.10854,472.125534 L176.974781,472.125534 C172.799312,472.125534 169.413953,468.74154 169.413953,464.566293 L169.413953,448.440497 C169.413953,444.26671 172.799312,440.882716 176.974781,440.882716 L193.10854,440.882716 C197.284009,440.882716 200.669367,444.26671 200.669367,448.440497 L200.669367,464.566293" id="Right-foot" fill="#7FC4EC"></path>
                    <polyline id="Neck" fill="#231F1F" points="170.259563 257.104698 124.389274 257.806898 124.139535 241.58183 170.011284 240.87963 170.259563 257.104698"></polyline>
                    <g id="Left-Arm" transform="translate(0.000000, 296.354938)" fill="#231F1F">
                        <path d="M54.9124284,33.1937538 C54.0624377,35.7864945 51.2700284,37.1952754 48.6777028,36.3441674 C46.0839168,35.497439 44.671647,32.7046952 45.5216377,30.1119544 L53.3249028,6.32034639 C54.1748935,3.73198528 56.9673028,2.32028466 59.5596284,3.16409331 C62.1534145,4.01812108 63.5686052,6.80502541 62.717154,9.4006859 L54.9124284,33.1937538" id="Fill-63"></path>
                        <polyline id="Fill-64" points="17.9564186 80.1151049 2.92093023 38.2765031 26.1481674 4.37962963 57.565693 14.7900093 53.7582605 26.2704784 30.9837674 18.7243765 16.4010233 40.0064568 29.3451256 76.0274506 17.9564186 80.1151049"></polyline>
                        <path d="M38.6994047,10.5826451 C38.6994047,16.4279907 33.9601953,21.1652901 28.112493,21.1652901 C22.2647907,21.1652901 17.5255814,16.4279907 17.5255814,10.5826451 C17.5255814,4.73583951 22.2647907,0 28.112493,0 C33.9601953,0 38.6994047,4.73583951 38.6994047,10.5826451" id="Fill-65"></path>
                        <path d="M20.4187628,39.4020679 C20.4187628,45.0386512 15.847507,49.6066049 10.2086512,49.6066049 C4.57125581,49.6066049 0,45.0386512 0,39.4020679 C0,33.7654846 4.57125581,29.1975309 10.2086512,29.1975309 C15.847507,29.1975309 20.4187628,33.7654846 20.4187628,39.4020679" id="Fill-66"></path>
                        <path d="M44.4662044,82.5318118 C44.4282323,82.4048025 44.4253114,82.2748735 44.3829579,82.1420248 C41.3787811,72.9564815 31.4899718,67.9418056 22.2963439,70.9447717 C13.1041765,73.9521173 8.09039972,83.8340217 11.0945765,93.0224846 C11.13693,93.1553334 11.2114137,93.2619044 11.2552276,93.3859939 L44.4662044,82.5318118" id="Fill-67"></path>
                    </g>
                    <g id="Right-Arm" transform="translate(220.530233, 296.354938)" fill="#231F1F">
                        <path d="M8.05179688,33.1937538 C8.90032711,35.7864945 11.6941969,37.1952754 14.2879829,36.3441674 C16.8803085,35.497439 18.2954992,32.7046952 17.444048,30.1119544 L9.63932246,6.32034639 C8.78933176,3.73198528 5.99838292,2.32028466 3.40459688,3.16409331 C0.810810832,4.01812108 -0.602919401,6.80502541 0.247071297,9.4006859 L8.05179688,33.1937538" id="Fill-68"></path>
                        <polyline id="Fill-69" points="45.4496744 80.1151049 60.4866233 38.2765031 37.259386 4.37962963 5.84186047 14.7900093 9.64783256 26.2704784 32.423786 18.7243765 47.0065302 40.0064568 34.0624279 76.0274506 45.4496744 80.1151049"></polyline>
                        <path d="M23.3674419,10.5826451 C23.3674419,16.4279907 28.1081116,21.1652901 33.9543535,21.1652901 C39.8020558,21.1652901 44.5412651,16.4279907 44.5412651,10.5826451 C44.5412651,4.73583951 39.8020558,0 33.9543535,0 C28.1081116,0 23.3674419,4.73583951 23.3674419,10.5826451" id="Fill-70"></path>
                        <path d="M43.8139535,39.4020679 C43.8139535,45.0386512 48.3852093,49.6066049 54.0240651,49.6066049 C59.6614605,49.6066049 64.2312558,45.0386512 64.2312558,39.4020679 C64.2312558,33.7654846 59.6614605,29.1975309 54.0240651,29.1975309 C48.3852093,29.1975309 43.8139535,33.7654846 43.8139535,39.4020679" id="Fill-71"></path>
                        <path d="M18.9860465,82.5318118 C19.0254791,82.4048025 19.0298605,82.2748735 19.072214,82.1420248 C22.0778512,72.9564815 31.9637395,67.9418056 41.1573674,70.9447717 C50.3509953,73.9521173 55.3647721,83.8340217 52.3591349,93.0224846 C52.3167814,93.1553334 52.2437581,93.2619044 52.2014047,93.3859939 L18.9860465,82.5318118" id="Fill-72"></path>
                    </g>
                    <g id="Middle" transform="translate(55.497674, 262.777778)">
                        <path d="M173.424391,86.6787099 C173.424391,134.548062 134.603767,173.35596 86.7121953,173.35596 C38.8220837,173.35596 0,134.548062 0,86.6787099 C0,38.8078981 38.8220837,0 86.7121953,0 C134.603767,0 173.424391,38.8078981 173.424391,86.6787099" id="Fill-59" fill="#7FC4EC"></path>
                        <path d="M98.0234977,40.2327377 C98.0234977,45.5204105 93.7326512,49.8080679 88.4428465,49.8080679 C83.1530419,49.8080679 78.8651163,45.5204105 78.8651163,40.2327377 C78.8651163,34.9450648 83.1530419,30.6574074 88.4428465,30.6574074 C93.7326512,30.6574074 98.0234977,34.9450648 98.0234977,40.2327377" id="Fill-73" fill="#231F1F"></path>
                        <path d="M98.0234977,88.4086636 C98.0234977,93.6977963 93.7326512,97.9839938 88.4428465,97.9839938 C83.1530419,97.9839938 78.8651163,93.6977963 78.8651163,88.4086636 C78.8651163,83.1209907 83.1530419,78.8333333 88.4428465,78.8333333 C93.7326512,78.8333333 98.0234977,83.1209907 98.0234977,88.4086636" id="Fill-74" fill="#231F1F"></path>
                        <path d="M98.0234977,135.124713 C98.0234977,140.413846 93.7326512,144.700043 88.4428465,144.700043 C83.1530419,144.700043 78.8651163,140.413846 78.8651163,135.124713 C78.8651163,129.83558 83.1530419,125.549383 88.4428465,125.549383 C93.7326512,125.549383 98.0234977,129.83558 98.0234977,135.124713" id="Fill-75" fill="#231F1F"></path>
                    </g>
                    <g id="Head" transform="translate(10.223256, 0.000000)">
                        <polyline id="Fill-76" fill="#7FC4EC" points="0 76.885858 84.6967535 238.143821 193.589033 238.143821 254.085879 105.105272 203.675005 62.7746914 0 76.885858"></polyline>
                        <path d="M126.845777,132.010796 C126.845777,150.900139 111.526958,166.209864 92.6329209,166.209864 C73.7374233,166.209864 58.4186047,150.900139 58.4186047,132.010796 C58.4186047,113.124373 73.7374233,97.8117284 92.6329209,97.8117284 C111.526958,97.8117284 126.845777,113.124373 126.845777,132.010796" id="Fill-77" fill="#FFFFFF"></path>
                        <path d="M192.566707,167.047833 C192.566707,185.937176 177.247888,201.246901 158.355312,201.246901 C139.456893,201.246901 124.139535,185.937176 124.139535,167.047833 C124.139535,148.16141 139.456893,132.848765 158.355312,132.848765 C177.247888,132.848765 192.566707,148.16141 192.566707,167.047833" id="Fill-78" fill="#FFFFFF"></path>
                        <path d="M103.584949,132.79767 C103.584949,140.82991 97.069814,147.34388 89.0328744,147.34388 C80.9973953,147.34388 74.4837209,140.82991 74.4837209,132.79767 C74.4837209,124.763969 80.9973953,118.25 89.0328744,118.25 C97.069814,118.25 103.584949,124.763969 103.584949,132.79767" id="Fill-79" fill="#231F1F"></path>
                        <path d="M173.690195,166.37483 C173.690195,174.407071 167.1736,180.91958 159.138121,180.91958 C151.101181,180.91958 144.586047,174.407071 144.586047,166.37483 C144.586047,158.34113 151.101181,151.82716 159.138121,151.82716 C167.1736,151.82716 173.690195,158.34113 173.690195,166.37483" id="Fill-80" fill="#231F1F"></path>
                        <polyline id="Fill-81" fill="#231F1F" points="87.627907 192.703704 98.2148186 218.40337 122.035005 215.003318 87.627907 192.703704"></polyline>
                        <g id="Antenna" transform="translate(211.767442, 0.000000)" fill="#231F1F">
                            <path d="M40.0868465,76.6373989 L21.3227907,60.5743772 C14.9770698,55.1392569 5.43293023,55.8764945 0,62.221118 L41.7342512,97.9486766 C47.1686419,91.6069729 46.4296465,82.06376 40.0868465,76.6373989" id="Fill-56"></path>
                            <polyline id="Fill-57" points="24.827907 60.2856019 70.8515442 16.058642 77.7566233 20.0397253 42.6046884 76.8566605 24.827907 60.2856019"></polyline>
                            <path d="M86.6472817,21.9664816 C81.4538677,26.5782316 73.5045561,26.1066915 68.8938677,20.9153705 C64.2817189,15.7240495 64.7534491,7.78086126 69.9454026,3.16911126 C75.1373561,-1.43679924 83.0866677,-0.968178866 87.6973561,4.22314212 C92.3080445,9.41446311 91.8392351,17.3591113 86.6472817,21.9664816" id="Antenna-Light"></path>
                        </g>
                    </g>
                </g>
                <g id="Janky-Robot-Copy" transform="translate(314.000000, 0.000000)">
                    <g id="Group" transform="translate(0.000000, 246.408041)">
                        <path d="M140.758519,20.3294016 C112.1856,24.554215 81.5881788,37.293005 52.676607,58.5383466 C50.0118776,53.3878858 47.3595079,48.3042497 44.7293854,43.2899135 C73.2998323,20.4729512 103.897253,6.16749048 132.811297,0.371056401 C135.476026,6.95453832 138.125924,13.61227 140.758519,20.3294016 L140.758519,20.3294016 Z" id="Shape" fill="#B97990"></path>
                        <polygon id="Shape" stroke="#B97990" stroke-width="2.2379" fill="#B97990" points="0.682249813 47.2177277 0.160674775 56.0707784 34.1199064 58.0631479 18.603667 88.3595397 26.4841467 92.4061536 42.8284792 60.4762663 36.4533985 49.3214719"></polygon>
                        <ellipse id="Oval" fill="#BB97A1" cx="44.5612949" cy="52.1033643" rx="12.4139803" ry="12.4294159"></ellipse>
                    </g>
                    <g id="Group" transform="translate(109.336119, 394.672600)">
                        <rect id="Rectangle-path" fill="#5C4B36" x="48.9755007" y="0.13089043" width="18.4479361" height="50.591336"></rect>
                        <path d="M76.7771806,50.0911032 C76.7771806,60.721199 68.1749003,69.3242754 57.5654213,69.3242754 C46.9460547,69.3242754 38.3413025,60.721199 38.3413025,50.0911032 C38.3413025,39.4684324 46.9460547,30.857931 57.5654213,30.857931 C68.1749003,30.857931 76.7771806,39.4684324 76.7771806,50.0911032 L76.7771806,50.0911032 Z" id="Shape" fill="#978353"></path>
                        <path d="M95.0372508,75.1009095 C95.0792734,74.6925356 95.1781502,74.2866367 95.1781502,73.8634129 C95.1781502,59.4094526 86.2495765,47.6953098 55.5804699,47.6953098 C24.8965317,47.6953098 0.0389080936,59.4094526 0.0389080936,73.8634129 C0.0389080936,74.2866367 0.132841039,74.6925356 0.169919833,75.1009095 L95.0372508,75.1009095 L95.0372508,75.1009095 Z" id="Shape" fill="#5C4B36"></path>
                        <rect id="Rectangle-path" fill="#978353" x="0.169919833" y="75.1009095" width="94.8673309" height="8.35805204"></rect>
                    </g>
                    <g id="Group" transform="translate(224.428314, 390.529245)">
                        <polygon id="Shape" fill="#322B29" points="26.4591667 0.237531153 47.2727298 31.0709965 26.5036612 75.4822745 10.2532617 73.8661039 25.1688246 34.7686363 11.3334906 6.15028991"></polygon>
                        <path d="M74.8222739,79.2442641 C74.8544089,78.8358902 74.9236226,78.4299914 74.9236226,78.0067675 C74.9236226,72.2796333 75.1411516,60.2783912 67.3521329,55.9669531 C55.4943345,49.4106961 29.8679438,51.8386644 29.8679438,51.8386644 L16.2451948,66.8668231 C16.2451948,66.8668231 5.58380555,64.4710297 3.99683316,66.6490237 C1.50266627,70.0867893 0.110975526,73.9403537 0.110975526,78.0067675 C0.110975526,78.4299914 0.162885838,78.8358902 0.192548873,79.2442641 L74.8222739,79.2442641 L74.8222739,79.2442641 Z" id="Shape" fill="#817D7C"></path>
                        <rect id="Rectangle-path" fill="#322B29" x="0.560864896" y="79.2442641" width="74.261409" height="8.35805204"></rect>
                        <polygon id="Shape" fill="#817D7C" points="44.5635059 23.6583918 52.1226361 31.226921 46.3383442 37.0258301 22.1852177 37.773278 21.9058908 34.5830118"></polygon>
                    </g>
                    <g id="Group" transform="translate(291.170144, 253.597988)">
                        <path d="M62.0696406,73.3288144 C62.0696406,79.0707986 57.4298475,83.7064609 51.7098255,83.7064609 C45.9873316,83.7064609 41.3524824,79.0707986 41.3524824,73.3288144 C41.3524824,67.6041551 45.9873316,62.9635428 51.7098255,62.9635428 C57.4298475,62.9610678 62.0696406,67.6016801 62.0696406,73.3288144 L62.0696406,73.3288144 Z" id="Shape" fill="#849AA5"></path>
                        <path d="M46.4421648,128.513738 C46.4421648,133.15435 42.6897909,136.923765 38.0401101,136.923765 C33.4151485,136.923765 29.6578307,133.15435 29.6578307,128.513738 C29.6578307,123.870651 33.4151485,120.106186 38.0401101,120.106186 C42.6922628,120.103711 46.4421648,123.870651 46.4421648,128.513738 L46.4421648,128.513738 Z" id="Shape" fill="#849AA5"></path>
                        <path d="M47.3938539,28.301263 C47.3938539,41.2850774 36.8832517,51.8161735 23.9229772,51.8161735 C10.9577588,51.8161735 0.452100433,41.2850774 0.452100433,28.301263 C0.452100433,15.2976488 10.9577588,4.77892766 23.9229772,4.77892766 C36.8832517,4.78140266 47.3938539,15.3001238 47.3938539,28.301263 L47.3938539,28.301263 Z" id="Shape" fill="#849AA5"></path>
                        <polygon id="Shape" fill="#3F4B57" points="66.946738 68.8342267 36.1515635 69.0124262 35.642348 0.0120907563 66.4301068 7.81326933"></polygon>
                        <polygon id="Shape" fill="#3F4B57" points="37.2169608 74.1653621 66.7687598 82.8228883 50.2958875 130.097733 28.0683864 121.967381"></polygon>
                        <g transform="translate(9.316022, 125.075972)" id="Shape">
                            <polygon fill="#849AA5" points="12.2858222 4.09363875 3.10758472 6.57605694 0.2821806 16.7185791 6.39276588 23.6411351"></polygon>
                            <polygon fill="#3F4B57" points="31.9227517 34.0831314 10.6840183 31.2146143 1.53544384 24.6979572 9.1168213 4.9499864 16.384265 0.561823457 38.8194074 11.1646943"></polygon>
                        </g>
                    </g>
                    <polygon id="Shape" fill="#978353" points="269.575193 402.389345 221.306019 402.389345 217.323757 368.231963 273.547568 368.231963"></polygon>
                    <g id="Group" transform="translate(120.036035, 215.324409)">
                        <polygon id="Shape" fill="#978353" points="74.8649392 187.064936 26.5759895 187.064936 22.5912551 152.907555 78.8422578 152.907555"></polygon>
                        <path d="M163.295391,165.218171 C163.070447,167.814439 160.761674,169.749884 158.166158,169.522184 L4.3534322,155.946847 C1.76038853,155.714197 -0.175124529,153.405029 0.0522920755,150.808761 L12.9186337,4.6579372 C13.1460503,2.06166934 15.4523513,0.121274667 18.0478669,0.353924028 L171.858121,13.9292617 C174.453637,14.1569611 176.391622,16.4661298 176.159261,19.0673476 L163.295391,165.218171 L163.295391,165.218171 Z" id="Shape" fill="#5C4B36"></path>
                        <path d="M186.229862,138.149171 C186.002445,140.750388 183.696144,142.685833 181.100628,142.453184 L70.5885182,132.69676 C67.9954746,132.464111 66.0624334,130.154942 66.2873781,127.558675 L75.3469635,24.754882 C75.576852,22.1536641 77.8856249,20.2182195 80.4786686,20.4483938 L190.983363,30.202342 C193.578879,30.4325164 195.514392,32.7416851 195.284503,35.3379529 L186.229862,138.149171 L186.229862,138.149171 Z" id="Shape" fill="#64522C"></path>
                    </g>
                    <g id="Group" transform="translate(218.100582, 186.196089)" fill="#CF9D25">
                        <rect id="Rectangle-path" x="8.96748174" y="13.3898376" width="49.0354694" height="5.89048382"></rect>
                        <rect id="Rectangle-path" transform="translate(33.483291, 30.377123) rotate(6.603398) translate(-33.483291, -30.377123) " x="8.96842342" y="27.4305431" width="49.0297343" height="5.89316082"></rect>
                        <rect id="Rectangle-path" transform="translate(24.987876, 4.694158) rotate(-3.916213) translate(-24.987876, -4.694158) " x="0.470516588" y="1.75376328" width="49.034718" height="5.88079019"></rect>
                    </g>
                    <g id="Group" transform="translate(177.461842, 230.174368)" fill="#C0D72F">
                        <polygon id="Shape" points="22.0443183 0.569248436 53.1657862 4.03176392 33.1086304 24.1014838"></polygon>
                        <g transform="translate(0.000000, 28.608639)" id="Shape">
                            <polygon points="41.8419224 10.2982541 18.1386853 6.50903954 19.4043081 0.53193096 42.4870935 4.20977086"></polygon>
                            <polygon points="40.4354002 23.462743 15.3775511 19.460679 16.793961 12.7979973 41.1547288 16.6936366"></polygon>
                            <polygon points="38.8632593 38.2508273 12.2851796 34.001264 13.8770959 26.5193596 39.671577 30.6426982"></polygon>
                            <polygon points="37.0859491 54.9545565 8.77258185 50.4376939 10.582027 41.9608422 38.0055032 46.3415801"></polygon>
                            <polygon points="35.0713346 73.9748792 4.79279127 69.1511175 6.85190031 59.486269 36.1194285 64.1442062"></polygon>
                            <polygon points="32.7452583 95.8414441 0.202436552 90.6464334 2.58042322 79.506489 33.9416674 84.5084503"></polygon>
                        </g>
                    </g>
                    <g id="Group" transform="translate(111.236383, 0.000000)">
                        <rect id="Rectangle-path" fill="#322B29" transform="translate(202.130339, 140.079258) rotate(-2.883293) translate(-202.130339, -140.079258) " x="189.9961" y="130.867647" width="24.2684789" height="18.4232209"></rect>
                        <rect id="Rectangle-path" fill="#322B29" transform="translate(30.945031, 148.658049) rotate(-2.883293) translate(-30.945031, -148.658049) " x="18.8070839" y="139.448913" width="24.2758944" height="18.4182711"></rect>
                        <g>
                            <g transform="translate(139.576307, 0.000000)" id="Rectangle-path" fill="#322B29">
                                <rect x="16.045864" y="0.296999184" width="5.79912341" height="63.8201747"></rect>
                                <rect x="0.0649037355" y="10.9939198" width="37.7709317" height="4.48716267"></rect>
                                <rect x="3.91368257" y="19.6910459" width="30.0684302" height="4.47478771"></rect>
                                <rect x="6.99122249" y="28.383222" width="23.9306538" height="4.47478771"></rect>
                            </g>
                            <g transform="translate(0.000000, 41.555204)" fill="#BDB69A">
                                <polygon id="Shape" points="57.7712333 31.4224455 55.1114478 36.5927063 0.422698254 8.1550344 5.38384092 6.32106444"></polygon>
                                <rect id="Rectangle-path" transform="translate(18.926414, 14.691672) rotate(-62.740504) translate(-18.926414, -14.691672) " x="3.88300928" y="12.4506693" width="30.0868096" height="4.48200473"></rect>
                                <polygon id="Shape" points="34.1742887 9.028707 23.1940217 30.3507734 19.2241188 28.2915791 30.1944981 6.98436262"></polygon>
                            </g>
                            <path d="M200.54931,171.465054 C200.801446,174.056372 198.880764,176.38039 196.287721,176.63284 L42.5911749,191.371424 C39.9981313,191.621399 37.6720549,189.698329 37.4273349,187.102061 L28.4765139,93.6982926 C28.2342658,91.1020247 29.6012374,87.5380345 31.519447,85.7832644 L52.0512113,66.983216 C53.9694209,65.2284458 57.6624688,63.5875253 60.2555125,63.335076 L184.318686,51.4377837 C186.909258,51.1853344 189.232862,53.1084041 189.484998,55.704672 L200.54931,171.465054 L200.54931,171.465054 Z" id="Shape" fill="#959494"></path>
                            <path d="M167.709858,106.657357 C167.709858,120.848968 156.222848,132.365111 142.046389,132.365111 C127.884761,132.365111 116.377975,120.851443 116.377975,106.657357 C116.377975,92.460796 127.882289,80.9520776 142.046389,80.9520776 C156.220376,80.9520776 167.709858,92.458321 167.709858,106.657357 L167.709858,106.657357 Z" id="Shape" fill="#960B18"></path>
                            <path d="M153.525983,106.657357 C153.525983,113.00324 148.389334,118.161125 142.043917,118.161125 C135.710859,118.161125 130.559378,113.00324 130.559378,106.657357 C130.559378,100.306524 135.710859,95.1560636 142.043917,95.1560636 C148.389334,95.1535886 153.525983,100.304049 153.525983,106.657357 L153.525983,106.657357 Z" id="Shape" fill="#4E0000"></path>
                            <path d="M91.9010274,109.709024 C91.9010274,118.4408 84.8214496,125.521755 76.0980453,125.521755 C67.3672252,125.521755 60.3000071,118.443275 60.3000071,109.709024 C60.3000071,100.969823 67.3672252,93.8938171 76.0980453,93.8938171 C84.8214496,93.8962921 91.9010274,100.969823 91.9010274,109.709024 L91.9010274,109.709024 Z" id="Shape" fill="#7DB6D1"></path>
                            <ellipse id="Oval" fill="#4A6EA3" cx="76.0980453" cy="109.709024" rx="12.7798244" ry="12.7957149"></ellipse>
                        </g>
                        <path d="M143.564147,156.629945 C124.560029,170.093908 102.159494,174.118247 82.9798695,168.707912 C82.4607664,165.512695 81.9441352,162.307579 81.427504,159.097513 C100.42915,165.017697 122.827214,161.505681 142.006838,148.551567 C142.528413,151.25426 143.045044,153.944577 143.564147,156.629945 L143.564147,156.629945 Z" id="Shape" fill="#ACC6D4"></path>
                        <polygon id="Shape" fill="#3F4B57" points="106.819062 122.197839 96.4666629 132.555686 105.434787 136.6815 95.0601407 147.066571 117.193709 143.606531"></polygon>
                        <g transform="translate(37.078794, 96.524735)" fill="#5C5857">
                            <path d="M11.6303818,5.1331359 C11.9838663,8.22935239 9.76902631,11.0161947 6.68159872,11.3725938 C3.59664304,11.7215678 0.808317714,9.50397389 0.459777048,6.41765737 C0.106292543,3.32886586 2.31371676,0.546973497 5.40361627,0.19304947 C8.49104387,-0.165824544 11.2793692,2.04434438 11.6303818,5.1331359 L11.6303818,5.1331359 Z" id="Shape"></path>
                            <path d="M13.6103894,22.5273881 C13.9638739,25.6186546 11.7564497,28.407972 8.66655016,28.756946 C5.57912257,29.11087 2.79574108,26.8932761 2.44225658,23.8119096 C2.08877207,20.7132181 4.30361205,17.9263758 7.3860958,17.5774017 C10.4759953,17.2259527 13.2593768,19.4361216 13.6103894,22.5273881 L13.6103894,22.5273881 Z" id="Shape"></path>
                            <ellipse id="Oval" cx="10.0063306" cy="40.5552386" rx="5.62361712" ry="5.63060953"></ellipse>
                            <path d="M17.5802923,57.3010426 C17.9313049,60.3947841 15.7164649,63.1865764 12.6265654,63.5306005 C9.54902547,63.8919495 6.75081246,61.6619806 6.4022718,58.5806141 C6.05373113,55.4942976 8.26857111,52.7099302 11.3559987,52.3510562 C14.4409544,52.0045571 17.2317516,54.2147261 17.5802923,57.3010426 L17.5802923,57.3010426 Z" id="Shape"></path>
                            <path d="M19.5627718,74.6952948 C19.9187282,77.8088363 17.6964725,80.6154786 14.6090449,80.9545526 C11.531505,81.3159016 8.74565159,79.0908827 8.39463901,75.9723913 C8.0411545,72.8860748 10.2584664,70.0992324 13.3384782,69.7378834 C16.4234339,69.3913844 19.2117592,71.6040283 19.5627718,74.6952948 L19.5627718,74.6952948 Z" id="Shape"></path>
                        </g>
                    </g>
                    <g id="Group" transform="translate(226.900234, 256.879613)">
                        <polygon id="Shape" fill="#BDA468" points="64.887629 81.0015093 0.303785256 75.3040749 6.9013387 0.163281357 71.4802386 5.8631907"></polygon>
                        <path d="M24.2641021,16.4289367 C23.9402806,20.1092516 20.7020659,22.8193691 17.0238495,22.500095 C13.3481051,22.1733959 10.6314654,18.9410548 10.9577588,15.2533149 C11.2815803,11.570525 14.5247388,8.86040747 18.1980113,9.18710657 C21.8712839,9.50143071 24.5903955,12.7436718 24.2641021,16.4289367 L24.2641021,16.4289367 Z" id="Shape" fill="#AD182B"></path>
                        <path d="M42.6082175,18.0451072 C42.2794522,21.7303721 39.0437094,24.4454397 35.3704369,24.1162656 C31.7095239,23.7920414 28.9829966,20.5473254 29.3142338,16.8744355 C29.6331115,13.1866956 32.8688542,10.469153 36.5421268,10.7933772 C40.2153993,11.1176013 42.9270952,14.3623174 42.6082175,18.0451072 L42.6082175,18.0451072 Z" id="Shape" fill="#AAC9E9"></path>
                        <path d="M60.9424453,19.6612778 C60.6186238,23.3316927 57.3902968,26.0566602 53.7145523,25.7324361 C50.0412798,25.408212 47.329584,22.1684459 47.6558774,18.490606 C47.974755,14.8102911 51.2080259,12.0902736 54.8788265,12.4095477 C58.5570429,12.7411968 61.2687387,15.9809629 60.9424453,19.6612778 L60.9424453,19.6612778 Z" id="Shape" fill="#38834B"></path>
                        <path d="M56.186472,61.0505891 C55.9442238,62.5949849 54.4956789,63.636957 52.9729765,63.3944077 C51.4280267,63.1543333 50.3749889,61.7089373 50.6221809,60.1645415 C50.8693729,58.6300458 52.3080301,57.5781736 53.8529798,57.825673 C55.3707385,58.0607973 56.4262482,59.5012434 56.186472,61.0505891 L56.186472,61.0505891 Z" id="Shape" fill="#AFD136"></path>
                        <path d="M48.1255421,60.4986656 C47.8783501,62.0331614 46.4446368,63.0800835 44.9145185,62.8375342 C43.3745126,62.5925099 42.3264187,61.1520638 42.5711387,59.6027181 C42.8109149,58.0756473 44.2471002,57.0163502 45.7871061,57.2737495 C47.3172244,57.5063988 48.3603745,58.9567449 48.1255421,60.4986656 L48.1255421,60.4986656 Z" id="Shape" fill="#AFD136"></path>
                        <path d="M40.0670842,59.9393172 C39.8223641,61.4787629 38.381235,62.5256851 36.8511167,62.2856107 C35.3185266,62.0331614 34.2679607,60.5976653 34.505265,59.0631696 C34.7549289,57.5162988 36.1935861,56.4669017 37.7311201,56.704501 C39.271126,56.9569503 40.316748,58.3973964 40.0670842,59.9393172 L40.0670842,59.9393172 Z" id="Shape" fill="#AFD136"></path>
                        <path d="M32.0135701,59.3799687 C31.7737939,60.9218895 30.3203051,61.9688116 28.7926588,61.7188373 C27.2551248,61.4812379 26.2095028,60.0457419 26.4468071,58.5087711 C26.6865833,56.9594253 28.1301843,55.9075532 29.6726622,56.1525776 C31.2003085,56.3951269 32.2508743,57.8504229 32.0135701,59.3799687 L32.0135701,59.3799687 Z" id="Shape" fill="#AFD136"></path>
                        <g transform="translate(24.719196, 27.224925)" id="Rectangle-path">
                            <rect fill="#64522C" transform="translate(19.853688, 2.519975) rotate(5.025330) translate(-19.853688, -2.519975) " x="3.99933245" y="1.47176924" width="31.7087111" height="2.09641169"></rect>
                            <rect fill="#64522C" transform="translate(19.380480, 8.008584) rotate(5.025330) translate(-19.380480, -8.008584) " x="3.52736083" y="6.95295271" width="31.7062391" height="2.1112623"></rect>
                            <rect fill="#64522C" transform="translate(18.820990, 13.539753) rotate(5.019622) translate(-18.820990, -13.539753) " x="2.96677323" y="12.4890815" width="31.7084336" height="2.1013435"></rect>
                            <rect fill="#64522C" transform="translate(18.341405, 19.034458) rotate(5.019622) translate(-18.341405, -19.034458) " x="2.4871883" y="17.9763614" width="31.7084336" height="2.11619398"></rect>
                            <rect fill="#64522C" transform="translate(17.810579, 24.476453) rotate(5.054370) translate(-17.810579, -24.476453) " x="1.95587029" y="23.4258307" width="31.7094173" height="2.10124487"></rect>
                            <rect fill="#AD182B" transform="translate(15.921841, 41.363244) rotate(5.025330) translate(-15.921841, -41.363244) " x="0.0674850998" y="40.3138004" width="31.7087111" height="2.09888679"></rect>
                        </g>
                        <g transform="translate(10.975705, 27.224925)" fill="#FFF229">
                            <rect id="Rectangle-path" transform="translate(7.212104, 3.802201) rotate(5.019622) translate(-7.212104, -3.802201) " x="3.73522607" y="0.317287029" width="6.95375564" height="6.96982719"></rect>
                            <rect id="Rectangle-path" transform="translate(6.069608, 16.042632) rotate(5.054370) translate(-6.069608, -16.042632) " x="2.58918587" y="12.5578823" width="6.96084495" height="6.96950008"></rect>
                            <rect id="Rectangle-path" transform="translate(5.053630, 28.265827) rotate(5.054370) translate(-5.053630, -28.265827) " x="1.57567915" y="24.7798396" width="6.95590117" height="6.97197504"></rect>
                            <polygon id="Shape" points="7.10612627 44.3617099 0.172391753 43.7429616 0.780483978 36.8105057 7.71669041 37.409454"></polygon>
                        </g>
                    </g>
                </g>
            </g>
        </g>
    </g>
</svg>