<?xml version="1.0" encoding="UTF-8" standalone="no"?>
<svg width="730px" height="562px" viewBox="0 0 730 562" version="1.1" xmlns="http://www.w3.org/2000/svg" xmlns:xlink="http://www.w3.org/1999/xlink">
    <!-- Generator: Sketch 40.3 (33839) - http://www.bohemiancoding.com/sketch -->
    <title>Sleeping in Bed</title>
    <desc>Created with Sketch.</desc>
    <defs>
        <ellipse id="path-1" cx="80.9990205" cy="55.7887115" rx="26.5" ry="22.5"></ellipse>
        <filter x="-50%" y="-50%" width="200%" height="200%" filterUnits="objectBoundingBox" id="filter-2">
            <feGaussianBlur stdDeviation="0 0" in="SourceGraphic"></feGaussianBlur>
        </filter>
        <filter x="-50%" y="-50%" width="200%" height="200%" filterUnits="objectBoundingBox" id="filter-3">
            <feOffset dx="0" dy="2" in="SourceAlpha" result="shadowOffsetOuter1"></feOffset>
            <feGaussianBlur stdDeviation="2" in="shadowOffsetOuter1" result="shadowBlurOuter1"></feGaussianBlur>
            <feColorMatrix values="0 0 0 0 0   0 0 0 0 0   0 0 0 0 0  0 0 0 0.5 0" type="matrix" in="shadowBlurOuter1"></feColorMatrix>
        </filter>
        <ellipse id="path-4" cx="33.9626124" cy="30.9760147" rx="26.5" ry="22.5"></ellipse>
        <filter x="-50%" y="-50%" width="200%" height="200%" filterUnits="objectBoundingBox" id="filter-5">
            <feGaussianBlur stdDeviation="0 0" in="SourceGraphic"></feGaussianBlur>
        </filter>
        <filter x="-50%" y="-50%" width="200%" height="200%" filterUnits="objectBoundingBox" id="filter-6">
            <feOffset dx="0" dy="2" in="SourceAlpha" result="shadowOffsetOuter1"></feOffset>
            <feGaussianBlur stdDeviation="2" in="shadowOffsetOuter1" result="shadowBlurOuter1"></feGaussianBlur>
            <feColorMatrix values="0 0 0 0 0   0 0 0 0 0   0 0 0 0 0  0 0 0 0.5 0" type="matrix" in="shadowBlurOuter1"></feColorMatrix>
        </filter>
    </defs>
    <g id="GloBot" stroke="none" stroke-width="1" fill="none" fill-rule="evenodd">
        <g id="Sleeping-in-Bed" transform="translate(0.000000, -4.000000)">
            <g id="Green-Bed" transform="translate(365.000000, 318.500000) scale(-1, 1) translate(-365.000000, -318.500000) translate(0.000000, 71.000000)">
                <g id="g3" fill="#95FF67">
                    <path d="M540.982593,12.0157219 C595.761411,23.6918182 641.477837,40.9483155 674.227891,60.2601337 L674.227891,60.2601337 C706.503137,79.8061765 728.133296,100.330107 729.077051,126.030401 L729.077051,126.030401 C729.077051,127.693396 728.965676,129.39738 728.725341,131.154064 L728.725341,131.154064 C723.748646,165.854439 717.851643,220.194545 717.839919,220.276524 L717.839919,220.276524 C717.558551,222.864706 716.368599,225.347487 714.551432,227.221283 L714.551432,227.221283 L708.173759,233.721016 C705.108021,236.830348 700.553377,237.995615 696.373891,236.724947 L696.373891,236.724947 L672.768295,229.52254 L649.268211,249.823957 C648.617548,250.391952 647.966884,250.872112 647.351392,251.287861 L647.351392,251.287861 C646.935202,251.721176 646.653834,251.978824 646.489703,252.125214 L646.489703,252.125214 L646.489703,252.125214 C646.184888,252.394572 645.698356,252.857166 644.965627,253.413449 L644.965627,253.413449 L604.061764,291.316845 C603.264555,292.054652 602.391142,292.657781 601.459111,293.143797 L601.459111,293.143797 C601.142572,293.360455 600.843619,293.559545 600.550527,293.74107 L600.550527,293.74107 C599.870555,294.150963 599.360575,294.396898 599.108517,294.519866 L599.108517,294.519866 L599.096793,294.519866 C598.100282,295.017594 596.922053,295.486043 595.585556,295.854947 L595.585556,295.854947 C595.315911,295.919358 594.858689,296.042326 594.184578,296.17115 L594.184578,296.17115 C594.03217,296.311684 593.868039,296.452219 593.70977,296.592754 L593.70977,296.592754 L432.77904,437.455428 L432.351126,465.427701 C431.923213,474.41607 427.345122,480.207273 422.468078,485.003021 L422.468078,485.003021 C417.573448,489.470856 411.869886,493.042781 404.648109,494.319305 L404.648109,494.319305 C403.141619,494.670642 401.447549,494.916578 399.612796,494.916578 L399.612796,494.916578 L399.489697,494.916578 L399.489697,494.916578 C395.890533,494.916578 392.349986,494.079225 389.026328,492.60361 L389.026328,492.60361 L35.3175364,334.619118 C22.4977104,328.31262 13.5173841,316.513556 10.8736979,302.489358 L10.8736979,302.489358 L0.339986243,232.549893 C0.111374804,231.068422 3.17085225e-14,229.627941 3.17085225e-14,228.28115 L3.17085225e-14,228.28115 C-0.0234473271,223.71377 1.28374116,218.918021 4.25568987,215.065027 L4.25568987,215.065027 L4.2615517,215.070882 C11.2605788,205.807299 21.0791471,201.567834 32.0173252,201.075963 L32.0173252,201.075963 C34.7430769,201.075963 37.6212363,201.456578 40.5755996,202.598422 L40.5755996,202.598422 L64.3160182,211.85615 C128.151683,180.968442 191.808984,149.680949 255.130366,117.77984 L255.130366,117.77984 L308.555101,91.6345187 C308.748541,91.5349733 308.895087,91.4647059 309.0006,91.4120053 L309.0006,91.4120053 C309.328863,91.2304813 309.932631,90.9142781 310.829492,90.5512299 L310.829492,90.5512299 C312.236331,90.018369 312.793205,89.9539572 312.963199,89.8954011 L312.963199,89.8954011 C312.963199,89.8954011 312.963199,89.8954011 313.25629,89.8134225 L313.25629,89.8134225 C313.396974,89.7782888 313.584553,89.7255882 313.813164,89.6787433 L313.813164,89.6787433 C315.384135,88.1679947 317.019586,87.1198396 318.690208,86.2414973 L318.690208,86.2414973 L323.725522,83.6064706 C324.610658,78.0143583 327.125384,73.2478877 330.232155,68.9674332 L330.232155,68.9674332 C334.136135,63.7325134 339.24179,59.2295455 345.496365,56.1260695 L345.496365,56.1260695 L355.514235,51.2190642 L355.514235,48.0394652 L355.514235,48.0394652 C355.262177,31.8721123 366.815847,18.4686096 382.789339,11.9805882 L382.789339,11.9805882 C397.414609,3.74173797 417.503106,0.0702673797 444.104099,0 L444.104099,0 C470.025119,0 502.165543,3.7534492 540.982593,12.0157219 L540.982593,12.0157219" id="path5"></path>
                </g>
                <path d="M369.600217,60.6290374 L351.967827,69.2719251 C344.195038,72.9316845 337.852536,81.9668984 338.045977,87.6058556 L338.045977,87.6058556 L338.045977,87.7463904 L338.045977,87.7463904 C337.934602,93.1921123 344.740189,100.874679 353.087437,103.029545 L353.087437,103.029545 L440.786302,126.990722 C443.107588,127.628984 445.903681,127.951043 448.863906,127.951043 L448.863906,127.951043 C456.384637,127.974465 465.001529,125.802032 470.130632,122.423342 L470.130632,122.423342 L486.197913,111.988636 C493.636577,107.327567 499.932185,97.4432888 499.861843,92.389893 L499.861843,92.389893 C499.826672,92.0795455 499.850119,91.9448663 499.838396,91.9448663 L499.838396,91.9448663 C500.078731,87.0729947 493.61313,79.9818449 485.224849,78.0436364 L485.224849,78.0436364 L400.474485,57.2913369 L401.172043,54.4572193 L400.474485,57.2913369 C397.836661,56.6413636 394.60093,56.3075936 391.171758,56.3134492 L391.171758,56.3134492 L391.007627,56.3134492 L391.007627,56.3134492 C383.457587,56.3134492 374.946208,57.9822995 369.600217,60.6290374 L369.600217,60.6290374 L369.600217,60.6290374 Z" id="path7" fill="#FFFFFF"></path>
                <path d="M493.390381,129.760428 C493.390381,129.760428 493.378657,129.830695 493.378657,130.02393 L493.378657,130.02393 C493.226249,135.791711 499.480824,143.187353 507.534981,145.248529 L507.534981,145.248529 L617.057446,174.421203 C618.915646,174.913075 621.0728,175.182433 623.353053,175.182433 L623.353053,175.182433 C630.89723,175.217567 639.719287,172.272193 644.531851,167.956604 L644.531851,167.956604 L656.888592,157.076872 C663.606252,151.285668 669.948754,139.931631 670.447009,133.595856 L670.447009,133.595856 C670.476319,133.209385 670.499766,132.881471 670.499766,132.629679 L670.499766,132.629679 C670.628726,127.178102 664.854822,120.490989 656.958934,118.669893 L656.958934,118.669893 L553.13417,94.0294652 C550.971154,93.4966043 548.409534,93.2448128 545.695505,93.2448128 L545.695505,93.2448128 C537.881684,93.2213904 528.725503,95.4640909 523.303308,98.8662032 L523.303308,98.8662032 L507.640494,108.568957 C500.190105,113.030936 493.54865,123.301684 493.402104,129.584759 L493.402104,129.584759 L490.465327,129.438369 L493.390381,129.760428 L493.390381,129.760428 L493.390381,129.760428 Z" id="path9" fill="#FFFFFF"></path>
                <path d="M538.544071,23.4693048 C460.329649,6.81593583 410.574421,9.1113369 387.930165,22.5441176 C412.883983,12.045 460.616879,11.4243048 532.160536,26.6547594 C643.318452,50.3231551 715.758969,97.6482353 710.741241,132.688235 C705.735237,167.728235 699.808925,225.523155 699.808925,225.523155 L706.19246,219.017567 C706.19246,219.017567 712.11291,164.542781 717.124776,129.502781 C722.136642,94.4627807 649.696125,47.1318449 538.544071,23.4693048 L538.544071,23.4693048 Z" id="path11" fill="#FFFFFF"></path>
                <path d="M406.717336,357.994733 L36.3140479,213.519144 C29.6491451,210.919251 17.7730739,215.668155 13.5642787,222.185455 C15.785913,219.269358 19.8657479,218.367594 24.9245087,220.346791 L395.321935,364.82238 C403.839177,368.142513 410.685796,378.331283 410.545112,387.454332 L409.232062,472.09139 C409.144134,477.853316 406.336317,481.723877 402.18614,482.871578 C410.422014,481.817567 420.504364,472.729652 420.621601,465.263743 L421.934651,380.626684 C422.081197,371.497781 415.228716,361.314866 406.717336,357.994733 L406.717336,357.994733 Z" id="path13" fill="#FFFFFF"></path>
                <path d="M672.867946,145.067005 C669.978063,151.121711 665.599274,157.135428 660.769125,161.468583 L648.418246,172.348316 C642.040573,177.899439 632.315794,180.985348 623.358915,181.032193 C622.614462,181.032193 621.893457,180.950214 621.160728,180.909225 L634.812934,184.656818 C641.331291,186.554037 645.956276,192.760989 646.044204,199.506658 C646.044204,199.746738 646.044204,199.963396 646.03248,200.232754 L643.945668,238.13615 C643.928082,238.46992 643.828431,238.768556 643.79326,239.096471 L683.964393,204.378529 C688.108708,200.800749 692.024412,193.410963 692.651628,187.971096 L695.811155,160.883021 C696.426648,155.443155 692.59301,149.92131 687.270467,148.609652 L672.867946,145.067005 Z" id="path15" fill="#2E2EA7"></path>
                <path d="M504.504414,103.632674 L502.241747,103.07639 C501.274544,104.803797 500.137349,106.490214 498.853608,108.112219 C500.623881,106.437513 502.511391,104.903342 504.504414,103.632674 L504.504414,103.632674 Z" id="path17" fill="#FFFFFF"></path>
                <path d="M332.928598,92.0151337 L324.13585,96.6176471 C322.934174,97.2441979 322.060761,97.9234492 321.486302,98.6085561 L342.577173,104.399759 C337.922878,101.196738 334.370608,96.846016 332.928598,92.0151337 L332.928598,92.0151337 Z" id="path19" fill="#FFFFFF"></path>
                <path d="M487.516825,130.029786 C487.516825,129.836551 487.516825,129.537914 487.551996,129.139733 C487.956463,123.606176 490.770142,117.627594 494.8617,112.468797 C493.150045,114.096658 491.327016,115.613262 489.398473,116.901497 L473.319469,127.336203 C466.935934,131.452701 457.926298,133.642701 449.508708,133.771524 L497.745722,147.022781 C491.754929,142.929706 487.634062,136.722754 487.516825,130.029786 L487.516825,130.029786 Z" id="path21" fill="#FFFFFF"></path>
                <path d="M308.514068,102.666497 L262.645235,125.099358 C262.645235,125.099358 476.089913,188.5534 582.812252,220.28042 C586.057877,221.245298 592.549127,223.175053 592.549127,223.175053 C598.979556,225.177674 603.44041,231.372914 603.528338,238.019037 C603.528338,238.346952 603.516614,238.610455 603.516614,238.944225 L601.054645,274.130615 L635.698071,242.035989 C637.087325,241.157647 637.949014,239.892834 638.077974,237.819947 L640.164786,199.986818 C640.276161,195.67123 636.923193,191.220963 633.253687,190.313342 L604.930514,182.514176 C507.557273,155.701144 312.810791,102.07508 312.810791,102.07508 C312.195299,101.905267 311.638425,101.835 311.157754,101.835 C310.190552,101.835 309.446099,102.080936 308.514068,102.666497 Z" id="path23" fill="#2E2EA7"></path>
                <path d="M578.656673,211.720458 C610.734639,220.668587 607.878696,247.06519 605.832272,273.057421 L434.990193,417.462789 C440.20499,375.950027 429.694867,357.999628 414.009771,347.803456 L61.765969,210.044171 L253.634761,116.837068 L578.656673,211.720458 Z" id="rect3548" fill="#2D2DA7"></path>
            </g>
            <g id="Sleeping-GloBot" transform="translate(345.908117, 191.408117) rotate(315.000000) translate(-345.908117, -191.408117) translate(238.408117, 29.408117)">
                <path d="M179.448,52.4958081 L166.6,41.4928081 C162.255,37.7698081 155.72,38.2748081 152,42.6208081 L180.576,67.0938081 C184.297,62.7498081 183.791,56.2128081 179.448,52.4958081" id="Fill-56" fill="#231F1F"></path>
                <polyline id="Fill-57" fill="#231F1F" points="169 41.295 200.513 11 205.241 13.727 181.172 52.646 169 41.295"></polyline>
                <path d="M211.328553,15.0468077 C207.772553,18.2058077 202.329553,17.8828077 199.172553,14.3268077 C196.014553,10.7708077 196.337553,5.32980771 199.892553,2.17080771 C203.447553,-0.984192289 208.890553,-0.663192289 212.047553,2.89280771 C215.204553,6.44880771 214.883553,11.8908077 211.328553,15.0468077" id="Fill-58" fill="#FFF20D"></path>
                <path d="M156.746,239.374 C156.746,272.164 130.165,298.747 97.373,298.747 C64.582,298.747 38,272.164 38,239.374 C38,206.583 64.582,180 97.373,180 C130.165,180 156.746,206.583 156.746,239.374" id="Fill-59" fill="#7FC4EC"></path>
                <path d="M79.403,318.223 C79.403,321.083 77.083,323.401 74.224,323.401 L63.179,323.401 C60.32,323.401 58,321.083 58,318.223 L58,307.177 C58,304.318 60.32,302 63.179,302 L74.224,302 C77.083,302 79.403,304.318 79.403,307.177 L79.403,318.223" id="Fill-60" fill="#7FC4EC"></path>
                <path d="M137.401,318.223 C137.401,321.083 135.083,323.401 132.224,323.401 L121.177,323.401 C118.318,323.401 116,321.083 116,318.223 L116,307.177 C116,304.318 118.318,302 121.177,302 L132.224,302 C135.083,302 137.401,304.318 137.401,307.177 L137.401,318.223" id="Fill-61" fill="#7FC4EC"></path>
                <polyline id="Fill-62" fill="#231F1F" points="116.579 176.114 85.171 176.595 85 165.481 116.409 165 116.579 176.114"></polyline>
                <path d="M37.5992742,225.73737 C37.0172742,227.51337 35.1052742,228.47837 33.3302742,227.89537 C31.5542742,227.31537 30.5872742,225.40237 31.1692742,223.62637 L36.5122742,207.32937 C37.0942742,205.55637 39.0062742,204.58937 40.7812742,205.16737 C42.5572742,205.75237 43.5262742,207.66137 42.9432742,209.43937 L37.5992742,225.73737" id="Fill-63" fill="#231F1F"></path>
                <polyline id="Fill-64" fill="#231F1F" points="12.295 257.878 2 229.219 17.904 206 39.416 213.131 36.809 220.995 21.215 215.826 11.23 230.404 20.093 255.078 12.295 257.878"></polyline>
                <path d="M26.498,210.249 C26.498,214.253 23.253,217.498 19.249,217.498 C15.245,217.498 12,214.253 12,210.249 C12,206.244 15.245,203 19.249,203 C23.253,203 26.498,206.244 26.498,210.249" id="Fill-65" fill="#231F1F"></path>
                <path d="M13.981,229.99 C13.981,233.851 10.851,236.98 6.99,236.98 C3.13,236.98 0,233.851 0,229.99 C0,226.129 3.13,223 6.99,223 C10.851,223 13.981,226.129 13.981,229.99" id="Fill-66" fill="#231F1F"></path>
                <path d="M30.4466049,259.533419 C30.4206049,259.446419 30.4186049,259.357419 30.3896049,259.266419 C28.3326049,252.974419 21.5616049,249.539419 15.2666049,251.596419 C8.97260491,253.656419 5.53960491,260.425419 7.59660491,266.719419 C7.62560491,266.810419 7.67660491,266.883419 7.70660491,266.968419 L30.4466049,259.533419" id="Fill-67" fill="#231F1F"></path>
                <path d="M156.513173,225.73737 C157.094173,227.51337 159.007173,228.47837 160.783173,227.89537 C162.558173,227.31537 163.527173,225.40237 162.944173,223.62637 L157.600173,207.32937 C157.018173,205.55637 155.107173,204.58937 153.331173,205.16737 C151.555173,205.75237 150.587173,207.66137 151.169173,209.43937 L156.513173,225.73737" id="Fill-68" fill="#231F1F"></path>
                <polyline id="Fill-69" fill="#231F1F" points="182.12 257.878 192.416 229.219 176.512 206 155 213.131 157.606 220.995 173.201 215.826 183.186 230.404 174.323 255.078 182.12 257.878"></polyline>
                <path d="M167,210.249 C167,214.253 170.246,217.498 174.249,217.498 C178.253,217.498 181.498,214.253 181.498,210.249 C181.498,206.244 178.253,203 174.249,203 C170.246,203 167,206.244 167,210.249" id="Fill-70" fill="#231F1F"></path>
                <path d="M181,229.99 C181,233.851 184.13,236.98 187.991,236.98 C191.851,236.98 194.98,233.851 194.98,229.99 C194.98,226.129 191.851,223 187.991,223 C184.13,223 181,226.129 181,229.99" id="Fill-71" fill="#231F1F"></path>
                <path d="M164,259.533419 C164.027,259.446419 164.03,259.357419 164.059,259.266419 C166.117,252.974419 172.886,249.539419 179.181,251.596419 C185.476,253.656419 188.909,260.425419 186.851,266.719419 C186.822,266.810419 186.772,266.883419 186.743,266.968419 L164,259.533419" id="Fill-72" fill="#231F1F"></path>
                <path d="M105.118,207.559 C105.118,211.181 102.18,214.118 98.558,214.118 C94.936,214.118 92,211.181 92,207.559 C92,203.937 94.936,201 98.558,201 C102.18,201 105.118,203.937 105.118,207.559" id="Fill-73" fill="#231F1F"></path>
                <path d="M105.118,240.559 C105.118,244.182 102.18,247.118 98.558,247.118 C94.936,247.118 92,244.182 92,240.559 C92,236.937 94.936,234 98.558,234 C102.18,234 105.118,236.937 105.118,240.559" id="Fill-74" fill="#231F1F"></path>
                <path d="M105.118,272.559 C105.118,276.182 102.18,279.118 98.558,279.118 C94.936,279.118 92,276.182 92,272.559 C92,268.936 94.936,266 98.558,266 C102.18,266 105.118,268.936 105.118,272.559" id="Fill-75" fill="#231F1F"></path>
                <polyline id="Fill-76" fill="#7FC4EC" points="7 52.666 64.993 163.126 139.553 163.126 180.976 71.996 146.459 43 7 52.666"></polyline>
                <path d="M93.853,90.426 C93.853,103.365 83.364,113.852 70.427,113.852 C57.489,113.852 47,103.365 47,90.426 C47,77.489 57.489,67 70.427,67 C83.364,67 93.853,77.489 93.853,90.426" id="Fill-77" fill="#FFFFFF"></path>
                <path d="M138.853,114.426 C138.853,127.365 128.364,137.852 115.428,137.852 C102.488,137.852 92,127.365 92,114.426 C92,101.489 102.488,91 115.428,91 C128.364,91 138.853,101.489 138.853,114.426" id="Fill-78" fill="#FFFFFF"></path>
                <path d="M77.926,90.965 C77.926,96.467 73.465,100.929 67.962,100.929 C62.46,100.929 58,96.467 58,90.965 C58,85.462 62.46,81 67.962,81 C73.465,81 77.926,85.462 77.926,90.965" id="Fill-79" fill="#231F1F"></path>
                <path d="M125.928,113.965 C125.928,119.467 121.466,123.928 115.964,123.928 C110.461,123.928 106,119.467 106,113.965 C106,108.462 110.461,104 115.964,104 C121.466,104 125.928,108.462 125.928,113.965" id="Fill-80" fill="#231F1F"></path>
                <polygon id="Fill-81" fill="#231F1F" points="81.1473645 142.551329 77.221474 146.220106 89.559 144.439398 66 129"></polygon>
                <g id="Sleepy-Eyelids" transform="translate(40.000000, 56.000000)">
                    <g id="Oval-4-Copy-2" filter="url(#filter-2)" transform="translate(80.999020, 55.788711) rotate(22.000000) translate(-80.999020, -55.788711) ">
                        <use fill="black" fill-opacity="1" filter="url(#filter-3)" xlink:href="#path-1"></use>
                        <use fill="#7FC4EC" fill-rule="evenodd" xlink:href="#path-1"></use>
                    </g>
                    <g id="Oval-4-Copy-3" filter="url(#filter-5)" transform="translate(33.962612, 30.976015) rotate(22.000000) translate(-33.962612, -30.976015) ">
                        <use fill="black" fill-opacity="1" filter="url(#filter-6)" xlink:href="#path-4"></use>
                        <use fill="#7FC4EC" fill-rule="evenodd" xlink:href="#path-4"></use>
                    </g>
                </g>
            </g>
            <g id="Green-Blanket" transform="translate(405.270779, 335.871433) rotate(330.000000) translate(-405.270779, -335.871433) translate(177.770779, 161.371433)">
                <path d="M328.876507,42.5088795 C366.435602,53.0554799 391.474999,50.9440762 394.604923,101.577829 C400.864773,158.538847 447.813642,183.854856 447.813642,228.156134 C450.943566,247.141403 454.073491,274.567079 454.073491,274.567079 C363.305677,259.799407 141.086182,230.267537 44.058519,261.909075 C37.7986698,200.730458 -12.2775479,95.2470905 3.36949909,65.7117476 C19.0191221,36.1798774 59.7081421,2.42519982 81.6176144,0.315532474 C159.86573,12.9735366 291.317411,31.9605427 328.876507,42.5088795 Z" id="Fill-1" fill="#95FF67"></path>
                <path d="M81.6176144,0.315532474 C159.86573,12.9735366 291.317411,31.9605427 328.876507,42.5088795 C366.435602,53.0554799 391.474999,50.9440762 394.604923,101.577829 C400.864773,158.538847 447.813642,183.854856 447.813642,228.156134 C450.943566,247.141403 454.073491,274.567079 454.073491,274.567079 C363.305677,259.799407 141.086182,230.267537 44.058519,261.909075 C37.7986698,200.730458 -12.2775479,95.2470905 3.36949909,65.7117476 C19.0191221,36.1798774 59.7081421,2.42519982 81.6176144,0.315532474 L81.6176144,0.315532474 Z" id="Stroke-2" stroke="#000000" stroke-width="3.645"></path>
                <path d="M45.9905713,21.8549757 C42.8606467,72.4852557 91.0073882,207.061196 84.747539,253.470405" id="Stroke-3" stroke="#000000" stroke-width="2.43"></path>
                <path d="M89.075336,3.80559945 C78.2172025,66.1545173 137.956257,200.730458 131.696408,247.141403 M188.035051,18.1305012 C184.905127,68.7590449 234.98392,200.730458 228.724071,247.141403" id="Stroke-4" stroke="#000000" stroke-width="4.5"></path>
                <path d="M234.017894,24.7321105 C230.88797,75.3623905 281.927637,209.169127 275.67294,255.580073" id="Stroke-5" stroke="#000000" stroke-width="2.43"></path>
                <path d="M279.995585,32.7679463 C276.870813,83.39649 328.876507,209.169127 322.616657,255.580073" id="Stroke-6" stroke="#000000" stroke-width="4.5"></path>
                <path d="M347.192362,47.2230744 C369.101834,142.156369 419.180628,163.251306 409.790854,266.62327" id="Stroke-7" stroke="#000000" stroke-width="2.43"></path>
                <path d="M16.2549994,139.551841 C60.073944,121.618801 127.368611,98.4124597 233.786048,117.399466 C350.8375,138.284304 390.212725,145.879107 409.056674,145.879107" id="Stroke-8" stroke="#000000" stroke-width="4.5"></path>
                <path d="M4.93317336,107.905095 C48.7521179,89.9737903 116.046785,66.7674495 222.464222,85.7544556 C328.876507,104.741462 366.435602,113.180131 396.171174,113.180131 M14.3229472,151.154143 C58.1418918,133.221103 125.436559,110.014762 231.853996,129.001768 C344.129415,149.037531 391.474999,157.483146 414.950721,157.483146" id="Stroke-9" stroke="#000000" stroke-width="2.43"></path>
                <path d="M27.2110236,187.200805 C71.0299682,169.267765 138.322059,146.06316 244.739496,165.050166 C357.014915,185.08072 412.186599,193.529807 435.662321,193.529807" id="Stroke-10" stroke="#000000" stroke-width="4.5"></path>
                <path d="M31.5388206,199.676493 C75.3577652,181.743452 142.649856,158.538847 249.067293,177.525854 C361.342712,197.556407 418.080646,206.005495 441.553793,206.005495" id="Stroke-11" stroke="#000000" stroke-width="2.43"></path>
                <path d="M42.4922687,229.211835 C86.3112133,211.280531 153.60588,188.07419 260.023317,207.061196 C372.298736,227.09175 422.774245,235.540837 446.249968,235.540837" id="Stroke-12" stroke="#000000" stroke-width="4.5"></path>
                <path d="M454.073491,274.567079 C363.305677,259.799407 141.086182,230.267537 44.058519,261.909075 C50.3183683,293.554085 47.1884437,323.089428 47.1884437,323.089428 L56.5782175,329.41843 C56.5782175,329.41843 61.2718164,304.102422 58.1418918,291.444418 C59.7081421,314.650759 58.1418918,322.035462 58.1418918,322.035462 L70.6615902,319.924059 C70.6615902,319.925795 70.6615902,283.005748 67.5316656,273.513113 L70.6615902,309.375722 L83.1812887,314.650759 L78.4876898,264.018742 L84.747539,331.528097 L97.2672374,328.362728 L92.5710625,267.182375 L95.7009871,312.541091 L106.657011,313.595057 L103.527087,273.513113 L108.220686,324.143393 L117.610459,329.41843 L114.480535,259.799407 L117.610459,313.595057 L130.130158,313.595057 L127.000233,259.799407 L130.130158,325.199095 L139.519932,323.089428 L137.956257,269.293779 L139.519932,309.375722 L153.60588,316.760426 L153.60588,264.018742 L153.60588,301.992754 L167.689253,313.595057 L164.559329,265.072708 L169.255504,324.143393 L183.338876,332.582063 L181.775202,258.743706 L183.338876,317.814391 L192.72865,320.979761 L194.2949,267.182375 L192.72865,311.485389 L208.378273,320.979761 L205.248349,262.96304 L208.378273,325.199095 L222.464222,327.308763 L222.464222,268.238077 L222.464222,327.308763 L236.547595,328.362728 L236.547595,260.853373 L236.547595,320.979761 L245.937368,316.760426 L245.937368,271.40171 L245.937368,305.156387 L256.893393,313.595057 L256.893393,265.072708 L256.893393,334.693467 L267.846841,343.1304 L267.846841,274.567079 L267.846841,333.637765 L278.802865,337.857099 L278.802865,276.676746 L278.802865,330.474132 L292.883662,326.253061 L292.883662,265.072708 L292.883662,344.186101 L308.530709,339.966767 L308.530709,271.40171 L308.530709,327.308763 L316.356808,331.528097 L316.356808,267.182375 L316.356808,335.747432 L330.442757,336.801398 L330.442757,275.621044 L330.442757,330.474132 L344.52613,332.582063 L344.52613,272.457412 L344.52613,335.747432 L360.175753,338.912801 L360.175753,270.347744 L360.175753,333.637765 L374.261702,333.637765 L374.261702,279.840379 L374.261702,337.857099 L386.778824,337.857099 L386.778824,279.840379 L386.778824,332.582063 L400.864773,338.912801 L400.864773,283.005748 L402.431023,343.1304 L411.818221,336.801398 L414.950721,286.169381 L413.384471,331.528097 L429.034094,338.912801 L425.90417,280.896081 L430.600345,348.405436 L440.770667,341.546847 L436.857618,285.115416 L441.553793,334.693467 L454.073491,338.912801 L454.073491,274.567079 L454.073491,274.567079 Z" id="Fill-13" fill="#FFFFFF"></path>
                <path d="M454.073491,274.567079 C363.305677,259.799407 141.086182,230.267537 44.058519,261.909075 C50.3183683,293.554085 47.1884437,323.089428 47.1884437,323.089428 L56.5782175,329.41843 C56.5782175,329.41843 61.2718164,304.102422 58.1418918,291.444418 C59.7081421,314.650759 58.1418918,322.035462 58.1418918,322.035462 L70.6615902,319.924059 C70.6615902,319.925795 70.6615902,283.005748 67.5316656,273.513113 L70.6615902,309.375722 L83.1812887,314.650759 L78.4876898,264.018742 L84.747539,331.528097 L97.2672374,328.362728 L92.5710625,267.182375 L95.7009871,312.541091 L106.657011,313.595057 L103.527087,273.513113 L108.220686,324.143393 L117.610459,329.41843 L114.480535,259.799407 L117.610459,313.595057 L130.130158,313.595057 L127.000233,259.799407 L130.130158,325.199095 L139.519932,323.089428 L137.956257,269.293779 L139.519932,309.375722 L153.60588,316.760426 L153.60588,264.018742 L153.60588,301.992754 L167.689253,313.595057 L164.559329,265.072708 L169.255504,324.143393 L183.338876,332.582063 L181.775202,258.743706 L183.338876,317.814391 L192.72865,320.979761 L194.2949,267.182375 L192.72865,311.485389 L208.378273,320.979761 L205.248349,262.96304 L208.378273,325.199095 L222.464222,327.308763 L222.464222,268.238077 L222.464222,327.308763 L236.547595,328.362728 L236.547595,260.853373 L236.547595,320.979761 L245.937368,316.760426 L245.937368,271.40171 L245.937368,305.156387 L256.893393,313.595057 L256.893393,265.072708 L256.893393,334.693467 L267.846841,343.1304 L267.846841,274.567079 L267.846841,333.637765 L278.802865,337.857099 L278.802865,276.676746 L278.802865,330.474132 L292.883662,326.253061 L292.883662,265.072708 L292.883662,344.186101 L308.530709,339.966767 L308.530709,271.40171 L308.530709,327.308763 L316.356808,331.528097 L316.356808,267.182375 L316.356808,335.747432 L330.442757,336.801398 L330.442757,275.621044 L330.442757,330.474132 L344.52613,332.582063 L344.52613,272.457412 L344.52613,335.747432 L360.175753,338.912801 L360.175753,270.347744 L360.175753,333.637765 L374.261702,333.637765 L374.261702,279.840379 L374.261702,337.857099 L386.778824,337.857099 L386.778824,279.840379 L386.778824,332.582063 L400.864773,338.912801 L400.864773,283.005748 L402.431023,343.1304 L411.818221,336.801398 L414.950721,286.169381 L413.384471,331.528097 L429.034094,338.912801 L425.90417,280.896081 L430.600345,348.405436 L440.770667,341.546847 L436.857618,285.115416 L441.553793,334.693467 L454.073491,338.912801 L454.073491,274.567079 L454.073491,274.567079 Z" id="Stroke-14" stroke="#000000" stroke-width="2.43" stroke-linecap="round" stroke-linejoin="round" fill="#2E2EA7"></path>
                <path d="M3.00112113,94.8824566 C46.8200657,76.9511524 114.114733,53.7448115 220.53217,72.7318177 C326.944454,91.7188238 364.50355,100.157493 394.239122,100.157493" id="Stroke-15" stroke="#000000" stroke-width="4.5"></path>
                <path d="M44.4243209,240.93221 C88.2432655,223.000905 155.537933,199.794564 261.955369,218.781571 C374.230789,238.812124 424.706297,247.261212 448.18202,247.261212" id="Stroke-16" stroke="#000000" stroke-width="2.43"></path>
                <path d="M329.803892,44.6185468 C351.713364,139.551841 397.928053,161.949042 388.538279,265.321006" id="Stroke-17" stroke="#000000" stroke-width="4.5"></path>
                <path d="M8.79727782,59.0702023 C49.718144,45.0456893 116.046785,19.8859528 222.464222,38.872959 C314.095019,55.2224468 354.670692,63.7496702 383.162022,65.8037743" id="Stroke-18" stroke="#000000" stroke-width="2.43"></path>
                <path d="M21.3375848,40.8367728 C64.9993891,24.7442649 127.963683,9.33414335 220.53217,25.850321 C287.834565,37.8589295 327.5962,45.6482034 355.252884,49.7512025" id="Stroke-19" stroke="#000000" stroke-width="4.5"></path>
            </g>
        </g>
    </g>
</svg>