<svg width="579" height="539" viewBox="0 0 579 539" xmlns="http://www.w3.org/2000/svg" xmlns:xlink="http://www.w3.org/1999/xlink"><title>Sleeping in Bed</title><defs><circle id="a" cx="235.5" cy="31.5" r="31.5"/><filter x="-50%" y="-50%" width="200%" height="200%" filterUnits="objectBoundingBox" id="b"><feGaussianBlur stdDeviation="1.5" in="SourceAlpha" result="shadowBlurInner1"/><feOffset dy="1" in="shadowBlurInner1" result="shadowOffsetInner1"/><feComposite in="shadowOffsetInner1" in2="SourceAlpha" operator="arithmetic" k2="-1" k3="1" result="shadowInnerInner1"/><feColorMatrix values="0 0 0 0 0.988235294 0 0 0 0 1 0 0 0 0 0.650980392 0 0 0 0.180197011 0" in="shadowInnerInner1"/></filter><ellipse id="e" cx="66.03" cy="50.222" rx="21.283" ry="20.652"/><filter x="-50%" y="-50%" width="200%" height="200%" filterUnits="objectBoundingBox" id="c"><feGaussianBlur stdDeviation="0 0" in="SourceGraphic"/></filter><filter x="-50%" y="-50%" width="200%" height="200%" filterUnits="objectBoundingBox" id="d"><feOffset dy="2" in="SourceAlpha" result="shadowOffsetOuter1"/><feGaussianBlur stdDeviation="2" in="shadowOffsetOuter1" result="shadowBlurOuter1"/><feColorMatrix values="0 0 0 0 0 0 0 0 0 0 0 0 0 0 0 0 0 0 0.5 0" in="shadowBlurOuter1"/></filter><ellipse id="h" cx="28.254" cy="27.447" rx="21.283" ry="20.652"/><filter x="-50%" y="-50%" width="200%" height="200%" filterUnits="objectBoundingBox" id="f"><feGaussianBlur stdDeviation="0 0" in="SourceGraphic"/></filter><filter x="-50%" y="-50%" width="200%" height="200%" filterUnits="objectBoundingBox" id="g"><feOffset dy="2" in="SourceAlpha" result="shadowOffsetOuter1"/><feGaussianBlur stdDeviation="2" in="shadowOffsetOuter1" result="shadowBlurOuter1"/><feColorMatrix values="0 0 0 0 0 0 0 0 0 0 0 0 0 0 0 0 0 0 0.5 0" in="shadowBlurOuter1"/></filter></defs><g fill="none" fill-rule="evenodd"><g opacity=".279" transform="rotate(4 232.752 189.482)"><use fill-opacity=".55" fill="#FFF20D" style="mix-blend-mode:soft-light" xlink:href="#a"/><use fill="#000" filter="url(#b)" xlink:href="#a"/></g><path d="M158.712 87.91c-44.636 7.623-82.368 20.862-109.843 36.71C21.76 140.708 3.116 158.288.714 181.767a39.481 39.481 0 0 0-.046 4.711c1.765 32.052 3.01 82.137 3.015 82.213.06 2.385.854 4.725 2.19 6.543l4.693 6.308c2.258 3.019 5.832 4.341 9.262 3.412l19.373-5.272 17.528 19.904a16.04 16.04 0 0 0 1.442 1.448c.306.42.515.672.637.815.227.264.587.715 1.139 1.265l30.344 36.997a9.695 9.695 0 0 0 1.969 1.818c.24.217.466.416.69.598.518.414.91.667 1.105.794h.009a14.51 14.51 0 0 0 2.728 1.42c.212.074.57.212 1.102.368.113.137.236.275.353.413l119.916 137.992-1.448 25.636c-.233 8.254 3.064 13.813 6.665 18.478 3.635 4.365 7.976 7.955 13.68 9.528 1.185.406 2.526.726 3.996.83l.099.006c2.883.202 5.773-.367 8.53-1.532l293.5-124.837c10.675-5.056 18.626-15.357 21.642-28.05l12.917-63.447c.278-1.344.46-2.657.546-3.89.31-4.18-.43-8.645-2.564-12.34l-.005.006c-5.014-8.874-12.61-13.306-21.341-14.37-2.184-.152-4.514.035-6.954.915l-19.613 7.147c-49.167-31.858-98.164-64.072-146.854-96.829l-41.129-26.932c-.148-.102-.261-.174-.342-.229a12.715 12.715 0 0 0-1.41-.89c-1.093-.567-1.536-.657-1.668-.72l-.23-.092c-.11-.04-.257-.099-.437-.154-1.162-1.472-2.405-2.523-3.687-3.42l-3.866-2.696c-.351-5.17-2.06-9.675-4.276-13.768-2.792-5.012-6.594-9.42-11.407-12.613l-7.712-5.054.204-2.911c1.237-14.79-7.161-27.71-19.544-34.545-11.19-8.363-27.05-12.85-48.357-14.404-20.767-1.453-46.758.183-78.386 5.574" stroke="#010256" fill="#9B9B9B"/><path d="M292.907 142.024l13.574 8.901c5.993 3.787 10.496 12.415 9.98 17.567l-.01.129c-.259 4.992-6.203 11.645-13.029 13.15l-71.796 17.027c-1.901.454-4.162.592-6.534.427-6.026-.4-12.791-2.872-16.684-6.253l-12.205-10.455c-5.661-4.684-10.072-14.087-9.692-18.71.048-.282.038-.407.047-.406.12-4.475 5.754-10.605 12.598-11.91l69.23-14.253-.378-2.634.377 2.634c2.155-.447 4.769-.572 7.516-.374l.132.009c6.048.423 12.76 2.428 16.874 5.15zm-103.604 56.363s.005.065-.008.242c-.247 5.29-5.731 11.71-12.316 13.146l-89.615 20.576c-1.52.346-3.266.472-5.093.344-6.046-.39-12.926-3.582-16.505-7.803l-9.204-10.654c-5.01-5.679-9.365-16.43-9.359-22.259.001-.355.004-.657.02-.888.245-4.998 5.3-10.798 11.742-12.023l84.76-16.744c1.767-.367 3.836-.454 6.01-.302 6.262.416 13.454 2.983 17.58 6.401l11.928 9.762c5.683 4.503 10.347 14.28 10.062 20.04l2.362.03-2.364.132z" fill="#FFF"/><path d="M159.932 98.535c63.73-10.867 103.446-5.977 120.728 7.59-19.32-11.01-57.523-14.253-115.817-4.316C74.27 117.253 13.202 156.526 14.978 188.89c1.767 32.363 2.815 85.614 2.815 85.614l-4.698-6.315s-1.255-50.21-3.027-82.574c-1.772-32.364 59.296-71.643 149.864-87.081zm84.198 313.684l306.01-111.534c5.507-2.007 14.718 3.007 17.673 9.21-1.594-2.795-4.805-3.849-8.984-2.32L252.823 419.109c-7.036 2.562-13.174 11.508-13.645 19.869l-4.367 77.569c-.299 5.28 1.703 8.982 4.955 10.265-6.531-1.426-14.027-10.312-13.643-17.155l4.367-77.569c.467-8.367 6.609-17.306 13.64-19.87z" fill="#FFF"/><path d="M44.529 202.347c1.928 5.705 5.05 11.457 8.643 15.695l9.199 10.654c4.754 5.44 12.348 8.81 19.52 9.355.597.042 1.18.007 1.77.01l-11.178 2.667c-5.344 1.372-9.447 6.796-9.949 12.968-.015.22-.03.418-.037.665l-.755 34.822c-.007.307.053.586.06.888l-29.96-34.04c-3.092-3.507-5.756-10.493-5.91-15.509l-.797-24.98c-.145-5.015 3.28-9.856 7.628-10.758l11.766-2.437z" fill="#2E2EA7"/><path d="M182.071 173.84l1.849-.382a35.81 35.81 0 0 0 2.392 4.801c-1.311-1.632-2.725-3.143-4.24-4.418zm138.207-1.024l6.75 4.707c.923.64 1.58 1.312 1.996 1.971l-17.269 4.121c3.934-2.672 7.059-6.456 8.523-10.799zm-126.287 26.146c.013-.177.032-.45.03-.817.03-5.089-1.842-10.72-4.79-15.673 1.267 1.586 2.63 3.077 4.093 4.364l12.215 10.455c4.85 4.127 11.928 6.637 18.664 7.227l-39.495 9.43c5.062-3.412 8.761-8.864 9.283-14.986z" fill="#FFF"/><path d="M339.157 183.936l35.313 23.11-262.606 69.213-7.986 2.105c-5.28 1.473-9.25 6.896-9.747 12.976-.02.3-.028.542-.05.848l-.28 32.355-25.7-31.327c-1.058-.882-1.667-2.089-1.638-3.994l.75-34.757c.188-3.958 3.16-7.845 6.157-8.47l23.192-5.555 239.19-57.286a4.44 4.44 0 0 1 1.34-.127c.775.054 1.356.321 2.065.91z" fill="#2E2EA7"/><path d="M115.742 268.654c-26.274 6.396-25.675 30.725-25.7 54.639l127.63 141.792c-1.52-38.302 8.05-54.15 21.269-62.606l291.03-106.402-147.753-96.091-266.476 68.668z" fill="#2D2DA7"/><path d="M255.14 82.181l-14.413-.852c-4.876-.29-8.533 3.503-8.17 8.474l32.057 1.896c-.36-4.97-4.603-9.231-9.474-9.518" stroke="#979797" fill="#231F1F"/><path fill="#231F1F" d="M242.063 79.927l.858-37.59 4.508-.602 8.847 39.642-14.213-1.45"/><path d="M255.774 34.473c-.55 5.34-5.325 8.993-10.66 8.16-5.337-.834-9.214-5.837-8.664-11.177.553-5.336 5.326-8.99 10.661-8.157 5.336.834 9.216 5.837 8.663 11.174" fill="#FFF20D"/><path d="M353.912 223.596c19.745 22.714 19.64 55.135-.236 72.413-19.875 17.278-51.995 12.87-71.74-9.845-19.746-22.715-19.641-55.135.235-72.413 19.876-17.278 51.995-12.87 71.74 9.845m.601 95.373c1.722 1.98 1.712 4.809-.021 6.315l-6.695 5.82c-1.733 1.507-4.535 1.123-6.257-.858l-6.652-7.652c-1.721-1.98-1.71-4.808.022-6.315l6.695-5.82c1.733-1.506 4.535-1.123 6.256.858l6.652 7.652m35.155-30.559c1.722 1.98 1.713 4.807-.02 6.314l-6.696 5.82c-1.733 1.507-4.534 1.123-6.256-.858l-6.652-7.652c-1.722-1.98-1.712-4.808.02-6.314l6.697-5.82c1.733-1.507 4.533-1.123 6.255.858l6.652 7.651" fill="#7FC4EC"/><path fill="#231F1F" d="M291.472 200.94l-18.748 16.882-6.796-7.61 18.749-16.882 6.795 7.61m-17.991 75.99c.717 1.536.14 3.212-1.288 3.743-1.426.534-3.164-.281-3.88-1.818l-6.575-14.105c-.715-1.535-.139-3.212 1.285-3.747 1.43-.53 3.166.282 3.883 1.82l6.575 14.106"/><path fill="#231F1F" d="M277.498 312.526L254 298.098l-4.342-24.464 17.333-6.395 3.156 6.821-12.565 4.636 2.726 15.36 20.23 12.422-3.04 6.048"/><path d="M257.426 272.05c2.41 2.773 2.398 6.73-.029 8.84-2.427 2.11-6.348 1.572-8.759-1.202-2.412-2.774-2.398-6.73.029-8.84 2.427-2.11 6.347-1.573 8.759 1.201m4.3 20.271c2.325 2.674 2.312 6.49-.028 8.525-2.34 2.034-6.121 1.516-8.446-1.159-2.325-2.674-2.312-6.491.028-8.525 2.34-2.034 6.121-1.516 8.446 1.159m27.771 11.789c-.068-.047-.123-.107-.196-.155-5.035-3.275-11.208-2.087-13.785 2.655-2.574 4.744-.58 11.241 4.458 14.518.072.047.147.071.216.114l9.307-17.132m56.063-89.836c1.42.924 3.161.584 3.887-.755.726-1.337.162-3.173-1.26-4.096l-13.054-8.474c-1.42-.921-3.16-.584-3.89.752-.723 1.341-.16 3.174 1.263 4.099l13.053 8.474" fill="#231F1F"/><path fill="#231F1F" d="M380.434 223.045l-11.016-25.278-23.622-7.704-8.745 16.274 6.315 4.075 6.34-11.798 14.83 4.837 9.486 21.762 6.412-2.168"/><path d="M342.589 198.018c2.411 2.774 6.333 3.311 8.759 1.202 2.427-2.11 2.44-6.067.029-8.84-2.412-2.775-6.332-3.313-8.76-1.203-2.426 2.11-2.44 6.067-.028 8.841m20.373 6.298c2.325 2.675 6.107 3.193 8.447 1.159 2.34-2.034 2.352-5.85.027-8.525-2.325-2.674-6.106-3.193-8.445-1.16-2.34 2.035-2.354 5.852-.029 8.526m7.486 29.423c-.036-.075-.088-.138-.125-.216-2.541-5.443-.507-11.39 4.547-13.281 5.057-1.89 11.213.99 13.756 6.434.037.079.051.156.085.23l-18.263 6.833m-66.988-4.979c2.181 2.51 2.17 6.092-.026 8-2.196 1.91-5.744 1.422-7.925-1.087-2.181-2.51-2.17-6.09.025-8 2.196-1.908 5.745-1.421 7.926 1.088m19.872 22.859c2.182 2.51 2.169 6.092-.027 8-2.195 1.909-5.743 1.422-7.924-1.088-2.181-2.509-2.17-6.09.025-7.999 2.195-1.908 5.745-1.422 7.926 1.087m19.269 22.167c2.182 2.51 2.17 6.092-.026 8-2.196 1.909-5.743 1.422-7.925-1.088-2.182-2.51-2.17-6.09.025-7.999 2.196-1.908 5.745-1.423 7.926 1.087" fill="#231F1F"/><path fill="#7FC4EC" d="M150.716 173.163l101.667 45.96 45.193-39.286-29.767-84.953-38.383-1.899-78.71 80.178"/><path d="M226.098 153.556c7.792 8.963 7.75 21.755-.092 28.571-7.843 6.817-20.515 5.08-28.307-3.883-7.79-8.962-7.748-21.755.094-28.572 7.841-6.816 20.515-5.077 28.305 3.884m41.729-7.086c7.791 8.964 7.748 21.755-.093 28.571-7.843 6.818-20.515 5.08-28.307-3.883-7.79-8.962-7.749-21.754.094-28.572 7.841-6.816 20.515-5.077 28.306 3.885" fill="#FFF"/><path d="M216.77 162.322c3.312 3.811 3.295 9.253-.04 12.152-3.335 2.9-8.726 2.158-12.039-1.653-3.313-3.812-3.297-9.253.038-12.152 3.336-2.9 8.726-2.16 12.04 1.653m42.946-9.36c3.313 3.811 3.295 9.252-.04 12.151-3.336 2.9-8.726 2.16-12.04-1.651-3.313-3.812-3.296-9.253.04-12.153 3.335-2.9 8.726-2.16 12.04 1.653m-9.93 43.398l-.17 4.61 6.406-7.735-23.577 1.718z" fill="#231F1F"/><g filter="url(#c)" transform="rotate(-19 470.954 -463.727)"><use fill="#000" filter="url(#d)" xlink:href="#e"/><use fill="#7FC4EC" xlink:href="#e"/></g><g filter="url(#f)" transform="rotate(-19 521.082 -454.36)"><use fill="#000" filter="url(#g)" xlink:href="#h"/><use fill="#7FC4EC" xlink:href="#h"/></g><g><path d="M335.852 186.966c31.356-4.522 48.581-15.08 71.213 25.59 27.438 44.786 71.515 49.141 89.34 85.688 9.898 14.56 23.192 36.084 23.192 36.084-71.463 19.774-243.755 73.648-301.064 133.912-29.135-48.266-107.725-117.656-108.314-147.53-.586-29.873 15.204-72.044 30.171-81.499 61.577-17.106 164.106-47.723 195.462-52.245z" fill="#24DA36"/><path d="M140.39 239.211c61.577-17.106 164.106-47.723 195.462-52.245 31.356-4.522 48.581-15.08 71.213 25.59 27.438 44.786 71.515 49.141 89.34 85.688 9.898 14.56 23.192 36.084 23.192 36.084-71.463 19.774-243.755 73.648-301.064 133.912-29.135-48.266-107.725-117.656-108.314-147.53-.586-29.873 15.204-72.044 30.171-81.499z" stroke="#000" stroke-width="3.645"/><path d="M123.34 269.524c18.111 42.87 107.015 136.94 121.17 177.43" stroke="#000" stroke-width="2.43"/><path d="M147.178 239.465c17.249 55.258 114.52 145.246 128.675 185.738m-51.477-208.761c18.112 42.868 107.362 134.109 121.517 174.6" stroke="#000" stroke-width="4.5"/><path d="M260.225 205.698c18.113 42.87 108.794 135.287 122.953 175.776" stroke="#000" stroke-width="2.43"/><path d="M296.648 196.14c18.115 42.867 106.262 128.315 120.417 168.806" stroke="#000" stroke-width="4.5"/><path d="M350.97 184.407c54.013 70.603 98.65 70.374 133.465 158.958" stroke="#000" stroke-width="2.43"/><path d="M149.231 377.089c24.415-30.222 63.655-73.059 148.113-94.862 92.897-23.981 124.376-31.579 137.979-38.213" stroke="#000" stroke-width="4.5"/><path d="M128.325 354.967c24.416-30.22 63.656-73.057 148.113-94.86 84.454-21.8 114.962-28.063 136.426-38.532M152.504 387.34c24.416-30.221 63.656-73.058 148.113-94.861 89.108-23 126.683-32.702 143.63-40.967" stroke="#000" stroke-width="2.43"/><path d="M176.312 412.54c24.415-30.221 63.654-73.056 148.111-94.86 89.106-23.004 132.332-35.458 149.278-43.723" stroke="#000" stroke-width="4.5"/><path d="M184.456 421.308c24.415-30.221 63.653-73.056 148.111-94.859 89.106-23.004 133.462-36.01 150.406-44.274" stroke="#000" stroke-width="2.43"/><path d="M204.246 441.818c24.416-30.22 63.656-73.057 148.114-94.86 89.106-23.005 128.941-33.806 145.887-42.071" stroke="#000" stroke-width="4.5"/><path d="M519.597 334.328c-71.463 19.774-243.755 73.648-301.064 133.912 17.252 23.902 26.876 49.37 26.876 49.37l9.325 1.915s-6.798-22.537-14.15-31.878c10.467 18.593 12.308 25.237 12.308 25.237l8.188-6.15c0 .002-14.855-30.456-20.934-37.185l16.69 28.483 11.16-.056-23.761-40.117 31.682 53.489 7.763-7.02-28.006-48.817 20.51 36.317 8.333-2.988-18.387-31.964 23.76 40.116 8.9 1.045-30.271-56.33 23.904 43.277 9.038-4.408-23.905-43.278 28.574 52.85 5.929-5.045-22.774-43.83 17.256 32.516 13.14 1.133-21.222-43.51 15.28 31.327 14.834 4.613-21.783-38.927 27.158 47.078 13.561 2.003-30.838-60.363 24.896 48.18 8.052-.694-20.515-44.933 16.695 37.1 15.117 2.323-25.603-46.76 27.3 50.24 11.017-3.218-23.767-48.731 23.767 48.73 10.59-4.088-27.163-55.693 24.193 49.602 5.08-6.786-18.25-37.42 13.581 27.847 11.304 3.104-19.523-40.03 28.013 57.436 11.301 3.103-27.587-56.562 23.768 48.731 9.606-.376-24.617-50.472 21.646 44.381 8.466-8.44-24.616-50.471 31.832 65.265 9.597-8.99-27.588-56.563 22.495 46.121 7.347.726-25.89-53.083 27.588 56.564 10.592-4.09-24.617-50.472 22.07 45.252 11.015-3.22-24.192-49.6 25.466 52.212 12.57-2.899-27.588-56.563 25.466 52.212 10.168-4.96-21.646-44.38 23.343 47.861 9.036-4.407-23.344-47.861 21.221 43.51 12.716.263-22.495-46.121 25.322 49.049 4.23-8.526-18.111-42.873 17.12 37.971 14.268.582-25.603-46.76 30.553 54.04 4.582-9.239-25.53-45.176 23.338 39.247 10.735-.927-25.89-53.083z" fill="#FFF"/><path d="M519.597 334.328c-71.463 19.774-243.755 73.648-301.064 133.912 17.252 23.902 26.876 49.37 26.876 49.37l9.325 1.915s-6.798-22.537-14.15-31.878c10.467 18.593 12.308 25.237 12.308 25.237l8.188-6.15c0 .002-14.855-30.456-20.934-37.185l16.69 28.483 11.16-.056-23.761-40.117 31.682 53.489 7.763-7.02-28.006-48.817 20.51 36.317 8.333-2.988-18.387-31.964 23.76 40.116 8.9 1.045-30.271-56.33 23.904 43.277 9.038-4.408-23.905-43.278 28.574 52.85 5.929-5.045-22.774-43.83 17.256 32.516 13.14 1.133-21.222-43.51 15.28 31.327 14.834 4.613-21.783-38.927 27.158 47.078 13.561 2.003-30.838-60.363 24.896 48.18 8.052-.694-20.515-44.933 16.695 37.1 15.117 2.323-25.603-46.76 27.3 50.24 11.017-3.218-23.767-48.731 23.767 48.73 10.59-4.088-27.163-55.693 24.193 49.602 5.08-6.786-18.25-37.42 13.581 27.847 11.304 3.104-19.523-40.03 28.013 57.436 11.301 3.103-27.587-56.562 23.768 48.731 9.606-.376-24.617-50.472 21.646 44.381 8.466-8.44-24.616-50.471 31.832 65.265 9.597-8.99-27.588-56.563 22.495 46.121 7.347.726-25.89-53.083 27.588 56.564 10.592-4.09-24.617-50.472 22.07 45.252 11.015-3.22-24.192-49.6 25.466 52.212 12.57-2.899-27.588-56.563 25.466 52.212 10.168-4.96-21.646-44.38 23.343 47.861 9.036-4.407-23.344-47.861 21.221 43.51 12.716.263-22.495-46.121 25.322 49.049 4.23-8.526-18.111-42.873 17.12 37.971 14.268.582-25.603-46.76 30.553 54.04 4.582-9.239-25.53-45.176 23.338 39.247 10.735-.927-25.89-53.083z" stroke="#000" stroke-width="2.43" stroke-linecap="round" stroke-linejoin="round" fill="#2E2EA7"/><path d="M121.69 344.904c24.417-30.22 63.656-73.057 148.114-94.86 84.454-21.8 114.961-28.063 136.426-38.532" stroke="#000" stroke-width="4.5"/><path d="M210.357 450.806c24.416-30.22 63.656-73.057 148.113-94.86 89.106-23.004 128.942-33.805 145.888-42.07" stroke="#000" stroke-width="2.43"/><path d="M337.37 188.38c54.013 70.603 96.385 72.81 131.2 161.393" stroke="#000" stroke-width="4.5"/><path d="M111.465 313.32c23.896-25.977 61.652-70.085 146.11-91.888 72.722-18.773 105.443-26.024 126.836-34.36" stroke="#000" stroke-width="2.43"/><path d="M113.18 293.863c25.043-28.648 64.294-63.529 137.76-82.494 53.415-13.789 85.25-21.362 106.866-27.714" stroke="#000" stroke-width="4.5"/></g></g></svg>
