<svg xmlns="http://www.w3.org/2000/svg" width="238" height="348" viewBox="0 0 238 348" xmlns:xlink="http://www.w3.org/1999/xlink">
  <defs>
    <circle id="a" cx="55.5" cy="31.5" r="31.5"/>
    <filter id="b" width="200%" height="200%" x="-50%" y="-50%" filterUnits="objectBoundingBox">
      <feGaussianBlur stdDeviation="1.5" in="SourceAlpha" result="shadowBlurInner1"/>
      <feOffset dy="1" in="shadowBlurInner1" result="shadowOffsetInner1"/>
      <feComposite in="shadowOffsetInner1" in2="SourceAlpha" operator="arithmetic" k2="-1" k3="1" result="shadowInnerInner1"/>
      <feColorMatrix values="0 0 0 0 0.988235294 0 0 0 0 1 0 0 0 0 0.650980392 0 0 0 0.180197011 0" in="shadowInnerInner1"/>
    </filter>
  </defs>
  <g fill="none" fill-rule="evenodd">
    <path fill="#7FC4EC" d="M79.403 342.223C79.403 345.083 77.083 347.401 74.224 347.401L63.179 347.401C60.32 347.401 58 345.083 58 342.223L58 331.177C58 328.318 60.32 326 63.179 326L74.224 326C77.083 326 79.403 328.318 79.403 331.177L79.403 342.223M137.401 342.223C137.401 345.083 135.083 347.401 132.224 347.401L121.177 347.401C118.318 347.401 116 345.083 116 342.223L116 331.177C116 328.318 118.318 326 121.177 326L132.224 326C135.083 326 137.401 328.318 137.401 331.177L137.401 342.223"/>
    <polyline fill="#231F1F" points="116.579 200.114 85.171 200.595 85 189.481 116.409 189 116.579 200.114"/>
    <g fill="#231F1F" transform="translate(0 227)">
      <path d="M37.5992742,22.7373705 C37.0172742,24.5133705 35.1052742,25.4783705 33.3302742,24.8953705 C31.5542742,24.3153705 30.5872742,22.4023705 31.1692742,20.6263705 L36.5122742,4.32937047 C37.0942742,2.55637047 39.0062742,1.58937047 40.7812742,2.16737047 C42.5572742,2.75237047 43.5262742,4.66137047 42.9432742,6.43937047 L37.5992742,22.7373705"/>
      <polyline points="12.295 54.878 2 26.219 17.904 3 39.416 10.131 36.809 17.995 21.215 12.826 11.23 27.404 20.093 52.078 12.295 54.878"/>
      <path d="M26.498 7.249C26.498 11.253 23.253 14.498 19.249 14.498 15.245 14.498 12 11.253 12 7.249 12 3.244 15.245 0 19.249 0 23.253 0 26.498 3.244 26.498 7.249M13.981 26.99C13.981 30.851 10.851 33.98 6.99 33.98 3.13 33.98 0 30.851 0 26.99 0 23.129 3.13 20 6.99 20 10.851 20 13.981 23.129 13.981 26.99M30.4466049 56.5334186C30.4206049 56.4464186 30.4186049 56.3574186 30.3896049 56.2664186 28.3326049 49.9744186 21.5616049 46.5394186 15.2666049 48.5964186 8.97260491 50.6564186 5.53960491 57.4254186 7.59660491 63.7194186 7.62560491 63.8104186 7.67660491 63.8834186 7.70660491 63.9684186L30.4466049 56.5334186"/>
    </g>
    <g fill="#231F1F" transform="translate(151 227)">
      <path d="M5.51317302,22.7373705 C6.09417302,24.5133705 8.00717302,25.4783705 9.78317302,24.8953705 C11.558173,24.3153705 12.527173,22.4023705 11.944173,20.6263705 L6.60017302,4.32937047 C6.01817302,2.55637047 4.10717302,1.58937047 2.33117302,2.16737047 C0.555173022,2.75237047 -0.412826978,4.66137047 0.169173022,6.43937047 L5.51317302,22.7373705"/>
      <polyline points="31.12 54.878 41.416 26.219 25.512 3 4 10.131 6.606 17.995 22.201 12.826 32.186 27.404 23.323 52.078 31.12 54.878"/>
      <path d="M16 7.249C16 11.253 19.246 14.498 23.249 14.498 27.253 14.498 30.498 11.253 30.498 7.249 30.498 3.244 27.253 0 23.249 0 19.246 0 16 3.244 16 7.249M30 26.99C30 30.851 33.13 33.98 36.991 33.98 40.851 33.98 43.98 30.851 43.98 26.99 43.98 23.129 40.851 20 36.991 20 33.13 20 30 23.129 30 26.99M13 56.5334186C13.027 56.4464186 13.03 56.3574186 13.059 56.2664186 15.117 49.9744186 21.886 46.5394186 28.181 48.5964186 34.476 50.6564186 37.909 57.4254186 35.851 63.7194186 35.822 63.8104186 35.772 63.8834186 35.743 63.9684186L13 56.5334186"/>
    </g>
    <g transform="translate(38 204)">
      <path fill="#7FC4EC" d="M118.746,59.374 C118.746,92.164 92.165,118.747 59.373,118.747 C26.582,118.747 0,92.164 0,59.374 C0,26.583 26.582,0 59.373,0 C92.165,0 118.746,26.583 118.746,59.374"/>
      <path fill="#231F1F" d="M67.118 27.559C67.118 31.181 64.18 34.118 60.558 34.118 56.936 34.118 54 31.181 54 27.559 54 23.937 56.936 21 60.558 21 64.18 21 67.118 23.937 67.118 27.559M67.118 60.559C67.118 64.182 64.18 67.118 60.558 67.118 56.936 67.118 54 64.182 54 60.559 54 56.937 56.936 54 60.558 54 64.18 54 67.118 56.937 67.118 60.559M67.118 92.559C67.118 96.182 64.18 99.118 60.558 99.118 56.936 99.118 54 96.182 54 92.559 54 88.936 56.936 86 60.558 86 64.18 86 67.118 88.936 67.118 92.559"/>
    </g>
    <g transform="translate(7)">
      <polyline fill="#7FC4EC" points="0 76.666 57.993 187.126 132.553 187.126 173.976 95.996 139.459 67 0 76.666"/>
      <path fill="#FFFFFF" d="M86.853 114.426C86.853 127.365 76.364 137.852 63.427 137.852 50.489 137.852 40 127.365 40 114.426 40 101.489 50.489 91 63.427 91 76.364 91 86.853 101.489 86.853 114.426M131.853 138.426C131.853 151.365 121.364 161.852 108.428 161.852 95.488 161.852 85 151.365 85 138.426 85 125.489 95.488 115 108.428 115 121.364 115 131.853 125.489 131.853 138.426"/>
      <path fill="#231F1F" d="M70.926 114.965C70.926 120.467 66.465 124.929 60.962 124.929 55.46 124.929 51 120.467 51 114.965 51 109.462 55.46 105 60.962 105 66.465 105 70.926 109.462 70.926 114.965M118.928 137.965C118.928 143.467 114.466 147.928 108.964 147.928 103.461 147.928 99 143.467 99 137.965 99 132.462 103.461 128 108.964 128 114.466 128 118.928 132.462 118.928 137.965"/>
      <polyline fill="#231F1F" points="60 156 67.249 173.604 83.559 171.275 60 156"/>
      <g transform="translate(144)">
        <g opacity=".279">
          <use fill="#FFF20D" fill-opacity=".55" style="mix-blend-mode:soft-light" xlink:href="#a"/>
          <use fill="black" filter="url(#b)" xlink:href="#a"/>
        </g>
        <path fill="#231F1F" d="M27.448,76.4958081 L14.6,65.4928081 C10.255,61.7698081 3.72,62.2748081 0,66.6208081 L28.576,91.0938081 C32.297,86.7498081 31.791,80.2128081 27.448,76.4958081"/>
        <polyline fill="#231F1F" points="17 65.295 48.513 35 53.241 37.727 29.172 76.646 17 65.295"/>
        <path fill="#FFF20D" d="M59.3285527,39.0468077 C55.7725527,42.2058077 50.3295527,41.8828077 47.1725527,38.3268077 C44.0145527,34.7708077 44.3375527,29.3298077 47.8925527,26.1708077 C51.4475527,23.0158077 56.8905527,23.3368077 60.0475527,26.8928077 C63.2045527,30.4488077 62.8835527,35.8908077 59.3285527,39.0468077"/>
      </g>
    </g>
  </g>
</svg>
