<?xml version="1.0" encoding="UTF-8" standalone="no"?>
<svg width="579px" height="515px" viewBox="0 0 579 515" version="1.1" xmlns="http://www.w3.org/2000/svg" xmlns:xlink="http://www.w3.org/1999/xlink">
    <!-- Generator: Sketch 40.3 (33839) - http://www.bohemiancoding.com/sketch -->
    <title>Sleeping in Bed</title>
    <desc>Created with Sketch.</desc>
    <defs>
        <ellipse id="path-1" cx="66.0304399" cy="50.2218652" rx="21.2831239" ry="20.6517759"></ellipse>
        <filter x="-50%" y="-50%" width="200%" height="200%" filterUnits="objectBoundingBox" id="filter-2">
            <feGaussianBlur stdDeviation="0 0" in="SourceGraphic"></feGaussianBlur>
        </filter>
        <filter x="-50%" y="-50%" width="200%" height="200%" filterUnits="objectBoundingBox" id="filter-3">
            <feOffset dx="0" dy="2" in="SourceAlpha" result="shadowOffsetOuter1"></feOffset>
            <feGaussianBlur stdDeviation="2" in="shadowOffsetOuter1" result="shadowBlurOuter1"></feGaussianBlur>
            <feColorMatrix values="0 0 0 0 0   0 0 0 0 0   0 0 0 0 0  0 0 0 0.5 0" type="matrix" in="shadowBlurOuter1"></feColorMatrix>
        </filter>
        <ellipse id="path-4" cx="28.2537719" cy="27.4473651" rx="21.2831239" ry="20.6517759"></ellipse>
        <filter x="-50%" y="-50%" width="200%" height="200%" filterUnits="objectBoundingBox" id="filter-5">
            <feGaussianBlur stdDeviation="0 0" in="SourceGraphic"></feGaussianBlur>
        </filter>
        <filter x="-50%" y="-50%" width="200%" height="200%" filterUnits="objectBoundingBox" id="filter-6">
            <feOffset dx="0" dy="2" in="SourceAlpha" result="shadowOffsetOuter1"></feOffset>
            <feGaussianBlur stdDeviation="2" in="shadowOffsetOuter1" result="shadowBlurOuter1"></feGaussianBlur>
            <feColorMatrix values="0 0 0 0 0   0 0 0 0 0   0 0 0 0 0  0 0 0 0.5 0" type="matrix" in="shadowBlurOuter1"></feColorMatrix>
        </filter>
    </defs>
    <g id="Story-Boards" stroke="none" stroke-width="1" fill="none" fill-rule="evenodd">
        <g id="Sleeping-in-Bed" transform="translate(286.549540, 267.818255) rotate(4.000000) translate(-286.549540, -267.818255) translate(-6.950460, -1.181745)">
            <g id="Green-Bed" transform="translate(293.289829, 291.794404) scale(-1, 1) translate(-293.289829, -291.794404) translate(0.289829, 64.294404)">
                <g id="g3" transform="translate(0.000000, 0.000000)" fill="#9B9B9B">
                    <path d="M434.483002,11.028711 C478.477884,21.7456942 515.194426,37.584686 541.497198,55.3101679 L541.497198,55.3101679 C567.418634,73.2506343 584.79061,92.0886616 585.548574,115.677849 L585.548574,115.677849 C585.548574,117.20424 585.459125,118.768253 585.266103,120.380637 L585.266103,120.380637 C581.269137,152.230609 576.533037,202.10704 576.523621,202.182285 L576.523621,202.182285 C576.297644,204.557865 575.34195,206.836702 573.882516,208.556579 L573.882516,208.556579 L568.760372,214.522402 C566.298165,217.376323 562.640164,218.445871 559.283465,217.27958 L559.283465,217.27958 L540.324943,210.668803 L521.451162,229.302595 C520.928591,229.823932 520.406019,230.264651 519.911694,230.646249 L519.911694,230.646249 C519.577437,231.04397 519.35146,231.280453 519.21964,231.414819 L519.21964,231.414819 L519.21964,231.414819 C518.974832,231.662051 518.58408,232.086646 517.995598,232.597234 L517.995598,232.597234 L485.144203,267.38712 C484.503936,268.064322 483.802466,268.617907 483.053917,269.064 L483.053917,269.064 C482.799693,269.262861 482.559592,269.445598 482.3242,269.612211 L482.3242,269.612211 C481.778089,269.988434 481.368506,270.214168 481.166068,270.327035 L481.166068,270.327035 L481.156652,270.327035 C480.356317,270.783877 479.410039,271.213846 478.336649,271.552447 L478.336649,271.552447 C478.120088,271.611568 477.752875,271.724435 477.211472,271.842676 L477.211472,271.842676 C477.089068,271.971667 476.957248,272.100658 476.830136,272.229649 L476.830136,272.229649 L347.580752,401.521398 L347.237079,427.195937 C346.893406,435.445971 343.216573,440.761466 339.29964,445.163276 L339.29964,445.163276 C335.368583,449.264108 330.787843,452.542623 324.987768,453.714289 L324.987768,453.714289 C323.77785,454.036766 322.417281,454.2625 320.943723,454.2625 L320.943723,454.2625 L320.844858,454.2625 L320.844858,454.2625 C317.954236,454.2625 315.110694,453.49393 312.441341,452.139527 L312.441341,452.139527 L28.3648115,307.132401 C18.068738,301.343941 10.8563079,290.51409 8.73306645,277.641886 L8.73306645,277.641886 L0.273055447,213.447479 C0.0894491981,212.087701 -1.07736536e-12,210.765546 -1.07736536e-12,209.529384 L-1.07736536e-12,209.529384 C-0.0188314101,205.337184 1.0310197,200.935374 3.41790094,197.398877 L3.41790094,197.398877 L3.42260879,197.404252 C9.04378472,188.90161 16.9294377,185.010389 25.7142905,184.558921 L25.7142905,184.558921 C27.903442,184.558921 30.2149976,184.908271 32.5877552,185.956321 L32.5877552,185.956321 L51.654558,194.453588 C102.923326,166.103099 154.048844,137.385663 204.904574,108.105016 L204.904574,108.105016 L247.811942,84.1073576 C247.967301,84.0159891 248.084997,83.9514937 248.169738,83.9031222 L248.169738,83.9031222 C248.433378,83.7365091 248.918287,83.4462799 249.638588,83.1130537 L249.638588,83.1130537 C250.768473,82.6239637 251.215719,82.564843 251.352247,82.5110968 L251.352247,82.5110968 C251.352247,82.5110968 251.352247,82.5110968 251.587639,82.4358522 L251.587639,82.4358522 C251.700628,82.4036045 251.851279,82.3552329 252.034885,82.312236 L252.034885,82.312236 C253.29659,80.9255852 254.610081,79.9635291 255.951819,79.1573367 L255.951819,79.1573367 L259.995864,76.7387598 C260.70675,71.606002 262.726418,67.231065 265.22158,63.3022211 L265.22158,63.3022211 C268.35701,58.4973148 272.45755,54.3642355 277.480828,51.5156893 L277.480828,51.5156893 L285.526548,47.0117616 L285.526548,44.0933454 L285.526548,44.0933454 C285.324111,29.254032 294.603288,16.9515372 307.432186,10.9964633 L307.432186,10.9964633 C319.178278,3.43437929 335.312089,0.0644953857 356.676324,-1.02318154e-12 L356.676324,-1.02318154e-12 C377.494447,-1.02318154e-12 403.307603,3.44512852 434.483002,11.028711 L434.483002,11.028711" id="path5"></path>
                </g>
                <path d="M296.839518,55.6487686 L282.678297,63.5817011 C276.435685,66.9408358 271.341789,75.2338674 271.497148,80.4096221 L271.497148,80.4096221 L271.497148,80.5386129 L271.497148,80.5386129 C271.407699,85.5370053 276.873515,92.5885008 283.577497,94.5663593 L283.577497,94.5663593 L354.011679,116.559286 C355.875989,117.145119 358.121634,117.440723 360.4991,117.440723 L360.4991,117.440723 C366.539275,117.462221 373.459818,115.468239 377.579189,112.367086 L377.579189,112.367086 L390.483413,102.789521 C396.457677,98.5113271 401.513911,89.4389761 401.457417,84.800683 L401.457417,84.800683 C401.42917,84.5158284 401.448001,84.3922122 401.438585,84.3922122 L401.438585,84.3922122 C401.631607,79.9205321 396.438846,73.4118728 389.701909,71.6328751 L389.701909,71.6328751 L321.635777,52.5852378 L322.196012,49.9839239 L321.635777,52.5852378 C319.517244,51.9886555 316.918509,51.6823024 314.164415,51.687677 L314.164415,51.687677 L314.032595,51.687677 L314.032595,51.687677 C307.968881,51.687677 301.133079,53.2194425 296.839518,55.6487686 L296.839518,55.6487686 L296.839518,55.6487686 Z" id="path7" fill="#FFFFFF"></path>
                <path d="M396.259948,119.101479 C396.259948,119.101479 396.250532,119.165974 396.250532,119.343337 L396.250532,119.343337 C396.128128,124.637333 401.151406,131.425472 407.619996,133.317337 L407.619996,133.317337 L495.581513,160.093671 C497.073902,160.545139 498.806392,160.792371 500.637746,160.792371 L500.637746,160.792371 C506.696752,160.824619 513.78207,158.121187 517.647217,154.160096 L517.647217,154.160096 L527.571371,144.17406 C532.96657,138.858565 538.060466,128.437186 538.460633,122.621852 L538.460633,122.621852 C538.484173,122.267127 538.503004,121.966149 538.503004,121.735041 L538.503004,121.735041 C538.606577,116.731274 533.969342,110.593463 527.627865,108.921957 L527.627865,108.921957 L444.242381,86.3055753 C442.505183,85.8164853 440.447852,85.5853769 438.268116,85.5853769 L438.268116,85.5853769 C431.992548,85.5638784 424.638883,87.6223561 420.284119,90.7450077 L420.284119,90.7450077 L407.704737,99.6507456 C401.721057,103.746203 396.38706,113.173278 396.269363,118.94024 L396.269363,118.94024 L393.910729,118.805875 L396.259948,119.101479 L396.259948,119.101479 L396.259948,119.101479 Z" id="path9" fill="#FFFFFF"></path>
                <path d="M432.524536,21.5414588 C369.707659,6.25605241 329.747407,8.36290168 311.560973,20.6922696 C331.602301,11.055584 369.938344,10.4858748 427.397684,24.4652496 C516.672692,46.1894454 574.852334,89.6270877 570.822412,121.788787 C566.801906,153.950486 562.042267,206.99794 562.042267,206.99794 L567.169118,201.026743 C567.169118,201.026743 571.924049,151.026695 575.949263,118.864996 C579.974477,86.7032969 521.794835,43.26028 432.524536,21.5414588 L432.524536,21.5414588 Z" id="path11" fill="#FFFFFF"></path>
                <path d="M326.64964,328.587866 L29.1651464,195.979979 C23.8123181,193.593649 14.2742089,197.952463 10.8939708,203.93441 C12.6782469,201.257851 15.9549122,200.43016 20.017789,202.24678 L317.497575,334.854668 C324.338085,337.902075 329.836856,347.253906 329.723868,355.627557 L328.669309,433.312249 C328.598691,438.600871 326.34363,442.153491 323.01047,443.206916 C329.625003,442.239485 337.722509,433.898082 337.816666,427.045447 L338.871225,349.360755 C338.988922,340.98173 333.485442,331.635273 326.64964,328.587866 L326.64964,328.587866 Z" id="path13" fill="#FFFFFF"></path>
                <path d="M540.404977,133.150724 C538.084005,138.708076 534.567239,144.227806 530.687969,148.205022 L520.768524,158.191057 C515.64638,163.286193 507.836053,166.118615 500.642454,166.161612 C500.044557,166.161612 499.465491,166.086367 498.877009,166.048745 L509.841598,169.488499 C515.07673,171.229874 518.791226,176.926967 518.861843,183.118524 C518.861843,183.338883 518.861843,183.537744 518.852428,183.784976 L517.176432,218.574862 C517.162309,218.881215 517.082275,219.155321 517.054028,219.456299 L549.316941,187.590204 C552.645393,184.306314 555.790239,177.523549 556.293979,172.530531 L558.831511,147.66756 C559.325836,142.674542 556.2469,137.60628 551.97217,136.402366 L540.404977,133.150724 Z" id="path15" fill="#2E2EA7"></path>
                <path d="M405.186036,95.1199447 L403.368805,94.6093562 C402.592009,96.1948678 401.678686,97.7427571 400.647666,99.2315255 C402.069438,97.6943855 403.585366,96.2862363 405.186036,95.1199447 L405.186036,95.1199447 Z" id="path17" fill="#FFFFFF"></path>
                <path d="M267.387192,84.4567076 L260.325414,88.6811554 C259.360304,89.2562392 258.658834,89.8796946 258.197464,90.5085246 L275.136318,95.8240193 C271.398283,92.8841047 268.545324,88.8907654 267.387192,84.4567076 L267.387192,84.4567076 Z" id="path19" fill="#FFFFFF"></path>
                <path d="M391.542679,119.348711 C391.542679,119.171349 391.542679,118.897244 391.570927,118.53177 C391.895768,113.452758 394.155538,107.965276 397.441619,103.230239 C396.066926,104.724383 394.602784,106.116408 393.0539,107.298823 L380.140261,116.876388 C375.013409,120.654743 367.77744,122.664849 361.016964,122.783091 L399.757882,134.945845 C394.946457,131.188989 391.636836,125.491897 391.542679,119.348711 L391.542679,119.348711 Z" id="path21" fill="#FFFFFF"></path>
                <path d="M247.778987,94.2331332 L210.940041,114.823285 L468.077939,202.185861 C470.68462,203.071481 475.897981,204.84272 475.897981,204.84272 C481.062495,206.680838 484.645171,212.367181 484.715789,218.46737 C484.715789,218.768348 484.706373,219.010206 484.706373,219.316559 L482.729075,251.612624 L510.552484,222.154356 C511.668245,221.348164 512.360299,220.187247 512.463872,218.284633 L514.139867,183.559242 C514.229316,179.598151 511.536425,175.513443 508.589309,174.680378 C508.589309,174.680378 493.424389,169.908033 485.841928,167.52186 C407.6379,142.911339 251.229843,93.690297 251.229843,93.690297 C250.735518,93.5344331 250.288272,93.4699378 249.902228,93.4699378 C249.125432,93.4699378 248.527535,93.6956716 247.778987,94.2331332 Z" id="path23" fill="#2E2EA7"></path>
                <path d="M464.740441,194.329042 C490.503434,202.542142 488.209722,226.770441 486.566163,250.627586 L349.356611,383.171021 C353.544806,345.068254 345.103739,328.59236 332.506463,319.233735 L49.6065197,192.790451 L203.703398,107.239686 L464.740441,194.329042 Z" id="rect3548" fill="#2D2DA7"></path>
            </g>
            <path d="M250.761108,69.4989984 L240.442407,59.399821 C236.952778,55.9826405 231.704279,56.4461581 228.71661,60.4351634 L251.667046,82.8978706 C254.655518,78.910701 254.249131,72.9106717 250.761108,69.4989984" id="Fill-56" fill="#231F1F" transform="translate(241.192131, 70.004825) rotate(315.000000) translate(-241.192131, -70.004825) "></path>
            <polyline id="Fill-57" fill="#231F1F" transform="translate(238.540863, 45.106502) rotate(315.000000) translate(-238.540863, -45.106502) " points="223.987624 53.800441 249.296872 25.9939721 253.094103 28.4969673 233.763404 64.2190325 223.987624 53.800441"></polyline>
            <path d="M241.465128,21.8910998 C237.545584,25.5600668 231.546126,25.1849239 228.066374,21.054868 C224.585519,16.9248121 224.941541,10.6054549 228.859982,6.93648795 C232.778423,3.2721667 238.777882,3.64498671 242.257634,7.7750426 C245.737386,11.9050985 245.383569,18.2256171 241.465128,21.8910998" id="Fill-58" fill="#FFF20D" transform="translate(235.162026, 14.415240) rotate(315.000000) translate(-235.162026, -14.415240) "></path>
            <path d="M369.962573,230.779862 C369.962573,260.876383 348.614395,285.275768 322.277935,285.275768 C295.942278,285.275768 274.593297,260.876383 274.593297,230.779862 C274.593297,200.682422 295.942278,176.283038 322.277935,176.283038 C348.614395,176.283038 369.962573,200.682422 369.962573,230.779862" id="Fill-59" fill="#7FC4EC" transform="translate(322.277935, 230.779403) rotate(315.000000) translate(-322.277935, -230.779403) "></path>
            <path d="M362.180947,299.721798 C362.180947,302.346868 360.31767,304.47446 358.021502,304.47446 L349.150856,304.47446 C346.854688,304.47446 344.991411,302.346868 344.991411,299.721798 L344.991411,289.583153 C344.991411,286.959 346.854688,284.831408 349.150856,284.831408 L358.021502,284.831408 C360.31767,284.831408 362.180947,286.959 362.180947,289.583153 L362.180947,299.721798" id="Fill-60" fill="#7FC4EC" transform="translate(353.586179, 294.652934) rotate(315.000000) translate(-353.586179, -294.652934) "></path>
            <path d="M395.117976,266.783966 C395.117976,269.409036 393.256305,271.536628 390.960137,271.536628 L382.087885,271.536628 C379.791717,271.536628 377.930046,269.409036 377.930046,266.783966 L377.930046,256.645321 C377.930046,254.021168 379.791717,251.893577 382.087885,251.893577 L390.960137,251.893577 C393.256305,251.893577 395.117976,254.021168 395.117976,256.645321 L395.117976,266.783966" id="Fill-61" fill="#7FC4EC" transform="translate(386.524011, 261.715102) rotate(315.000000) translate(-386.524011, -261.715102) "></path>
            <polyline id="Fill-62" fill="#231F1F" transform="translate(279.710796, 184.331780) rotate(315.000000) translate(-279.710796, -184.331780) " points="292.391924 189.211565 267.167005 189.653054 267.029669 179.451995 292.255391 179.010506 292.391924 189.211565"></polyline>
            <path d="M273.635709,258.65778 C273.168283,260.287893 271.632686,261.173625 270.207118,260.638514 C268.780747,260.106158 268.004114,258.350298 268.47154,256.720184 L272.762699,241.761873 C273.230125,240.134513 274.765722,239.246946 276.19129,239.777467 C277.617661,240.314413 278.3959,242.066602 277.927672,243.698551 L273.635709,258.65778" id="Fill-63" fill="#231F1F" transform="translate(273.199718, 250.209179) rotate(315.000000) translate(-273.199718, -250.209179) "></path>
            <polyline id="Fill-64" fill="#231F1F" transform="translate(273.914458, 269.492561) rotate(315.000000) translate(-273.914458, -269.492561) " points="267.157669 293.300846 258.889376 266.995991 271.662463 245.684276 288.939541 252.229512 286.845763 259.447537 274.321649 254.703136 266.302328 268.083651 273.420529 290.730847 267.157669 293.300846"></polyline>
            <path d="M264.830523,256.24383 C264.830523,259.918928 262.224344,262.897373 259.008585,262.897373 C255.792825,262.897373 253.186646,259.918928 253.186646,256.24383 C253.186646,252.567814 255.792825,249.590286 259.008585,249.590286 C262.224344,249.590286 264.830523,252.567814 264.830523,256.24383" id="Fill-65" fill="#231F1F" transform="translate(259.008585, 256.243830) rotate(315.000000) translate(-259.008585, -256.243830) "></path>
            <path d="M270.473625,276.017831 C270.473625,279.561676 267.959807,282.43365 264.858896,282.43365 C261.758788,282.43365 259.24497,279.561676 259.24497,276.017831 C259.24497,272.473987 261.758788,269.602013 264.858896,269.602013 C267.959807,269.602013 270.473625,272.473987 270.473625,276.017831" id="Fill-66" fill="#231F1F" transform="translate(264.859298, 276.017831) rotate(315.000000) translate(-264.859298, -276.017831) "></path>
            <path d="M299.755712,288.676728 C299.73483,288.596874 299.733224,288.515185 299.709933,288.43166 C298.05788,282.656506 292.619842,279.503668 287.564096,281.391699 C282.509153,283.282484 279.751985,289.495456 281.404037,295.272446 C281.427328,295.355971 281.468288,295.422975 281.492382,295.500992 L299.755712,288.676728" id="Fill-67" fill="#231F1F" transform="translate(290.340297, 288.172632) rotate(315.000000) translate(-290.340297, -288.172632) "></path>
            <path d="M340.911728,190.509109 C341.37835,192.139223 342.914751,193.024954 344.341122,192.489844 C345.766689,191.957487 346.544929,190.201627 346.0767,188.571514 L341.784737,173.613203 C341.317312,171.985843 339.782517,171.098275 338.356147,171.628797 C336.929776,172.165743 336.152339,173.917931 336.619765,175.54988 L340.911728,190.509109" id="Fill-68" fill="#231F1F" transform="translate(341.348389, 182.060509) rotate(315.000000) translate(-341.348389, -182.060509) "></path>
            <polyline id="Fill-69" fill="#231F1F" transform="translate(360.803685, 182.603334) rotate(315.000000) translate(-360.803685, -182.603334) " points="367.559671 206.411619 375.828767 180.106764 363.055681 158.795049 345.778603 165.340285 347.871577 172.55831 360.396495 167.813909 368.415815 181.194424 361.297614 203.841621 367.559671 206.411619"></polyline>
            <path d="M341.21168,168.218796 C341.21168,171.893894 343.818662,174.872339 347.033619,174.872339 C350.249378,174.872339 352.855557,171.893894 352.855557,168.218796 C352.855557,164.54278 350.249378,161.565253 347.033619,161.565253 C343.818662,161.565253 341.21168,164.54278 341.21168,168.218796" id="Fill-70" fill="#231F1F" transform="translate(347.033619, 168.218796) rotate(315.000000) translate(-347.033619, -168.218796) "></path>
            <path d="M362.035611,173.227592 C362.035611,176.771437 364.549429,179.64341 367.65034,179.64341 C370.750448,179.64341 373.263463,176.771437 373.263463,173.227592 C373.263463,169.683747 370.750448,166.811774 367.65034,166.811774 C364.549429,166.811774 362.035611,169.683747 362.035611,173.227592" id="Fill-71" fill="#231F1F" transform="translate(367.649537, 173.227592) rotate(315.000000) translate(-367.649537, -173.227592) "></path>
            <path d="M370.085549,199.515469 C370.107233,199.435615 370.109643,199.353926 370.132934,199.270401 C371.785789,193.495247 377.222222,190.342409 382.277968,192.23044 C387.333714,194.121225 390.090882,200.334197 388.438027,206.111187 C388.414736,206.194712 388.374579,206.261716 388.351288,206.339733 L370.085549,199.515469" id="Fill-72" fill="#231F1F" transform="translate(379.501556, 199.011373) rotate(315.000000) translate(-379.501556, -199.011373) "></path>
            <path d="M307.57091,209.457537 C307.57091,212.782014 305.211294,215.477759 302.302333,215.477759 C299.393371,215.477759 297.035362,212.782014 297.035362,209.457537 C297.035362,206.13306 299.393371,203.437314 302.302333,203.437314 C305.211294,203.437314 307.57091,206.13306 307.57091,209.457537" id="Fill-73" fill="#231F1F" transform="translate(302.303136, 209.457537) rotate(315.000000) translate(-302.303136, -209.457537) "></path>
            <path d="M328.988659,230.875286 C328.988659,234.200681 326.629043,236.895508 323.720082,236.895508 C320.811121,236.895508 318.453111,234.200681 318.453111,230.875286 C318.453111,227.550809 320.811121,224.855064 323.720082,224.855064 C326.629043,224.855064 328.988659,227.550809 328.988659,230.875286" id="Fill-74" fill="#231F1F" transform="translate(323.720885, 230.875286) rotate(315.000000) translate(-323.720885, -230.875286) "></path>
            <path d="M349.757385,251.644012 C349.757385,254.969407 347.39777,257.664234 344.488808,257.664234 C341.579847,257.664234 339.221837,254.969407 339.221837,251.644012 C339.221837,248.318617 341.579847,245.62379 344.488808,245.62379 C347.39777,245.62379 349.757385,248.318617 349.757385,251.644012" id="Fill-75" fill="#231F1F" transform="translate(344.489611, 251.644012) rotate(315.000000) translate(-344.489611, -251.644012) "></path>
            <polyline id="Fill-76" fill="#7FC4EC" transform="translate(231.886973, 144.233147) rotate(315.000000) translate(-231.886973, -144.233147) " points="162.023713 97.9759225 208.600023 199.362374 268.481899 199.362374 301.750233 115.718093 274.028361 89.1039196 162.023713 97.9759225"></polyline>
            <path d="M229.119299,149.412104 C229.119299,161.288252 220.695198,170.913815 210.305018,170.913815 C199.914034,170.913815 191.489933,161.288252 191.489933,149.412104 C191.489933,137.537792 199.914034,127.910393 210.305018,127.910393 C220.695198,127.910393 229.119299,137.537792 229.119299,149.412104" id="Fill-77" fill="#FFFFFF" transform="translate(210.304616, 149.412104) rotate(315.000000) translate(-210.304616, -149.412104) "></path>
            <path d="M270.251499,139.432994 C270.251499,151.309142 261.827398,160.934705 251.438021,160.934705 C241.045431,160.934705 232.622133,151.309142 232.622133,139.432994 C232.622133,127.558682 241.045431,117.931283 251.438021,117.931283 C261.827398,117.931283 270.251499,127.558682 270.251499,139.432994" id="Fill-78" fill="#FFFFFF" transform="translate(251.436816, 139.432994) rotate(315.000000) translate(-251.436816, -139.432994) "></path>
            <path d="M217.256736,151.161092 C217.256736,156.211139 213.673943,160.306616 209.254282,160.306616 C204.835423,160.306616 201.253433,156.211139 201.253433,151.161092 C201.253433,146.110126 204.835423,142.01465 209.254282,142.01465 C213.673943,142.01465 217.256736,146.110126 217.256736,151.161092" id="Fill-79" fill="#231F1F" transform="translate(209.255085, 151.160633) rotate(315.000000) translate(-209.255085, -151.160633) "></path>
            <path d="M259.44467,138.828815 C259.44467,143.878863 255.861074,147.973422 251.442215,147.973422 C247.022554,147.973422 243.439761,143.878863 243.439761,138.828815 C243.439761,133.77785 247.022554,129.682373 251.442215,129.682373 C255.861074,129.682373 259.44467,133.77785 259.44467,138.828815" id="Fill-80" fill="#231F1F" transform="translate(251.442215, 138.827897) rotate(315.000000) translate(-251.442215, -138.827897) "></path>
            <polygon id="Fill-81" fill="#231F1F" transform="translate(245.103932, 175.859832) rotate(315.000000) translate(-245.103932, -175.859832) " points="247.808787 180.395215 244.65576 183.762626 254.564481 182.128192 235.643382 167.957037"></polygon>
            <g id="Sleepy-Eyelids" transform="translate(231.498199, 140.078176) rotate(315.000000) translate(-231.498199, -140.078176) translate(184.498199, 101.078176)">
                <g id="Oval-4-Copy-2" filter="url(#filter-2)" transform="translate(66.030440, 50.221865) rotate(22.000000) translate(-66.030440, -50.221865) ">
                    <use fill="black" fill-opacity="1" filter="url(#filter-3)" xlink:href="#path-1"></use>
                    <use fill="#7FC4EC" fill-rule="evenodd" xlink:href="#path-1"></use>
                </g>
                <g id="Oval-4-Copy-3" filter="url(#filter-5)" transform="translate(28.253772, 27.447365) rotate(22.000000) translate(-28.253772, -27.447365) ">
                    <use fill="black" fill-opacity="1" filter="url(#filter-6)" xlink:href="#path-4"></use>
                    <use fill="#7FC4EC" fill-rule="evenodd" xlink:href="#path-4"></use>
                </g>
            </g>
            <g id="Green-Blanket" transform="translate(325.220714, 307.371426) rotate(330.000000) translate(-325.220714, -307.371426) translate(142.720714, 147.371426)">
                <path d="M264.132809,39.0170601 C294.297899,48.697328 314.407959,46.759362 316.921717,93.2338915 C321.949231,145.515944 359.655594,168.752412 359.655594,209.414637 C362.169351,226.840395 364.683109,252.013235 364.683109,252.013235 C291.784142,238.458629 113.311498,211.352603 35.3850159,240.395001 C30.3575009,184.241797 -9.86054994,87.4231808 2.70616855,60.3139683 C15.274956,33.2079431 47.9538033,2.22598592 65.5501057,0.289613597 C128.394043,11.9078476 233.967719,29.3351985 264.132809,39.0170601 Z" id="Fill-1" fill="#24DA36"></path>
                <path d="M65.5501057,0.289613597 C128.394043,11.9078476 233.967719,29.3351985 264.132809,39.0170601 C294.297899,48.697328 314.407959,46.759362 316.921717,93.2338915 C321.949231,145.515944 359.655594,168.752412 359.655594,209.414637 C362.169351,226.840395 364.683109,252.013235 364.683109,252.013235 C291.784142,238.458629 113.311498,211.352603 35.3850159,240.395001 C30.3575009,184.241797 -9.86054994,87.4231808 2.70616855,60.3139683 C15.274956,33.2079431 47.9538033,2.22598592 65.5501057,0.289613597 L65.5501057,0.289613597 Z" id="Stroke-2" stroke="#000000" stroke-width="3.645"></path>
                <path d="M36.936718,20.059736 C34.4229605,66.5310781 73.0913782,190.052508 68.0638632,232.649512" id="Stroke-3" stroke="#000000" stroke-width="2.43"></path>
                <path d="M71.539676,3.49299498 C62.8191099,60.7203674 110.79774,184.241797 105.770226,226.840395 M151.01786,16.6412021 C148.504103,63.1109505 188.724223,184.241797 183.696708,226.840395" id="Stroke-4" stroke="#000000" stroke-width="4.5"></path>
                <path d="M187.948371,22.7005335 C185.434614,69.1718756 226.426447,191.987286 221.40307,234.585884" id="Stroke-5" stroke="#000000" stroke-width="2.43"></path>
                <path d="M224.874745,30.0762793 C222.365125,76.5460277 264.132809,191.987286 259.105294,234.585884" id="Stroke-6" stroke="#000000" stroke-width="4.5"></path>
                <path d="M278.842946,43.3440156 C296.439248,130.479177 336.659368,149.841306 329.118095,244.721956" id="Stroke-7" stroke="#000000" stroke-width="2.43"></path>
                <path d="M13.0549874,128.088593 C48.2475923,111.628632 102.294413,90.3285362 187.762167,107.755887 C281.77049,126.925176 313.39418,133.896117 328.528449,133.896117" id="Stroke-8" stroke="#000000" stroke-width="4.5"></path>
                <path d="M3.96201283,99.0414148 C39.1546176,82.5830469 93.2014381,61.2829513 178.669193,78.7103022 C264.132809,96.1376532 294.297899,103.883142 318.17963,103.883142 M11.5032853,138.737844 C46.6958901,122.277883 100.742711,100.977787 186.210465,118.405138 C276.382981,136.795097 314.407959,144.546961 333.262175,144.546961" id="Stroke-9" stroke="#000000" stroke-width="2.43"></path>
                <path d="M21.8541731,171.823515 C57.0467779,155.363553 111.091529,134.065051 196.559284,151.492402 C286.731799,169.87758 331.042206,177.632632 349.896422,177.632632" id="Stroke-10" stroke="#000000" stroke-width="4.5"></path>
                <path d="M25.3299859,183.274408 C60.5225907,166.814446 114.567342,145.515944 200.035097,162.943295 C290.207612,181.328473 335.775932,189.083525 354.628079,189.083525" id="Stroke-11" stroke="#000000" stroke-width="2.43"></path>
                <path d="M34.1271027,210.38362 C69.3197075,193.925253 123.366528,172.625157 208.834282,190.052508 C299.006798,208.437686 339.545534,216.192737 358.39975,216.192737" id="Stroke-12" stroke="#000000" stroke-width="4.5"></path>
                <path d="M364.683109,252.013235 C291.784142,238.458629 113.311498,211.352603 35.3850159,240.395001 C40.4125309,269.440586 37.8987734,296.549798 37.8987734,296.549798 L45.4400458,302.358915 C45.4400458,302.358915 49.2096476,279.122447 46.6958901,267.504213 C47.9538033,288.804309 46.6958901,295.582409 46.6958901,295.582409 L56.75092,293.644443 C56.75092,293.646037 56.75092,259.758724 54.2371626,251.045846 L56.75092,283.962581 L66.80595,288.804309 L63.0363482,242.331373 L68.0638632,304.295288 L78.1188932,301.389932 L74.3472225,245.235135 L76.8609799,286.867937 L85.6601656,287.835326 L83.1464081,251.045846 L86.9160099,297.517188 L94.4572823,302.358915 L91.9435249,238.458629 L94.4572823,287.835326 L104.512312,287.835326 L101.998555,238.458629 L104.512312,298.486171 L112.053585,296.549798 L110.79774,247.173101 L112.053585,283.962581 L123.366528,290.740681 L123.366528,242.331373 L123.366528,277.186075 L134.677402,287.835326 L132.163645,243.298763 L135.935315,297.517188 L147.24619,305.262677 L145.990345,237.489646 L147.24619,291.708071 L154.787462,294.613426 L156.045375,245.235135 L154.787462,285.898954 L167.356249,294.613426 L164.842492,241.36239 L167.356249,298.486171 L178.669193,300.422543 L178.669193,246.204118 L178.669193,300.422543 L189.980067,301.389932 L189.980067,239.426018 L189.980067,294.613426 L197.521339,290.740681 L197.521339,249.10788 L197.521339,280.089837 L206.320525,287.835326 L206.320525,243.298763 L206.320525,307.200643 L215.117642,314.944539 L215.117642,252.013235 L215.117642,306.23166 L223.916827,310.104405 L223.916827,253.949607 L223.916827,303.327898 L235.225633,299.45356 L235.225633,243.298763 L235.225633,315.913522 L247.792351,312.040777 L247.792351,249.10788 L247.792351,300.422543 L254.077779,304.295288 L254.077779,245.235135 L254.077779,308.168032 L265.390723,309.135422 L265.390723,252.980624 L265.390723,303.327898 L276.701597,305.262677 L276.701597,250.076863 L276.701597,308.168032 L289.270384,311.073388 L289.270384,248.14049 L289.270384,306.23166 L300.583327,306.23166 L300.583327,256.853369 L300.583327,310.104405 L310.636288,310.104405 L310.636288,256.853369 L310.636288,305.262677 L321.949231,311.073388 L321.949231,259.758724 L323.207145,314.944539 L330.746348,309.135422 L333.262175,262.662486 L332.004261,304.295288 L344.573049,311.073388 L342.059291,257.822352 L345.830962,319.786266 L353.999122,313.491064 L350.856408,261.695097 L354.628079,307.200643 L364.683109,311.073388 L364.683109,252.013235 L364.683109,252.013235 Z" id="Fill-13" fill="#FFFFFF"></path>
                <path d="M364.683109,252.013235 C291.784142,238.458629 113.311498,211.352603 35.3850159,240.395001 C40.4125309,269.440586 37.8987734,296.549798 37.8987734,296.549798 L45.4400458,302.358915 C45.4400458,302.358915 49.2096476,279.122447 46.6958901,267.504213 C47.9538033,288.804309 46.6958901,295.582409 46.6958901,295.582409 L56.75092,293.644443 C56.75092,293.646037 56.75092,259.758724 54.2371626,251.045846 L56.75092,283.962581 L66.80595,288.804309 L63.0363482,242.331373 L68.0638632,304.295288 L78.1188932,301.389932 L74.3472225,245.235135 L76.8609799,286.867937 L85.6601656,287.835326 L83.1464081,251.045846 L86.9160099,297.517188 L94.4572823,302.358915 L91.9435249,238.458629 L94.4572823,287.835326 L104.512312,287.835326 L101.998555,238.458629 L104.512312,298.486171 L112.053585,296.549798 L110.79774,247.173101 L112.053585,283.962581 L123.366528,290.740681 L123.366528,242.331373 L123.366528,277.186075 L134.677402,287.835326 L132.163645,243.298763 L135.935315,297.517188 L147.24619,305.262677 L145.990345,237.489646 L147.24619,291.708071 L154.787462,294.613426 L156.045375,245.235135 L154.787462,285.898954 L167.356249,294.613426 L164.842492,241.36239 L167.356249,298.486171 L178.669193,300.422543 L178.669193,246.204118 L178.669193,300.422543 L189.980067,301.389932 L189.980067,239.426018 L189.980067,294.613426 L197.521339,290.740681 L197.521339,249.10788 L197.521339,280.089837 L206.320525,287.835326 L206.320525,243.298763 L206.320525,307.200643 L215.117642,314.944539 L215.117642,252.013235 L215.117642,306.23166 L223.916827,310.104405 L223.916827,253.949607 L223.916827,303.327898 L235.225633,299.45356 L235.225633,243.298763 L235.225633,315.913522 L247.792351,312.040777 L247.792351,249.10788 L247.792351,300.422543 L254.077779,304.295288 L254.077779,245.235135 L254.077779,308.168032 L265.390723,309.135422 L265.390723,252.980624 L265.390723,303.327898 L276.701597,305.262677 L276.701597,250.076863 L276.701597,308.168032 L289.270384,311.073388 L289.270384,248.14049 L289.270384,306.23166 L300.583327,306.23166 L300.583327,256.853369 L300.583327,310.104405 L310.636288,310.104405 L310.636288,256.853369 L310.636288,305.262677 L321.949231,311.073388 L321.949231,259.758724 L323.207145,314.944539 L330.746348,309.135422 L333.262175,262.662486 L332.004261,304.295288 L344.573049,311.073388 L342.059291,257.822352 L345.830962,319.786266 L353.999122,313.491064 L350.856408,261.695097 L354.628079,307.200643 L364.683109,311.073388 L364.683109,252.013235 L364.683109,252.013235 Z" id="Stroke-14" stroke="#000000" stroke-width="2.43" stroke-linecap="round" stroke-linejoin="round" fill="#2E2EA7"></path>
                <path d="M2.41031068,87.0884992 C37.6029155,70.6301313 91.6497359,49.3300357 177.11749,66.7573866 C262.581107,84.1847376 292.746197,91.9302269 316.627928,91.9302269" id="Stroke-15" stroke="#000000" stroke-width="4.5"></path>
                <path d="M35.6788048,221.141244 C70.8714096,204.682877 124.91823,183.382781 210.385985,200.810132 C300.5585,219.19531 341.097236,226.950361 359.951452,226.950361" id="Stroke-16" stroke="#000000" stroke-width="2.43"></path>
                <path d="M264.877626,40.9534325 C282.473929,128.088593 319.590644,148.646015 312.049372,243.526665" id="Stroke-17" stroke="#000000" stroke-width="4.5"></path>
                <path d="M7.06541713,54.2179813 C39.9304687,41.3454881 93.2014381,18.2524552 178.669193,35.6798061 C252.261253,50.6862932 284.849067,58.5130623 307.731502,60.3984355" id="Stroke-18" stroke="#000000" stroke-width="2.43"></path>
                <path d="M17.1369986,37.4823058 C52.2033983,22.7116895 102.772337,8.56740608 177.11749,23.7268905 C231.170518,34.7490724 263.104548,41.8985096 285.316647,45.6644749" id="Stroke-19" stroke="#000000" stroke-width="4.5"></path>
            </g>
        </g>
    </g>
</svg>