<svg xmlns="http://www.w3.org/2000/svg" width="169" height="255" viewBox="0 0 169 255">
  <g fill="none" fill-rule="evenodd">
    <path fill="#7FC4EC" d="M62.4144512 250.453287C62.4144512 252.704213 60.5908233 254.528565 58.3435163 254.528565L49.6616326 254.528565C47.4143256 254.528565 45.5906977 252.704213 45.5906977 250.453287L45.5906977 241.759676C45.5906977 239.509537 47.4143256 237.685185 49.6616326 237.685185L58.3435163 237.685185C60.5908233 237.685185 62.4144512 239.509537 62.4144512 241.759676L62.4144512 250.453287M108.003577 250.453287C108.003577 252.704213 106.181521 254.528565 103.934214 254.528565L95.2507581 254.528565C93.0034512 254.528565 91.1813953 252.704213 91.1813953 250.453287L91.1813953 241.759676C91.1813953 239.509537 93.0034512 237.685185 95.2507581 237.685185L103.934214 237.685185C106.181521 237.685185 108.003577 239.509537 108.003577 241.759676L108.003577 250.453287"/>
    <polyline fill="#231F1F" points="91.637 138.608 66.948 138.987 66.814 130.24 91.503 129.861 91.637 138.608"/>
    <g fill="#231F1F" transform="translate(0 159.769)">
      <path d="M29.5547784,17.8951527 C29.0972993,19.2929305 27.5943784,20.0524212 26.1991458,19.5935786 C24.8031272,19.1370971 24.0430202,17.6314953 24.5004993,16.2337175 L28.7003458,3.40737491 C29.1578249,2.01195824 30.6607458,1.25089342 32.0559784,1.70580083 C33.451997,2.1662175 34.213676,3.6686712 33.7554109,5.06802305 L29.5547784,17.8951527"/>
      <polyline points="9.664 43.191 1.572 20.635 14.073 2.361 30.983 7.973 28.934 14.163 16.676 10.095 8.827 21.568 15.794 40.987 9.664 43.191"/>
      <path d="M20.8286605 5.70523148C20.8286605 8.85652778 18.2779395 11.410463 15.1306093 11.410463 11.9832791 11.410463 9.43255814 8.85652778 9.43255814 5.70523148 9.43255814 2.55314815 11.9832791 0 15.1306093 0 18.2779395 0 20.8286605 2.55314815 20.8286605 5.70523148M10.9897163 21.2421296C10.9897163 24.2808796 8.5293907 26.7435185 5.49446512 26.7435185 2.46032558 26.7435185 0 24.2808796 0 21.2421296 0 18.2033796 2.46032558 15.7407407 5.49446512 15.7407407 8.5293907 15.7407407 10.9897163 18.2033796 10.9897163 21.2421296M23.9324476 44.4938943C23.9120104 44.4254221 23.9104383 44.3553758 23.8876429 44.2837554 22.2707453 39.3317184 16.9484243 36.6282462 12.0002615 38.2471813 7.05288479 39.8684776 4.35438711 45.1959313 5.97128479 50.1495425 5.99408014 50.2211628 6.03416851 50.2786165 6.0577499 50.3455147L23.9324476 44.4938943"/>
    </g>
    <g fill="#231F1F" transform="translate(118.693 159.769)">
      <path d="M4.33361042,17.8951527 C4.79030344,19.2929305 6.29401042,20.0524212 7.69002903,19.5935786 C9.08526158,19.1370971 9.84694065,17.6314953 9.38867554,16.2337175 L5.18804298,3.40737491 C4.73056391,2.01195824 3.22842903,1.25089342 1.83241042,1.70580083 C0.436391817,2.1662175 -0.324501206,3.6686712 0.132977864,5.06802305 L4.33361042,17.8951527"/>
      <polyline points="24.462 43.191 32.555 20.635 20.054 2.361 3.144 7.973 5.193 14.163 17.451 10.095 25.3 21.568 18.333 40.987 24.462 43.191"/>
      <path d="M12.5767442 5.70523148C12.5767442 8.85652778 15.1282512 11.410463 18.2747953 11.410463 21.4221256 11.410463 23.9728465 8.85652778 23.9728465 5.70523148 23.9728465 2.55314815 21.4221256 0 18.2747953 0 15.1282512 0 12.5767442 2.55314815 12.5767442 5.70523148M23.5813953 21.2421296C23.5813953 24.2808796 26.0417209 26.7435185 29.0766465 26.7435185 32.110786 26.7435185 34.5703256 24.2808796 34.5703256 21.2421296 34.5703256 18.2033796 32.110786 15.7407407 29.0766465 15.7407407 26.0417209 15.7407407 23.5813953 18.2033796 23.5813953 21.2421296M10.2186047 44.4938943C10.2398279 44.4254221 10.242186 44.3553758 10.2649814 44.2837554 11.8826651 39.3317184 17.203414 36.6282462 22.1515767 38.2471813 27.0997395 39.8684776 29.7982372 45.1959313 28.1805535 50.1495425 28.1577581 50.2211628 28.1184558 50.2786165 28.0956605 50.3455147L10.2186047 44.4938943"/>
    </g>
    <g transform="translate(29.87 141.667)">
      <path fill="#7FC4EC" d="M93.3398791,46.729537 C93.3398791,72.5364815 72.4459767,93.458287 46.6699395,93.458287 C20.8946884,93.458287 0,72.5364815 0,46.729537 C0,20.9218056 20.8946884,0 46.6699395,0 C72.4459767,0 93.3398791,20.9218056 93.3398791,46.729537"/>
      <path fill="#231F1F" d="M52.7578698 21.6899537C52.7578698 24.5406019 50.4484651 26.8521296 47.6014047 26.8521296 44.7543442 26.8521296 42.4465116 24.5406019 42.4465116 21.6899537 42.4465116 18.8393056 44.7543442 16.5277778 47.6014047 16.5277778 50.4484651 16.5277778 52.7578698 18.8393056 52.7578698 21.6899537M52.7578698 47.6621759C52.7578698 50.5136111 50.4484651 52.8243519 47.6014047 52.8243519 44.7543442 52.8243519 42.4465116 50.5136111 42.4465116 47.6621759 42.4465116 44.8115278 44.7543442 42.5 47.6014047 42.5 50.4484651 42.5 52.7578698 44.8115278 52.7578698 47.6621759M52.7578698 72.8473611C52.7578698 75.6987963 50.4484651 78.009537 47.6014047 78.009537 44.7543442 78.009537 42.4465116 75.6987963 42.4465116 72.8473611 42.4465116 69.9959259 44.7543442 67.6851852 47.6014047 67.6851852 50.4484651 67.6851852 52.7578698 69.9959259 52.7578698 72.8473611"/>
    </g>
    <g transform="translate(5.502)">
      <polyline fill="#7FC4EC" points="0 41.45 45.585 128.386 104.193 128.386 136.753 56.664 109.621 33.843 0 41.45"/>
      <path fill="#FFFFFF" d="M68.2704977 71.1686111C68.2704977 81.3520833 60.0256558 89.6057407 49.8565721 89.6057407 39.6867023 89.6057407 31.4418605 81.3520833 31.4418605 71.1686111 31.4418605 60.986713 39.6867023 52.7314815 49.8565721 52.7314815 60.0256558 52.7314815 68.2704977 60.986713 68.2704977 71.1686111M103.642591 90.0575C103.642591 100.240972 95.3977488 108.49463 85.2294512 108.49463 75.0580093 108.49463 66.8139535 100.240972 66.8139535 90.0575 66.8139535 79.8756019 75.0580093 71.6203704 85.2294512 71.6203704 95.3977488 71.6203704 103.642591 79.8756019 103.642591 90.0575"/>
      <path fill="#231F1F" d="M55.7511349 71.5928241C55.7511349 75.9231019 52.2445814 79.4348611 47.9189674 79.4348611 43.5941395 79.4348611 40.0883721 75.9231019 40.0883721 71.5928241 40.0883721 67.2617593 43.5941395 63.75 47.9189674 63.75 52.2445814 63.75 55.7511349 67.2617593 55.7511349 71.5928241M93.4829395 89.6946759C93.4829395 94.0249537 89.9756 97.5359259 85.6507721 97.5359259 81.3251581 97.5359259 77.8186047 94.0249537 77.8186047 89.6946759 77.8186047 85.3636111 81.3251581 81.8518519 85.6507721 81.8518519 89.9756 81.8518519 93.4829395 85.3636111 93.4829395 89.6946759"/>
      <polyline fill="#231F1F" points="47.163 103.889 52.861 117.744 65.681 115.911 47.163 103.889"/>
      <g fill="#231F1F" transform="translate(113.977)">
        <path d="M21.5754047,41.3161453 L11.4762791,32.6563767 C8.06090698,29.7262379 2.92409302,30.1236916 0,33.5441545 L22.4620651,52.8053119 C25.3869442,49.386423 24.9892047,44.2415619 21.5754047,41.3161453"/>
        <polyline points="13.363 32.501 38.133 8.657 41.85 10.804 22.931 41.434 13.363 32.501"/>
        <path d="M46.6350019,11.842395 C43.8398205,14.328645 39.5613694,14.074432 37.0798205,11.2757283 C34.5974856,8.47702459 34.8513787,4.19475607 37.645774,1.70850607 C40.4401694,-0.774595783 44.7186205,-0.521956894 47.2001694,2.27674681 C49.6817182,5.07545051 49.4293973,9.35850607 46.6350019,11.842395"/>
      </g>
    </g>
  </g>
</svg>
