<svg xmlns="http://www.w3.org/2000/svg" width="752" height="501" viewBox="0 0 752 501" xmlns:xlink="http://www.w3.org/1999/xlink">
  <defs>
    <path id="a" d="M27.503012,171.966823 C27.503012,171.966823 75.3408277,197.755905 109.603619,218.863973 C118.617034,224.416813 106.035796,166.478432 115.94332,171.966823 C146.141997,188.695741 179.190233,208.817897 206.63749,218.863973 C218.929537,223.363032 194.817172,174.688639 206.63749,179.339553 C240.454118,192.645304 269.363034,223.882062 287.973267,224.448027 C316.8727,225.3269 301.764116,126.222079 301.764116,126.222079 L348.467168,126.222079 L370.692771,444 L27.503012,444 L27.503012,171.966823 Z"/>
    <mask id="b" width="343.19" height="317.778" x="0" y="0" fill="white">
      <use xlink:href="#a"/>
    </mask>
    <filter id="c" width="200%" height="200%" x="-50%" y="-50%" filterUnits="objectBoundingBox">
      <feOffset dy="16" in="SourceAlpha" result="shadowOffsetOuter1"/>
      <feGaussianBlur stdDeviation="14.5" in="shadowOffsetOuter1" result="shadowBlurOuter1"/>
      <feColorMatrix values="0 0 0 0 0.607892215 0 0 0 0 0.607803345 0 0 0 0 0.607922554 0 0 0 1 0" in="shadowBlurOuter1" result="shadowMatrixOuter1"/>
      <feMerge>
        <feMergeNode in="shadowMatrixOuter1"/>
        <feMergeNode in="SourceGraphic"/>
      </feMerge>
    </filter>
  </defs>
  <g fill="none" fill-rule="evenodd" transform="translate(0 12)">
    <g transform="translate(133 207)">
      <g transform="translate(0 120.198)">
        <path fill="#B97990" d="M68.8178128,9.79663108 C54.8483153,11.8555898 39.8890246,18.063827 25.7539573,28.4177239 C24.4511527,25.9076517 23.1543908,23.4301465 21.8685057,20.9864146 C35.8367947,9.86658984 50.7960854,2.89483727 64.9323612,0.0699506677 C66.2351658,3.27840428 67.5307192,6.52304345 68.8178128,9.79663108 L68.8178128,9.79663108 Z"/>
        <polygon fill="#B97990" stroke="#B97990" stroke-width="2.238" points=".334 22.901 .079 27.215 16.681 28.186 9.095 42.951 12.948 44.923 20.939 29.362 17.822 23.926"/>
        <ellipse cx="21.786" cy="25.282" fill="#BB97A1" rx="6.069" ry="6.057"/>
      </g>
      <g transform="translate(53.176 191.784)">
        <rect width="9.019" height="24.656" x="24.224" y=".624" fill="#5C4B36"/>
        <path fill="#978353" d="M37.816381,24.9716598 C37.816381,30.1522268 33.6106667,34.3449278 28.423619,34.3449278 C23.2317373,34.3449278 19.0248144,30.1522268 19.0248144,24.9716598 C19.0248144,19.7947113 23.2317373,15.5983918 28.423619,15.5983918 C33.6106667,15.5983918 37.816381,19.7947113 37.816381,24.9716598 L37.816381,24.9716598 Z"/>
        <path fill="#5C4B36" d="M46.7438555,37.1601649 C46.7644007,36.9611443 46.8127422,36.7633299 46.8127422,36.5570722 C46.8127422,29.5129485 42.4475008,23.8040722 27.4531626,23.8040722 C12.4515731,23.8040722 0.298509031,29.5129485 0.298509031,36.5570722 C0.298509031,36.7633299 0.344433498,36.9611443 0.362561576,37.1601649 L46.7438555,37.1601649 L46.7438555,37.1601649 Z"/>
        <rect width="46.381" height="4.073" x=".363" y="37.16" fill="#978353"/>
      </g>
      <g transform="translate(109.554 190.156)">
        <polygon fill="#322B29" points="13.106 .283 23.282 15.31 13.128 36.954 5.183 36.166 12.475 17.112 5.711 3.165"/>
        <path fill="#817D7C" d="M36.7513875,38.7873012 C36.7670985,38.5882806 36.8009376,38.3904661 36.8009376,38.1842084 C36.8009376,35.393095 36.907289,29.5443012 33.0991839,27.4431259 C27.3018243,24.2479404 14.7729047,25.4312084 14.7729047,25.4312084 L8.11264857,32.7551672 C8.11264857,32.7551672 2.90022164,31.5875795 2.12433986,32.6490228 C0.90492443,34.3244146 0.224517205,36.2024455 0.224517205,38.1842084 C0.224517205,38.3904661 0.249896515,38.5882806 0.264398978,38.7873012 L36.7513875,38.7873012 L36.7513875,38.7873012 Z"/>
        <rect width="36.307" height="4.073" x=".444" y="38.787" fill="#322B29"/>
        <polygon fill="#817D7C" points="21.958 11.698 25.653 15.386 22.825 18.212 11.017 18.576 10.88 17.022"/>
      </g>
      <g transform="translate(142.185 123.03)">
        <path fill="#849AA5" d="M30.5165369 36.2965361C30.5165369 39.0948866 28.24811 41.3540722 25.4515517 41.3540722 22.6537849 41.3540722 20.387775 39.0948866 20.387775 36.2965361 20.387775 33.5066289 22.6537849 31.2450309 25.4515517 31.2450309 28.24811 31.2438247 30.5165369 33.5054227 30.5165369 36.2965361L30.5165369 36.2965361zM22.876156 63.1908557C22.876156 65.4524536 21.0415944 67.2894742 18.7683333 67.2894742 16.5071576 67.2894742 14.6701789 65.4524536 14.6701789 63.1908557 14.6701789 60.9280515 16.5071576 59.0934433 18.7683333 59.0934433 21.0428029 59.0922371 22.876156 60.9280515 22.876156 63.1908557L22.876156 63.1908557zM23.3414433 14.3524021C23.3414433 20.6800515 18.2027372 25.8123711 11.8663694 25.8123711 5.52758453 25.8123711.39129553 20.6800515.39129553 14.3524021.39129553 8.01510309 5.52758453 2.88881443 11.8663694 2.88881443 18.2027372 2.89002062 23.3414433 8.01630928 23.3414433 14.3524021L23.3414433 14.3524021z"/>
        <polygon fill="#3F4B57" points="32.901 34.106 17.845 34.193 17.596 .566 32.648 4.368"/>
        <polygon fill="#3F4B57" points="18.366 36.704 32.814 40.923 24.76 63.963 13.893 60"/>
        <g transform="translate(4.834 61.515)">
          <polygon fill="#849AA5" points="5.897 1.995 1.41 3.205 .029 8.148 3.016 11.521"/>
          <polygon fill="#3F4B57" points="15.498 16.61 5.114 15.212 .641 12.037 4.348 2.412 7.901 .274 18.87 5.441"/>
        </g>
      </g>
      <polygon fill="#978353" points="131.797 196.104 108.198 196.104 106.251 179.457 133.739 179.457"/>
      <g transform="translate(58.01 104.938)">
        <polygon fill="#978353" points="37.279 91.166 13.67 91.166 11.722 74.519 39.223 74.519"/>
        <path fill="#5C4B36" d="M80.5128407,80.5189175 C80.4028637,81.7842062 79.2740887,82.7274433 78.0051232,82.6164742 L2.80501806,76.0005464 C1.53726108,75.8871649 0.590975369,74.7617938 0.70216092,73.4965052 L6.99260427,2.27004124 C7.10378982,1.00475258 8.23135632,0.0591030928 9.50032184,0.172484536 L84.6992184,6.78841237 C85.9681839,6.89938144 86.9156782,8.02475258 86.8020755,9.29245361 L80.5128407,80.5189175 L80.5128407,80.5189175 Z"/>
        <path fill="#64522C" d="M91.7256617,67.326866 C91.6144762,68.594567 90.4869097,69.5378041 89.2179442,69.4244227 L35.1878095,64.6696392 C33.9200525,64.5562577 32.9749754,63.4308866 33.0849524,62.1655979 L37.5142463,12.064268 C37.6266404,10.796567 38.7554154,9.8533299 40.0231724,9.96550515 L94.0496814,14.7190825 C95.318647,14.8312577 96.2649327,15.9566289 96.1525386,17.2219175 L91.7256617,67.326866 L91.7256617,67.326866 Z"/>
      </g>
      <g fill="#CF9D25" transform="translate(106.351 90.464)">
        <rect width="23.974" height="2.871" x="4.664" y="6.804"/>
        <rect width="23.971" height="2.872" x="4.664" y="13.647" transform="rotate(6.603 16.65 15.083)"/>
        <rect width="23.973" height="2.866" x=".51" y="1.133" transform="rotate(-3.916 12.496 2.566)"/>
      </g>
      <g transform="translate(54.384)">
        <rect width="11.865" height="8.979" x="92.89" y="63.778" fill="#322B29" transform="rotate(-2.883 98.823 68.267)"/>
        <rect width="11.869" height="8.976" x="9.195" y="67.96" fill="#322B29" transform="rotate(-2.883 15.13 72.448)"/>
        <g fill="#322B29" transform="translate(67.678)">
          <rect width="2.835" height="31.103" x="8.407" y=".145"/>
          <rect width="18.466" height="2.187" x=".593" y="5.358"/>
          <rect width="14.701" height="2.181" x="2.475" y="9.596"/>
          <rect width="11.7" height="2.181" x="3.98" y="13.833"/>
        </g>
        <g fill="#BDB69A" transform="translate(0 20.084)">
          <polygon points="28.245 15.481 26.944 18.001 .207 4.142 2.632 3.248"/>
          <rect width="14.71" height="2.184" x="1.898" y="6.236" transform="rotate(-62.741 9.253 7.328)"/>
          <polygon points="16.708 4.568 11.34 14.959 9.399 13.956 14.762 3.572"/>
        </g>
        <path fill="#959494" d="M98.0499442,83.5633299 C98.1732151,84.8262062 97.2341806,85.9588144 95.9664236,86.0818454 L20.8231199,93.2646804 C19.5553629,93.3865052 18.4181281,92.449299 18.2984828,91.1840103 L13.9223645,45.6637732 C13.8039278,44.3984845 14.4722496,42.6615773 15.4100755,41.8063918 L25.448197,32.6442062 C26.386023,31.7890206 28.1915796,30.9893196 29.4593366,30.8662887 L90.1146798,25.0681546 C91.3812282,24.9451237 92.5172545,25.8823299 92.6405255,27.1476186 L98.0499442,83.5633299 L98.0499442,83.5633299 Z"/>
        <path fill="#960B18" d="M81.994509,51.9793608 C81.994509,58.8956289 76.3784302,64.5080103 69.4474614,64.5080103 C62.5237438,64.5080103 56.8979967,58.8968351 56.8979967,51.9793608 C56.8979967,45.0606804 62.5225353,39.4519175 69.4474614,39.4519175 C76.3772217,39.4519175 81.994509,45.0594742 81.994509,51.9793608 L81.994509,51.9793608 Z"/>
        <path fill="#4E0000" d="M75.0599146,51.9793608 C75.0599146,55.0720206 72.5485714,57.5857113 69.4462529,57.5857113 C66.349977,57.5857113 63.8313826,55.0720206 63.8313826,51.9793608 C63.8313826,48.8842887 66.349977,46.3742165 69.4462529,46.3742165 C72.5485714,46.3730103 75.0599146,48.8830825 75.0599146,51.9793608 L75.0599146,51.9793608 Z"/>
        <path fill="#7DB6D1" d="M44.9310476,53.4665876 C44.9310476,57.7220103 41.4697931,61.1729072 37.2048604,61.1729072 C32.9363021,61.1729072 29.4810903,57.7232165 29.4810903,53.4665876 C29.4810903,49.2075464 32.9363021,45.7590619 37.2048604,45.7590619 C41.4697931,45.760268 44.9310476,49.2075464 44.9310476,53.4665876 L44.9310476,53.4665876 Z"/>
        <ellipse cx="37.205" cy="53.467" fill="#4A6EA3" rx="6.248" ry="6.236"/>
        <path fill="#ACC6D4" d="M70.1895041,76.3334536 C60.8982594,82.8951031 49.9464828,84.8563608 40.5694319,82.2196392 C40.3156388,80.6624536 40.0630542,79.1004433 39.8104696,77.5360206 C49.1005057,80.4212165 60.0510739,78.7096392 69.4281248,72.3964639 C69.6831264,73.7136186 69.935711,75.0247423 70.1895041,76.3334536 L70.1895041,76.3334536 Z"/>
        <polygon fill="#3F4B57" points="52.225 59.553 47.163 64.601 51.548 66.612 46.476 71.673 57.297 69.987"/>
        <g fill="#5C5857" transform="translate(18.128 47.041)">
          <path d="M5.68617406 2.50162887C5.85899507 4.01056701 4.7761445 5.36873196 3.2666798 5.54242268 1.75842365 5.71249485.395192118 4.63175258.224788177 3.12763918.0519671593 1.62231959 1.13119212.26656701 2.64186535.0940824742 4.15133005-.080814433 5.51456158.996309278 5.68617406 2.50162887L5.68617406 2.50162887zM6.65421346 10.978701C6.82703448 12.4852268 5.74780952 13.8445979 4.23713629 14.0146701 2.72767159 14.1871546 1.36685714 13.1064124 1.19403612 11.6047113 1.02121511 10.094567 2.10406568 8.73640206 3.6111133 8.5663299 5.12178654 8.39505155 6.48260099 9.47217526 6.65421346 10.978701L6.65421346 10.978701z"/>
          <ellipse cx="4.892" cy="19.765" rx="2.749" ry="2.744"/>
          <path d="M8.59512644 27.9256082C8.76673892 29.4333402 7.68388834 30.7939175 6.17321511 30.9615773 4.66858456 31.1376804 3.30051888 30.0509072 3.13011494 28.5492062 2.959711 27.0450928 4.04256158 25.688134 5.55202627 25.5132371 7.06028243 25.3443711 8.4247225 26.4214948 8.59512644 27.9256082L8.59512644 27.9256082zM9.56437438 36.4026804C9.73840394 37.9200619 8.65192775 39.2878763 7.14246305 39.4531237 5.63783251 39.6292268 4.27580952 38.544866 4.10419704 37.0250722 3.93137603 35.5209588 5.01543514 34.1627938 6.52127422 33.9866907 8.02953038 33.8178247 9.3927619 34.8961546 9.56437438 36.4026804L9.56437438 36.4026804z"/>
        </g>
      </g>
      <g transform="translate(110.763 125.022)">
        <polygon fill="#BDA468" points="31.894 39.644 .319 36.867 3.544 .247 35.117 3.025"/>
        <path fill="#AD182B" d="M12.0331477,8.17431149 C11.8748292,9.96790943 10.2916436,11.2886826 8.49333822,11.1330847 C6.69624134,10.9738682 5.36805743,9.39858984 5.52758453,7.60137335 C5.68590308,5.80656922 7.27150571,4.48579603 9.06739405,4.64501252 C10.8632824,4.79819809 12.1926748,6.37830118 12.0331477,8.17431149 L12.0331477,8.17431149 Z"/>
        <path fill="#AAC9E9" d="M21.0017126,8.96195067 C20.840977,10.757961 19.259,12.0811465 17.4631116,11.9207239 C15.673266,11.7627136 14.3402479,10.1814043 14.5021921,8.39142489 C14.6580936,6.5942084 16.2400706,5.26981665 18.0359589,5.42782696 C19.8318473,5.58583727 21.1576141,7.16714654 21.0017126,8.96195067 L21.0017126,8.96195067 Z"/>
        <path fill="#38834B" d="M29.9654433,9.74958984 C29.8071248,11.538363 28.2287734,12.8663733 26.4316765,12.708363 C24.6357881,12.5503527 23.3100213,10.9714558 23.4695484,9.17906407 C23.6254499,7.38546613 25.2062184,6.05986819 27.0008982,6.21546613 C28.7992036,6.377095 30.1249704,7.9559919 29.9654433,9.74958984 L29.9654433,9.74958984 Z"/>
        <path fill="#AFD136" d="M27.6402151 29.9206311C27.5217783 30.6732909 26.8135747 31.181095 26.0691149 31.0628888 25.3137783 30.9458888 24.7989408 30.2414764 24.9197947 29.4888166 25.0406486 28.7409816 25.744018 28.2283527 26.4993546 28.3489713 27.2413973 28.4635589 27.7574433 29.1655589 27.6402151 29.9206311L27.6402151 29.9206311zM23.6991707 29.6516517C23.5783169 30.3994868 22.8773645 30.9097032 22.1292791 30.7914971 21.3763596 30.6720847 20.8639392 29.9700847 20.9835845 29.2150125 21.1008128 28.470796 21.8029737 27.9545486 22.5558932 28.0799919 23.3039786 28.1933733 23.8139819 28.9001981 23.6991707 29.6516517L23.6991707 29.6516517zM19.7593349 29.3790538C19.6396896 30.1293012 18.9351116 30.6395177 18.1870262 30.5225177 17.4377323 30.3994868 16.9241034 29.6998991 17.0401231 28.9520641 17.1621855 28.1981981 17.865555 27.6867754 18.617266 27.8025692 19.3701855 27.9256002 19.8813973 28.6276002 19.7593349 29.3790538L19.7593349 29.3790538zM15.8219162 29.1064558C15.704688 29.8579094 14.9940673 30.3681259 14.2471904 30.2463012 13.4954794 30.1305074 12.9842676 29.4309197 13.1002873 28.6818785 13.2175156 27.9268063 13.9233021 27.4141775 14.6774302 27.5335898 15.424307 27.651796 15.9379359 28.3610331 15.8219162 29.1064558L15.8219162 29.1064558z"/>
        <g transform="translate(12.085 13.268)">
          <rect width="15.503" height="1.022" x="2.126" y=".885" fill="#64522C" transform="rotate(5.025 9.877 1.396)"/>
          <rect width="15.501" height="1.029" x="1.895" y="3.556" fill="#64522C" transform="rotate(5.025 9.645 4.07)"/>
          <rect width="15.502" height="1.024" x="1.621" y="6.254" fill="#64522C" transform="rotate(5.02 9.372 6.766)"/>
          <rect width="15.502" height="1.031" x="1.386" y="8.928" fill="#64522C" transform="rotate(5.02 9.137 9.444)"/>
          <rect width="15.503" height="1.024" x="1.126" y="11.584" fill="#64522C" transform="rotate(5.054 8.878 12.096)"/>
          <rect width="15.503" height="1.023" x=".203" y="19.815" fill="#AD182B" transform="rotate(5.025 7.955 20.326)"/>
        </g>
        <g fill="#FFF229" transform="translate(5.257 13.268)">
          <rect width="3.4" height="3.397" x="2.106" y=".322" transform="rotate(5.02 3.806 2.02)"/>
          <rect width="3.403" height="3.397" x="1.545" y="6.288" transform="rotate(5.054 3.247 7.986)"/>
          <rect width="3.401" height="3.398" x="1.05" y="12.244" transform="rotate(5.054 2.75 13.943)"/>
          <polygon points="3.754 21.787 .364 21.486 .661 18.107 4.052 18.399"/>
        </g>
      </g>
    </g>
    <g transform="translate(0 210)">
      <path fill="#7FC4EC" d="M56.5053907 226.881213C56.5053907 228.920287 54.854414 230.572935 52.8198698 230.572935L44.9599395 230.572935C42.9253953 230.572935 41.2744186 228.920287 41.2744186 226.881213L41.2744186 219.005824C41.2744186 216.967463 42.9253953 215.314815 44.9599395 215.314815L52.8198698 215.314815C54.854414 215.314815 56.5053907 216.967463 56.5053907 219.005824L56.5053907 226.881213M97.778386 226.881213C97.778386 228.920287 96.1288326 230.572935 94.0942884 230.572935L86.2329349 230.572935C84.1983907 230.572935 82.5488372 228.920287 82.5488372 226.881213L82.5488372 219.005824C82.5488372 216.967463 84.1983907 215.314815 86.2329349 215.314815L94.0942884 215.314815C96.1288326 215.314815 97.778386 216.967463 97.778386 219.005824L97.778386 226.881213"/>
      <polyline fill="#231F1F" points="82.961 125.563 60.61 125.906 60.488 117.982 82.84 117.639 82.961 125.563"/>
      <g fill="#231F1F" transform="translate(0 144.731)">
        <path d="M26.7566928,16.210903 C26.3425254,17.4771252 24.9818928,18.1651345 23.7187533,17.7494771 C22.4549021,17.3359586 21.766758,15.9720604 22.1809254,14.7058382 L25.9831533,3.0866808 C26.3973207,1.82259746 27.7579533,1.13316228 29.0210928,1.54525487 C30.284944,1.9623382 30.9745114,3.3233845 30.5596324,4.59103265 L26.7566928,16.210903"/>
        <polyline points="8.749 39.126 1.423 18.693 12.741 2.139 28.05 7.223 26.194 12.83 15.097 9.144 7.992 19.538 14.299 37.13 8.749 39.126"/>
        <path d="M18.8567163 5.16826852C18.8567163 8.02297222 16.5474837 10.336537 13.6981256 10.336537 10.8487674 10.336537 8.53953488 8.02297222 8.53953488 5.16826852 8.53953488 2.31285185 10.8487674 0 13.6981256 0 16.5474837 0 18.8567163 2.31285185 18.8567163 5.16826852M9.94926977 19.2428704C9.94926977 21.9956204 7.72187442 24.2264815 4.97427907 24.2264815 2.22739535 24.2264815 0 21.9956204 0 19.2428704 0 16.4901204 2.22739535 14.2592593 4.97427907 14.2592593 7.72187442 14.2592593 9.94926977 16.4901204 9.94926977 19.2428704M21.6666537 40.3062337C21.6481514 40.2442059 21.6467281 40.1807522 21.6260909 40.1158726 20.1622723 35.6299096 15.3438398 33.1808818 10.8641421 34.6474466 6.38515605 36.1161503 3.94213745 40.9421966 5.40595605 45.4295855 5.42659326 45.4944651 5.46288628 45.5465114 5.48423512 45.6071133L21.6666537 40.3062337"/>
      </g>
      <g fill="#231F1F" transform="translate(107.456 144.731)">
        <path d="M3.92332778,16.210903 C4.33678359,17.4771252 5.69812778,18.1651345 6.96197894,17.7494771 C8.22511848,17.3359586 8.91468592,15.9720604 8.49980685,14.7058382 L4.69686731,3.0866808 C4.28269987,1.82259746 2.92277894,1.13316228 1.65892778,1.54525487 C0.395076615,1.9623382 -0.293779198,3.3233845 0.120388243,4.59103265 L3.92332778,16.210903"/>
        <polyline points="22.146 39.126 29.473 18.693 18.155 2.139 2.847 7.223 4.701 12.83 15.799 9.144 22.904 19.538 16.597 37.13 22.146 39.126"/>
        <path d="M11.3860465 5.16826852C11.3860465 8.02297222 13.6959907 10.336537 16.5446372 10.336537 19.3939953 10.336537 21.7032279 8.02297222 21.7032279 5.16826852 21.7032279 2.31285185 19.3939953 0 16.5446372 0 13.6959907 0 11.3860465 2.31285185 11.3860465 5.16826852M21.3488372 19.2428704C21.3488372 21.9956204 23.5762326 24.2264815 26.3238279 24.2264815 29.0707116 24.2264815 31.2973953 21.9956204 31.2973953 19.2428704 31.2973953 16.4901204 29.0707116 14.2592593 26.3238279 14.2592593 23.5762326 14.2592593 21.3488372 16.4901204 21.3488372 19.2428704M9.25116279 40.3062337C9.27037674 40.2442059 9.27251163 40.1807522 9.29314884 40.1158726 10.7576791 35.6299096 15.5746884 33.1808818 20.054386 34.6474466 24.5340837 36.1161503 26.9771023 40.9421966 25.5125721 45.4295855 25.4919349 45.4944651 25.4563535 45.5465114 25.4357163 45.6071133L9.25116279 40.3062337"/>
      </g>
      <g transform="translate(27.042 128.333)">
        <path fill="#7FC4EC" d="M84.5029674,42.331463 C84.5029674,65.7095185 65.587186,84.662213 42.2514837,84.662213 C18.916493,84.662213 0,65.7095185 0,42.331463 C0,18.9526944 18.916493,0 42.2514837,0 C65.587186,0 84.5029674,18.9526944 84.5029674,42.331463"/>
        <path fill="#231F1F" d="M47.7630419 19.6485463C47.7630419 22.2308981 45.6722791 24.3248704 43.0947628 24.3248704 40.5172465 24.3248704 38.427907 22.2308981 38.427907 19.6485463 38.427907 17.0661944 40.5172465 14.9722222 43.0947628 14.9722222 45.6722791 14.9722222 47.7630419 17.0661944 47.7630419 19.6485463M47.7630419 43.1763241C47.7630419 45.7593889 45.6722791 47.8526481 43.0947628 47.8526481 40.5172465 47.8526481 38.427907 45.7593889 38.427907 43.1763241 38.427907 40.5939722 40.5172465 38.5 43.0947628 38.5 45.6722791 38.5 47.7630419 40.5939722 47.7630419 43.1763241M47.7630419 65.9911389C47.7630419 68.5742037 45.6722791 70.667463 43.0947628 70.667463 40.5172465 70.667463 38.427907 68.5742037 38.427907 65.9911389 38.427907 63.4080741 40.5172465 61.3148148 43.0947628 61.3148148 45.6722791 61.3148148 47.7630419 63.4080741 47.7630419 65.9911389"/>
      </g>
      <g transform="translate(4.981)">
        <polyline fill="#7FC4EC" points="0 37.549 41.269 116.303 94.328 116.303 123.806 51.33 99.243 30.657 0 37.549"/>
        <path fill="#FFFFFF" d="M61.8070186 64.4703889C61.8070186 73.6954167 54.3427535 81.1722593 45.1364233 81.1722593 35.9293814 81.1722593 28.4651163 73.6954167 28.4651163 64.4703889 28.4651163 55.246787 35.9293814 47.7685185 45.1364233 47.7685185 54.3427535 47.7685185 61.8070186 55.246787 61.8070186 64.4703889M93.8302744 81.5815C93.8302744 90.8065278 86.3660093 98.2833704 77.1603907 98.2833704 67.9519256 98.2833704 60.4883721 90.8065278 60.4883721 81.5815 60.4883721 72.3578981 67.9519256 64.8796296 77.1603907 64.8796296 86.3660093 64.8796296 93.8302744 72.3578981 93.8302744 81.5815"/>
        <path fill="#231F1F" d="M50.4729209 64.8546759C50.4729209 68.7773981 47.2983488 71.9586389 43.3822605 71.9586389 39.4668837 71.9586389 36.2930233 68.7773981 36.2930233 64.8546759 36.2930233 60.9312407 39.4668837 57.75 43.3822605 57.75 47.2983488 57.75 50.4729209 60.9312407 50.4729209 64.8546759M84.6324837 81.2528241C84.6324837 85.1755463 81.4572 88.3560741 77.5418233 88.3560741 73.6257349 88.3560741 70.4511628 85.1755463 70.4511628 81.2528241 70.4511628 77.3293889 73.6257349 74.1481481 77.5418233 74.1481481 81.4572 74.1481481 84.6324837 77.3293889 84.6324837 81.2528241"/>
        <polyline fill="#231F1F" points="42.698 94.111 47.856 106.662 59.463 105.002 42.698 94.111"/>
        <g fill="#231F1F" transform="translate(103.186)">
          <path d="M19.5327628,37.4275669 L10.3897674,29.5828354 C7.29774419,26.9284743 2.64725581,27.2885206 0,30.3870576 L20.3354791,47.8354002 C22.9834465,44.7382891 22.6233628,40.0776502 19.5327628,37.4275669"/>
          <polyline points="12.098 29.442 34.523 7.843 37.888 9.787 20.76 37.535 12.098 29.442"/>
          <path d="M42.2198538,10.7278166 C39.689305,12.9800666 35.8159143,12.7497796 33.569305,10.2144833 C31.321984,7.67918698 31.5518398,3.7999555 34.0816771,1.5477055 C36.6115143,-0.70169265 40.484905,-0.472831539 42.7315143,2.06246476 C44.9781236,4.59776105 44.749691,8.4777055 42.2198538,10.7278166"/>
        </g>
      </g>
    </g>
    <g transform="translate(328)">
      <use fill="#D8D8D8" stroke="#979797" stroke-width="2" mask="url(#b)" xlink:href="#a"/>
      <ellipse cx="280.71" cy="35.005" fill="#D8D8D8" stroke="#979797" rx="21.823" ry="21.841"/>
      <ellipse cx="324.655" cy="81.978" fill="#D8D8D8" stroke="#979797" rx="18.535" ry="18.55"/>
      <g fill="#000000" filter="url(#c)">
        <path d="M62.2505748 240.67376C58.4685377 240.67376 55.9471796 243.199088 55.9471796 246.98708L55.9471796 256.457061C55.9471796 260.245053 58.4685377 262.770381 62.2505748 262.770381 66.032612 262.770381 68.5539701 260.245053 68.5539701 256.457061L68.5539701 246.98708C68.5539701 243.199088 66.032612 240.67376 62.2505748 240.67376L62.2505748 240.67376zM112.047397 240.67376C108.26536 240.67376 105.744002 243.199088 105.744002 246.98708L105.744002 256.457061C105.744002 260.245053 108.26536 262.770381 112.047397 262.770381 115.829434 262.770381 118.350792 260.245053 118.350792 256.457061L118.350792 246.98708C118.350792 243.199088 115.199095 240.67376 112.047397 240.67376L112.047397 240.67376zM161.21388 240.67376C157.431843 240.67376 154.910485 243.199088 154.910485 246.98708L154.910485 256.457061C154.910485 260.245053 157.431843 262.770381 161.21388 262.770381 164.995917 262.770381 167.517275 260.245053 167.517275 256.457061L167.517275 246.98708C167.517275 243.199088 164.995917 240.67376 161.21388 240.67376L161.21388 240.67376zM62.2505748 279.185015C58.4685377 279.185015 55.9471796 281.710343 55.9471796 285.498335L55.9471796 294.968316C55.9471796 298.756308 58.4685377 301.281636 62.2505748 301.281636 66.032612 301.281636 68.5539701 298.756308 68.5539701 294.968316L68.5539701 285.498335C68.5539701 282.341675 66.032612 279.185015 62.2505748 279.185015L62.2505748 279.185015zM112.047397 279.185015C108.26536 279.185015 105.744002 281.710343 105.744002 285.498335L105.744002 294.968316C105.744002 298.756308 108.26536 301.281636 112.047397 301.281636 115.829434 301.281636 118.350792 298.756308 118.350792 294.968316L118.350792 285.498335C118.350792 282.341675 115.199095 279.185015 112.047397 279.185015L112.047397 279.185015zM161.21388 279.185015C157.431843 279.185015 154.910485 281.710343 154.910485 285.498335L154.910485 294.968316C154.910485 298.756308 157.431843 301.281636 161.21388 301.281636 164.995917 301.281636 167.517275 298.756308 167.517275 294.968316L167.517275 285.498335C167.517275 282.341675 164.995917 279.185015 161.21388 279.185015L161.21388 279.185015zM62.2505748 318.327601C58.4685377 318.327601 55.9471796 320.852929 55.9471796 324.640922L55.9471796 334.110902C55.9471796 337.898894 58.4685377 340.424223 62.2505748 340.424223 66.032612 340.424223 68.5539701 337.898894 68.5539701 334.110902L68.5539701 324.640922C68.5539701 320.852929 66.032612 318.327601 62.2505748 318.327601L62.2505748 318.327601zM112.047397 318.327601C108.26536 318.327601 105.744002 320.852929 105.744002 324.640922L105.744002 334.110902C105.744002 337.898894 108.26536 340.424223 112.047397 340.424223 115.829434 340.424223 118.350792 337.898894 118.350792 334.110902L118.350792 324.640922C118.350792 320.852929 115.199095 318.327601 112.047397 318.327601L112.047397 318.327601zM161.21388 318.327601C157.431843 318.327601 154.910485 320.852929 154.910485 324.640922L154.910485 334.110902C154.910485 337.898894 157.431843 340.424223 161.21388 340.424223 164.995917 340.424223 167.517275 337.898894 167.517275 334.110902L167.517275 324.640922C167.517275 320.852929 164.995917 318.327601 161.21388 318.327601L161.21388 318.327601zM62.2505748 356.838856C58.4685377 356.838856 55.9471796 359.364184 55.9471796 363.152176L55.9471796 372.622157C55.9471796 376.410149 58.4685377 378.935477 62.2505748 378.935477 66.032612 378.935477 68.5539701 376.410149 68.5539701 372.622157L68.5539701 363.152176C68.5539701 359.995516 66.032612 356.838856 62.2505748 356.838856L62.2505748 356.838856zM112.047397 356.838856C108.26536 356.838856 105.744002 359.364184 105.744002 363.152176L105.744002 372.622157C105.744002 376.410149 108.26536 378.935477 112.047397 378.935477 115.829434 378.935477 118.350792 376.410149 118.350792 372.622157L118.350792 363.152176C118.350792 359.995516 115.199095 356.838856 112.047397 356.838856L112.047397 356.838856zM161.21388 356.838856C157.431843 356.838856 154.910485 359.364184 154.910485 363.152176L154.910485 372.622157C154.910485 376.410149 157.431843 378.935477 161.21388 378.935477 164.995917 378.935477 167.517275 376.410149 167.517275 372.622157L167.517275 363.152176C167.517275 359.995516 164.995917 356.838856 161.21388 356.838856L161.21388 356.838856zM62.2505748 395.981442C58.4685377 395.981442 55.9471796 398.506771 55.9471796 402.294763L55.9471796 411.764743C55.9471796 415.552736 58.4685377 418.078064 62.2505748 418.078064 66.032612 418.078064 68.5539701 415.552736 68.5539701 411.764743L68.5539701 402.294763C68.5539701 398.506771 66.032612 395.981442 62.2505748 395.981442L62.2505748 395.981442zM112.047397 395.981442C108.26536 395.981442 105.744002 398.506771 105.744002 402.294763L105.744002 411.764743C105.744002 415.552736 108.26536 418.078064 112.047397 418.078064 115.829434 418.078064 118.350792 415.552736 118.350792 411.764743L118.350792 402.294763C118.350792 398.506771 115.199095 395.981442 112.047397 395.981442L112.047397 395.981442zM161.21388 395.981442C157.431843 395.981442 154.910485 398.506771 154.910485 402.294763L154.910485 411.764743C154.910485 415.552736 157.431843 418.078064 161.21388 418.078064 164.995917 418.078064 167.517275 415.552736 167.517275 411.764743L167.517275 402.294763C167.517275 398.506771 164.995917 395.981442 161.21388 395.981442L161.21388 395.981442zM211.010702 240.67376C207.228665 240.67376 204.707307 243.199088 204.707307 246.98708L204.707307 256.457061C204.707307 260.245053 207.228665 262.770381 211.010702 262.770381 214.792739 262.770381 217.314097 260.245053 217.314097 256.457061L217.314097 246.98708C217.314097 243.199088 214.792739 240.67376 211.010702 240.67376L211.010702 240.67376zM260.807524 240.67376C257.025487 240.67376 254.504129 243.199088 254.504129 246.98708L254.504129 256.457061C254.504129 260.245053 257.025487 262.770381 260.807524 262.770381 264.589562 262.770381 267.11092 260.245053 267.11092 256.457061L267.11092 246.98708C267.11092 243.199088 263.959222 240.67376 260.807524 240.67376L260.807524 240.67376zM211.010702 279.185015C207.228665 279.185015 204.707307 281.710343 204.707307 285.498335L204.707307 294.968316C204.707307 298.756308 207.228665 301.281636 211.010702 301.281636 214.792739 301.281636 217.314097 298.756308 217.314097 294.968316L217.314097 285.498335C217.314097 282.341675 214.792739 279.185015 211.010702 279.185015L211.010702 279.185015zM260.807524 279.185015C257.025487 279.185015 254.504129 281.710343 254.504129 285.498335L254.504129 294.968316C254.504129 298.756308 257.025487 301.281636 260.807524 301.281636 264.589562 301.281636 267.11092 298.756308 267.11092 294.968316L267.11092 285.498335C267.11092 282.341675 263.959222 279.185015 260.807524 279.185015L260.807524 279.185015zM211.010702 318.327601C207.228665 318.327601 204.707307 320.852929 204.707307 324.640922L204.707307 334.110902C204.707307 337.898894 207.228665 340.424223 211.010702 340.424223 214.792739 340.424223 217.314097 337.898894 217.314097 334.110902L217.314097 324.640922C217.314097 320.852929 214.792739 318.327601 211.010702 318.327601L211.010702 318.327601zM260.807524 318.327601C257.025487 318.327601 254.504129 320.852929 254.504129 324.640922L254.504129 334.110902C254.504129 337.898894 257.025487 340.424223 260.807524 340.424223 264.589562 340.424223 267.11092 337.898894 267.11092 334.110902L267.11092 324.640922C267.11092 320.852929 263.959222 318.327601 260.807524 318.327601L260.807524 318.327601zM211.010702 356.838856C207.228665 356.838856 204.707307 359.364184 204.707307 363.152176L204.707307 372.622157C204.707307 376.410149 207.228665 378.935477 211.010702 378.935477 214.792739 378.935477 217.314097 376.410149 217.314097 372.622157L217.314097 363.152176C217.314097 359.995516 214.792739 356.838856 211.010702 356.838856L211.010702 356.838856zM260.807524 356.838856C257.025487 356.838856 254.504129 359.364184 254.504129 363.152176L254.504129 372.622157C254.504129 376.410149 257.025487 378.935477 260.807524 378.935477 264.589562 378.935477 267.11092 376.410149 267.11092 372.622157L267.11092 363.152176C267.11092 359.995516 263.959222 356.838856 260.807524 356.838856L260.807524 356.838856zM211.010702 395.981442C207.228665 395.981442 204.707307 398.506771 204.707307 402.294763L204.707307 411.764743C204.707307 415.552736 207.228665 418.078064 211.010702 418.078064 214.792739 418.078064 217.314097 415.552736 217.314097 411.764743L217.314097 402.294763C217.314097 398.506771 214.792739 395.981442 211.010702 395.981442L211.010702 395.981442zM260.807524 395.981442C257.025487 395.981442 254.504129 398.506771 254.504129 402.294763L254.504129 411.764743C254.504129 415.552736 257.025487 418.078064 260.807524 418.078064 264.589562 418.078064 267.11092 415.552736 267.11092 411.764743L267.11092 402.294763C267.11092 398.506771 263.959222 395.981442 260.807524 395.981442L260.807524 395.981442z"/>
        <path d="M390.657466 430.704705L368.595583 430.704705 355.988792 125.139996C355.988792 121.983336 352.837095 118.826676 349.685397 118.826676L303.040272 118.826676C299.888575 118.826676 296.736877 121.352004 296.736877 125.139996L292.95484 221.102467 205.337646 166.807911C203.446628 165.545247 200.92527 165.545247 199.034251 166.807911 197.143233 168.070575 195.882554 169.964571 195.882554 172.489899L195.882554 212.263818 195.882554 214.157814 116.459774 166.807911C114.568755 165.545247 112.047397 165.545247 110.156379 166.807911 108.26536 168.070575 107.004681 169.964571 107.004681 172.489899L107.004681 213.526482 28.2122406 166.807911C26.3212221 165.545247 23.799864 165.545247 21.9088454 166.807911 20.0178268 168.070575 18.7571478 169.964571 18.7571478 172.489899L18.7571478 431.336037 6.78069685 431.336037C2.99865972 431.336037.477301629 433.861365.477301629 437.649357.477301629 441.437349 2.99865972 443.962678 6.78069685 443.962678L390.657466 443.962678C394.439503 443.962678 396.960861 441.437349 396.960861 437.649357 396.960861 433.861365 394.439503 430.704705 390.657466 430.704705L390.657466 430.704705zM309.343668 131.453317L343.382002 131.453317 355.988792 430.704705 297.367217 430.704705 309.343668 131.453317 309.343668 131.453317zM31.3639382 183.222544L110.156379 229.941115C112.047397 231.203779 114.568755 231.203779 116.459774 229.941115 118.350792 228.678451 119.611471 226.784455 119.611471 224.259127L119.611471 182.591212 198.403912 229.941115C200.29493 231.203779 202.816288 231.203779 204.707307 229.941115 206.598325 228.678451 207.859005 226.784455 207.859005 224.890459L208.489344 212.263818 208.489344 183.222544 292.324501 234.991772 284.130087 430.704705 31.3639382 430.704705 31.3639382 183.222544 31.3639382 183.222544zM326.362835 103.674707C338.339286 103.674707 347.794379 94.2047263 347.794379 82.2094175 347.794379 70.2141087 338.339286 60.744128 326.362835 60.744128 314.386384 60.744128 304.931291 70.2141087 304.931291 82.2094175 305.561631 94.2047263 315.016723 103.674707 326.362835 103.674707L326.362835 103.674707zM326.362835 74.0021009C331.405551 74.0021009 335.187588 77.7900932 335.187588 82.8407495 335.187588 87.8914058 331.405551 91.6793981 326.362835 91.6793981 321.320119 91.6793981 317.538081 87.8914058 317.538081 82.8407495 318.168421 77.7900932 321.950458 74.0021009 326.362835 74.0021009L326.362835 74.0021009zM278.457031.136252C260.807524.136252 246.309715 14.656889 246.309715 32.3341861 246.309715 50.0114833 260.807524 64.5321203 278.457031 64.5321203 296.106538 64.5321203 310.604347 50.0114833 310.604347 32.3341861 310.604347 14.656889 296.106538.136252 278.457031.136252L278.457031.136252zM278.457031 52.5368115C267.741259 52.5368115 258.916506 43.6981629 258.916506 32.9655182 258.916506 22.2328735 267.741259 13.3942249 278.457031 13.3942249 289.172803 13.3942249 297.997556 22.2328735 297.997556 32.9655182 297.997556 43.6981629 289.172803 52.5368115 278.457031 52.5368115L278.457031 52.5368115z"/>
      </g>
    </g>
  </g>
</svg>
