<svg xmlns="http://www.w3.org/2000/svg" width="147" height="194" viewBox="0 0 147 194">
  <g fill="none" fill-rule="evenodd" transform="translate(2)">
    <g transform="translate(0 99)">
      <path fill="#B97990" d="M56.943,8.773 C45.384,10.48 33.006,15.627 21.31,24.211 C20.232,22.13 19.159,20.076 18.095,18.05 C29.653,8.831 42.031,3.051 53.728,0.709 C54.806,3.369 55.878,6.059 56.943,8.773 L56.943,8.773 Z"/>
      <polygon fill="#B97990" stroke="#B97990" stroke-width="2.238" points=".276 19.637 .065 23.214 13.803 24.019 7.526 36.26 10.714 37.895 17.326 24.994 14.747 20.487"/>
      <circle cx="18.027" cy="21.611" r="5.022" fill="#BB97A1"/>
    </g>
    <g transform="translate(44 159)">
      <rect width="7.463" height="20.441" x="20.044" y=".517" fill="#5C4B36"/>
      <path fill="#978353" d="M31.291,20.703 C31.291,24.998 27.811,28.474 23.519,28.474 C19.223,28.474 15.742,24.998 15.742,20.703 C15.742,16.411 19.223,12.932 23.519,12.932 C27.811,12.932 31.291,16.411 31.291,20.703 L31.291,20.703 Z"/>
      <path fill="#5C4B36" d="M38.678,30.808 C38.695,30.643 38.735,30.479 38.735,30.308 C38.735,24.468 35.123,19.735 22.716,19.735 C10.303,19.735 0.247,24.468 0.247,30.308 C0.247,30.479 0.285,30.643 0.3,30.808 L38.678,30.808 L38.678,30.808 Z"/>
      <rect width="38.378" height="3.377" x=".3" y="30.808" fill="#978353"/>
    </g>
    <g transform="translate(90 157)">
      <polygon fill="#322B29" points="11.495 .886 19.915 13.344 11.513 31.288 4.939 30.635 10.973 14.838 5.376 3.275"/>
      <path fill="#817D7C" d="M31.06,32.808 C31.073,32.643 31.101,32.479 31.101,32.308 C31.101,29.994 31.189,25.145 28.038,23.403 C23.241,20.754 12.874,21.735 12.874,21.735 L7.363,27.807 C7.363,27.807 3.05,26.839 2.408,27.719 C1.399,29.108 0.836,30.665 0.836,32.308 C0.836,32.479 0.857,32.643 0.869,32.808 L31.06,32.808 L31.06,32.808 Z"/>
      <rect width="30.042" height="3.377" x="1.018" y="32.808" fill="#322B29"/>
      <polygon fill="#817D7C" points="18.819 10.349 21.877 13.407 19.537 15.75 9.766 16.052 9.653 14.763"/>
    </g>
    <g transform="translate(117 102)">
      <path fill="#849AA5" d="M25.901 30.092C25.901 32.412 24.024 34.285 21.71 34.285 19.395 34.285 17.52 32.412 17.52 30.092 17.52 27.779 19.395 25.904 21.71 25.904 24.024 25.903 25.901 27.778 25.901 30.092L25.901 30.092zM19.579 52.389C19.579 54.264 18.061 55.787 16.18 55.787 14.309 55.787 12.789 54.264 12.789 52.389 12.789 50.513 14.309 48.992 16.18 48.992 18.062 48.991 19.579 50.513 19.579 52.389L19.579 52.389zM19.964 11.899C19.964 17.145 15.712 21.4 10.469 21.4 5.224 21.4.974 17.145.974 11.899.974 6.645 5.224 2.395 10.469 2.395 15.712 2.396 19.964 6.646 19.964 11.899L19.964 11.899z"/>
      <polygon fill="#3F4B57" points="27.874 28.276 15.416 28.348 15.21 .469 27.665 3.621"/>
      <polygon fill="#3F4B57" points="15.847 30.43 27.802 33.928 21.138 53.029 12.146 49.744"/>
      <g transform="translate(4 51)">
        <polygon fill="#849AA5" points="5.53 1.654 1.817 2.657 .674 6.755 3.146 9.552"/>
        <polygon fill="#3F4B57" points="13.474 13.771 4.882 12.612 1.181 9.979 4.248 2 7.188 .227 16.264 4.511"/>
      </g>
    </g>
    <polygon fill="#978353" points="109.055 162.582 89.528 162.582 87.917 148.781 110.662 148.781"/>
    <g transform="translate(48 87)">
      <polygon fill="#978353" points="30.846 75.582 11.311 75.582 9.699 61.781 32.455 61.781"/>
      <path fill="#5C4B36" d="M66.62,66.755 C66.529,67.804 65.595,68.586 64.545,68.494 L2.321,63.009 C1.272,62.915 0.489,61.982 0.581,60.933 L5.786,1.882 C5.878,0.833 6.811,0.049 7.861,0.143 L70.084,5.628 C71.134,5.72 71.918,6.653 71.824,7.704 L66.62,66.755 L66.62,66.755 Z"/>
      <path fill="#64522C" d="M75.898,55.818 C75.806,56.869 74.873,57.651 73.823,57.557 L29.116,53.615 C28.067,53.521 27.285,52.588 27.376,51.539 L31.041,10.002 C31.134,8.951 32.068,8.169 33.117,8.262 L77.821,12.203 C78.871,12.296 79.654,13.229 79.561,14.278 L75.898,55.818 L75.898,55.818 Z"/>
    </g>
    <g fill="#CF9D25" transform="translate(88 75)">
      <rect width="19.837" height="2.38" x="3.859" y="5.641"/>
      <rect width="19.835" height="2.381" x="3.859" y="11.314" transform="rotate(6.603 13.777 12.505)"/>
      <rect width="19.837" height="2.376" x=".422" y=".94" transform="rotate(-3.916 10.34 2.128)"/>
    </g>
    <g transform="translate(45)">
      <rect width="9.818" height="7.444" x="76.862" y="52.876" fill="#322B29" transform="rotate(-2.883 81.77 56.598)"/>
      <rect width="9.821" height="7.442" x="7.608" y="56.343" fill="#322B29" transform="rotate(-2.883 12.519 60.064)"/>
      <g fill="#322B29" transform="translate(56)">
        <rect width="2.346" height="25.786" x="6.956" y=".12"/>
        <rect width="15.28" height="1.813" x=".491" y="4.442"/>
        <rect width="12.164" height="1.808" x="2.048" y="7.956"/>
        <rect width="9.681" height="1.808" x="3.293" y="11.468"/>
      </g>
      <g fill="#BDB69A" transform="translate(0 16)">
        <polygon points="23.371 13.486 22.295 15.575 .171 4.085 2.178 3.344"/>
        <rect width="12.171" height="1.811" x="1.571" y="5.821" transform="rotate(-62.741 7.657 6.726)"/>
        <polygon points="13.825 4.438 9.383 13.053 7.777 12.221 12.215 3.612"/>
      </g>
      <path fill="#959494" d="M81.131,69.279 C81.233,70.326 80.456,71.265 79.407,71.367 L17.23,77.322 C16.181,77.423 15.24,76.646 15.141,75.597 L11.52,37.858 C11.422,36.809 11.975,35.369 12.751,34.66 L21.057,27.064 C21.833,26.355 23.327,25.692 24.376,25.59 L74.565,20.783 C75.613,20.681 76.553,21.458 76.655,22.507 L81.131,69.279 L81.131,69.279 Z"/>
      <path fill="#960B18" d="M67.846,43.094 C67.846,48.828 63.199,53.481 57.464,53.481 C51.735,53.481 47.08,48.829 47.08,43.094 C47.08,37.358 51.734,32.708 57.464,32.708 C63.198,32.708 67.846,37.357 67.846,43.094 L67.846,43.094 Z"/>
      <path fill="#4E0000" d="M62.108,43.094 C62.108,45.658 60.03,47.742 57.463,47.742 C54.901,47.742 52.817,45.658 52.817,43.094 C52.817,40.528 54.901,38.447 57.463,38.447 C60.03,38.446 62.108,40.527 62.108,43.094 L62.108,43.094 Z"/>
      <path fill="#7DB6D1" d="M37.178,44.327 C37.178,47.855 34.314,50.716 30.785,50.716 C27.253,50.716 24.394,47.856 24.394,44.327 C24.394,40.796 27.253,37.937 30.785,37.937 C34.314,37.938 37.178,40.796 37.178,44.327 L37.178,44.327 Z"/>
      <circle cx="30.785" cy="44.327" r="5.17" fill="#4A6EA3"/>
      <path fill="#ACC6D4" d="M58.078,63.285 C50.39,68.725 41.328,70.351 33.569,68.165 C33.359,66.874 33.15,65.579 32.941,64.282 C40.628,66.674 49.689,65.255 57.448,60.021 C57.659,61.113 57.868,62.2 58.078,63.285 L58.078,63.285 Z"/>
      <polygon fill="#3F4B57" points="43.213 49.373 39.025 53.558 42.653 55.225 38.456 59.421 47.41 58.023"/>
      <g fill="#5C5857" transform="translate(15 39)">
        <path d="M4.705 2.074C4.848 3.325 3.952 4.451 2.703 4.595 1.455 4.736.327 3.84.186 2.593.043 1.345.936.221 2.186.078 3.435-.067 4.563.826 4.705 2.074L4.705 2.074zM5.506 9.102C5.649 10.351 4.756 11.478 3.506 11.619 2.257 11.762 1.131 10.866.988 9.621.845 8.369 1.741 7.243 2.988 7.102 4.238 6.96 5.364 7.853 5.506 9.102L5.506 9.102z"/>
        <circle cx="4.048" cy="16.386" r="2.275"/>
        <path d="M7.112 23.152C7.254 24.402 6.358 25.53 5.108 25.669 3.863 25.815 2.731 24.914 2.59 23.669 2.449 22.422 3.345 21.297 4.594 21.152 5.842 21.012 6.971 21.905 7.112 23.152L7.112 23.152zM7.914 30.18C8.058 31.438 7.159 32.572 5.91 32.709 4.665 32.855 3.538 31.956 3.396 30.696 3.253 29.449 4.15 28.323 5.396 28.177 6.644 28.037 7.772 28.931 7.914 30.18L7.914 30.18z"/>
      </g>
    </g>
    <g transform="translate(91 103)">
      <polygon fill="#BDA468" points="27.041 33.518 .914 31.216 3.583 .856 29.708 3.159"/>
      <path fill="#AD182B" d="M10.607,7.428 C10.476,8.915 9.166,10.01 7.678,9.881 C6.191,9.749 5.092,8.443 5.224,6.953 C5.355,5.465 6.667,4.37 8.153,4.502 C9.639,4.629 10.739,5.939 10.607,7.428 L10.607,7.428 Z"/>
      <path fill="#AAC9E9" d="M18.028,8.081 C17.895,9.57 16.586,10.667 15.1,10.534 C13.619,10.403 12.516,9.092 12.65,7.608 C12.779,6.118 14.088,5.02 15.574,5.151 C17.06,5.282 18.157,6.593 18.028,8.081 L18.028,8.081 Z"/>
      <path fill="#38834B" d="M25.445,8.734 C25.314,10.217 24.008,11.318 22.521,11.187 C21.035,11.056 19.938,9.747 20.07,8.261 C20.199,6.774 21.507,5.675 22.992,5.804 C24.48,5.938 25.577,7.247 25.445,8.734 L25.445,8.734 Z"/>
      <path fill="#AFD136" d="M23.521 25.457C23.423 26.081 22.837 26.502 22.221 26.404 21.596 26.307 21.17 25.723 21.27 25.099 21.37 24.479 21.952 24.054 22.577 24.154 23.191 24.249 23.618 24.831 23.521 25.457L23.521 25.457zM20.26 25.234C20.16 25.854 19.58 26.277 18.961 26.179 18.338 26.08 17.914 25.498 18.013 24.872 18.11 24.255 18.691 23.827 19.314 23.931 19.933 24.025 20.355 24.611 20.26 25.234L20.26 25.234zM17 25.008C16.901 25.63 16.318 26.053 15.699 25.956 15.079 25.854 14.654 25.274 14.75 24.654 14.851 24.029 15.433 23.605 16.055 23.701 16.678 23.803 17.101 24.385 17 25.008L17 25.008zM13.742 24.782C13.645 25.405 13.057 25.828 12.439 25.727 11.817 25.631 11.394 25.051 11.49 24.43 11.587 23.804 12.171 23.379 12.795 23.478 13.413 23.576 13.838 24.164 13.742 24.782L13.742 24.782z"/>
      <g transform="translate(10 11)">
        <rect width="12.828" height=".847" x="2.402" y="1.384" fill="#64522C" transform="rotate(5.025 8.816 1.884)"/>
        <rect width="12.827" height=".853" x="2.212" y="3.599" fill="#64522C" transform="rotate(5.025 8.625 4.099)"/>
        <rect width="12.827" height=".849" x="1.985" y="5.836" fill="#64522C" transform="rotate(5.02 8.398 6.336)"/>
        <rect width="12.827" height=".855" x="1.791" y="8.053" fill="#64522C" transform="rotate(5.02 8.205 8.553)"/>
        <rect width="12.828" height=".849" x="1.576" y="10.255" fill="#64522C" transform="rotate(5.054 7.99 10.755)"/>
        <rect width="12.828" height=".848" x=".812" y="17.078" fill="#AD182B" transform="rotate(5.025 7.226 17.578)"/>
      </g>
      <g fill="#FFF229" transform="translate(5 11)">
        <rect width="2.813" height="2.816" x="1.742" y=".918" transform="rotate(5.02 3.149 2.326)"/>
        <rect width="2.816" height="2.816" x="1.279" y="5.864" transform="rotate(5.054 2.687 7.272)"/>
        <rect width="2.814" height="2.817" x=".869" y="10.802" transform="rotate(5.054 2.276 12.21)"/>
        <polygon points="3.106 18.714 .301 18.464 .547 15.663 3.353 15.905"/>
      </g>
    </g>
  </g>
</svg>
