<svg width="147" height="194" viewBox="0 0 147 194" xmlns="http://www.w3.org/2000/svg"><title>Janky Robot</title><g fill="none" fill-rule="evenodd"><g transform="translate(2 99)"><path d="M56.943 8.773C45.384 10.48 33.006 15.627 21.31 24.211a1235.142 1235.142 0 0 0-3.215-6.161C29.653 8.831 42.031 3.051 53.728.709a783.23 783.23 0 0 1 3.215 8.064z" fill="#B97990"/><path stroke="#B97990" stroke-width="2.238" fill="#B97990" d="M.276 19.637l-.211 3.577 13.738.805L7.526 36.26l3.188 1.635 6.612-12.901-2.579-4.507z"/><circle fill="#BB97A1" cx="18.027" cy="21.611" r="5.022"/></g><path fill="#5C4B36" d="M66.044 159.517h7.463v20.441h-7.463z"/><path d="M77.291 179.703a7.77 7.77 0 0 1-7.772 7.771 7.771 7.771 0 1 1 0-15.542 7.772 7.772 0 0 1 7.772 7.771z" fill="#978353"/><path d="M84.678 189.808c.017-.165.057-.329.057-.5 0-5.84-3.612-10.573-16.019-10.573-12.413 0-22.469 4.733-22.469 10.573 0 .171.038.335.053.5h38.378z" fill="#5C4B36"/><path fill="#978353" d="M46.3 189.808h38.378v3.377H46.3z"/><path fill="#322B29" d="M103.495 157.886l8.42 12.458-8.402 17.944-6.574-.653 6.034-15.797-5.597-11.563z"/><path d="M123.06 189.808c.013-.165.041-.329.041-.5 0-2.314.088-7.163-3.063-8.905-4.797-2.649-15.164-1.668-15.164-1.668l-5.511 6.072s-4.313-.968-4.955-.088c-1.009 1.389-1.572 2.946-1.572 4.589 0 .171.021.335.033.5h30.191z" fill="#817D7C"/><path fill="#322B29" d="M93.018 189.808h30.042v3.377H93.018z"/><path fill="#817D7C" d="M110.819 167.349l3.058 3.058-2.34 2.343-9.771.302-.113-1.289z"/><path d="M144.901 132.092a4.19 4.19 0 0 1-4.191 4.193 4.188 4.188 0 0 1-4.19-4.193 4.188 4.188 0 0 1 4.19-4.188 4.189 4.189 0 0 1 4.191 4.188zM138.579 154.389a3.397 3.397 0 0 1-3.399 3.398 3.397 3.397 0 0 1-3.391-3.398 3.395 3.395 0 1 1 6.79 0zM138.964 113.899c0 5.246-4.252 9.501-9.495 9.501-5.245 0-9.495-4.255-9.495-9.501 0-5.254 4.25-9.504 9.495-9.504 5.243.001 9.495 4.251 9.495 9.504z" fill="#849AA5"/><path fill="#3F4B57" d="M146.874 130.276l-12.458.072-.206-27.879 12.455 3.152zM134.847 132.43l11.955 3.498-6.664 19.101-8.992-3.285z"/><path fill="#849AA5" d="M128.53 154.654l-3.713 1.003-1.143 4.098 2.472 2.797z"/><path fill="#3F4B57" d="M136.474 166.771l-8.592-1.159-3.701-2.633 3.067-7.979 2.94-1.773 9.076 4.284z"/><path fill="#978353" d="M111.055 162.582H91.528l-1.611-13.801h22.745z"/><g><path fill="#978353" d="M80.846 162.582H61.311l-1.612-13.801h22.756z"/><path d="M116.62 153.755a1.919 1.919 0 0 1-2.075 1.739l-62.224-5.485a1.923 1.923 0 0 1-1.74-2.076l5.205-59.051a1.918 1.918 0 0 1 2.075-1.739l62.223 5.485a1.918 1.918 0 0 1 1.74 2.076l-5.204 59.051z" fill="#5C4B36"/><path d="M125.898 142.818a1.916 1.916 0 0 1-2.075 1.739l-44.707-3.942a1.923 1.923 0 0 1-1.74-2.076l3.665-41.537a1.92 1.92 0 0 1 2.076-1.74l44.704 3.941a1.92 1.92 0 0 1 1.74 2.075l-3.663 41.54z" fill="#64522C"/></g><g fill="#CF9D25"><path d="M93.859 80.641h19.837v2.38H93.859zM94.062 85.181l19.703 2.281-.274 2.366-19.703-2.281zM90.364 76.62l19.79-1.355.163 2.37-19.79 1.356z"/></g><g fill="#C0D72F"><path d="M82.709 93.23l12.59 1.399-8.114 8.109zM90.718 108.72l-9.589-1.531.512-2.415 9.338 1.486zM90.149 114.039l-10.137-1.617.573-2.692 9.855 1.574zM89.513 120.014l-10.752-1.717.644-3.023 10.435 1.666zM88.794 126.763l-11.454-1.825.732-3.425 11.094 1.77zM87.979 134.448l-12.249-1.949.833-3.905 11.84 1.882zM87.038 143.283l-13.165-2.099.962-4.501 12.687 2.021z"/></g><g><path fill="#322B29" d="M123.681 53.128l9.806-.494.374 7.434-9.806.494zM54.427 56.595l9.809-.494.374 7.432-9.809.494z"/><g transform="translate(47)"><g fill="#322B29"><path d="M62.956.12h2.346v25.786h-2.346z"/><path d="M56.491 4.442h15.28v1.813h-15.28zM58.048 7.956h12.164v1.808H58.048zM59.293 11.468h9.681v1.808h-9.681z"/></g><g fill="#BDB69A"><path d="M23.371 29.486l-1.076 2.089L.171 20.085l2.007-.741z"/><path d="M4.065 27.721l5.574-10.82 1.61.83-5.574 10.82zM13.825 20.438l-4.442 8.615-1.606-.832 4.438-8.609z"/></g><path d="M81.131 69.279a1.92 1.92 0 0 1-1.724 2.088L17.23 77.322a1.92 1.92 0 0 1-2.089-1.725L11.52 37.858c-.098-1.049.455-2.489 1.231-3.198l8.306-7.596c.776-.709 2.27-1.372 3.319-1.474l50.189-4.807a1.922 1.922 0 0 1 2.09 1.724l4.476 46.772z" fill="#959494"/><path d="M67.846 43.094c0 5.734-4.647 10.387-10.382 10.387-5.729 0-10.384-4.652-10.384-10.387 0-5.736 4.654-10.386 10.384-10.386 5.734 0 10.382 4.649 10.382 10.386z" fill="#960B18"/><path d="M62.108 43.094a4.647 4.647 0 0 1-4.645 4.648 4.651 4.651 0 0 1-4.646-4.648 4.65 4.65 0 0 1 4.646-4.647 4.644 4.644 0 0 1 4.645 4.647z" fill="#4E0000"/><path d="M37.178 44.327a6.392 6.392 0 0 1-12.784 0 6.388 6.388 0 0 1 6.391-6.39 6.392 6.392 0 0 1 6.393 6.39z" fill="#7DB6D1"/><circle fill="#4A6EA3" cx="30.785" cy="44.327" r="5.17"/></g><path d="M105.078 63.285c-7.688 5.44-16.75 7.066-24.509 4.88-.21-1.291-.419-2.586-.628-3.883 7.687 2.392 16.748.973 24.507-4.261l.63 3.264z" fill="#ACC6D4"/><path fill="#3F4B57" d="M90.213 49.373l-4.188 4.185 3.628 1.667-4.197 4.196 8.954-1.398z"/><g transform="translate(62 39)" fill="#5C5857"><path d="M4.705 2.074a2.275 2.275 0 0 1-4.519.519 2.27 2.27 0 0 1 2-2.515 2.269 2.269 0 0 1 2.519 1.996zM5.506 9.102a2.273 2.273 0 1 1-2.518-2 2.272 2.272 0 0 1 2.518 2z"/><circle cx="4.048" cy="16.386" r="2.275"/><path d="M7.112 23.152a2.271 2.271 0 0 1-2.004 2.517 2.274 2.274 0 0 1-2.518-2 2.275 2.275 0 1 1 4.522-.517zM7.914 30.18a2.276 2.276 0 0 1-2.004 2.529 2.27 2.27 0 0 1-2.514-2.013 2.278 2.278 0 0 1 2-2.519 2.276 2.276 0 0 1 2.518 2.003z"/></g></g><g><path fill="#BDA468" d="M120.041 136.518l-26.127-2.302 2.669-30.36 26.125 2.303z"/><path d="M103.607 110.428a2.701 2.701 0 0 1-2.929 2.453 2.699 2.699 0 0 1-2.454-2.928 2.698 2.698 0 0 1 2.929-2.451 2.695 2.695 0 0 1 2.454 2.926z" fill="#AD182B"/><path d="M111.028 111.081a2.7 2.7 0 1 1-5.378-.473 2.696 2.696 0 0 1 2.924-2.457 2.704 2.704 0 0 1 2.454 2.93z" fill="#AAC9E9"/><path d="M118.445 111.734a2.699 2.699 0 1 1-5.375-.473 2.699 2.699 0 1 1 5.375.473z" fill="#38834B"/><path d="M116.521 128.457a1.137 1.137 0 0 1-1.3.947 1.14 1.14 0 1 1 1.3-.947zM113.26 128.234a1.137 1.137 0 1 1-2.247-.362 1.13 1.13 0 0 1 1.301-.941 1.14 1.14 0 0 1 .946 1.303zM110 128.008a1.14 1.14 0 0 1-1.301.948 1.145 1.145 0 0 1-.949-1.302 1.145 1.145 0 0 1 1.305-.953 1.14 1.14 0 0 1 .945 1.307zM106.742 127.782a1.135 1.135 0 0 1-1.303.945 1.138 1.138 0 1 1 1.303-.945z" fill="#AFD136"/><path fill="#64522C" d="M105.47 114.824l12.78 1.124-.075.844-12.779-1.124zM105.28 117.04l12.778 1.123-.075.85-12.777-1.124zM105.053 119.277l12.778 1.122-.074.846-12.778-1.122zM104.86 121.494l12.777 1.122-.075.852-12.777-1.123zM104.645 123.692l12.778 1.13-.075.846-12.778-1.13z"/><path fill="#AD182B" d="M103.88 130.518l12.78 1.124-.075.845-12.779-1.124z"/><g fill="#FFF229"><path d="M99.87 114.8l2.803.246-.247 2.806-2.802-.246zM99.409 119.745l2.805.249-.249 2.805-2.805-.248zM98.999 124.684l2.803.247-.249 2.807-2.803-.248zM101.106 132.714l-2.805-.25.246-2.801 2.806.242z"/></g></g></g></svg>