<svg xmlns="http://www.w3.org/2000/svg" width="856" height="471" viewBox="0 0 856 471" xmlns:xlink="http://www.w3.org/1999/xlink">
  <defs>
    <rect id="a" width="287.208" height="108.126" x="51.749" y="304.955"/>
    <mask id="b" width="287.208" height="108.126" x="0" y="0" fill="white">
      <use xlink:href="#a"/>
    </mask>
  </defs>
  <g fill="none" fill-rule="evenodd">
    <g transform="translate(638 179)">
      <g transform="translate(0 150.01)">
        <path fill="#B97990" d="M85.6108552,12.2047216 C68.2324966,14.7740206 49.6228138,22.5210515 32.0384828,35.441299 C30.4177655,32.3090722 28.8045655,29.2174845 27.2048966,26.1680412 C44.5817517,12.2920206 63.1914345,3.5922268 80.777269,0.0671546392 C82.3979862,4.07086598 84.0096828,8.11973196 85.6108552,12.2047216 L85.6108552,12.2047216 Z"/>
        <polygon fill="#B97990" stroke="#B97990" stroke-width="2.238" points=".415 28.557 .098 33.941 20.752 35.152 11.315 53.577 16.108 56.038 26.049 36.62 22.171 29.836"/>
        <ellipse cx="27.103" cy="31.528" fill="#BB97A1" rx="7.55" ry="7.559"/>
      </g>
      <g transform="translate(66.152 239.32)">
        <rect width="11.22" height="30.767" x="30.135" y=".778" fill="#5C4B36"/>
        <path fill="#978353" d="M47.0444,31.1612165 C47.0444,37.6258557 41.8124,42.8577732 35.3596,42.8577732 C28.9007862,42.8577732 23.6672828,37.6258557 23.6672828,31.1612165 C23.6672828,24.7010928 28.9007862,19.4646598 35.3596,19.4646598 C41.8124,19.4646598 47.0444,24.7010928 47.0444,31.1612165 L47.0444,31.1612165 Z"/>
        <path fill="#5C4B36" d="M58.1503724,46.3708041 C58.175931,46.1224536 58.236069,45.8756082 58.236069,45.6182268 C58.236069,36.8281237 52.8056138,29.7042268 34.152331,29.7042268 C15.4900276,29.7042268 0.371351724,36.8281237 0.371351724,45.6182268 C0.371351724,45.8756082 0.428482759,46.1224536 0.451034483,46.3708041 L58.1503724,46.3708041 L58.1503724,46.3708041 Z"/>
        <rect width="57.699" height="5.083" x=".451" y="46.371" fill="#978353"/>
      </g>
      <g transform="translate(136.31 237.31)">
        <polygon fill="#322B29" points="16.282 .334 28.941 19.085 16.309 46.093 6.426 45.11 15.497 21.333 7.083 3.929"/>
        <path fill="#817D7C" d="M45.6971034,48.3811134 C45.7166483,48.1327629 45.7587448,47.8859175 45.7587448,47.6285361 C45.7587448,44.1456082 45.8910483,36.8471134 41.1536828,34.225134 C33.9416414,30.2379794 18.3553931,31.7145361 18.3553931,31.7145361 L10.0698897,40.8538351 C10.0698897,40.8538351 3.58551724,39.3968454 2.62030345,40.7213814 C1.10332414,42.8120412 0.256882759,45.155567 0.256882759,47.6285361 C0.256882759,47.8859175 0.288455172,48.1327629 0.306496552,48.3811134 L45.6971034,48.3811134 L45.6971034,48.3811134 Z"/>
        <rect width="45.167" height="5.083" x=".531" y="48.381" fill="#322B29"/>
        <polygon fill="#817D7C" points="27.293 14.577 31.891 19.18 28.373 22.706 13.683 23.161 13.513 21.221"/>
      </g>
      <g transform="translate(176.903 153.526)">
        <path fill="#849AA5" d="M37.9408138 45.2931134C37.9408138 48.7850722 35.1188414 51.6042268 31.6398621 51.6042268 28.1593793 51.6042268 25.3404138 48.7850722 25.3404138 45.2931134 25.3404138 41.8116907 28.1593793 38.9895258 31.6398621 38.9895258 35.1188414 38.9880206 37.9408138 41.8101856 37.9408138 45.2931134L37.9408138 45.2931134zM28.4360138 78.8535464C28.4360138 81.6757113 26.1537793 83.9680619 23.3257931 83.9680619 20.5128414 83.9680619 18.2276 81.6757113 18.2276 78.8535464 18.2276 76.0298763 20.5128414 73.7405361 23.3257931 73.7405361 26.1552828 73.7390309 28.4360138 76.0298763 28.4360138 78.8535464L28.4360138 78.8535464zM29.0148414 17.9098351C29.0148414 25.8058763 22.6221793 32.2103093 14.7396 32.2103093 6.85401379 32.2103093.464358621 25.8058763.464358621 17.9098351.464358621 10.0017526 6.85401379 3.60484536 14.7396 3.60484536 22.6221793 3.60635052 29.0148414 10.0032577 29.0148414 17.9098351L29.0148414 17.9098351z"/>
        <polygon fill="#3F4B57" points="40.907 42.56 22.177 42.668 21.867 .706 40.593 5.45"/>
        <polygon fill="#3F4B57" points="22.825 45.802 40.799 51.067 30.78 79.817 17.261 74.872"/>
        <g transform="translate(6.014 76.763)">
          <polygon fill="#849AA5" points="7.314 2.49 1.732 3.999 .013 10.167 3.73 14.377"/>
          <polygon fill="#3F4B57" points="19.257 20.727 6.34 18.983 .776 15.02 5.387 3.01 9.807 .342 23.452 6.79"/>
        </g>
      </g>
      <polygon fill="#978353" points="163.959 244.711 134.601 244.711 132.179 223.938 166.375 223.938"/>
      <g transform="translate(72.166 130.948)">
        <polygon fill="#978353" points="46.375 113.763 17.006 113.763 14.582 92.99 48.794 92.99"/>
        <path fill="#5C4B36" d="M100.159724,100.476598 C100.02291,102.055505 98.6186897,103.232536 97.040069,103.094062 L3.48950345,94.8382887 C1.91238621,94.6968041 0.735186207,93.2924948 0.873503448,91.7135876 L8.69895172,2.83270103 C8.83726897,1.25379381 10.2399862,0.0737525773 11.8186069,0.215237113 L105.367669,8.47101031 C106.94629,8.60948454 108.124993,10.0137938 107.983669,11.5957113 L100.159724,100.476598 L100.159724,100.476598 Z"/>
        <path fill="#64522C" d="M114.108717,84.0147216 C113.9704,85.5966392 112.567683,86.7736701 110.989062,86.6321856 L43.7744,80.698866 C42.1972828,80.5573814 41.0215862,79.1530722 41.1584,77.5741649 L46.6685379,15.0545567 C46.8083586,13.4726392 48.2125793,12.2956082 49.7896966,12.4355876 L116.999848,18.3674021 C118.578469,18.5073814 119.755669,19.9116907 119.615848,21.4905979 L114.108717,84.0147216 L114.108717,84.0147216 Z"/>
      </g>
      <g fill="#CF9D25" transform="translate(132.303 112.887)">
        <rect width="29.824" height="3.582" x="5.802" y="8.491"/>
        <rect width="29.82" height="3.584" x="5.802" y="17.029" transform="rotate(6.603 20.713 18.821)"/>
        <rect width="29.823" height="3.576" x=".634" y="1.414" transform="rotate(-3.916 15.546 3.202)"/>
      </g>
      <g fill="#C0D72F" transform="translate(107.745 139.98)">
        <polygon points="13.597 .346 32.525 2.452 20.326 14.657"/>
        <g transform="translate(0 17.557)">
          <polygon points="25.638 6.104 11.222 3.8 11.991 .165 26.03 2.402"/>
          <polygon points="24.783 14.11 9.542 11.676 10.404 7.625 25.22 9.994"/>
          <polygon points="23.826 23.104 7.661 20.519 8.63 15.969 24.318 18.477"/>
          <polygon points="22.745 33.262 5.525 30.515 6.625 25.36 23.305 28.024"/>
          <polygon points="21.52 44.829 3.104 41.895 4.357 36.018 22.158 38.85"/>
          <polygon points="20.105 58.127 .313 54.968 1.759 48.193 20.833 51.235"/>
        </g>
      </g>
      <g transform="translate(67.655)">
        <rect width="14.76" height="11.204" x="115.558" y="79.587" fill="#322B29" transform="rotate(-2.883 122.938 85.188)"/>
        <rect width="14.765" height="11.201" x="11.439" y="84.805" fill="#322B29" transform="rotate(-2.883 18.821 90.406)"/>
        <g fill="#322B29" transform="translate(84.193)">
          <rect width="3.527" height="38.812" x="10.458" y=".181"/>
          <rect width="22.973" height="2.729" x=".738" y="6.686"/>
          <rect width="18.288" height="2.721" x="3.079" y="11.975"/>
          <rect width="14.555" height="2.721" x="4.951" y="17.261"/>
        </g>
        <g fill="#BDB69A" transform="translate(0 25.082)">
          <polygon points="35.137 19.299 33.519 22.443 .257 5.149 3.275 4.033"/>
          <rect width="18.299" height="2.726" x="2.362" y="7.761" transform="rotate(-62.741 11.511 9.124)"/>
          <polygon points="20.785 5.68 14.107 18.647 11.692 17.394 18.365 4.437"/>
        </g>
        <path fill="#959494" d="M121.976262,104.275608 C122.129614,105.851505 120.961434,107.264845 119.384317,107.418371 L25.9044138,116.381567 C24.3272966,116.533588 22.9125517,115.364082 22.7637103,113.785175 L17.3197241,56.9821443 C17.1723862,55.4032371 18.0037931,53.2358144 19.170469,52.1686598 L31.6581103,40.7355052 C32.8247862,39.6683505 35.0709379,38.670433 36.6480552,38.5169072 L112.104621,31.2816289 C113.680234,31.1281031 115.093476,32.2976082 115.246828,33.8765155 L121.976262,104.275608 L121.976262,104.275608 Z"/>
        <path fill="#960B18" d="M102.002952,64.863134 C102.002952,73.4936907 95.0164276,80.4971753 86.3941517,80.4971753 C77.7808966,80.4971753 70.7823448,73.4951959 70.7823448,64.863134 C70.7823448,56.229567 77.7793931,49.2305979 86.3941517,49.2305979 C95.0149241,49.2305979 102.002952,56.2280619 102.002952,64.863134 L102.002952,64.863134 Z"/>
        <path fill="#4E0000" d="M93.3761655,64.863134 C93.3761655,68.7223505 90.252,71.8590928 86.3926483,71.8590928 C82.5408138,71.8590928 79.4076276,68.7223505 79.4076276,64.863134 C79.4076276,61.0009072 82.5408138,57.8686804 86.3926483,57.8686804 C90.252,57.8671753 93.3761655,60.9994021 93.3761655,64.863134 L93.3761655,64.863134 Z"/>
        <path fill="#7DB6D1" d="M55.8952,66.7189897 C55.8952,72.0291753 51.5893241,76.3354227 46.2836552,76.3354227 C40.9734759,76.3354227 36.6751172,72.0306804 36.6751172,66.7189897 C36.6751172,61.4042887 40.9734759,57.1010515 46.2836552,57.1010515 C51.5893241,57.1025567 55.8952,61.4042887 55.8952,66.7189897 L55.8952,66.7189897 Z"/>
        <ellipse cx="46.284" cy="66.719" fill="#4A6EA3" rx="7.773" ry="7.782"/>
        <path fill="#ACC6D4" d="M87.317269,95.2537113 C75.7587586,103.441753 62.1345103,105.889134 50.4692552,102.598866 C50.153531,100.655711 49.8393103,98.7065361 49.5250897,96.7543505 C61.0820966,100.35468 74.7048414,98.218866 86.3700966,90.3408866 C86.6873241,91.9845155 87.0015448,93.6206186 87.317269,95.2537113 L87.317269,95.2537113 Z"/>
        <polygon fill="#3F4B57" points="64.969 74.314 58.672 80.613 64.127 83.122 57.817 89.438 71.278 87.334"/>
        <g fill="#5C5857" transform="translate(22.552 58.701)">
          <path d="M7.07372414 3.12169072C7.28871724 5.00463918 5.94162759 6.6994433 4.06382069 6.91618557 2.18751724 7.12841237.491627586 5.77979381.279641379 3.90286598.0646482759 2.02443299 1.40722759.332639175 3.28653793.117402062 5.16434483-.100845361 6.86023448 1.24325773 7.07372414 3.12169072L7.07372414 3.12169072zM8.27798621 13.6999175C8.49297931 15.5798557 7.1504 17.2761649 5.27108966 17.4883918 3.39328276 17.7036289 1.7004 16.3550103 1.4854069 14.4810928 1.27041379 12.5966392 2.61750345 10.9018351 4.49230345 10.6896082 6.37161379 10.4758763 8.06449655 11.8199794 8.27798621 13.6999175L8.27798621 13.6999175z"/>
          <ellipse cx="6.086" cy="24.663" rx="3.42" ry="3.424"/>
          <path d="M10.6925241 34.8473402C10.9060138 36.7287835 9.55892414 38.4265979 7.67961379 38.6358144 5.80782069 38.855567 4.10591724 37.4994227 3.89393103 35.6255052 3.68194483 33.7485773 5.02903448 32.0552784 6.90684138 31.8370309 8.78314483 31.6263093 10.4805379 32.9704124 10.6925241 34.8473402L10.6925241 34.8473402zM11.8982897 45.425567C12.1147862 47.3190515 10.7631862 49.0258969 8.88537931 49.2321031 7.01358621 49.4518557 5.3192 48.0987216 5.10571034 46.2022268 4.89071724 44.325299 6.23931034 42.6304948 8.1126069 42.4107423 9.98891034 42.2000206 11.6848 43.5456289 11.8982897 45.425567L11.8982897 45.425567z"/>
        </g>
      </g>
      <g transform="translate(137.814 156.03)">
        <polygon fill="#BDA468" points="39.655 49.45 .374 45.985 4.387 .288 43.664 3.755"/>
        <path fill="#AD182B" d="M14.9470759,10.1802887 C14.7501241,12.4184536 12.7806069,14.0665979 10.5434759,13.872433 C8.30784828,13.6737526 6.65555862,11.7080206 6.85401379,9.46534021 C7.05096552,7.2256701 9.02348966,5.57752577 11.2576138,5.77620619 C13.4917379,5.96736082 15.145531,7.9391134 14.9470759,10.1802887 L14.9470759,10.1802887 Z"/>
        <path fill="#AAC9E9" d="M26.1041655,11.1631546 C25.9042069,13.4043299 23.9361931,15.0554845 21.702069,14.855299 C19.4754621,14.6581237 17.8171586,12.684866 18.0186207,10.4512165 C18.2125655,8.20853608 20.1805793,6.55587629 22.4147034,6.75305155 C24.6488276,6.9502268 26.2981103,8.92348454 26.1041655,11.1631546 L26.1041655,11.1631546 Z"/>
        <path fill="#38834B" d="M37.2552414,12.1460206 C37.0582897,14.3781649 35.0947862,16.0353402 32.8591586,15.8381649 C30.6250345,15.6409897 28.9757517,13.6707423 29.1742069,11.4340825 C29.3681517,9.19591753 31.3346621,7.54175258 33.5672828,7.73591753 C35.8044138,7.93760825 37.4536966,9.90785567 37.2552414,12.1460206 L37.2552414,12.1460206 Z"/>
        <path fill="#AFD136" d="M34.3626069 37.3167216C34.215269 38.2559381 33.3342483 38.8896082 32.4081241 38.7421031 31.468469 38.5961031 30.828 37.7170928 30.9783448 36.7778763 31.1286897 35.8446804 32.0036966 35.2049897 32.9433517 35.3555052 33.866469 35.4984948 34.5084414 36.3744948 34.3626069 37.3167216L34.3626069 37.3167216zM29.4598621 36.9810722C29.3095172 37.914268 28.4375172 38.5509485 27.5068828 38.4034433 26.5702345 38.254433 25.9327724 37.378433 26.0816138 36.4362062 26.2274483 35.5075258 27.1009517 34.8633196 28.0376 35.0198557 28.9682345 35.1613402 29.6026897 36.0433608 29.4598621 36.9810722L29.4598621 36.9810722zM24.5586207 36.6409072C24.4097793 37.5771134 23.533269 38.2137938 22.6026345 38.0677938 21.6704966 37.914268 21.031531 37.0412784 21.1758621 36.1080825 21.3277103 35.1673608 22.2027172 34.5291753 23.1378621 34.6736701 24.0745103 34.8271959 24.710469 35.7031959 24.5586207 36.6409072L24.5586207 36.6409072zM19.6603862 36.3007423C19.5145517 37.2384536 18.6305241 37.875134 17.7013931 37.7231134 16.7662483 37.5786186 16.1302897 36.7056289 16.2746207 35.7709278 16.4204552 34.828701 17.298469 34.1890103 18.2366207 34.3380206 19.1657517 34.4855258 19.8047172 35.3705567 19.6603862 36.3007423L19.6603862 36.3007423z"/>
        <g transform="translate(15.034 16.557)">
          <rect width="19.286" height="1.275" x="2.622" y="1.084" fill="#64522C" transform="rotate(5.025 12.265 1.722)"/>
          <rect width="19.284" height="1.284" x="2.335" y="4.418" fill="#64522C" transform="rotate(5.025 11.977 5.06)"/>
          <rect width="19.285" height="1.278" x="1.994" y="7.784" fill="#64522C" transform="rotate(5.02 11.636 8.423)"/>
          <rect width="19.285" height="1.287" x="1.702" y="11.121" fill="#64522C" transform="rotate(5.02 11.345 11.765)"/>
          <rect width="19.286" height="1.278" x="1.379" y="14.435" fill="#64522C" transform="rotate(5.054 11.022 15.074)"/>
          <rect width="19.286" height="1.276" x=".23" y="24.706" fill="#AD182B" transform="rotate(5.025 9.873 25.344)"/>
        </g>
        <g fill="#FFF229" transform="translate(6.517 16.557)">
          <rect width="4.229" height="4.239" x="2.619" y=".382" transform="rotate(5.02 4.734 2.501)"/>
          <rect width="4.234" height="4.238" x="1.922" y="7.826" transform="rotate(5.054 4.04 9.945)"/>
          <rect width="4.231" height="4.24" x="1.306" y="15.259" transform="rotate(5.054 3.421 17.379)"/>
          <polygon points="4.67 27.167 .453 26.791 .822 22.575 5.041 22.939"/>
        </g>
      </g>
    </g>
    <g transform="translate(431 108)">
      <path fill="#7FC4EC" d="M76.4484698 306.436963C76.4484698 309.191037 74.2147953 311.423185 71.4621767 311.423185L60.8281535 311.423185C58.0755349 311.423185 55.8418605 309.191037 55.8418605 306.436963L55.8418605 295.800074C55.8418605 293.046963 58.0755349 290.814815 60.8281535 290.814815L71.4621767 290.814815C74.2147953 290.814815 76.4484698 293.046963 76.4484698 295.800074L76.4484698 306.436963M132.288405 306.436963C132.288405 309.191037 130.056656 311.423185 127.304037 311.423185L116.668088 311.423185C113.91547 311.423185 111.683721 309.191037 111.683721 306.436963L111.683721 295.800074C111.683721 293.046963 113.91547 290.814815 116.668088 290.814815L127.304037 290.814815C130.056656 290.814815 132.288405 293.046963 132.288405 295.800074L132.288405 306.436963"/>
      <polyline fill="#231F1F" points="112.241 169.591 82.002 170.054 81.837 159.352 112.078 158.889 112.241 169.591"/>
      <g fill="#231F1F" transform="translate(0 195.481)">
        <path d="M36.2002315,21.8952456 C35.6398873,23.6054679 33.7990315,24.5347271 32.090078,23.9733197 C30.3801617,23.4148012 29.4491431,21.572653 30.0094873,19.8624308 L35.153678,4.16902341 C35.7140222,2.46169008 37.554878,1.5305049 39.2638315,2.08709749 C40.9737478,2.65043082 41.9066919,4.48872712 41.345385,6.20087527 L36.2002315,21.8952456"/>
        <polyline points="11.838 52.845 1.926 25.248 17.238 2.889 37.949 9.756 35.439 17.329 20.426 12.351 10.812 26.389 19.345 50.149 11.838 52.845"/>
        <path d="M25.5120279 6.98051852C25.5120279 10.8362222 22.3877721 13.961037 18.5327581 13.961037 14.6777442 13.961037 11.5534884 10.8362222 11.5534884 6.98051852 11.5534884 3.12385185 14.6777442 0 18.5327581 0 22.3877721 0 25.5120279 3.12385185 25.5120279 6.98051852M13.4607767 25.9903704C13.4607767 29.7083704 10.4472419 32.7214815 6.72990698 32.7214815 3.01353488 32.7214815 0 29.7083704 0 25.9903704 0 22.2723704 3.01353488 19.2592593 6.72990698 19.2592593 10.4472419 19.2592593 13.4607767 22.2723704 13.4607767 25.9903704M29.313708 54.4395883C29.2886754 54.3558105 29.2867498 54.2701068 29.2588289 54.1824772 27.2783684 48.1235143 20.7593126 44.8157365 14.6985452 46.7965513 8.63874054 48.780255 5.33348007 55.2985513 7.31394054 61.3594402 7.34186147 61.4470698 7.39096379 61.5173661 7.41984751 61.599218L29.313708 54.4395883"/>
      </g>
      <g fill="#231F1F" transform="translate(145.381 195.481)">
        <path d="M5.3080317,21.8952456 C5.8674131,23.6054679 7.7092317,24.5347271 9.41914798,23.9733197 C11.1281015,23.4148012 12.0610457,21.572653 11.4997387,19.8624308 L6.35458519,4.16902341 C5.794241,2.46169008 3.95434798,1.5305049 2.2444317,2.08709749 C0.534515421,2.65043082 -0.397465974,4.48872712 0.162878212,6.20087527 L5.3080317,21.8952456"/>
        <polyline points="29.962 52.845 39.875 25.248 24.563 2.889 3.851 9.756 6.36 17.329 21.375 12.351 30.988 26.389 22.455 50.149 29.962 52.845"/>
        <path d="M15.4046512 6.98051852C15.4046512 10.8362222 18.5298698 13.961037 22.3839209 13.961037 26.2389349 13.961037 29.3631907 10.8362222 29.3631907 6.98051852 29.3631907 3.12385185 26.2389349 0 22.3839209 0 18.5298698 0 15.4046512 3.12385185 15.4046512 6.98051852M28.8837209 25.9903704C28.8837209 29.7083704 31.8972558 32.7214815 35.6145907 32.7214815 39.3309628 32.7214815 42.3435349 29.7083704 42.3435349 25.9903704 42.3435349 22.2723704 39.3309628 19.2592593 35.6145907 19.2592593 31.8972558 19.2592593 28.8837209 22.2723704 28.8837209 25.9903704M12.5162791 54.4395883C12.5422744 54.3558105 12.5451628 54.2701068 12.5730837 54.1824772 14.554507 48.1235143 21.0716372 44.8157365 27.1324047 46.7965513 33.1931721 48.780255 36.4984326 55.2985513 34.5170093 61.3594402 34.4890884 61.4470698 34.4409488 61.5173661 34.4130279 61.599218L12.5162791 54.4395883"/>
      </g>
      <g transform="translate(36.586 173.333)">
        <path fill="#7FC4EC" d="M114.327544,57.174963 C114.327544,88.7505185 88.7356047,114.348963 57.1637721,114.348963 C25.5929023,114.348963 0,88.7505185 0,57.174963 C0,25.5984444 25.5929023,0 57.1637721,0 C88.7356047,0 114.327544,25.5984444 114.327544,57.174963"/>
        <path fill="#231F1F" d="M64.620586 26.5382963C64.620586 30.0261481 61.791907 32.8543704 58.3046791 32.8543704 54.8174512 32.8543704 51.9906977 30.0261481 51.9906977 26.5382963 51.9906977 23.0504444 54.8174512 20.2222222 58.3046791 20.2222222 61.791907 20.2222222 64.620586 23.0504444 64.620586 26.5382963M64.620586 58.3160741C64.620586 61.8048889 61.791907 64.6321481 58.3046791 64.6321481 54.8174512 64.6321481 51.9906977 61.8048889 51.9906977 58.3160741 51.9906977 54.8282222 54.8174512 52 58.3046791 52 61.791907 52 64.620586 54.8282222 64.620586 58.3160741M64.620586 89.1308889C64.620586 92.6197037 61.791907 95.446963 58.3046791 95.446963 54.8174512 95.446963 51.9906977 92.6197037 51.9906977 89.1308889 51.9906977 85.6420741 54.8174512 82.8148148 58.3046791 82.8148148 61.791907 82.8148148 64.620586 85.6420741 64.620586 89.1308889"/>
      </g>
      <g transform="translate(6.74)">
        <polyline fill="#7FC4EC" points="0 50.715 55.835 157.084 127.621 157.084 167.502 69.329 134.27 41.407 0 50.715"/>
        <path fill="#FFFFFF" d="M83.6212605 87.0768889C83.6212605 99.5366667 73.5225488 109.635259 61.0669256 109.635259 48.6103395 109.635259 38.5116279 99.5366667 38.5116279 87.0768889 38.5116279 74.619037 48.6103395 64.5185185 61.0669256 64.5185185 73.5225488 64.5185185 83.6212605 74.619037 83.6212605 87.0768889M126.946842 110.188C126.946842 122.647778 116.84813 132.74637 104.39347 132.74637 91.9349581 132.74637 81.8372093 122.647778 81.8372093 110.188 81.8372093 97.7301481 91.9349581 87.6296296 104.39347 87.6296296 116.84813 87.6296296 126.946842 97.7301481 126.946842 110.188"/>
        <path fill="#231F1F" d="M68.286893 87.5959259C68.286893 92.8941481 63.9918837 97.1908889 58.6936465 97.1908889 53.3963721 97.1908889 49.1023256 92.8941481 49.1023256 87.5959259 49.1023256 82.2967407 53.3963721 78 58.6936465 78 63.9918837 78 68.286893 82.2967407 68.286893 87.5959259M114.502772 109.744074C114.502772 115.042296 110.2068 119.338074 104.909526 119.338074 99.6112884 119.338074 95.3162791 115.042296 95.3162791 109.744074 95.3162791 104.444889 99.6112884 100.148148 104.909526 100.148148 110.2068 100.148148 114.502772 104.444889 114.502772 109.744074"/>
        <polyline fill="#231F1F" points="57.767 127.111 64.747 144.063 80.45 141.82 57.767 127.111"/>
        <g fill="#231F1F" transform="translate(139.605)">
          <path d="M26.4266791,50.5515189 L14.0567442,39.9560374 C9.8734186,36.3709263 3.5815814,36.8572226 0,41.0422596 L27.512707,64.6088522 C31.0952512,60.4257411 30.6080791,54.1308522 26.4266791,50.5515189"/>
          <polyline points="16.367 39.766 46.708 10.593 51.26 13.219 28.087 50.696 16.367 39.766"/>
          <path d="M57.1209787,14.4895185 C53.697295,17.5315185 48.4568252,17.2204815 45.417295,13.7961852 C42.3768019,10.3718889 42.6877833,5.13240743 46.1105043,2.09040743 C49.5332252,-0.947740723 54.773695,-0.638629611 57.8132252,2.78566668 C60.8527554,6.20996298 60.5436996,11.4504074 57.1209787,14.4895185"/>
        </g>
      </g>
    </g>
    <g transform="translate(41.4 117.19)">
      <polyline fill="#094E43" points="69.498 176.482 25.636 126.76 39.811 114.234 71.245 149.863 105.094 120.371 117.508 134.645 69.498 176.482"/>
      <path fill="#7DC349" d="M85.787956,165.784288 C83.748818,174.158288 75.3089145,179.292151 66.9396003,177.250149 C58.5712803,175.205162 53.4431118,166.761504 55.483244,158.383524 C57.5263588,150.009525 65.9632797,144.870685 74.3335881,146.917663 C82.7029023,148.96265 87.8310708,157.403323 85.787956,165.784288"/>
      <polyline fill="#7DC349" points="42.434 114.344 40.953 92.98 24.876 89.053 27.776 107.113 20.515 115.692 .135 110.712 .135 123.191 27.114 129.78 42.434 114.344"/>
      <polyline fill="#094E43" points="239.297 176.482 283.16 126.76 268.985 114.234 237.552 149.863 203.704 120.371 191.287 134.645 239.297 176.482"/>
      <path fill="#7DC349" d="M223.008718,165.784288 C225.047856,174.158288 233.48776,179.292151 241.855085,177.250149 C250.2244,175.205162 255.353562,166.761504 253.311442,158.383524 C251.269321,150.009525 242.833394,144.870685 234.463086,146.917663 C226.09576,148.96265 220.964609,157.403323 223.008718,165.784288"/>
      <polyline fill="#7DC349" points="266.362 114.344 267.846 92.98 283.919 89.053 281.021 107.113 288.28 115.692 308.662 110.712 308.662 123.191 281.68 129.78 266.362 114.344"/>
      <path fill="#094E43" d="M173.63394 30.9653876L168.915389 30.6628687C168.954163 30.0827093 169.917559 16.3549232 178.490687 9.19298937 182.510305 5.83940914 187.473433 4.48404526 193.265738 5.16769796L192.713948 9.86470054C188.209153 9.3273316 184.552425 10.2985762 181.531001 12.8172443 174.519787 18.6576486 173.642888 30.8419917 173.63394 30.9653876M130.573431 34.0642151C130.562494 33.9438047 129.68659 21.7544859 122.674381 15.917067 119.653951 13.3983989 115.993246 12.4281494 111.493423 12.9665135L110.940638 8.26752064C116.727972 7.58784845 121.697066 8.9422172 125.715689 12.292812 134.290806 19.4527556 135.254202 33.182532 135.289994 33.7636865L130.573431 34.0642151"/>
      <path fill="#7DC349" d="M209.942725,67.2477422 C209.942725,89.7903692 185.074389,108.057928 154.398834,108.057928 C123.722285,108.057928 98.8559372,89.7903692 98.8559372,67.2477422 C98.8559372,44.7081006 123.722285,26.4415372 154.398834,26.4415372 C185.074389,26.4415372 209.942725,44.7081006 209.942725,67.2477422"/>
      <path fill="#231F1F" d="M181.974422,82.2174477 C181.974422,84.9411121 179.76925,87.1433296 177.049074,87.1433296 L131.746606,87.1433296 C129.027424,87.1433296 126.823246,84.9411121 126.823246,82.2174477 C126.823246,79.4927881 129.027424,77.285595 131.746606,77.285595 L177.049074,77.285595 C179.76925,77.285595 181.974422,79.4927881 181.974422,82.2174477"/>
      <polygon fill="#F9F9F9" points="126.823 62.731 142.581 62.731 142.581 46.965 126.823 46.965"/>
      <polygon fill="#F9F9F9" points="166.217 62.731 181.974 62.731 181.974 46.965 166.217 46.965"/>
      <path fill="#7DC349" d="M205.805791,112.081229 L154.398834,114.744191 L102.990883,112.081229 C102.990883,112.081229 85.4608588,160.874329 102.990883,209.768931 L205.805791,209.768931 C223.333827,160.874329 205.805791,112.081229 205.805791,112.081229"/>
      <path fill="#094E43" d="M191.625281 131.455369C191.625281 132.516176 190.76429 133.375966 189.704455 133.375966L119.094208 133.375966C118.032384 133.375966 117.173381 132.516176 117.173381 131.455369 117.173381 130.389588 118.032384 129.529797 119.094208 129.529797L189.704455 129.529797C190.76429 129.529797 191.625281 130.389588 191.625281 131.455369M191.625281 147.32268C191.625281 148.386472 190.76429 149.242281 189.704455 149.242281L119.094208 149.242281C118.032384 149.242281 117.173381 148.386472 117.173381 147.32268 117.173381 146.255903 118.032384 145.402084 119.094208 145.402084L189.704455 145.402084C190.76429 145.402084 191.625281 146.255903 191.625281 147.32268M191.625281 163.190986C191.625281 164.256768 190.76429 165.112577 189.704455 165.112577L119.094208 165.112577C118.032384 165.112577 117.173381 164.256768 117.173381 163.190986 117.173381 162.13018 118.032384 161.271385 119.094208 161.271385L189.704455 161.271385C190.76429 161.271385 191.625281 162.13018 191.625281 163.190986M191.625281 179.059292C191.625281 180.124078 190.76429 180.977898 189.704455 180.977898L119.094208 180.977898C118.032384 180.977898 117.173381 180.124078 117.173381 179.059292 117.173381 177.999481 118.032384 177.138695 119.094208 177.138695L189.704455 177.138695C190.76429 177.138695 191.625281 177.999481 191.625281 179.059292M191.625281 194.930583C191.625281 195.992384 190.76429 196.853169 189.704455 196.853169L119.094208 196.853169C118.032384 196.853169 117.173381 195.992384 117.173381 194.930583 117.173381 193.867786 118.032384 193.006006 119.094208 193.006006L189.704455 193.006006C190.76429 193.006006 191.625281 193.867786 191.625281 194.930583M112.371316 254.915883L137.189941 254.915883C139.749055 254.915883 142.103359 254.079976 144.039099 252.696748L105.523153 252.696748C107.457898 254.079976 109.812203 254.915883 112.371316 254.915883M148.315224 246.928989L101.246034 246.928989C101.63179 248.047512 102.161707 249.092396 102.846722 250.033787L146.715529 250.033787C147.39955 249.092396 147.928473 248.047512 148.315224 246.928989M146.994904 223.860934L102.569336 223.860934C101.935026 224.80133 101.48564 225.860146 101.141641 226.969713L148.421605 226.969713C148.077606 225.860146 147.62822 224.80133 146.994904 223.860934"/>
      <polygon fill="#094E43" points="100.555 238.498 149.009 238.498 149.009 235.396 100.555 235.396"/>
      <path fill="#094E43" d="M137.189941 218.636514L112.371316 218.636514C109.620319 218.636514 107.117876 219.618705 105.108565 221.202948L144.453687 221.202948C142.444375 219.618705 139.943921 218.636514 137.189941 218.636514M149.009187 243.087796L149.009187 241.163219 100.555053 241.163219 100.555053 243.087796C100.555053 243.488832 100.63459 243.873947 100.672371 244.267022L148.888886 244.267022C148.926667 243.873947 149.009187 243.488832 149.009187 243.087796M149.009187 230.466592C149.009187 230.179 148.94158 229.910315 148.92269 229.627699L100.637573 229.627699C100.618683 229.910315 100.555053 230.179 100.555053 230.466592L100.555053 232.734488 149.009187 232.734488 149.009187 230.466592M162.085122 250.033787L205.95194 250.033787C206.638944 249.092396 207.166873 248.047512 207.552629 246.928989L160.483439 246.928989C160.872178 248.047512 161.401101 249.092396 162.085122 250.033787M196.427347 218.636514L171.608721 218.636514C168.855736 218.636514 166.354287 219.618705 164.346964 221.202948L203.693081 221.202948C201.680786 219.618705 199.179338 218.636514 196.427347 218.636514M159.791464 230.466592L159.791464 232.734488 208.245598 232.734488 208.245598 230.466592C208.245598 230.179 208.180974 229.910315 208.161089 229.627699L159.877961 229.627699C159.855094 229.910315 159.791464 230.179 159.791464 230.466592M171.608721 254.915883L196.427347 254.915883C198.988448 254.915883 201.340764 254.079976 203.277498 252.696748L164.759564 252.696748C166.694309 254.079976 169.049608 254.915883 171.608721 254.915883"/>
      <polygon fill="#094E43" points="159.791 238.498 208.246 238.498 208.246 235.396 159.791 235.396"/>
      <path fill="#094E43" d="M159.791464 243.087796C159.791464 243.488832 159.870007 243.873947 159.91077 244.267022L208.126292 244.267022C208.165066 243.873947 208.245598 243.488832 208.245598 243.087796L208.245598 241.163219 159.791464 241.163219 159.791464 243.087796M161.805747 223.860934C161.172431 224.80133 160.724039 225.860146 160.378052 226.969713L207.65901 226.969713C207.315011 225.860146 206.864631 224.80133 206.231315 223.860934L161.805747 223.860934"/>
      <path fill="#F9F9F9" d="M199.884237 7.51818951C199.884237 11.3305236 196.798189 14.4193999 192.989346 14.4193999 189.182491 14.4193999 186.095449 11.3305236 186.095449 7.51818951 186.095449 3.70585542 189.182491.612998642 192.989346.612998642 196.798189.612998642 199.884237 3.70585542 199.884237 7.51818951M104.322139 10.6140317C104.322139 14.4263658 107.409181 17.515242 111.216036 17.515242 115.022891 17.515242 118.110927 14.4263658 118.110927 10.6140317 118.110927 6.80169759 115.022891 3.71481157 111.216036 3.71481157 107.409181 3.71481157 104.322139 6.80169759 104.322139 10.6140317"/>
      <path fill="#231F1F" d="M139.440847 55.2783467C139.440847 57.8935422 137.320184 60.0231154 134.701418 60.0231154 132.083646 60.0231154 129.962982 57.8935422 129.962982 55.2783467 129.962982 52.6601658 132.083646 50.5305926 134.701418 50.5305926 137.320184 50.5305926 139.440847 52.6601658 139.440847 55.2783467M178.833692 55.2783467C178.833692 57.8935422 176.713028 60.0231154 174.093268 60.0231154 171.47649 60.0231154 169.353838 57.8935422 169.353838 55.2783467 169.353838 52.6601658 171.47649 50.5305926 174.093268 50.5305926 176.713028 50.5305926 178.833692 52.6601658 178.833692 55.2783467"/>
    </g>
    <path fill="#701972" d="M364.196863,104.815702 C380.629221,97.0261743 391.872413,80.5816159 391.872413,60.6750451 L375.440056,0.0898298085 L16.5227673,0.0898298085 L0.0904095258,60.6750451 C0.0904095258,79.7161128 11.3336017,96.1606712 26.9010985,103.950199 L26.9010985,277.916317 L13.0633236,277.916317 L13.0633236,453.613442 L26.9010985,453.613442 L26.9010985,470.058 L49.3874828,470.058 L49.3874828,453.613442 L341.710479,453.613442 L341.710479,470.058 L364.196863,470.058 L364.196863,453.613442 L378.899499,453.613442 L378.899499,277.916317 L364.196863,277.916317 L364.196863,104.815702 L364.196863,104.815702 Z M339.980757,277.916317 L47.657761,277.916317 L47.657761,109.143217 C75.3333109,109.143217 96.9548343,86.6401374 96.9548343,59.809542 C96.9548343,87.5056405 118.576358,109.143217 146.251908,109.143217 C173.927458,109.143217 195.548981,86.6401374 195.548981,59.809542 C195.548981,87.5056405 218.035365,109.143217 244.846054,109.143217 C272.521604,109.143217 294.143128,86.6401374 294.143128,59.809542 C294.143128,86.6401374 315.764651,108.277714 339.980757,109.143217 L339.980757,277.916317 L339.980757,277.916317 Z"/>
    <use fill="#ECD0EC" stroke="#979797" stroke-width="2" mask="url(#b)" xlink:href="#a"/>
    <text fill="#000000" font-family="HotelOriental, Hotel Oriental" font-size="36" letter-spacing=".8">
      <tspan x="104.608" y="367.451">Mystery Box</tspan> <tspan x="279.415" y="367.451">!</tspan>
    </text>
  </g>
</svg>
