<svg xmlns="http://www.w3.org/2000/svg" width="764" height="533" viewBox="0 0 764 533" xmlns:xlink="http://www.w3.org/1999/xlink">
  <defs>
    <radialGradient id="a" cx="77.481%" cy="21.955%" r="63.68%" fx="77.481%" fy="21.955%">
      <stop stop-color="#FFFA1E" stop-opacity=".55" offset="0%"/>
      <stop stop-color="#FFF20D" stop-opacity=".55" offset="100%"/>
    </radialGradient>
    <radialGradient id="c" cx="47.831%" r="49.966%" fx="47.831%" fy="50%">
      <stop stop-color="#FFFF00" offset="0%"/>
      <stop stop-color="#FFFF08" stop-opacity=".98" offset="57.968%"/>
      <stop stop-color="#F5F5BF" stop-opacity=".531" offset="100%"/>
      <stop stop-color="#FFFFFF" stop-opacity=".404" offset="100%"/>
      <stop stop-color="#FFFF00" stop-opacity=".11" offset="100%"/>
    </radialGradient>
    <circle id="b" cx="55.5" cy="31.5" r="31.5"/>
    <radialGradient id="d" cx="88.398%" cy="171.136%" r="38.397%" fx="88.398%" fy="171.136%">
      <stop stop-color="#FFFA1E" offset="0%"/>
      <stop stop-color="#FFF20D" offset="100%"/>
    </radialGradient>
  </defs>
  <g fill="none" fill-rule="evenodd" transform="translate(-12 -33)">
    <g transform="translate(0 111)">
      <path fill="#231F1F" d="M257.88656,73.8285869 L239.83267,58.3542858 C233.727116,53.1183662 224.544195,53.8285836 219.316885,59.9406724 L259.471615,94.3587921 C264.700329,88.2495161 263.989303,79.0560683 257.88656,73.8285869"/>
      <polyline fill="#231F1F" points="243.205 58.076 287.487 15.47 294.131 19.305 260.309 74.04 243.205 58.076"/>
      <path fill="#231F1F" d="M302.684816,21.1613954 C297.687958,25.6041217 290.039505,25.1498638 285.603318,20.1488082 C281.165725,15.1477526 281.619602,7.49568749 286.615055,3.05296121 C291.610508,-1.38413958 299.258961,-0.932694463 303.695148,4.06836114 C308.131335,9.06941674 307.680269,16.7228882 302.684816,21.1613954"/>
      <path fill="#7FC4EC" d="M225.98592 336.648674C225.98592 382.763582 188.634546 420.149144 142.555533 420.149144 96.4779246 420.149144 59.1251454 382.763582 59.1251454 336.648674 59.1251454 290.532359 96.4779246 253.146796 142.555533 253.146796 188.634546 253.146796 225.98592 290.532359 225.98592 336.648674M117.304256 447.539628C117.304256 451.561849 114.044214 454.821817 110.026773 454.821817L94.5064421 454.821817C90.4890019 454.821817 87.2289595 451.561849 87.2289595 447.539628L87.2289595 432.004853C87.2289595 427.984038 90.4890019 424.72407 94.5064421 424.72407L110.026773 424.72407C114.044214 424.72407 117.304256 427.984038 117.304256 432.004853L117.304256 447.539628M198.802506 447.539628C198.802506 451.561849 195.545274 454.821817 191.527834 454.821817L176.004692 454.821817C171.987252 454.821817 168.73002 451.561849 168.73002 447.539628L168.73002 432.004853C168.73002 427.984038 171.987252 424.72407 176.004692 424.72407L191.527834 424.72407C195.545274 424.72407 198.802506 427.984038 198.802506 432.004853L198.802506 447.539628"/>
      <polyline fill="#231F1F" points="169.544 247.682 125.409 248.358 125.169 232.728 169.305 232.051 169.544 247.682"/>
      <g fill="#231F1F" transform="scale(1 -1) rotate(-19 -948.081 -160.7)">
        <path d="M52.8341505,32.2584547 C52.0163295,34.7561698 49.3296049,36.1133179 46.8353914,35.2934036 C44.3397727,34.4777083 42.9809533,31.7873204 43.7987743,29.2896054 L51.3067082,6.36997569 C52.1245292,3.87647974 54.8112538,2.5165189 57.3054673,3.32940139 C59.801086,4.15212848 61.1627158,6.83689089 60.3434896,9.33741869 L52.8341505,32.2584547"/>
        <polyline points="17.277 77.46 2.81 37.155 25.159 4.5 55.387 14.529 51.724 25.589 29.811 18.319 15.78 38.821 28.234 73.522 17.277 77.46"/>
        <path d="M37.2347432 10.4760583C37.2347432 16.1071681 32.6748994 20.6708423 27.0485158 20.6708423 21.4221322 20.6708423 16.8622884 16.1071681 16.8622884 10.4760583 16.8622884 4.84354204 21.4221322.281274218 27.0485158.281274218 32.6748994.281274218 37.2347432 4.84354204 37.2347432 10.4760583M19.6459712 38.23923C19.6459712 43.6692288 15.2477243 48.0697639 9.822283 48.0697639 4.39824689 48.0697639.27373675e-13 43.6692288.27373675e-13 38.23923.27373675e-13 32.8092312 4.39824689 28.408696 9.822283 28.408696 15.2477243 28.408696 19.6459712 32.8092312 19.6459712 38.23923M42.7832861 79.7882399C42.7467511 79.6658856 42.7439407 79.5407186 42.7031902 79.4127388 39.8127129 70.5638519 30.2981667 65.7329672 21.4524912 68.6258725 12.608221 71.522997 7.7842013 81.0427229 10.6746786 89.8944226 10.7154291 90.0224023 10.7870938 90.1250674 10.8292495 90.244609L42.7832861 79.7882399"/>
      </g>
      <g fill="#231F1F" transform="scale(1 -1) rotate(18 1200.95 543.997)">
        <path d="M8.11209503,32.2584547 C8.92851083,34.7561698 11.6166406,36.1133179 14.1122593,35.2934036 C16.6064728,34.4777083 17.9681026,31.7873204 17.1488764,29.2896054 L9.63953733,6.36997569 C8.82171634,3.87647974 6.13639691,2.5165189 3.64077822,3.32940139 C1.14515954,4.15212848 -0.215065058,6.83689089 0.60275593,9.33741869 L8.11209503,32.2584547"/>
        <polyline points="44.095 77.46 58.562 37.155 36.214 4.5 5.986 14.529 9.648 25.589 31.562 18.319 45.593 38.821 33.138 73.522 44.095 77.46"/>
        <path d="M22.8480868 10.4760583C22.8480868 16.1071681 27.4093358 20.6708423 33.0343142 20.6708423 38.6606977 20.6708423 43.2205416 16.1071681 43.2205416 10.4760583 43.2205416 4.84354204 38.6606977.281274218 33.0343142.281274218 27.4093358.281274218 22.8480868 4.84354204 22.8480868 10.4760583M42.5207566 38.23923C42.5207566 43.6692288 46.9190035 48.0697639 52.3444448 48.0697639 57.7684809 48.0697639 62.1653226 43.6692288 62.1653226 38.23923 62.1653226 32.8092312 57.7684809 28.408696 52.3444448 28.408696 46.9190035 28.408696 42.5207566 32.8092312 42.5207566 38.23923M18.6325147 79.7882399C18.6704548 79.6658856 18.6746704 79.5407186 18.7154209 79.4127388 21.6073034 70.5638519 31.1190392 65.7329672 39.9647147 68.6258725 48.8103902 71.522997 53.6344098 81.0427229 50.7425274 89.8944226 50.7017768 90.0224023 50.6315173 90.1250674 50.5907668 90.244609L18.6325147 79.7882399"/>
      </g>
      <path fill="#231F1F" d="M153.438735 291.904977C153.438735 296.998853 149.310285 301.129365 144.220684 301.129365 139.131083 301.129365 135.005443 296.998853 135.005443 291.904977 135.005443 286.811101 139.131083 282.680589 144.220684 282.680589 149.310285 282.680589 153.438735 286.811101 153.438735 291.904977M153.438735 338.315223C153.438735 343.410506 149.310285 347.539611 144.220684 347.539611 139.131083 347.539611 135.005443 343.410506 135.005443 338.315223 135.005443 333.221347 139.131083 329.090835 144.220684 329.090835 149.310285 329.090835 153.438735 333.221347 153.438735 338.315223M153.438735 383.319098C153.438735 388.414381 149.310285 392.543486 144.220684 392.543486 139.131083 392.543486 135.005443 388.414381 135.005443 383.319098 135.005443 378.223816 139.131083 374.09471 144.220684 374.09471 149.310285 374.09471 153.438735 378.223816 153.438735 383.319098"/>
      <polyline fill="#7FC4EC" points="15.564 74.068 97.055 229.416 201.826 229.416 260.034 101.253 211.531 60.474 15.564 74.068"/>
      <path fill="#FFFFFF" d="M137.609262 127.172512C137.609262 145.369548 122.870216 160.118161 104.691264 160.118161 86.510907 160.118161 71.7718617 145.369548 71.7718617 127.172512 71.7718617 108.978289 86.510907 94.2268631 104.691264 94.2268631 122.870216 94.2268631 137.609262 108.978289 137.609262 127.172512M200.842843 160.925418C200.842843 179.122454 186.103798 193.871068 167.926251 193.871068 149.743083 193.871068 135.005443 179.122454 135.005443 160.925418 135.005443 142.731196 149.743083 127.979769 167.926251 127.979769 186.103798 127.979769 200.842843 142.731196 200.842843 160.925418"/>
      <path fill="#231F1F" d="M115.228789 127.930546C115.228789 135.6684 108.960234 141.943628 101.227469 141.943628 93.49611 141.943628 87.2289595 135.6684 87.2289595 127.930546 87.2289595 120.191286 93.49611 113.916058 101.227469 113.916058 108.960234 113.916058 115.228789 120.191286 115.228789 127.930546M125.478455 199.771651C125.478455 210.679663 120.061139 219.525819 113.378446 219.525819 106.696968 219.525819 101.280866 210.679663 101.280866 199.771651 101.280866 188.861656 106.696968 180.0155 113.378446 180.0155 120.061139 180.0155 125.478455 188.861656 125.478455 199.771651M182.680753 160.277081C182.680753 168.014935 176.410792 174.288757 168.679433 174.288757 160.946669 174.288757 154.678113 168.014935 154.678113 160.277081 154.678113 152.537821 160.946669 146.262593 168.679433 146.262593 176.410792 146.262593 182.680753 152.537821 182.680753 160.277081"/>
    </g>
    <g transform="rotate(13 202.942 1781.2)">
      <path fill="#FFFFFF" fill-opacity=".7" stroke="#000000" stroke-width="6" d="M5.60356352,320.544504 C2.52619251,317.475591 2.58693699,313.612856 5.7564502,310.823237 C9.03216807,307.940148 13.1551994,307.997057 16.1328024,310.966471 C19.2101734,314.035385 19.1494289,317.898119 15.9799157,320.687739 C12.7041978,323.570828 8.58116652,323.513918 5.60356352,320.544504 L5.60356352,320.544504 Z M28.0644662,308.023039 C19.8448157,303.844675 19.9781306,291.691333 28.2877851,287.665536 C34.55123,284.631067 42.1574246,286.674985 45.2148529,292.214149 C51.0342457,302.757139 39.1874474,313.677278 28.0644662,308.023039 L28.0644662,308.023039 Z M59.9612399,288.927859 C49.1933979,283.53518 44.9015956,271.244736 50.4132076,261.585141 C56.1692813,251.497099 69.2879389,247.476249 79.5984627,252.639899 C90.3663048,258.032578 94.6581071,270.323022 89.146495,279.982617 C83.3904214,290.070659 70.2717638,294.091509 59.9612399,288.927859 L59.9612399,288.927859 Z M222.637063,270.227212 C208.584142,267.370943 199.60991,263.882158 188.863189,257.097404 L183.031981,253.415966 L173.044315,258.034111 C167.551107,260.574077 159.620146,263.324029 155.419962,264.145109 C116.120588,271.827578 77.6362896,249.487645 67.6005233,213.166387 C66.2346017,208.222883 65.1218475,205.998577 64.1381754,206.245409 C63.340926,206.445472 58.7611874,206.847303 53.9609774,207.138372 C38.0656602,208.102205 25.113188,203.309019 13.9295169,192.324335 C7.26922548,185.78254 4.37633528,181.142605 1.7153934,172.734018 C-1.8646796,161.420939 0.333151108,145.516679 6.86067306,135.501031 C10.9929884,129.160535 20.2777837,121.05287 27.0541857,117.867674 L33.3329913,114.916371 L34.6960545,108.272838 C39.8536947,83.1347512 64.1659621,64.3233112 91.4972779,64.3233112 L97.8339042,64.3233112 L98.5270873,58.1099928 C101.243177,33.7643568 120.873189,11.4977073 147.237786,2.85662726 C153.262617,0.881964795 156.543822,0.532453628 169.056922,0.532453628 C181.570022,0.532453628 184.851228,0.881964795 190.876059,2.85662726 C210.794977,9.38511483 226.651555,23.1042254 234.654541,40.7337399 C236.369438,44.5114164 238.322633,47.3673486 239.111034,47.2499216 C239.882995,47.1349579 243.460177,46.0393473 247.060335,44.8152405 C255.972252,41.7850433 271.786751,41.0694019 281.680584,43.2485932 C300.794006,47.4584673 317.815758,60.0013658 325.849651,75.795681 C328.365463,80.7416483 329.253829,81.6563197 331.06401,81.1644326 C335.934587,79.8409283 351.108684,79.4982958 357.246974,80.5732297 C367.774435,82.4167794 378.806441,87.9331707 387.264051,95.5828107 C411.619247,117.611336 412.216361,151.992223 388.641089,174.870282 C376.150059,186.991898 360.462842,192.736153 342.372738,191.812548 L332.953286,191.331628 L331.643712,198.937094 C324.349356,241.299859 285.689905,271.987125 239.969116,271.706962 C234.268866,271.672027 226.469441,271.006141 222.637063,270.227212 L222.637063,270.227212 Z" transform="translate(.03 .49)"/>
      <g transform="translate(67 61)">
        <polyline fill="#231F1F" points="106.579 200.114 75.171 200.595 75 189.481 106.409 189 106.579 200.114" transform="rotate(-7 90.79 194.798)"/>
        <polyline fill="#7FC4EC" points="0 76.666 57.993 187.126 132.553 187.126 173.976 95.996 139.459 67 0 76.666"/>
        <path fill="#FFFFFF" d="M86.853 114.426C86.853 127.365 76.364 137.852 63.427 137.852 50.489 137.852 40 127.365 40 114.426 40 101.489 50.489 91 63.427 91 76.364 91 86.853 101.489 86.853 114.426M131.853 138.426C131.853 151.365 121.364 161.852 108.428 161.852 95.488 161.852 85 151.365 85 138.426 85 125.489 95.488 115 108.428 115 121.364 115 131.853 125.489 131.853 138.426"/>
        <path fill="#231F1F" d="M70.926 114.965C70.926 120.467 66.465 124.929 60.962 124.929 55.46 124.929 51 120.467 51 114.965 51 109.462 55.46 105 60.962 105 66.465 105 70.926 109.462 70.926 114.965M118.928 137.965C118.928 143.467 114.466 147.928 108.964 147.928 103.461 147.928 99 143.467 99 137.965 99 132.462 103.461 128 108.964 128 114.466 128 118.928 132.462 118.928 137.965"/>
        <polyline fill="#231F1F" points="60 156 67.249 173.604 83.559 171.275 60 156"/>
        <g transform="translate(144)">
          <g opacity=".279">
            <use fill="url(#a)" xlink:href="#b"/>
            <use fill="url(#c)" xlink:href="#b"/>
          </g>
          <path fill="#231F1F" d="M27.448,76.4958081 L14.6,65.4928081 C10.255,61.7698081 3.72,62.2748081 -3.41060513e-13,66.6208081 L28.576,91.0938081 C32.297,86.7498081 31.791,80.2128081 27.448,76.4958081"/>
          <polyline fill="#231F1F" points="17 65.295 48.513 35 53.241 37.727 29.172 76.646 17 65.295"/>
          <path fill="url(#d)" d="M59.3285527,39.0468077 C55.7725527,42.2058077 50.3295527,41.8828077 47.1725527,38.3268077 C44.0145527,34.7708077 44.3375527,29.3298077 47.8925527,26.1708077 C51.4475527,23.0158077 56.8905527,23.3368077 60.0475527,26.8928077 C63.2045527,30.4488077 62.8835527,35.8908077 59.3285527,39.0468077"/>
        </g>
      </g>
    </g>
  </g>
</svg>
