<svg width="809" height="533" viewBox="0 0 809 533" xmlns="http://www.w3.org/2000/svg" xmlns:xlink="http://www.w3.org/1999/xlink"><title>Oh-no!</title><defs><radialGradient cx="77.481%" cy="21.955%" fx="77.481%" fy="21.955%" r="63.68%" id="a"><stop stop-color="#FFFA1E" stop-opacity=".55" offset="0%"/><stop stop-color="#FFF20D" stop-opacity=".55" offset="100%"/></radialGradient><radialGradient cx="47.831%" fx="47.831%" fy="50%" r="49.966%" id="c"><stop stop-color="#FF0" offset="0%"/><stop stop-color="#FFFF08" stop-opacity=".98" offset="57.968%"/><stop stop-color="#F5F5BF" stop-opacity=".531" offset="100%"/><stop stop-color="#FFF" stop-opacity=".404" offset="100%"/><stop stop-color="#FF0" stop-opacity=".11" offset="100%"/></radialGradient><circle id="b" cx="55.5" cy="31.5" r="31.5"/><radialGradient cx="88.398%" cy="171.136%" fx="88.398%" fy="171.136%" r="38.397%" id="d"><stop stop-color="#FFFA1E" offset="0%"/><stop stop-color="#FFF20D" offset="100%"/></radialGradient></defs><g fill="none" fill-rule="evenodd"><path d="M245.887 151.829l-18.054-15.475c-6.106-5.236-15.289-4.525-20.516 1.587l40.155 34.418c5.228-6.11 4.517-15.303-1.585-20.53M231.205 136.076l44.282-42.606 6.644 3.835-33.822 54.735-17.104-15.964" fill="#231F1F"/><path d="M290.685 99.161c-4.997 4.443-12.645 3.989-17.082-1.012-4.437-5.001-3.983-12.653 1.012-17.096 4.996-4.437 12.644-3.986 17.08 1.015 4.436 5.001 3.985 12.655-1.01 17.093" fill="#231F1F"/><path d="M213.986 414.649c0 46.115-37.351 83.5-83.43 83.5-46.078 0-83.43-37.385-83.43-83.5 0-46.117 37.352-83.502 83.43-83.502 46.079 0 83.43 37.385 83.43 83.502M105.304 525.54a7.28 7.28 0 0 1-7.277 7.282h-15.52a7.28 7.28 0 0 1-7.278-7.282v-15.535a7.28 7.28 0 0 1 7.277-7.28h15.52a7.28 7.28 0 0 1 7.278 7.28v15.535M186.803 525.54a7.278 7.278 0 0 1-7.275 7.282h-15.523a7.278 7.278 0 0 1-7.275-7.282v-15.535c0-4.021 3.257-7.28 7.275-7.28h15.523a7.278 7.278 0 0 1 7.275 7.28v15.535" fill="#7FC4EC"/><path fill="#231F1F" d="M157.544 325.682l-44.135.676-.24-15.63 44.136-.677.239 15.63"/><g fill="#231F1F"><path d="M49.124 382.12a4.75 4.75 0 0 0-4.684-4.822 4.757 4.757 0 0 0-4.826 4.688l-.363 24.115a4.762 4.762 0 0 0 4.682 4.828 4.763 4.763 0 0 0 4.829-4.692l.362-24.117"/><path d="M30.22 327.805l-26.8 33.4 10.499 38.15 31.847.36.136-11.65-23.085-.26-6.592-23.954L39.3 335.096l-9.08-7.29"/><path d="M27.283 397.637c1.833-5.324-.993-11.124-6.313-12.955-5.32-1.832-11.117.998-12.95 6.323-1.834 5.325.992 11.124 6.312 12.955 5.32 1.832 11.117-.997 12.95-6.323M19.69 365.66c1.769-5.134-.957-10.726-6.087-12.493-5.129-1.766-10.72.963-12.488 6.097-1.768 5.135.958 10.727 6.087 12.493 5.13 1.766 10.721-.962 12.489-6.097M55.095 333.908c-.075.104-.118.221-.198.329-5.614 7.426-16.183 8.896-23.605 3.28-7.42-5.618-8.881-16.19-3.266-23.618.08-.108.181-.182.26-.281l26.809 20.29"/></g><g fill="#231F1F"><path d="M212.63 389.302a4.75 4.75 0 0 1 4.768-4.74 4.757 4.757 0 0 1 4.744 4.771l-.06 24.119a4.762 4.762 0 0 1-4.765 4.745 4.764 4.764 0 0 1-4.746-4.775l.059-24.12"/><path d="M232.883 335.194l26.215 33.862-11.164 37.962-31.848-.197.065-11.65 23.088.142 7.009-23.834-22.568-29.154 9.203-7.131"/><path d="M233.376 405.465c-1.74-5.355 1.187-11.105 6.537-12.844 5.35-1.738 11.098 1.193 12.838 6.549 1.74 5.356-1.186 11.104-6.537 12.843-5.35 1.738-11.098-1.191-12.838-6.548M243.506 372.981c-1.678-5.164 1.145-10.708 6.305-12.385 5.159-1.676 10.7 1.15 12.378 6.315 1.678 5.164-1.144 10.708-6.302 12.384-5.16 1.677-10.703-1.15-12.38-6.314M207.948 340.848c.074.105.116.222.195.331 5.484 7.523 16.023 9.178 23.542 3.693 7.518-5.489 9.164-16.033 3.678-23.558-.078-.11-.177-.185-.252-.286l-27.163 19.82"/></g><path d="M141.439 369.905c0 5.094-4.129 9.224-9.218 9.224-5.09 0-9.216-4.13-9.216-9.224s4.126-9.224 9.216-9.224c5.09 0 9.218 4.13 9.218 9.224M141.439 416.315c0 5.096-4.129 9.225-9.218 9.225-5.09 0-9.216-4.13-9.216-9.225 0-5.094 4.126-9.224 9.216-9.224 5.09 0 9.218 4.13 9.218 9.224M141.439 461.32c0 5.094-4.129 9.223-9.218 9.223-5.09 0-9.216-4.129-9.216-9.224 0-5.095 4.126-9.224 9.216-9.224 5.09 0 9.218 4.129 9.218 9.224" fill="#231F1F"/><path fill="#7FC4EC" d="M3.564 152.068l81.491 155.348h104.771l58.208-128.163-48.503-40.779L3.564 152.068"/><path d="M125.61 205.173c0 18.197-14.74 32.945-32.919 32.945-18.18 0-32.92-14.748-32.92-32.945 0-18.195 14.74-32.946 32.92-32.946s32.918 14.751 32.918 32.946M188.843 238.925c0 18.197-14.74 32.946-32.917 32.946-18.183 0-32.92-14.749-32.92-32.946 0-18.194 14.737-32.945 32.92-32.945 18.178 0 32.917 14.751 32.917 32.945" fill="#FFF"/><path d="M103.229 205.93c0 7.738-6.269 14.014-14.002 14.014-7.73 0-13.998-6.276-13.998-14.013 0-7.74 6.267-14.015 13.998-14.015 7.733 0 14.002 6.275 14.002 14.015M113.478 277.772c0 10.908-5.417 19.754-12.1 19.754-6.681 0-12.097-8.846-12.097-19.754 0-10.91 5.416-19.756 12.097-19.756 6.683 0 12.1 8.846 12.1 19.756M170.68 238.277c0 7.738-6.27 14.012-14 14.012-7.733 0-14.002-6.274-14.002-14.012 0-7.74 6.269-14.014 14.001-14.014 7.732 0 14.002 6.275 14.002 14.014" fill="#231F1F"/><g><path d="M372.157 281.073c-2.308-3.682-1.38-7.432 2.336-9.437 3.84-2.073 7.845-1.09 10.078 2.473 2.308 3.683 1.38 7.433-2.336 9.438-3.84 2.073-7.845 1.09-10.078-2.474zm24.702-7.147c-7.07-5.92-4.205-17.733 4.797-19.786 6.785-1.548 13.737 2.155 15.47 8.24 3.299 11.582-10.701 19.557-20.267 11.546zm35.375-11.431c-9.28-7.677-10.696-20.618-3.153-28.79 7.878-8.534 21.565-9.501 30.45-2.15 9.278 7.676 10.695 20.617 3.152 28.79-7.878 8.534-21.565 9.5-30.45 2.15zm162.713 18.373c-13.05-5.945-21.01-11.363-29.955-20.391l-4.853-4.899-10.771 2.253c-5.924 1.24-14.27 2.135-18.547 1.99-40.02-1.355-72.493-31.78-74.101-69.427-.22-5.124-.803-7.542-1.817-7.523-.822.016-5.375-.623-10.117-1.419-15.705-2.637-27.247-10.22-35.673-23.44-5.018-7.872-6.793-13.044-7.494-21.835-.944-11.829 4.775-26.831 13.389-35.122 5.452-5.248 16.323-11.06 23.642-12.638l6.782-1.464 2.823-6.166c10.68-23.334 38.6-36.194 65.231-30.046l6.175 1.426 2.073-5.899c8.123-23.11 32.259-40.39 59.891-42.88 6.315-.568 9.59-.17 21.783 2.644 12.192 2.815 15.311 3.894 20.737 7.173 17.94 10.842 30.304 27.777 34.136 46.754.821 4.067 2.082 7.29 2.877 7.352.778.062 4.51-.201 8.293-.584 9.365-.948 24.935 1.912 34.085 6.261 17.677 8.402 31.44 24.452 35.716 41.65 1.338 5.384 1.998 6.475 3.873 6.403 5.043-.194 19.905 2.886 25.645 5.314 9.843 4.165 19.35 12.021 25.87 21.377 18.777 26.943 11.624 60.577-16.493 77.566-14.898 9-31.475 11.069-48.894 6.1l-9.07-2.588-2.987 7.116c-16.636 39.636-61.208 60.84-105.694 50.282-5.546-1.316-12.996-3.72-16.555-5.34z" stroke="#000" stroke-width="6" fill-opacity=".7" fill="#FFF"/><path fill="#231F1F" d="M550.235 258.674l-31.286-2.804.991-11.071 31.288 2.804-.993 11.071"/><path fill="#7FC4EC" d="M473.199 116.21l31.658 120.674 72.65 16.772 60.86-79.476-27.11-36.017L473.2 116.209"/><path d="M549.332 172.54c-2.911 12.607-15.49 20.465-28.096 17.555S500.77 174.607 503.68 162c2.91-12.606 15.49-20.466 28.097-17.556 12.605 2.91 20.466 15.49 17.556 28.095M587.78 206.047c-2.911 12.607-15.49 20.466-28.095 17.556-12.608-2.91-20.468-15.488-17.558-28.096 2.91-12.605 15.49-20.466 28.098-17.555 12.604 2.91 20.465 15.49 17.554 28.095" fill="#FFF"/><path d="M533.692 169.482c-1.238 5.36-6.588 8.705-11.95 7.467-5.361-1.238-8.703-6.589-7.466-11.95 1.238-5.362 6.588-8.706 11.949-7.468 5.362 1.238 8.705 6.589 7.467 11.95M575.29 202.69c-1.238 5.361-6.59 8.704-11.95 7.466-5.362-1.237-8.705-6.588-7.468-11.949 1.238-5.362 6.588-8.706 11.95-7.468 5.361 1.238 8.705 6.59 7.467 11.951M513.815 207.007l3.103 18.784 16.416 1.4-19.52-20.184" fill="#231F1F"/><g opacity=".279" transform="rotate(13 -8.934 2804.98)"><use fill="url(#a)" xlink:href="#b"/><use fill="url(#c)" xlink:href="#b"/></g><path d="M640.29 154.61L630.248 141c-3.396-4.605-9.877-5.583-14.48-2.185l22.34 30.274c4.602-3.396 5.58-9.88 2.184-14.478M632.63 141.347l37.52-22.43 3.994 3.72-32.207 32.508-9.307-13.798" fill="#231F1F"/><path d="M59.329 39.047A8.611 8.611 0 0 1 47.893 26.17c3.555-3.155 8.998-2.834 12.155.722s2.836 8.998-.72 12.154" fill="url(#d)" transform="rotate(13 -8.934 2804.98)"/></g></g></svg>
