<svg width="353" height="532" viewBox="0 0 353 532" xmlns="http://www.w3.org/2000/svg" xmlns:xlink="http://www.w3.org/1999/xlink"><title>Powered Down</title><defs><path id="a" d="M126.301 223.486h52.674v21.346h-52.674z"/><mask id="b" x="0" y="0" width="52.674" height="21.346" fill="#fff"><use xlink:href="#a"/></mask></defs><g fill="none" fill-rule="evenodd"><path d="M130.702 522.514c0 4.696-3.82 8.502-8.525 8.502h-18.18c-4.707 0-8.526-3.806-8.526-8.502v-18.137c0-4.694 3.82-8.5 8.525-8.5h18.18c4.707 0 8.526 3.806 8.526 8.5v18.137M226.17 522.514c0 4.696-3.816 8.502-8.522 8.502h-18.184c-4.706 0-8.522-3.806-8.522-8.502v-18.137c0-4.694 3.816-8.5 8.522-8.5h18.184c4.706 0 8.522 3.806 8.522 8.5v18.137" fill="#7FC4EC"/><path fill="#231F1F" d="M191.896 289.175l-51.7.79-.281-18.25 51.7-.79.28 18.25"/><g fill="#231F1F"><path d="M61.89 370.655c-.957 2.916-4.105 4.5-7.027 3.544a5.55 5.55 0 0 1-3.557-7.01l8.795-26.76c.958-2.91 4.106-4.498 7.027-3.55 2.924.961 4.519 4.096 3.559 7.015l-8.796 26.761"/><path d="M20.238 423.43L3.292 376.371l26.179-38.125 35.41 11.709-4.291 12.912-25.669-8.487-16.436 23.937 14.59 40.514-12.837 4.597"/><path d="M43.617 345.224c0 6.574-5.341 11.902-11.932 11.902-6.59 0-11.932-5.328-11.932-11.902 0-6.576 5.341-11.903 11.932-11.903 6.59 0 11.932 5.327 11.932 11.903M23.014 377.638c0 6.34-5.153 11.477-11.508 11.477C5.152 389.115 0 383.978 0 377.638c0-6.34 5.152-11.478 11.506-11.478 6.355 0 11.508 5.138 11.508 11.478M50.117 426.147c-.043-.142-.046-.289-.094-.438-3.386-10.331-14.531-15.971-24.893-12.594-10.36 3.383-16.012 14.497-12.626 24.832.048.15.132.269.182.409l37.43-12.209"/></g><g fill="#231F1F"><path d="M257.63 370.655c.956 2.916 4.105 4.5 7.028 3.544a5.55 5.55 0 0 0 3.557-7.01l-8.796-26.76c-.958-2.91-4.104-4.498-7.027-3.55a5.559 5.559 0 0 0-3.56 7.015l8.797 26.761"/><path d="M299.78 423.43l16.947-47.058-26.178-38.125-35.41 11.709 4.29 12.912 25.67-8.487 16.435 23.937-14.589 40.514 12.835 4.597"/><path d="M274.891 345.224c0 6.574 5.343 11.902 11.933 11.902s11.932-5.328 11.932-11.902c0-6.576-5.342-11.903-11.932-11.903-6.59 0-11.933 5.327-11.933 11.903M297.936 377.638c0 6.34 5.152 11.477 11.508 11.477 6.353 0 11.504-5.137 11.504-11.477 0-6.34-5.15-11.478-11.504-11.478-6.356 0-11.508 5.138-11.508 11.478M269.953 426.147c.045-.142.05-.289.097-.438 3.388-10.331 14.53-15.971 24.892-12.594 10.362 3.383 16.013 14.497 12.625 24.832-.048.15-.13.269-.178.409l-37.436-12.209"/></g><path d="M258.013 393.046c0 53.84-43.754 97.49-97.732 97.49-53.975 0-97.73-43.65-97.73-97.49 0-53.842 43.755-97.49 97.73-97.49 53.978 0 97.732 43.648 97.732 97.49" fill="#7FC4EC"/><path d="M173.03 340.807c0 5.947-4.836 10.77-10.798 10.77s-10.795-4.823-10.795-10.77c0-5.947 4.833-10.77 10.795-10.77s10.798 4.823 10.798 10.77M173.03 394.992c0 5.949-4.836 10.77-10.798 10.77s-10.795-4.821-10.795-10.77c0-5.947 4.833-10.77 10.795-10.77s10.798 4.823 10.798 10.77M173.03 447.535c0 5.949-4.836 10.77-10.798 10.77s-10.795-4.821-10.795-10.77 4.833-10.77 10.795-10.77 10.798 4.821 10.798 10.77" fill="#231F1F"/><g transform="translate(11.522)"><path fill="#7FC4EC" d="M0 86.476L95.46 267.85h122.73l68.184-149.633-56.817-47.611L0 86.476"/><path d="M104.404 186.942c-21.296 0-38.562-17.22-38.562-38.465 0-21.242 17.266-38.465 38.562-38.465 21.295 0 38.56 17.223 38.56 38.465 0 21.246-17.265 38.465-38.56 38.465zM238.436 150.12c0 21.245-17.265 38.464-38.559 38.464-21.3 0-38.564-17.22-38.564-38.465 0-21.242 17.264-38.465 38.564-38.465 21.294 0 38.56 17.223 38.56 38.465l-27.564-11.115" fill="#000"/><g fill="#231F1F"><path d="M283.86 86.197L262.71 68.13c-7.152-6.113-17.909-5.284-24.032 1.852l47.038 40.184c6.125-7.132 5.292-17.866-1.857-23.97M266.661 67.805l51.872-49.743 7.783 4.477-39.62 63.904-20.035-18.638"/><path d="M336.336 24.706c-5.853 5.187-14.813 4.657-20.01-1.182-5.197-5.839-4.666-14.773 1.186-19.96 5.852-5.18 14.811-4.653 20.008 1.186 5.196 5.839 4.668 14.774-1.184 19.956"/></g><use stroke="#979797" mask="url(#b)" stroke-width="2" fill="#000" xlink:href="#a"/></g></g></svg>
