<svg xmlns="http://www.w3.org/2000/svg" width="150" height="191" viewBox="0 0 150 191">
  <g fill="none" fill-rule="evenodd" transform="translate(0 1)">
    <g transform="translate(45.652)">
      <path fill="#C6E9FA" d="M2.37391304,27.492103 L56.505163,27.492103 C55.657337,13.2706438 43.8595109,1.95218884 29.4391304,1.95218884 C15.0195652,1.95218884 3.22092391,13.2706438 2.37391304,27.492103 L2.37391304,27.492103 Z"/>
      <path fill="#E1F3FC" d="M29.4391304,0.325364807 C13.5456522,0.325364807 0.665217391,13.2217167 0.665217391,29.1197425 L58.2138587,29.1197425 C58.2138587,13.2217167 45.3309783,0.325364807 29.4391304,0.325364807 L29.4391304,0.325364807 L29.4391304,0.325364807 Z M4.1201087,25.8677253 C4.82690217,20.2786266 7.34755435,15.109485 11.3934783,11.061588 C16.2138587,6.23656652 22.6222826,3.57819742 29.4399457,3.57819742 C42.4108696,3.57819742 53.1546196,13.3130472 54.7557065,25.8677253 L4.1201087,25.8677253 L4.1201087,25.8677253 L4.1201087,25.8677253 Z"/>
      <path stroke="#8DD7F7" stroke-width="2.413" d="M29.4391304,0.325364807 C13.5456522,0.325364807 0.665217391,13.2200858 0.665217391,29.1181116 L58.2138587,29.1181116 C58.2138587,13.2200858 45.3309783,0.325364807 29.4391304,0.325364807 L29.4391304,0.325364807 Z"/>
      <polyline stroke="#FFCA05" stroke-width="1.955" points="49.104 35.602 47.49 16.094 43.117 20.466 40.493 16.496 40.493 21.207 34.846 13.267 34.171 19.861 28.655 13.267 26.235 19.457 24.352 12.998 19.239 18.112 17.893 13.133 14.397 19.861 10.225 16.094 10.225 34.391"/>
    </g>
    <g transform="translate(0 75.837)">
      <g transform="translate(122.283)">
        <path fill="#936C8C" d="M23.4407609,68.4750215 C20.932337,64.2248927 15.461413,62.8092704 11.2125,65.3200429 C7.56929348,67.466309 6.03179348,71.8102146 7.25217391,75.6876824 L11.3747283,73.256824 C11.2850543,71.6650644 12.048913,70.0839056 13.511413,69.2138197 C15.6097826,67.9792275 18.3065217,68.6796996 19.5432065,70.7754077 C20.7782609,72.8760086 20.0828804,75.578412 17.992663,76.808927 C16.5236413,77.6781974 14.7741848,77.5738197 13.4225543,76.7306438 L9.3,79.1663948 C12.0970109,82.1060944 16.6394022,82.8554936 20.2858696,80.7100429 C24.5339674,78.2041631 25.9467391,72.728412 23.4407609,68.4750215 L23.4407609,68.4750215 Z"/>
        <rect width="7.939" height="31.147" x="16.626" y="36.866" fill="#936C8C"/>
        <rect width="13.821" height="7.651" x="13.683" y="42.747" fill="#53266E"/>
        <path fill="#936C8C" d="M19.3459239,13.1026609 C19.3459239,18.3680258 15.0782609,22.635279 9.81521739,22.635279 C4.55461957,22.635279 0.286141304,18.3680258 0.286141304,13.1026609 C0.286141304,7.83811159 4.55461957,3.57167382 9.81521739,3.57167382 C15.0782609,3.57248927 19.3459239,7.83811159 19.3459239,13.1026609 L19.3459239,13.1026609 Z"/>
        <polygon fill="#53266E" points="27.701 39.75 13.252 39.75 13.252 .21 27.701 5.31"/>
        <path fill="#53266E" d="M26.8524457,68.0126609 C26.8524457,71.4245064 24.0896739,74.190515 20.6755435,74.190515 C17.2654891,74.190515 14.5019022,71.423691 14.5019022,68.0126609 C14.5019022,64.6016309 17.2663043,61.8372532 20.6755435,61.8372532 C24.0904891,61.8372532 26.8524457,64.6024464 26.8524457,68.0126609 L26.8524457,68.0126609 Z"/>
      </g>
      <path fill="#936C8C" d="M4.46005435,68.4750215 C6.96766304,64.2248927 12.442663,62.8092704 16.6899457,65.3200429 C20.3339674,67.466309 21.8722826,71.8102146 20.6478261,75.6876824 L16.5252717,73.256824 C16.6149457,71.6650644 15.8535326,70.0839056 14.3918478,69.2138197 C12.2934783,67.9792275 9.59347826,68.6796996 8.35597826,70.7754077 C7.12173913,72.8760086 7.82119565,75.578412 9.91059783,76.808927 C11.3771739,77.6781974 13.1290761,77.5738197 14.4815217,76.7306438 L18.6,79.1663948 C15.8021739,82.1060944 11.2605978,82.8554936 7.61494565,80.7100429 C3.36603261,78.2041631 1.95570652,72.728412 4.46005435,68.4750215 L4.46005435,68.4750215 Z"/>
      <rect width="7.939" height="31.147" x="3.337" y="36.866" fill="#936C8C"/>
      <rect width="13.821" height="7.651" x=".396" y="42.747" fill="#53266E"/>
      <path fill="#936C8C" d="M8.55733696,13.1026609 C8.55733696,18.3680258 12.8217391,22.635279 18.082337,22.635279 C23.3478261,22.635279 27.6130435,18.3680258 27.6130435,13.1026609 C27.6130435,7.83811159 23.3478261,3.57167382 18.082337,3.57167382 C12.8225543,3.57248927 8.55733696,7.83811159 8.55733696,13.1026609 L8.55733696,13.1026609 Z"/>
      <polygon fill="#53266E" points=".198 39.75 14.648 39.75 14.648 .21 .198 5.31"/>
      <ellipse cx="7.224" cy="68.013" fill="#53266E" rx="6.174" ry="6.176"/>
    </g>
    <g fill="#656E7D" transform="translate(38.315 163.906)">
      <path d="M72.8967391 20.5827897C72.8967391 23.2476824 70.7168478 25.4290129 68.0543478 25.4290129L49.8782609 25.4290129C47.2149457 25.4290129 45.0358696 23.246867 45.0358696 20.5827897L45.0358696 5.40317597C45.0358696 2.73828326 47.2157609.55695279 49.8782609.55695279L68.0543478.55695279C70.717663.55695279 72.8967391 2.73909871 72.8967391 5.40317597L72.8967391 20.5827897 72.8967391 20.5827897zM28.5154891 20.5827897C28.5154891 23.2476824 26.3355978 25.4290129 23.6730978 25.4290129L5.49945652 25.4290129C2.83532609 25.4290129.657065217 23.246867.657065217 20.5827897L.657065217 5.40317597C.657065217 2.73828326 2.8361413.55695279 5.49945652.55695279L23.6730978.55695279C26.336413.55695279 28.5154891 2.73909871 28.5154891 5.40317597L28.5154891 20.5827897 28.5154891 20.5827897z"/>
    </g>
    <polygon fill="#2C003F" points="118.888 179.393 31.296 179.393 36.046 148.33 114.139 148.33"/>
    <rect width="58.567" height="9.136" x="45.808" y="65.198" fill="#936C8C"/>
    <rect width="66.404" height="39.299" x="41.89" y="28.269" fill="#53266E"/>
    <path fill="#D83B20" stroke="#FFFFFF" stroke-width="2.896" d="M84.0016304,44.3270815 C84.0016304,49.2507725 80.0119565,53.2391416 75.0880435,53.2391416 C70.1706522,53.2391416 66.180163,49.2507725 66.180163,44.3270815 C66.180163,39.4033906 70.1706522,35.4150215 75.0880435,35.4150215 C80.0119565,35.4158369 84.0016304,39.4033906 84.0016304,44.3270815 L84.0016304,44.3270815 Z"/>
    <rect width="18.734" height="5.856" x="65.724" y="58.459" fill="#C6E9FA" stroke="#6DCEF5" stroke-width="2.413"/>
    <polygon fill="#53266E" points="126.212 70.999 23.973 70.999 19.221 104.56 28.723 150.019 121.459 150.019 130.961 104.56"/>
    <rect width="72.508" height="14.433" x="38.838" y="90.17" fill="#C6E9FA" stroke="#6DCEF5" stroke-width="2.413"/>
    <g fill="#936C8C" transform="translate(48.913 115.794)">
      <rect width="51.808" height="3.544" x=".275" y=".77"/>
      <rect width="51.808" height="3.546" x=".275" y="8.68"/>
      <rect width="51.808" height="3.546" x=".275" y="16.59"/>
    </g>
  </g>
</svg>
