<svg xmlns="http://www.w3.org/2000/svg" width="149" height="278" viewBox="0 0 149 278">
  <g fill="none" fill-rule="evenodd">
    <path fill="#FAB510" d="M85.329,37.613 C86.152,37.713 86.897,37.127 86.997,36.301 L91.09,2.025 C91.19,1.202 90.601,0.455 89.778,0.359 C88.955,0.26 88.207,0.847 88.11,1.668 L84.018,35.947 C83.919,36.77 84.506,37.516 85.329,37.613"/>
    <path fill="#008485" d="M83.149 22.114C82.886 24.311 84.452 26.3 86.65 26.563 88.845 26.827 90.837 25.259 91.096 23.063 91.359 20.867 89.795 18.876 87.599 18.611 85.4 18.35 83.412 19.919 83.149 22.114M76.379 43.096C77.036 38.7 81.065 35.594 85.506 36.125 89.95 36.656 93.132 40.623 92.734 45.048L76.379 43.096"/>
    <path fill="#05B1B3" d="M148.395,215.084 C148.395,222.313 142.534,228.171 135.303,228.171 L13.115,228.171 C5.886,228.171 0.025,222.313 0.025,215.084 L0.025,166.209 C0.025,158.978 5.886,153.117 13.115,153.117 L135.303,153.117 C142.534,153.117 148.395,158.978 148.395,166.209 L148.395,215.084"/>
    <path fill="#FAB510" d="M133.56,263.957 C133.56,271.188 127.699,277.048 120.469,277.048 L35.809,277.048 C28.576,277.048 22.716,271.188 22.716,263.957 L22.716,254.791 C22.716,247.563 28.576,241.701 35.809,241.701 L120.469,241.701 C127.699,241.701 133.56,247.563 133.56,254.791 L133.56,263.957"/>
    <path fill="#231F1F" d="M52.826 259.375C52.826 264.434 48.725 268.537 43.662 268.537 38.601 268.537 34.499 264.434 34.499 259.375 34.499 254.313 38.601 250.209 43.662 250.209 48.725 250.209 52.826 254.313 52.826 259.375M87.3 259.375C87.3 264.434 83.198 268.537 78.136 268.537 73.075 268.537 68.974 264.434 68.974 259.375 68.974 254.313 73.075 250.209 78.136 250.209 83.198 250.209 87.3 254.313 87.3 259.375M121.774 259.375C121.774 264.434 117.673 268.537 112.61 268.537 107.55 268.537 103.447 264.434 103.447 259.375 103.447 254.313 107.55 250.209 112.61 250.209 117.673 250.209 121.774 254.313 121.774 259.375"/>
    <path fill="#FAB510" d="M103.884,203.956 C103.884,207.572 100.951,210.502 97.339,210.502 L51.081,210.502 C47.466,210.502 44.536,207.572 44.536,203.956 L44.536,177.336 C44.536,173.719 47.466,170.787 51.081,170.787 L97.339,170.787 C100.951,170.787 103.884,173.719 103.884,177.336 L103.884,203.956"/>
    <path fill="#05B1B3" d="M115.344,128.035 L115.344,84.325 C115.344,63.026 98.077,45.765 76.781,45.765 L71.636,45.765 C50.343,45.765 33.073,63.026 33.073,84.325 L33.073,128.035 L115.344,128.035"/>
    <polygon fill="#008485" points="45.953 148.098 102.465 148.098 102.465 134.35 45.953 134.35"/>
    <path fill="#231F1F" d="M64.386 86.901C64.386 94.729 58.038 101.078 50.208 101.078 42.38 101.078 36.032 94.729 36.032 86.901 36.032 79.07 42.38 72.722 50.208 72.722 58.038 72.722 64.386 79.07 64.386 86.901M101.593 92.238C101.593 101.639 93.973 109.258 84.574 109.258 75.174 109.258 67.555 101.639 67.555 92.238 67.555 82.838 75.174 75.222 84.574 75.222 93.973 75.222 101.593 82.838 101.593 92.238"/>
    <path fill="#FAB510" d="M28.935 84.927C23.173 85.935 18.788 90.935 18.788 96.983L18.788 105.167C18.788 111.217 23.173 116.215 28.935 117.225L28.935 84.927M118.612 84.927C124.371 85.935 128.758 90.935 128.758 96.983L128.758 105.167C128.758 111.217 124.371 116.215 118.612 117.225L118.612 84.927M54.938 84.927C54.938 87.54 52.821 89.655 50.208 89.655 47.597 89.655 45.48 87.54 45.48 84.927 45.48 82.313 47.597 80.197 50.208 80.197 52.821 80.197 54.938 82.313 54.938 84.927M91.125 92.238C91.125 95.759 88.278 98.604 84.759 98.604 81.243 98.604 78.393 95.759 78.393 92.238 78.393 88.721 81.243 85.872 84.759 85.872 88.278 85.872 91.125 88.721 91.125 92.238"/>
  </g>
</svg>
