<?xml version="1.0" encoding="UTF-8" standalone="no"?>
<svg width="294px" height="180px" viewBox="0 0 294 180" version="1.1" xmlns="http://www.w3.org/2000/svg" xmlns:xlink="http://www.w3.org/1999/xlink">
    <!-- Generator: Sketch 40.3 (33839) - http://www.bohemiancoding.com/sketch -->
    <title>Saturn</title>
    <desc>Created with Sketch.</desc>
    <defs></defs>
    <g id="Page-1" stroke="none" stroke-width="1" fill="none" fill-rule="evenodd">
        <g id="Design-Resources" transform="translate(-1685.000000, -549.000000)">
            <g id="Saturn" transform="translate(1685.000000, 549.000000)">
                <polyline id="Fill-27" fill="#1D9E90" points="134.454 44.715 128.569 38.599 120.196 39.98 124.194 32.493 120.293 24.958 128.649 26.446 134.611 20.409 135.777 28.814 143.363 32.618 135.728 36.324 134.454 44.715"></polyline>
                <path d="M204.025,28.179 C236.728,63.34 234.732,118.356 199.566,151.067 C164.4,183.766 109.384,181.769 76.679,146.607 C43.979,111.44 45.972,56.422 81.138,23.713 C116.298,-8.986 171.324,-6.993 204.025,28.179" id="Fill-103" fill="#CA94A9"></path>
                <path d="M222.825,114.983 C232.561,85.783 226.462,52.299 204.025,28.179 C171.324,-6.993 116.298,-8.986 81.138,23.713 C45.972,56.422 43.979,111.44 76.679,146.607 C86.27,156.918 97.784,164.378 110.152,168.947 C110.18,168.941 158.313,165.915 222.825,114.983" id="Fill-104" fill="#A2557B"></path>
                <path d="M81.138,23.713 C45.972,56.422 43.979,111.44 76.679,146.607 C78.149,148.184 79.662,149.696 81.22,151.134 C88.07,151.544 99.915,150.509 119.16,139.512 C138.72,128.334 141.429,125.176 170.367,111.006 C199.31,96.838 203.524,83.176 213.998,74.259 C218.762,70.198 221.976,66.586 224.071,63.844 C220.456,50.931 213.788,38.669 204.025,28.179 C171.324,-6.993 116.298,-8.986 81.138,23.713" id="Fill-105" fill="#CA94A9"></path>
                <path d="M81.138,23.713 C49.674,52.974 44.766,100.098 67.505,134.881 C77.678,131.796 143.348,109.363 204.265,28.441 L204.025,28.179 C171.324,-6.993 116.298,-8.986 81.138,23.713" id="Fill-106" fill="#A2557B"></path>
                <path d="M165.172,4.054 L165.179,4.049 C164.595,3.876 164.008,3.719 163.422,3.558 C162.693,3.358 161.961,3.169 161.227,2.989 C160.671,2.852 160.115,2.713 159.557,2.587 C159.032,2.468 158.506,2.362 157.98,2.253 C157.49,2.152 156.999,2.053 156.508,1.96 C155.967,1.858 155.426,1.762 154.883,1.67 C154.401,1.589 153.917,1.514 153.434,1.441 C152.889,1.358 152.344,1.274 151.798,1.202 C151.297,1.135 150.794,1.081 150.292,1.024 C149.353,0.916 148.414,0.824 147.472,0.747 C146.951,0.704 146.431,0.657 145.909,0.624 C145.363,0.589 144.817,0.567 144.271,0.542 C143.779,0.52 143.287,0.499 142.795,0.485 C142.248,0.469 141.701,0.46 141.154,0.455 C140.654,0.45 140.154,0.451 139.654,0.455 C139.119,0.459 138.584,0.463 138.049,0.477 C137.501,0.491 136.953,0.517 136.405,0.542 C135.721,0.573 135.038,0.608 134.354,0.655 C133.595,0.707 132.836,0.763 132.077,0.835 C131.595,0.88 131.113,0.939 130.631,0.993 C130.07,1.055 129.509,1.119 128.949,1.193 C128.458,1.257 127.969,1.328 127.479,1.401 C126.915,1.485 126.353,1.575 125.791,1.669 C125.32,1.749 124.849,1.828 124.379,1.916 C123.745,2.033 123.112,2.163 122.48,2.295 C122.089,2.377 121.697,2.452 121.307,2.539 C120.328,2.758 119.352,2.994 118.38,3.247 C118.014,3.342 117.65,3.449 117.284,3.549 C116.625,3.729 115.967,3.914 115.311,4.11 C114.899,4.234 114.489,4.364 114.079,4.493 C113.458,4.69 112.838,4.893 112.221,5.104 C111.823,5.239 111.425,5.375 111.028,5.517 C110.343,5.762 109.662,6.019 108.982,6.282 C108.668,6.403 108.353,6.518 108.041,6.643 C107.065,7.033 106.095,7.44 105.131,7.867 C104.899,7.97 104.669,8.081 104.438,8.186 C103.688,8.526 102.941,8.874 102.199,9.237 C101.86,9.403 101.523,9.575 101.185,9.746 C100.541,10.071 99.901,10.403 99.264,10.745 C98.922,10.928 98.581,11.113 98.241,11.301 C97.567,11.675 96.898,12.061 96.232,12.454 C95.955,12.617 95.677,12.775 95.402,12.941 C94.469,13.506 93.543,14.086 92.626,14.689 C92.515,14.762 92.406,14.841 92.295,14.915 C91.491,15.449 90.695,15.998 89.905,16.562 C89.615,16.769 89.328,16.983 89.041,17.194 C88.424,17.646 87.811,18.106 87.203,18.576 C86.895,18.814 86.588,19.055 86.283,19.298 C85.672,19.784 85.068,20.281 84.467,20.786 C84.2,21.01 83.93,21.231 83.665,21.46 C82.813,22.193 81.968,22.941 81.138,23.713 C80.418,24.383 79.714,25.062 79.022,25.75 C78.776,25.995 78.54,26.245 78.297,26.492 C77.858,26.938 77.419,27.385 76.992,27.839 C76.709,28.139 76.435,28.444 76.158,28.747 C75.783,29.156 75.409,29.566 75.043,29.981 C74.755,30.308 74.473,30.64 74.19,30.97 C73.849,31.369 73.51,31.768 73.178,32.171 C72.893,32.517 72.613,32.866 72.334,33.215 C72.017,33.612 71.703,34.011 71.394,34.412 C71.118,34.771 70.845,35.131 70.575,35.493 C70.278,35.892 69.985,36.294 69.694,36.698 C69.429,37.067 69.165,37.437 68.906,37.809 C68.623,38.215 68.347,38.625 68.073,39.035 C67.822,39.409 67.57,39.782 67.326,40.159 C67.053,40.581 66.788,41.007 66.523,41.433 C66.292,41.804 66.057,42.173 65.832,42.547 C65.557,43.004 65.294,43.465 65.028,43.925 C64.827,44.274 64.62,44.619 64.424,44.97 C64.036,45.664 63.661,46.364 63.294,47.067 C63.116,47.407 62.944,47.75 62.77,48.092 C62.471,48.684 62.172,49.277 61.886,49.874 C61.728,50.205 61.58,50.54 61.426,50.872 C61.189,51.385 60.952,51.897 60.725,52.414 C60.572,52.765 60.426,53.118 60.277,53.47 C60.063,53.977 59.85,54.483 59.646,54.993 C59.504,55.346 59.369,55.7 59.233,56.055 C59.033,56.572 58.836,57.091 58.647,57.612 C58.522,57.957 58.4,58.302 58.28,58.649 C58.091,59.19 57.907,59.733 57.729,60.277 C57.622,60.604 57.516,60.932 57.413,61.26 C57.231,61.84 57.057,62.421 56.887,63.003 C56.834,63.186 56.774,63.366 56.723,63.549 L56.731,63.547 C53.307,75.599 52.515,88.265 54.405,100.624 C54.422,100.616 96.763,82.223 129.137,51.97 C157.563,25.412 175.448,16.622 184.851,12.666 C178.612,8.945 171.994,6.079 165.172,4.054" id="Fill-107" fill="#CA94A9"></path>
                <path d="M59.552,55.218 C79.508,49.058 107.479,35.688 142.6,0.468 C120.652,-0.101 98.478,7.588 81.138,23.713 C71.372,32.795 64.166,43.601 59.552,55.218" id="Fill-108" fill="#A2557B"></path>
                <path d="M59.505,118.703 C59.505,118.703 12.5,150.351 15.66,163.294 C18.815,176.236 99.632,140.375 150.17,111.075 C200.706,81.775 255.492,44.796 267.68,21.615 C278.764,0.559 208.057,33.234 208.057,33.234 L204.611,29.166 C204.611,29.166 261.451,-1.005 287.656,4.75 C310.548,9.777 259.356,59.581 157.017,119.398 C79.336,164.801 0.5,194.629 0.062,171.176 C-0.393,146.468 57.602,113.272 57.602,113.272 L59.505,118.703" id="Fill-109" fill="#14A74A"></path>
            </g>
        </g>
    </g>
</svg>