<?xml version="1.0" encoding="UTF-8" standalone="no"?>
<svg width="215px" height="379px" viewBox="0 0 215 379" version="1.1" xmlns="http://www.w3.org/2000/svg" xmlns:xlink="http://www.w3.org/1999/xlink">
    <!-- Generator: Sketch 40.3 (33839) - http://www.bohemiancoding.com/sketch -->
    <title>Sleep GloBot</title>
    <desc>Created with Sketch.</desc>
    <defs>
        <ellipse id="path-1" cx="80.9990205" cy="55.7887115" rx="26.5" ry="22.5"></ellipse>
        <filter x="-50%" y="-50%" width="200%" height="200%" filterUnits="objectBoundingBox" id="filter-2">
            <feGaussianBlur stdDeviation="0 0" in="SourceGraphic"></feGaussianBlur>
        </filter>
        <filter x="-50%" y="-50%" width="200%" height="200%" filterUnits="objectBoundingBox" id="filter-3">
            <feOffset dx="0" dy="2" in="SourceAlpha" result="shadowOffsetOuter1"></feOffset>
            <feGaussianBlur stdDeviation="2" in="shadowOffsetOuter1" result="shadowBlurOuter1"></feGaussianBlur>
            <feColorMatrix values="0 0 0 0 0   0 0 0 0 0   0 0 0 0 0  0 0 0 0.5 0" type="matrix" in="shadowBlurOuter1"></feColorMatrix>
        </filter>
        <ellipse id="path-4" cx="33.9626124" cy="30.9760147" rx="26.5" ry="22.5"></ellipse>
        <filter x="-50%" y="-50%" width="200%" height="200%" filterUnits="objectBoundingBox" id="filter-5">
            <feGaussianBlur stdDeviation="0 0" in="SourceGraphic"></feGaussianBlur>
        </filter>
        <filter x="-50%" y="-50%" width="200%" height="200%" filterUnits="objectBoundingBox" id="filter-6">
            <feOffset dx="0" dy="2" in="SourceAlpha" result="shadowOffsetOuter1"></feOffset>
            <feGaussianBlur stdDeviation="2" in="shadowOffsetOuter1" result="shadowBlurOuter1"></feGaussianBlur>
            <feColorMatrix values="0 0 0 0 0   0 0 0 0 0   0 0 0 0 0  0 0 0 0.5 0" type="matrix" in="shadowBlurOuter1"></feColorMatrix>
        </filter>
    </defs>
    <g id="GloBot" stroke="none" stroke-width="1" fill="none" fill-rule="evenodd">
        <g id="Sleep-GloBot">
            <g id="Sleeping-GloBot">
                <path d="M179.448,52.4958081 L166.6,41.4928081 C162.255,37.7698081 155.72,38.2748081 152,42.6208081 L180.576,67.0938081 C184.297,62.7498081 183.791,56.2128081 179.448,52.4958081" id="Fill-56" fill="#231F1F"></path>
                <polyline id="Fill-57" fill="#231F1F" points="169 41.295 200.513 11 205.241 13.727 181.172 52.646 169 41.295"></polyline>
                <path d="M211.328553,15.0468077 C207.772553,18.2058077 202.329553,17.8828077 199.172553,14.3268077 C196.014553,10.7708077 196.337553,5.32980771 199.892553,2.17080771 C203.447553,-0.984192289 208.890553,-0.663192289 212.047553,2.89280771 C215.204553,6.44880771 214.883553,11.8908077 211.328553,15.0468077" id="Fill-58" fill="#FFF20D"></path>
                <path d="M156.746,239.374 C156.746,272.164 130.165,298.747 97.373,298.747 C64.582,298.747 38,272.164 38,239.374 C38,206.583 64.582,180 97.373,180 C130.165,180 156.746,206.583 156.746,239.374" id="Fill-59" fill="#7FC4EC"></path>
                <path d="M79.403,318.223 C79.403,321.083 77.083,323.401 74.224,323.401 L63.179,323.401 C60.32,323.401 58,321.083 58,318.223 L58,307.177 C58,304.318 60.32,302 63.179,302 L74.224,302 C77.083,302 79.403,304.318 79.403,307.177 L79.403,318.223" id="Fill-60" fill="#7FC4EC"></path>
                <path d="M137.401,318.223 C137.401,321.083 135.083,323.401 132.224,323.401 L121.177,323.401 C118.318,323.401 116,321.083 116,318.223 L116,307.177 C116,304.318 118.318,302 121.177,302 L132.224,302 C135.083,302 137.401,304.318 137.401,307.177 L137.401,318.223" id="Fill-61" fill="#7FC4EC"></path>
                <polyline id="Fill-62" fill="#231F1F" points="116.579 176.114 85.171 176.595 85 165.481 116.409 165 116.579 176.114"></polyline>
                <path d="M37.5992742,225.73737 C37.0172742,227.51337 35.1052742,228.47837 33.3302742,227.89537 C31.5542742,227.31537 30.5872742,225.40237 31.1692742,223.62637 L36.5122742,207.32937 C37.0942742,205.55637 39.0062742,204.58937 40.7812742,205.16737 C42.5572742,205.75237 43.5262742,207.66137 42.9432742,209.43937 L37.5992742,225.73737" id="Fill-63" fill="#231F1F"></path>
                <polyline id="Fill-64" fill="#231F1F" points="12.295 257.878 2 229.219 17.904 206 39.416 213.131 36.809 220.995 21.215 215.826 11.23 230.404 20.093 255.078 12.295 257.878"></polyline>
                <path d="M26.498,210.249 C26.498,214.253 23.253,217.498 19.249,217.498 C15.245,217.498 12,214.253 12,210.249 C12,206.244 15.245,203 19.249,203 C23.253,203 26.498,206.244 26.498,210.249" id="Fill-65" fill="#231F1F"></path>
                <path d="M13.981,229.99 C13.981,233.851 10.851,236.98 6.99,236.98 C3.13,236.98 0,233.851 0,229.99 C0,226.129 3.13,223 6.99,223 C10.851,223 13.981,226.129 13.981,229.99" id="Fill-66" fill="#231F1F"></path>
                <path d="M30.4466049,259.533419 C30.4206049,259.446419 30.4186049,259.357419 30.3896049,259.266419 C28.3326049,252.974419 21.5616049,249.539419 15.2666049,251.596419 C8.97260491,253.656419 5.53960491,260.425419 7.59660491,266.719419 C7.62560491,266.810419 7.67660491,266.883419 7.70660491,266.968419 L30.4466049,259.533419" id="Fill-67" fill="#231F1F"></path>
                <path d="M156.513173,225.73737 C157.094173,227.51337 159.007173,228.47837 160.783173,227.89537 C162.558173,227.31537 163.527173,225.40237 162.944173,223.62637 L157.600173,207.32937 C157.018173,205.55637 155.107173,204.58937 153.331173,205.16737 C151.555173,205.75237 150.587173,207.66137 151.169173,209.43937 L156.513173,225.73737" id="Fill-68" fill="#231F1F"></path>
                <polyline id="Fill-69" fill="#231F1F" points="182.12 257.878 192.416 229.219 176.512 206 155 213.131 157.606 220.995 173.201 215.826 183.186 230.404 174.323 255.078 182.12 257.878"></polyline>
                <path d="M167,210.249 C167,214.253 170.246,217.498 174.249,217.498 C178.253,217.498 181.498,214.253 181.498,210.249 C181.498,206.244 178.253,203 174.249,203 C170.246,203 167,206.244 167,210.249" id="Fill-70" fill="#231F1F"></path>
                <path d="M181,229.99 C181,233.851 184.13,236.98 187.991,236.98 C191.851,236.98 194.98,233.851 194.98,229.99 C194.98,226.129 191.851,223 187.991,223 C184.13,223 181,226.129 181,229.99" id="Fill-71" fill="#231F1F"></path>
                <path d="M164,259.533419 C164.027,259.446419 164.03,259.357419 164.059,259.266419 C166.117,252.974419 172.886,249.539419 179.181,251.596419 C185.476,253.656419 188.909,260.425419 186.851,266.719419 C186.822,266.810419 186.772,266.883419 186.743,266.968419 L164,259.533419" id="Fill-72" fill="#231F1F"></path>
                <path d="M105.118,207.559 C105.118,211.181 102.18,214.118 98.558,214.118 C94.936,214.118 92,211.181 92,207.559 C92,203.937 94.936,201 98.558,201 C102.18,201 105.118,203.937 105.118,207.559" id="Fill-73" fill="#231F1F"></path>
                <path d="M105.118,240.559 C105.118,244.182 102.18,247.118 98.558,247.118 C94.936,247.118 92,244.182 92,240.559 C92,236.937 94.936,234 98.558,234 C102.18,234 105.118,236.937 105.118,240.559" id="Fill-74" fill="#231F1F"></path>
                <path d="M105.118,272.559 C105.118,276.182 102.18,279.118 98.558,279.118 C94.936,279.118 92,276.182 92,272.559 C92,268.936 94.936,266 98.558,266 C102.18,266 105.118,268.936 105.118,272.559" id="Fill-75" fill="#231F1F"></path>
                <polyline id="Fill-76" fill="#7FC4EC" points="7 52.666 64.993 163.126 139.553 163.126 180.976 71.996 146.459 43 7 52.666"></polyline>
                <path d="M93.853,90.426 C93.853,103.365 83.364,113.852 70.427,113.852 C57.489,113.852 47,103.365 47,90.426 C47,77.489 57.489,67 70.427,67 C83.364,67 93.853,77.489 93.853,90.426" id="Fill-77" fill="#FFFFFF"></path>
                <path d="M138.853,114.426 C138.853,127.365 128.364,137.852 115.428,137.852 C102.488,137.852 92,127.365 92,114.426 C92,101.489 102.488,91 115.428,91 C128.364,91 138.853,101.489 138.853,114.426" id="Fill-78" fill="#FFFFFF"></path>
                <path d="M77.926,90.965 C77.926,96.467 73.465,100.929 67.962,100.929 C62.46,100.929 58,96.467 58,90.965 C58,85.462 62.46,81 67.962,81 C73.465,81 77.926,85.462 77.926,90.965" id="Fill-79" fill="#231F1F"></path>
                <path d="M125.928,113.965 C125.928,119.467 121.466,123.928 115.964,123.928 C110.461,123.928 106,119.467 106,113.965 C106,108.462 110.461,104 115.964,104 C121.466,104 125.928,108.462 125.928,113.965" id="Fill-80" fill="#231F1F"></path>
                <polygon id="Fill-81" fill="#231F1F" points="81.1473645 142.551329 77.221474 146.220106 89.559 144.439398 66 129"></polygon>
                <g id="Sleepy-Eyelids" transform="translate(40.000000, 56.000000)">
                    <g id="Oval-4-Copy-2" filter="url(#filter-2)" transform="translate(80.999020, 55.788711) rotate(22.000000) translate(-80.999020, -55.788711) ">
                        <use fill="black" fill-opacity="1" filter="url(#filter-3)" xlink:href="#path-1"></use>
                        <use fill="#7FC4EC" fill-rule="evenodd" xlink:href="#path-1"></use>
                    </g>
                    <g id="Oval-4-Copy-3" filter="url(#filter-5)" transform="translate(33.962612, 30.976015) rotate(22.000000) translate(-33.962612, -30.976015) ">
                        <use fill="black" fill-opacity="1" filter="url(#filter-6)" xlink:href="#path-4"></use>
                        <use fill="#7FC4EC" fill-rule="evenodd" xlink:href="#path-4"></use>
                    </g>
                </g>
            </g>
            <g id="Red-Blanket" transform="translate(13.000000, 162.000000)">
                <path d="M33.9977397,0.194877828 C66.5919178,8.01266063 121.347991,19.7393348 136.993196,26.2541538 C152.638402,32.7679005 163.068539,31.4638643 164.372306,62.7360679 C166.97984,97.9160905 186.536347,113.551656 186.536347,140.912824 C187.840114,152.638425 189.143881,169.576955 189.143881,169.576955 C151.334635,160.456208 58.7693151,142.21686 18.3525342,161.759172 C15.745,123.974294 -5.11420091,58.8261041 1.40356164,40.5846109 C7.92239726,22.3452624 24.8713699,1.49784163 33.9977397,0.194877828 L33.9977397,0.194877828 Z" id="Fill-1" fill="#D0011B"></path>
                <path d="M33.9977397,0.194877828 C66.5919178,8.01266063 121.347991,19.7393348 136.993196,26.2541538 C152.638402,32.7679005 163.068539,31.4638643 164.372306,62.7360679 C166.97984,97.9160905 186.536347,113.551656 186.536347,140.912824 C187.840114,152.638425 189.143881,169.576955 189.143881,169.576955 C151.334635,160.456208 58.7693151,142.21686 18.3525342,161.759172 C15.745,123.974294 -5.11420091,58.8261041 1.40356164,40.5846109 C7.92239726,22.3452624 24.8713699,1.49784163 33.9977397,0.194877828 L33.9977397,0.194877828 Z" id="Stroke-2" stroke="#000000" stroke-width="3.645"></path>
                <path d="M19.1573288,13.4979774 C17.8535616,44.7680362 37.9090411,127.884258 35.3015068,156.547317" id="Stroke-3" stroke="#000000" stroke-width="2.43"></path>
                <path d="M37.1042466,2.35039819 C32.5813014,40.8580724 57.4655479,123.974294 54.8580137,152.638425 M78.3258219,11.1976833 C77.0220548,42.4666697 97.8823288,123.974294 95.2747945,152.638425" id="Stroke-4" stroke="#000000" stroke-width="4.5"></path>
                <path d="M97.4799315,15.2749412 C96.1761644,46.545 117.436689,129.186149 114.831301,157.850281" id="Stroke-5" stroke="#000000" stroke-width="2.43"></path>
                <path d="M116.631895,20.238 C115.330274,51.5069864 136.993196,129.186149 134.385662,157.850281" id="Stroke-6" stroke="#000000" stroke-width="4.5"></path>
                <path d="M144.622648,29.1657149 C153.749018,87.7980136 174.609292,100.826579 170.697991,164.670733" id="Stroke-7" stroke="#000000" stroke-width="2.43"></path>
                <path d="M6.77100457,86.1894163 C25.0237443,75.1136878 53.055274,60.781086 97.3833562,72.5077602 C146.141027,85.4065656 162.54274,90.0972353 170.392169,90.0972353" id="Stroke-8" stroke="#000000" stroke-width="4.5"></path>
                <path d="M2.05490868,66.6438869 C20.3076484,55.5692308 48.3391781,41.236629 92.6672603,52.9633032 C136.993196,64.6899774 152.638402,69.9018326 165.024726,69.9018326 M5.96621005,93.355181 C24.2189498,82.2794525 52.2504795,67.9468507 96.5785616,79.6735249 C143.346781,92.0479276 163.068539,97.2640724 172.847329,97.2640724" id="Stroke-9" stroke="#000000" stroke-width="2.43"></path>
                <path d="M11.334726,115.618167 C29.5874658,104.542439 57.6179224,90.2109095 101.946005,101.937584 C148.714224,114.308769 171.695936,119.527059 181.474726,119.527059" id="Stroke-10" stroke="#000000" stroke-width="4.5"></path>
                <path d="M13.1374658,123.323348 C31.3902055,112.24762 59.4206621,97.9160905 103.748744,109.642765 C150.516963,122.01395 174.151096,127.23224 183.928813,127.23224" id="Stroke-11" stroke="#000000" stroke-width="2.43"></path>
                <path d="M17.7001142,141.564842 C35.9528539,130.490186 63.9843836,116.157584 108.312466,127.884258 C155.080685,140.255443 176.10621,145.473733 185.885,145.473733" id="Stroke-12" stroke="#000000" stroke-width="4.5"></path>
                <path d="M189.143881,169.576955 C151.334635,160.456208 58.7693151,142.21686 18.3525342,161.759172 C20.9600685,181.303629 19.6563014,199.545122 19.6563014,199.545122 L23.5676027,203.454014 C23.5676027,203.454014 25.5227169,187.818448 24.2189498,180.000665 C24.8713699,194.333267 24.2189498,198.894176 24.2189498,198.894176 L29.4340183,197.59014 C29.4340183,197.591213 29.4340183,174.78881 28.1302511,168.926009 L29.4340183,191.075321 L34.6490868,194.333267 L32.6939726,163.062136 L35.3015068,204.756977 L40.5165753,202.801995 L38.5603881,165.016045 L39.8641553,193.030303 L44.4278767,193.681249 L43.1241096,168.926009 L45.0792237,200.196068 L48.9905251,203.454014 L47.686758,160.456208 L48.9905251,193.681249 L54.2055936,193.681249 L52.9018265,160.456208 L54.2055936,200.848086 L58.116895,199.545122 L57.4655479,166.320081 L58.116895,191.075321 L63.9843836,195.636231 L63.9843836,163.062136 L63.9843836,186.515484 L69.8507991,193.681249 L68.547032,163.713081 L70.5032192,200.196068 L76.3696347,205.407923 L75.7182877,159.80419 L76.3696347,196.287176 L80.2809361,198.242158 L80.9333562,165.016045 L80.2809361,192.378285 L86.7997717,198.242158 L85.4960046,162.410118 L86.7997717,200.848086 L92.6672603,202.15105 L92.6672603,165.668063 L92.6672603,202.15105 L98.5336758,202.801995 L98.5336758,161.107154 L98.5336758,198.242158 L102.444977,195.636231 L102.444977,167.621973 L102.444977,188.469394 L107.008699,193.681249 L107.008699,163.713081 L107.008699,206.711959 L111.571347,211.922742 L111.571347,169.576955 L111.571347,206.059941 L116.135068,208.665869 L116.135068,170.879919 L116.135068,204.106032 L122.000411,201.499032 L122.000411,163.713081 L122.000411,212.57476 L128.518174,209.968833 L128.518174,167.621973 L128.518174,202.15105 L131.778128,204.756977 L131.778128,165.016045 L131.778128,207.362905 L137.645616,208.013851 L137.645616,170.2279 L137.645616,204.106032 L143.512032,205.407923 L143.512032,168.273991 L143.512032,207.362905 L150.030868,209.317887 L150.030868,166.971027 L150.030868,206.059941 L155.898356,206.059941 L155.898356,172.833828 L155.898356,208.665869 L161.112352,208.665869 L161.112352,172.833828 L161.112352,205.407923 L166.97984,209.317887 L166.97984,174.78881 L167.63226,211.922742 L171.542489,208.013851 L172.847329,176.742719 L172.194909,204.756977 L178.713744,209.317887 L177.409977,173.485846 L179.366164,215.180688 L183.602603,210.944715 L181.972626,176.091774 L183.928813,206.711959 L189.143881,209.317887 L189.143881,169.576955 L189.143881,169.576955 Z" id="Fill-13" fill="#FFFFFF"></path>
                <path d="M189.143881,169.576955 C151.334635,160.456208 58.7693151,142.21686 18.3525342,161.759172 C20.9600685,181.303629 19.6563014,199.545122 19.6563014,199.545122 L23.5676027,203.454014 C23.5676027,203.454014 25.5227169,187.818448 24.2189498,180.000665 C24.8713699,194.333267 24.2189498,198.894176 24.2189498,198.894176 L29.4340183,197.59014 C29.4340183,197.591213 29.4340183,174.78881 28.1302511,168.926009 L29.4340183,191.075321 L34.6490868,194.333267 L32.6939726,163.062136 L35.3015068,204.756977 L40.5165753,202.801995 L38.5603881,165.016045 L39.8641553,193.030303 L44.4278767,193.681249 L43.1241096,168.926009 L45.0792237,200.196068 L48.9905251,203.454014 L47.686758,160.456208 L48.9905251,193.681249 L54.2055936,193.681249 L52.9018265,160.456208 L54.2055936,200.848086 L58.116895,199.545122 L57.4655479,166.320081 L58.116895,191.075321 L63.9843836,195.636231 L63.9843836,163.062136 L63.9843836,186.515484 L69.8507991,193.681249 L68.547032,163.713081 L70.5032192,200.196068 L76.3696347,205.407923 L75.7182877,159.80419 L76.3696347,196.287176 L80.2809361,198.242158 L80.9333562,165.016045 L80.2809361,192.378285 L86.7997717,198.242158 L85.4960046,162.410118 L86.7997717,200.848086 L92.6672603,202.15105 L92.6672603,165.668063 L92.6672603,202.15105 L98.5336758,202.801995 L98.5336758,161.107154 L98.5336758,198.242158 L102.444977,195.636231 L102.444977,167.621973 L102.444977,188.469394 L107.008699,193.681249 L107.008699,163.713081 L107.008699,206.711959 L111.571347,211.922742 L111.571347,169.576955 L111.571347,206.059941 L116.135068,208.665869 L116.135068,170.879919 L116.135068,204.106032 L122.000411,201.499032 L122.000411,163.713081 L122.000411,212.57476 L128.518174,209.968833 L128.518174,167.621973 L128.518174,202.15105 L131.778128,204.756977 L131.778128,165.016045 L131.778128,207.362905 L137.645616,208.013851 L137.645616,170.2279 L137.645616,204.106032 L143.512032,205.407923 L143.512032,168.273991 L143.512032,207.362905 L150.030868,209.317887 L150.030868,166.971027 L150.030868,206.059941 L155.898356,206.059941 L155.898356,172.833828 L155.898356,208.665869 L161.112352,208.665869 L161.112352,172.833828 L161.112352,205.407923 L166.97984,209.317887 L166.97984,174.78881 L167.63226,211.922742 L171.542489,208.013851 L172.847329,176.742719 L172.194909,204.756977 L178.713744,209.317887 L177.409977,173.485846 L179.366164,215.180688 L183.602603,210.944715 L181.972626,176.091774 L183.928813,206.711959 L189.143881,209.317887 L189.143881,169.576955 L189.143881,169.576955 Z" id="Stroke-14" stroke="#000000" stroke-width="2.43" stroke-linecap="round" stroke-linejoin="round" fill="#D0011B"></path>
                <path d="M1.25011416,58.6009005 C19.5028539,47.5262443 47.5343836,33.1936425 91.8624658,44.9203167 C136.188402,56.646991 151.833607,61.8588462 164.219932,61.8588462" id="Stroke-15" stroke="#000000" stroke-width="4.5"></path>
                <path d="M18.5049087,148.803529 C36.7576484,137.728873 64.7891781,123.396271 109.11726,135.122946 C155.885479,147.494131 176.911005,152.712421 186.689795,152.712421" id="Stroke-16" stroke="#000000" stroke-width="2.43"></path>
                <path d="M137.379498,27.5571176 C146.505868,86.1894163 165.756553,100.022281 161.845251,163.866434" id="Stroke-17" stroke="#000000" stroke-width="4.5"></path>
                <path d="M3.66449772,36.4826878 C20.7100457,27.8209276 48.3391781,12.2818778 92.6672603,24.008552 C130.835982,34.1062534 147.73774,39.3728009 159.605776,40.641448" id="Stroke-18" stroke="#000000" stroke-width="2.43"></path>
                <path d="M8.88815068,25.2214344 C27.0754338,15.282448 53.3031507,5.76491403 91.8624658,15.9655656 C119.897215,23.3822715 136.459886,28.1930498 147.980251,30.7271267" id="Stroke-19" stroke="#000000" stroke-width="4.5"></path>
            </g>
        </g>
    </g>
</svg>