<?xml version="1.0" encoding="UTF-8" standalone="no"?>
<svg width="215px" height="324px" viewBox="0 0 215 324" version="1.1" xmlns="http://www.w3.org/2000/svg" xmlns:xlink="http://www.w3.org/1999/xlink">
    <!-- Generator: Sketch 40.3 (33839) - http://www.bohemiancoding.com/sketch -->
    <title>Surprised GloBot</title>
    <desc>Created with Sketch.</desc>
    <defs></defs>
    <g id="GloBot" stroke="none" stroke-width="1" fill="none" fill-rule="evenodd">
        <g id="Surprised-GloBot">
            <path d="M179.448,52.4958081 L166.6,41.4928081 C162.255,37.7698081 155.72,38.2748081 152,42.6208081 L180.576,67.0938081 C184.297,62.7498081 183.791,56.2128081 179.448,52.4958081" id="Fill-56" fill="#231F1F"></path>
            <polyline id="Fill-57" fill="#231F1F" points="169 41.295 200.513 11 205.241 13.727 181.172 52.646 169 41.295"></polyline>
            <path d="M211.328553,15.0468077 C207.772553,18.2058077 202.329553,17.8828077 199.172553,14.3268077 C196.014553,10.7708077 196.337553,5.32980771 199.892553,2.17080771 C203.447553,-0.984192289 208.890553,-0.663192289 212.047553,2.89280771 C215.204553,6.44880771 214.883553,11.8908077 211.328553,15.0468077" id="Fill-58" fill="#231F1F"></path>
            <path d="M156.746,239.374 C156.746,272.164 130.165,298.747 97.373,298.747 C64.582,298.747 38,272.164 38,239.374 C38,206.583 64.582,180 97.373,180 C130.165,180 156.746,206.583 156.746,239.374" id="Fill-59" fill="#7FC4EC"></path>
            <path d="M79.403,318.223 C79.403,321.083 77.083,323.401 74.224,323.401 L63.179,323.401 C60.32,323.401 58,321.083 58,318.223 L58,307.177 C58,304.318 60.32,302 63.179,302 L74.224,302 C77.083,302 79.403,304.318 79.403,307.177 L79.403,318.223" id="Fill-60" fill="#7FC4EC"></path>
            <path d="M137.401,318.223 C137.401,321.083 135.083,323.401 132.224,323.401 L121.177,323.401 C118.318,323.401 116,321.083 116,318.223 L116,307.177 C116,304.318 118.318,302 121.177,302 L132.224,302 C135.083,302 137.401,304.318 137.401,307.177 L137.401,318.223" id="Fill-61" fill="#7FC4EC"></path>
            <polyline id="Fill-62" fill="#231F1F" points="116.579 176.114 85.171 176.595 85 165.481 116.409 165 116.579 176.114"></polyline>
            <path d="M37.5992742,225.73737 C37.0172742,227.51337 35.1052742,228.47837 33.3302742,227.89537 C31.5542742,227.31537 30.5872742,225.40237 31.1692742,223.62637 L36.5122742,207.32937 C37.0942742,205.55637 39.0062742,204.58937 40.7812742,205.16737 C42.5572742,205.75237 43.5262742,207.66137 42.9432742,209.43937 L37.5992742,225.73737" id="Fill-63" fill="#231F1F"></path>
            <polyline id="Fill-64" fill="#231F1F" points="12.295 257.878 2 229.219 17.904 206 39.416 213.131 36.809 220.995 21.215 215.826 11.23 230.404 20.093 255.078 12.295 257.878"></polyline>
            <path d="M26.498,210.249 C26.498,214.253 23.253,217.498 19.249,217.498 C15.245,217.498 12,214.253 12,210.249 C12,206.244 15.245,203 19.249,203 C23.253,203 26.498,206.244 26.498,210.249" id="Fill-65" fill="#231F1F"></path>
            <path d="M13.981,229.99 C13.981,233.851 10.851,236.98 6.99,236.98 C3.13,236.98 0,233.851 0,229.99 C0,226.129 3.13,223 6.99,223 C10.851,223 13.981,226.129 13.981,229.99" id="Fill-66" fill="#231F1F"></path>
            <path d="M30.4466049,259.533419 C30.4206049,259.446419 30.4186049,259.357419 30.3896049,259.266419 C28.3326049,252.974419 21.5616049,249.539419 15.2666049,251.596419 C8.97260491,253.656419 5.53960491,260.425419 7.59660491,266.719419 C7.62560491,266.810419 7.67660491,266.883419 7.70660491,266.968419 L30.4466049,259.533419" id="Fill-67" fill="#231F1F"></path>
            <path d="M156.513173,225.73737 C157.094173,227.51337 159.007173,228.47837 160.783173,227.89537 C162.558173,227.31537 163.527173,225.40237 162.944173,223.62637 L157.600173,207.32937 C157.018173,205.55637 155.107173,204.58937 153.331173,205.16737 C151.555173,205.75237 150.587173,207.66137 151.169173,209.43937 L156.513173,225.73737" id="Fill-68" fill="#231F1F"></path>
            <polyline id="Fill-69" fill="#231F1F" points="182.12 257.878 192.416 229.219 176.512 206 155 213.131 157.606 220.995 173.201 215.826 183.186 230.404 174.323 255.078 182.12 257.878"></polyline>
            <path d="M167,210.249 C167,214.253 170.246,217.498 174.249,217.498 C178.253,217.498 181.498,214.253 181.498,210.249 C181.498,206.244 178.253,203 174.249,203 C170.246,203 167,206.244 167,210.249" id="Fill-70" fill="#231F1F"></path>
            <path d="M181,229.99 C181,233.851 184.13,236.98 187.991,236.98 C191.851,236.98 194.98,233.851 194.98,229.99 C194.98,226.129 191.851,223 187.991,223 C184.13,223 181,226.129 181,229.99" id="Fill-71" fill="#231F1F"></path>
            <path d="M164,259.533419 C164.027,259.446419 164.03,259.357419 164.059,259.266419 C166.117,252.974419 172.886,249.539419 179.181,251.596419 C185.476,253.656419 188.909,260.425419 186.851,266.719419 C186.822,266.810419 186.772,266.883419 186.743,266.968419 L164,259.533419" id="Fill-72" fill="#231F1F"></path>
            <path d="M105.118,207.559 C105.118,211.181 102.18,214.118 98.558,214.118 C94.936,214.118 92,211.181 92,207.559 C92,203.937 94.936,201 98.558,201 C102.18,201 105.118,203.937 105.118,207.559" id="Fill-73" fill="#231F1F"></path>
            <path d="M105.118,240.559 C105.118,244.182 102.18,247.118 98.558,247.118 C94.936,247.118 92,244.182 92,240.559 C92,236.937 94.936,234 98.558,234 C102.18,234 105.118,236.937 105.118,240.559" id="Fill-74" fill="#231F1F"></path>
            <path d="M105.118,272.559 C105.118,276.182 102.18,279.118 98.558,279.118 C94.936,279.118 92,276.182 92,272.559 C92,268.936 94.936,266 98.558,266 C102.18,266 105.118,268.936 105.118,272.559" id="Fill-75" fill="#231F1F"></path>
            <polyline id="Fill-76" fill="#7FC4EC" points="7 52.666 64.993 163.126 139.553 163.126 180.976 71.996 146.459 43 7 52.666"></polyline>
            <path d="M93.853,90.426 C93.853,103.365 83.364,113.852 70.427,113.852 C57.489,113.852 47,103.365 47,90.426 C47,77.489 57.489,67 70.427,67 C83.364,67 93.853,77.489 93.853,90.426" id="Fill-77" fill="#FFFFFF"></path>
            <path d="M138.853,114.426 C138.853,127.365 128.364,137.852 115.428,137.852 C102.488,137.852 92,127.365 92,114.426 C92,101.489 102.488,91 115.428,91 C128.364,91 138.853,101.489 138.853,114.426" id="Fill-78" fill="#FFFFFF"></path>
            <path d="M77.926,90.965 C77.926,96.467 73.465,100.929 67.962,100.929 C62.46,100.929 58,96.467 58,90.965 C58,85.462 62.46,81 67.962,81 C73.465,81 77.926,85.462 77.926,90.965" id="Fill-79" fill="#231F1F"></path>
            <path d="M85.2201458,142.047609 C85.2201458,149.80375 81.364928,156.093808 76.6092087,156.093808 C71.8543536,156.093808 68,149.80375 68,142.047609 C68,134.290058 71.8543536,128 76.6092087,128 C81.364928,128 85.2201458,134.290058 85.2201458,142.047609" id="Fill-79-Copy" fill="#231F1F"></path>
            <path d="M125.928,113.965 C125.928,119.467 121.466,123.928 115.964,123.928 C110.461,123.928 106,119.467 106,113.965 C106,108.462 110.461,104 115.964,104 C121.466,104 125.928,108.462 125.928,113.965" id="Fill-80" fill="#231F1F"></path>
        </g>
    </g>
</svg>