<?xml version="1.0" encoding="UTF-8" standalone="no"?>
<svg width="349px" height="539px" viewBox="0 0 349 539" version="1.1" xmlns="http://www.w3.org/2000/svg" xmlns:xlink="http://www.w3.org/1999/xlink">
    <!-- Generator: Sketch 40.3 (33839) - http://www.bohemiancoding.com/sketch -->
    <title>Surprised GloBot</title>
    <desc>Created with Sketch.</desc>
    <defs></defs>
    <g id="Story-Boards" stroke="none" stroke-width="1" fill="none" fill-rule="evenodd">
        <g id="Surprised-GloBot" transform="translate(-14.000000, 0.000000)">
            <path d="M304.801786,87.4930135 L283.408372,69.1546802 C276.173442,62.9496802 265.291907,63.7913468 259.097674,71.0346802 L306.680037,111.823013 C312.875935,104.583013 312.033386,93.6880135 304.801786,87.4930135" id="Fill-56" fill="#231F1F"></path>
            <polyline id="Fill-57" fill="#231F1F" points="287.404651 68.825 339.87746 18.3333333 347.75013 22.8783333 307.672447 87.7433333 287.404651 68.825"></polyline>
            <path d="M357.886613,25.0780129 C351.96546,30.3430129 342.902232,29.8046795 337.64546,23.8780129 C332.387023,17.9513462 332.924855,8.88301285 338.844344,3.61801285 C344.763832,-1.64032048 353.82706,-1.10532048 359.083832,4.82134619 C364.340604,10.7480129 363.806102,19.8180129 357.886613,25.0780129" id="Fill-58" fill="#231F1F"></path>
            <path d="M267.000316,398.956667 C267.000316,453.606667 222.73986,497.911667 168.137367,497.911667 C113.53654,497.911667 69.2744186,453.606667 69.2744186,398.956667 C69.2744186,344.305 113.53654,300 168.137367,300 C222.73986,300 267.000316,344.305 267.000316,398.956667" id="Fill-59" fill="#7FC4EC"></path>
            <path d="M138.215228,530.371667 C138.215228,535.138333 134.352158,539.001667 129.591591,539.001667 L111.200381,539.001667 C106.439814,539.001667 102.576744,535.138333 102.576744,530.371667 L102.576744,511.961667 C102.576744,507.196667 106.439814,503.333333 111.200381,503.333333 L129.591591,503.333333 C134.352158,503.333333 138.215228,507.196667 138.215228,511.961667 L138.215228,530.371667" id="Fill-60" fill="#7FC4EC"></path>
            <path d="M234.788642,530.371667 C234.788642,535.138333 230.928902,539.001667 226.168335,539.001667 L207.773795,539.001667 C203.013228,539.001667 199.153488,535.138333 199.153488,530.371667 L199.153488,511.961667 C199.153488,507.196667 203.013228,503.333333 207.773795,503.333333 L226.168335,503.333333 C230.928902,503.333333 234.788642,507.196667 234.788642,511.961667 L234.788642,530.371667" id="Fill-61" fill="#7FC4EC"></path>
            <polyline id="Fill-62" fill="#231F1F" points="200.117591 293.523333 147.819619 294.325 147.534884 275.801667 199.834521 275 200.117591 293.523333"></polyline>
            <g id="Left-Arm" transform="translate(51.456565, 337.305697) scale(1, -1) rotate(-19.000000) translate(-51.456565, -337.305697) translate(15.456565, 283.805697)" fill="#231F1F">
                <path d="M62.6071636,38.2289508 C61.638066,41.1889508 58.4543636,42.7972841 55.4987822,41.8256174 C52.5415357,40.8589508 50.9313683,37.6706174 51.900466,34.7106174 L60.7971822,7.54895078 C61.7662799,4.59395078 64.9499822,2.98228411 67.9055636,3.94561745 C70.8628101,4.92061745 72.4763078,8.10228411 71.505545,11.0656174 L62.6071636,38.2289508" id="Fill-63"></path>
                <polyline id="Fill-64" points="20.4726047 91.7966667 3.33023256 44.0316667 29.8122419 5.33333333 65.6322233 17.2183333 61.2912651 30.325 35.3254419 21.71 18.6992558 46.0066667 33.4571814 87.13 20.4726047 91.7966667"></polyline>
                <path d="M44.1222512,12.415 C44.1222512,19.0883333 38.7189488,24.4966667 32.0518233,24.4966667 C25.3846977,24.4966667 19.9813953,19.0883333 19.9813953,12.415 C19.9813953,5.74 25.3846977,0.333333333 32.0518233,0.333333333 C38.7189488,0.333333333 44.1222512,5.74 44.1222512,12.415" id="Fill-65"></path>
                <path d="M23.2799907,45.3166667 C23.2799907,51.7516667 18.0681767,56.9666667 11.6391628,56.9666667 C5.21181395,56.9666667 -1.42108547e-14,51.7516667 -1.42108547e-14,45.3166667 C-1.42108547e-14,38.8816667 5.21181395,33.6666667 11.6391628,33.6666667 C18.0681767,33.6666667 23.2799907,38.8816667 23.2799907,45.3166667" id="Fill-66"></path>
                <path d="M50.6971375,94.5556977 C50.6538444,94.4106977 50.6505142,94.2623644 50.6022258,94.1106977 C47.1770817,83.6240311 35.9025793,77.8990311 25.4206724,81.3273644 C14.9404305,84.7606977 9.22408631,96.0423644 12.6492305,106.532364 C12.6975189,106.684031 12.7824398,106.805698 12.8323933,106.947364 L50.6971375,94.5556977" id="Fill-67"></path>
            </g>
            <g id="Right-Arm" transform="translate(286.721500, 345.931667) scale(1, -1) rotate(18.000000) translate(-286.721500, -345.931667) translate(249.721500, 292.431667)" fill="#231F1F">
                <path d="M9.61263229,38.2289508 C10.5800648,41.1889508 13.7654323,42.7972841 16.7226788,41.8256174 C19.6782602,40.8589508 21.2917579,37.6706174 20.3209951,34.7106174 L11.4226137,7.54895078 C10.453516,4.59395078 7.2714788,2.98228411 4.31423229,3.94561745 C1.35698578,4.92061745 -0.254846782,8.10228411 0.714250892,11.0656174 L9.61263229,38.2289508" id="Fill-68"></path>
                <polyline id="Fill-69" points="52.2509767 91.7966667 69.395014 44.0316667 42.9130047 5.33333333 7.09302326 17.2183333 11.4323163 30.325 37.3998047 21.71 54.0259907 46.0066667 39.2680651 87.13 52.2509767 91.7966667"></polyline>
                <path d="M27.0744186,12.415 C27.0744186,19.0883333 32.479386,24.4966667 39.1448465,24.4966667 C45.8119721,24.4966667 51.2152744,19.0883333 51.2152744,12.415 C51.2152744,5.74 45.8119721,0.333333333 39.1448465,0.333333333 C32.479386,0.333333333 27.0744186,5.74 27.0744186,12.415" id="Fill-70"></path>
                <path d="M50.3860465,45.3166667 C50.3860465,51.7516667 55.5978605,56.9666667 62.0268744,56.9666667 C68.4542233,56.9666667 73.6643721,51.7516667 73.6643721,45.3166667 C73.6643721,38.8816667 68.4542233,33.6666667 62.0268744,33.6666667 C55.5978605,33.6666667 50.3860465,38.8816667 50.3860465,45.3166667" id="Fill-71"></path>
                <path d="M22.0790698,94.5556977 C22.1240279,94.4106977 22.1290233,94.2623644 22.1773116,94.1106977 C25.6041209,83.6240311 36.875293,77.8990311 47.3572,81.3273644 C57.839107,84.7606977 63.5554512,96.0423644 60.1286419,106.532364 C60.0803535,106.684031 59.9970977,106.805698 59.9488093,106.947364 L22.0790698,94.5556977" id="Fill-72"></path>
            </g>
            <path d="M181.033693,345.931667 C181.033693,351.968333 176.141581,356.863333 170.11053,356.863333 C164.079479,356.863333 159.190698,351.968333 159.190698,345.931667 C159.190698,339.895 164.079479,335 170.11053,335 C176.141581,335 181.033693,339.895 181.033693,345.931667" id="Fill-73" fill="#231F1F"></path>
            <path d="M181.033693,400.931667 C181.033693,406.97 176.141581,411.863333 170.11053,411.863333 C164.079479,411.863333 159.190698,406.97 159.190698,400.931667 C159.190698,394.895 164.079479,390 170.11053,390 C176.141581,390 181.033693,394.895 181.033693,400.931667" id="Fill-74" fill="#231F1F"></path>
            <path d="M181.033693,454.265 C181.033693,460.303333 176.141581,465.196667 170.11053,465.196667 C164.079479,465.196667 159.190698,460.303333 159.190698,454.265 C159.190698,448.226667 164.079479,443.333333 170.11053,443.333333 C176.141581,443.333333 181.033693,448.226667 181.033693,454.265" id="Fill-75" fill="#231F1F"></path>
            <polyline id="Fill-76" fill="#7FC4EC" points="17.655814 87.7766667 114.220902 271.876667 238.371972 271.876667 307.346084 119.993333 249.871265 71.6666667 17.655814 87.7766667"></polyline>
            <path d="M162.276158,150.71 C162.276158,172.275 144.810753,189.753333 123.269144,189.753333 C101.72587,189.753333 84.2604651,172.275 84.2604651,150.71 C84.2604651,129.148333 101.72587,111.666667 123.269144,111.666667 C144.810753,111.666667 162.276158,129.148333 162.276158,150.71" id="Fill-77" fill="#FFFFFF"></path>
            <path d="M237.206391,190.71 C237.206391,212.275 219.740986,229.753333 198.201042,229.753333 C176.654437,229.753333 159.190698,212.275 159.190698,190.71 C159.190698,169.148333 176.654437,151.666667 198.201042,151.666667 C219.740986,151.666667 237.206391,169.148333 237.206391,190.71" id="Fill-78" fill="#FFFFFF"></path>
            <path d="M135.755851,151.608333 C135.755851,160.778333 128.327767,168.215 119.164633,168.215 C110.003163,168.215 102.576744,160.778333 102.576744,151.608333 C102.576744,142.436667 110.003163,135 119.164633,135 C128.327767,135 135.755851,142.436667 135.755851,151.608333" id="Fill-79" fill="#231F1F"></path>
            <path d="M147.901452,236.746015 C147.901452,249.672916 141.482066,260.156347 133.563241,260.156347 C125.645854,260.156347 119.227907,249.672916 119.227907,236.746015 C119.227907,223.816764 125.645854,213.333333 133.563241,213.333333 C141.482066,213.333333 147.901452,223.816764 147.901452,236.746015" id="Fill-79-Copy" fill="#231F1F"></path>
            <path d="M215.684763,189.941667 C215.684763,199.111667 208.255014,206.546667 199.093544,206.546667 C189.930409,206.546667 182.502326,199.111667 182.502326,189.941667 C182.502326,180.77 189.930409,173.333333 199.093544,173.333333 C208.255014,173.333333 215.684763,180.77 215.684763,189.941667" id="Fill-80" fill="#231F1F"></path>
        </g>
    </g>
</svg>