<svg width="349" height="539" viewBox="0 0 349 539" xmlns="http://www.w3.org/2000/svg"><title>Surprised GloBot</title><g fill="none" fill-rule="evenodd"><path d="M290.802 87.493l-21.394-18.338c-7.235-6.205-18.116-5.364-24.31 1.88l47.582 40.788c6.196-7.24 5.353-18.135-1.878-24.33M273.405 68.825l52.472-50.492 7.873 4.545-40.078 64.865-20.267-18.918" fill="#231F1F"/><path d="M343.887 25.078c-5.922 5.265-14.985 4.727-20.242-1.2-5.258-5.927-4.72-14.995 1.2-20.26 5.919-5.258 14.982-4.723 20.239 1.203 5.257 5.927 4.722 14.997-1.197 20.257" fill="#231F1F"/><path d="M253 398.957c0 54.65-44.26 98.955-98.863 98.955-54.6 0-98.863-44.305-98.863-98.955 0-54.652 44.263-98.957 98.863-98.957C208.74 300 253 344.305 253 398.957M124.215 530.372c0 4.766-3.863 8.63-8.623 8.63H97.2c-4.76 0-8.623-3.864-8.623-8.63v-18.41c0-4.765 3.863-8.629 8.623-8.629h18.392c4.76 0 8.623 3.864 8.623 8.629v18.41M220.789 530.372c0 4.766-3.86 8.63-8.62 8.63h-18.395c-4.76 0-8.62-3.864-8.62-8.63v-18.41c0-4.765 3.86-8.629 8.62-8.629h18.394c4.76 0 8.62 3.864 8.62 8.629v18.41" fill="#7FC4EC"/><path fill="#231F1F" d="M186.118 293.523l-52.298.802-.285-18.523 52.3-.802.283 18.523"/><g fill="#231F1F"><path d="M57.642 360.407a5.628 5.628 0 0 0-5.55-5.715c-3.11-.049-5.671 2.442-5.718 5.556l-.431 28.578a5.643 5.643 0 0 0 5.548 5.722 5.645 5.645 0 0 0 5.721-5.56l.43-28.58"/><path d="M35.243 296.04L3.484 335.622l12.44 45.212 37.738.424.163-13.806-27.356-.308-7.81-28.386L46 304.68l-10.758-8.64"/><path d="M31.76 378.797c2.173-6.31-1.175-13.183-7.48-15.354-6.303-2.17-13.173 1.184-15.345 7.494-2.173 6.312 1.175 13.183 7.48 15.353 6.303 2.171 13.172-1.182 15.345-7.493M22.765 340.902c2.095-6.084-1.135-12.712-7.213-14.805S2.849 327.238.754 333.323c-2.095 6.084 1.135 12.712 7.212 14.804 6.079 2.093 12.704-1.14 14.8-7.225M64.72 303.272c-.089.123-.14.262-.235.39-6.653 8.8-19.177 10.542-27.972 3.888-8.791-6.658-10.523-19.186-3.87-27.99.096-.127.216-.215.309-.332l31.767 24.044"/></g><g fill="#231F1F"><path d="M251.394 368.918a5.629 5.629 0 0 1 5.65-5.617 5.638 5.638 0 0 1 5.621 5.655l-.07 28.582a5.642 5.642 0 0 1-5.646 5.623 5.646 5.646 0 0 1-5.624-5.659l.069-28.584"/><path d="M275.392 304.797l31.065 40.129-13.228 44.988-37.74-.235.078-13.806 27.358.17 8.305-28.246-26.744-34.55 10.906-8.45"/><path d="M275.978 388.073c-2.062-6.347 1.407-13.16 7.746-15.22 6.34-2.06 13.15 1.413 15.213 7.76 2.063 6.348-1.405 13.16-7.746 15.22-6.34 2.06-13.15-1.412-15.213-7.76M287.981 349.578c-1.988-6.12 1.357-12.69 7.471-14.677 6.113-1.986 12.68 1.364 14.668 7.484 1.989 6.12-1.355 12.69-7.468 14.676-6.114 1.986-12.682-1.363-14.67-7.483M245.844 311.496c.088.124.138.264.23.393 6.5 8.915 18.99 10.876 27.899 4.377 8.908-6.505 10.858-19 4.357-27.918-.093-.13-.21-.22-.299-.34l-32.187 23.488"/></g><path d="M167.034 345.932c0 6.036-4.892 10.931-10.923 10.931-6.032 0-10.92-4.895-10.92-10.931 0-6.037 4.888-10.932 10.92-10.932 6.03 0 10.923 4.895 10.923 10.932M167.034 400.932c0 6.038-4.892 10.931-10.923 10.931-6.032 0-10.92-4.893-10.92-10.931 0-6.037 4.888-10.932 10.92-10.932 6.03 0 10.923 4.895 10.923 10.932M167.034 454.265c0 6.038-4.892 10.932-10.923 10.932-6.032 0-10.92-4.894-10.92-10.932s4.888-10.932 10.92-10.932c6.03 0 10.923 4.894 10.923 10.932" fill="#231F1F"/><path fill="#7FC4EC" d="M3.656 87.777l96.565 184.1h124.151l68.974-151.884-57.475-48.326L3.656 87.777"/><path d="M148.276 150.71c0 21.565-17.465 39.043-39.007 39.043-21.543 0-39.009-17.478-39.009-39.043 0-21.562 17.466-39.043 39.01-39.043 21.54 0 39.006 17.481 39.006 39.043M223.206 190.71c0 21.565-17.465 39.043-39.005 39.043-21.547 0-39.01-17.478-39.01-39.043 0-21.562 17.463-39.043 39.01-39.043 21.54 0 39.005 17.481 39.005 39.043" fill="#FFF"/><path d="M121.756 151.608c0 9.17-7.428 16.607-16.591 16.607-9.162 0-16.588-7.437-16.588-16.607 0-9.171 7.426-16.608 16.588-16.608 9.163 0 16.59 7.437 16.59 16.608M133.901 236.746c0 12.927-6.419 23.41-14.338 23.41-7.917 0-14.335-10.483-14.335-23.41 0-12.93 6.418-23.413 14.335-23.413 7.92 0 14.338 10.484 14.338 23.413M201.685 189.942c0 9.17-7.43 16.605-16.591 16.605-9.164 0-16.592-7.435-16.592-16.605 0-9.172 7.428-16.609 16.592-16.609 9.161 0 16.59 7.437 16.59 16.609" fill="#231F1F"/></g></svg>
