<svg xmlns="http://www.w3.org/2000/svg" width="758" height="1255" viewBox="0 0 758 1255">
  <g fill="#000000" fill-rule="evenodd" transform="translate(-2)">
    <polygon points="668.525 483.698 655.458 483.698 655.458 509.844 590.119 509.844 590.119 483.698 577.051 483.698 577.051 549.063 668.525 549.063"/>
    <rect width="52.271" height="13.073" x="577.051" y="379.115"/>
    <rect width="52.271" height="26.146" x="577.051" y="339.896"/>
    <path d="M718.052373,0 L44.0154237,0 C20.7547458,0 2.06779661,18.6942708 2.06779661,41.9640625 L2.06779661,1213.03594 C2.06779661,1236.30573 20.7547458,1255 44.0154237,1255 L718.052373,1255 C741.313051,1255 760,1236.30573 760,1213.03594 L760,41.9640625 C760,18.6942708 741.313051,0 718.052373,0 L718.052373,0 Z M54.3389831,63.9265625 C54.3389831,59.7432292 60.8728814,52.2916667 65.0545763,52.2916667 L697.927966,52.2916667 C702.109661,52.2916667 707.728814,59.7432292 707.728814,63.9265625 L707.728814,274.661979 C707.728814,278.845313 702.109661,287.604167 697.927966,287.604167 C697.927966,287.604167 537.847458,287.342708 537.847458,287.865625 L537.847458,248.385417 L524.779661,248.385417 L524.779661,187.596354 C524.779661,172.039583 505.57,159.358854 489.49661,159.358854 C474.337966,159.358854 458.917966,170.863021 457.611186,185.243229 C453.298814,182.759375 446.634237,181.190625 441.276441,181.190625 C432.521017,181.190625 424.026949,184.981771 418.669153,190.995313 C413.311356,184.981771 405.209322,181.190625 396.453898,181.190625 C387.698475,181.190625 379.857797,184.981771 374.5,190.995313 C369.142203,184.981771 361.301525,181.190625 352.546102,181.190625 C343.921356,181.190625 336.080678,184.981771 330.722881,190.995313 C325.495763,184.981771 317.655085,181.190625 308.899661,181.190625 C302.496441,181.190625 296.485254,183.282292 291.650169,186.811979 C287.076441,177.138021 277.014237,170.209375 265.383898,170.209375 C256.628475,170.209375 248.918475,174.13125 243.560678,180.014063 C238.202881,174.13125 230.492881,170.209375 221.737458,170.209375 C212.982034,170.209375 205.272034,174.13125 200.044915,180.014063 C194.687119,174.13125 186.977119,170.209375 178.221695,170.209375 C162.540339,170.209375 149.864576,182.367188 149.341864,197.401042 C145.029492,194.917188 139.933051,193.348438 134.575254,193.348438 C125.950508,193.348438 118.109831,197.270313 112.882712,203.153125 C107.524915,197.270313 95.8945763,193.348438 87.1391525,193.348438 C71.1964407,193.348438 54.3389831,206.029167 54.3389831,221.585938 L54.3389831,63.9265625 L54.3389831,63.9265625 L54.3389831,63.9265625 Z M241.077797,1032.76042 C241.077797,1032.76042 241.208475,994.5875 241.339153,993.541667 L652.321356,993.541667 C652.452034,994.5875 652.321356,1032.76042 652.321356,1032.76042 L241.077797,1032.76042 L241.077797,1032.76042 Z M652.321356,1045.83333 C649.054407,1059.69062 636.509322,1071.97917 621.742712,1071.97917 L268.128136,1071.97917 C253.230847,1071.97917 240.816441,1059.69062 237.549492,1045.83333 L652.321356,1045.83333 L652.321356,1045.83333 Z M681.59322,470.625 L681.59322,562.135417 L563.983051,562.135417 L563.983051,470.625 L681.59322,470.625 L681.59322,470.625 Z M563.983051,405.260417 L563.983051,326.822917 L642.389831,326.822917 L642.389831,405.260417 L563.983051,405.260417 L563.983051,405.260417 Z M241.208475,980.46875 C246.696949,971.317708 256.628475,967.395833 268.128136,967.395833 L621.742712,967.395833 C633.111695,967.395833 643.173898,971.317708 648.662373,980.46875 L241.208475,980.46875 L241.208475,980.46875 Z M616.254237,888.958333 L616.254237,823.59375 L707.728814,823.59375 L707.728814,888.958333 L616.254237,888.958333 L616.254237,888.958333 Z M511.711864,187.596354 L511.711864,248.385417 L472.508475,248.385417 L472.508475,187.596354 C472.508475,181.321354 481.263898,170.078646 492.110169,170.078646 C503.479153,170.078646 511.711864,181.321354 511.711864,187.596354 L511.711864,187.596354 Z M459.440678,209.428125 L459.440678,248.385417 L433.305085,248.385417 L433.305085,209.428125 C433.305085,203.022396 439.838983,197.923958 446.372881,197.923958 C452.776102,197.923958 459.440678,203.022396 459.440678,209.428125 L459.440678,209.428125 Z M420.237288,209.428125 L420.237288,248.385417 L381.033898,248.385417 L381.033898,209.428125 C381.033898,203.022396 394.101695,197.923958 400.635593,197.923958 C407.169492,197.923958 420.237288,203.022396 420.237288,209.428125 L420.237288,209.428125 Z M367.966102,209.428125 L367.966102,248.385417 L341.830508,248.385417 L341.830508,209.428125 C341.830508,203.022396 348.364407,197.923958 354.898305,197.923958 C361.432203,197.923958 367.966102,203.022396 367.966102,209.428125 L367.966102,209.428125 Z M328.762712,209.428125 L328.762712,248.385417 L289.559322,248.385417 L289.559322,209.428125 C289.559322,203.022396 297.661356,192.302604 309.161017,192.302604 C321.444746,192.302604 328.762712,203.022396 328.762712,209.428125 L328.762712,209.428125 Z M276.491525,198.446875 L276.491525,248.385417 L250.355932,248.385417 L250.355932,198.446875 C250.355932,192.171875 257.020508,187.073438 263.423729,187.073438 C269.957627,187.073438 276.491525,192.171875 276.491525,198.446875 L276.491525,198.446875 Z M237.288136,198.446875 L237.288136,248.385417 L211.152542,248.385417 L211.152542,198.446875 C211.152542,192.171875 217.686441,187.073438 224.220339,187.073438 C230.623559,187.073438 237.288136,192.171875 237.288136,198.446875 L237.288136,198.446875 Z M198.084746,198.446875 L198.084746,248.385417 L158.881356,248.385417 L158.881356,198.446875 C158.881356,192.171875 167.375424,182.628646 178.483051,182.628646 C188.80661,182.628646 198.084746,192.171875 198.084746,198.446875 L198.084746,198.446875 Z M145.813559,221.585937 L145.813559,248.385417 L119.677966,248.385417 L119.677966,221.585937 C119.677966,215.310937 126.211864,210.2125 132.745763,210.2125 C139.279661,210.2125 145.813559,215.310937 145.813559,221.585937 L145.813559,221.585937 Z M106.610169,221.585937 L106.610169,248.385417 L67.4067797,248.385417 L67.4067797,221.585937 C67.4067797,215.310937 80.6052542,210.2125 87.0084746,210.2125 C93.5423729,210.2125 106.610169,215.310937 106.610169,221.585937 L106.610169,221.585937 Z M54.3389831,287.604167 L528.438644,287.604167 C525.171695,287.604167 524.779661,297.147396 524.779661,303.030208 L524.779661,357.544271 C524.779661,341.9875 505.57,329.306771 489.49661,329.306771 C474.337966,329.306771 458.917966,340.810938 457.611186,355.191146 C453.298814,352.707292 446.634237,351.138542 441.276441,351.138542 C432.521017,351.138542 424.026949,354.929688 418.669153,360.943229 C413.311356,354.929688 405.209322,351.138542 396.453898,351.138542 C387.698475,351.138542 379.857797,354.929688 374.5,360.943229 C369.142203,354.929688 361.301525,351.138542 352.546102,351.138542 C343.921356,351.138542 336.080678,354.929688 330.722881,360.943229 C325.495763,354.929688 317.655085,351.138542 308.899661,351.138542 C302.496441,351.138542 296.485254,353.230208 291.650169,356.759896 C287.076441,347.085938 277.014237,340.157292 265.383898,340.157292 C256.628475,340.157292 248.918475,344.079167 243.560678,349.961979 C238.202881,344.079167 230.492881,340.157292 221.737458,340.157292 C212.982034,340.157292 205.272034,344.079167 200.044915,349.961979 C194.687119,344.079167 186.977119,340.157292 178.221695,340.157292 C162.540339,340.157292 149.864576,352.315104 149.341864,367.348958 C145.029492,364.865104 139.933051,363.296354 134.575254,363.296354 C125.950508,363.296354 118.109831,367.218229 112.882712,373.101042 C107.524915,367.218229 95.8945763,363.296354 87.1391525,363.296354 C71.1964407,363.296354 54.3389831,375.977083 54.3389831,391.533854 L54.3389831,287.604167 L54.3389831,287.604167 L54.3389831,287.604167 Z M511.711864,357.544271 L511.711864,418.333333 L472.508475,418.333333 L472.508475,357.544271 C472.508475,351.269271 479.695763,340.026563 492.110169,340.026563 C506.746102,340.026563 511.711864,351.269271 511.711864,357.544271 L511.711864,357.544271 Z M459.440678,379.376042 L459.440678,418.333333 L433.305085,418.333333 L433.305085,379.376042 C433.305085,372.970312 439.838983,367.871875 446.372881,367.871875 C452.776102,367.871875 459.440678,372.970312 459.440678,379.376042 L459.440678,379.376042 Z M420.237288,379.376042 L420.237288,418.333333 L381.033898,418.333333 L381.033898,379.376042 C381.033898,372.970312 394.101695,367.871875 400.635593,367.871875 C407.169492,367.871875 420.237288,372.970312 420.237288,379.376042 L420.237288,379.376042 Z M367.966102,379.376042 L367.966102,418.333333 L341.830508,418.333333 L341.830508,379.376042 C341.830508,372.970312 348.364407,367.871875 354.898305,367.871875 C361.432203,367.871875 367.966102,372.970312 367.966102,379.376042 L367.966102,379.376042 Z M328.762712,379.376042 L328.762712,418.333333 L289.559322,418.333333 L289.559322,379.376042 C289.559322,372.970312 297.792034,362.773437 309.161017,362.250521 C320.660678,361.727604 328.762712,372.970312 328.762712,379.376042 L328.762712,379.376042 Z M276.491525,368.394792 L276.491525,418.333333 L250.355932,418.333333 L250.355932,368.394792 C250.355932,362.119792 257.020508,357.021354 263.423729,357.021354 C269.957627,357.021354 276.491525,362.119792 276.491525,368.394792 L276.491525,368.394792 Z M237.288136,368.394792 L237.288136,418.333333 L211.152542,418.333333 L211.152542,368.394792 C211.152542,362.119792 217.686441,357.021354 224.220339,357.021354 C230.623559,357.021354 237.288136,362.119792 237.288136,368.394792 L237.288136,368.394792 Z M198.084746,368.394792 L198.084746,418.333333 L158.881356,418.333333 L158.881356,368.394792 C158.881356,362.119792 167.375424,352.96875 178.483051,352.576563 C194.295085,352.053646 198.084746,362.119792 198.084746,368.394792 L198.084746,368.394792 Z M145.813559,391.533854 L145.813559,418.333333 L119.677966,418.333333 L119.677966,391.533854 C119.677966,385.258854 126.211864,380.160417 132.745763,380.160417 C139.279661,380.160417 145.813559,385.258854 145.813559,391.533854 L145.813559,391.533854 Z M106.610169,391.533854 L106.610169,418.333333 L67.4067797,418.333333 L67.4067797,391.533854 C67.4067797,385.258854 80.6052542,380.160417 87.0084746,380.160417 C93.5423729,380.160417 106.610169,385.258854 106.610169,391.533854 L106.610169,391.533854 Z M54.3389831,457.552083 L524.779661,457.552083 L524.779661,501.346354 C524.779661,485.789583 505.57,473.108854 489.49661,473.108854 C474.337966,473.108854 458.917966,484.613021 457.611186,498.993229 C453.298814,496.509375 446.634237,494.940625 441.276441,494.940625 C432.521017,494.940625 424.026949,498.731771 418.669153,504.745312 C413.311356,498.731771 405.209322,494.940625 396.453898,494.940625 C387.698475,494.940625 379.857797,498.731771 374.5,504.745312 C369.142203,498.731771 361.301525,494.940625 352.546102,494.940625 C343.921356,494.940625 336.080678,498.731771 330.722881,504.745312 C325.495763,498.731771 317.655085,494.940625 308.899661,494.940625 C302.496441,494.940625 296.485254,497.032292 291.650169,500.561979 C287.076441,490.888021 277.014237,483.959375 265.383898,483.959375 C256.628475,483.959375 248.918475,487.88125 243.560678,493.764062 C238.202881,487.88125 230.492881,483.959375 221.737458,483.959375 C212.982034,483.959375 205.272034,487.88125 200.044915,493.764062 C194.687119,487.88125 186.977119,483.959375 178.221695,483.959375 C162.540339,483.959375 149.864576,496.117187 149.341864,511.151042 C145.029492,508.667187 139.933051,507.098437 134.575254,507.098437 C125.950508,507.098437 118.109831,511.020312 112.882712,516.903125 C107.524915,511.020312 95.8945763,507.098437 87.1391525,507.098437 C71.1964407,507.098437 54.3389831,519.779167 54.3389831,535.335937 L54.3389831,457.552083 L54.3389831,457.552083 L54.3389831,457.552083 Z M511.711864,501.346354 L511.711864,562.135417 L472.508475,562.135417 L472.508475,501.346354 C472.508475,495.071354 481.263898,483.697917 492.110169,483.828646 C509.098305,484.090104 511.711864,493.241146 511.711864,501.346354 L511.711864,501.346354 Z M459.440678,523.178125 L459.440678,562.135417 L433.305085,562.135417 L433.305085,523.178125 C433.305085,516.772396 439.838983,511.673958 446.372881,511.673958 C452.776102,511.673958 459.440678,516.772396 459.440678,523.178125 L459.440678,523.178125 Z M420.237288,523.178125 L420.237288,562.135417 L381.033898,562.135417 L381.033898,523.178125 C381.033898,516.772396 394.101695,511.673958 400.635593,511.673958 C407.169492,511.673958 420.237288,516.772396 420.237288,523.178125 L420.237288,523.178125 Z M367.966102,523.178125 L367.966102,562.135417 L341.830508,562.135417 L341.830508,523.178125 C341.830508,516.772396 348.364407,511.673958 354.898305,511.673958 C361.432203,511.673958 367.966102,516.772396 367.966102,523.178125 L367.966102,523.178125 Z M328.762712,523.178125 L328.762712,562.135417 L289.559322,562.135417 L289.559322,523.178125 C289.559322,516.772396 298.445424,506.052604 309.161017,506.052604 C321.444746,506.052604 328.762712,516.772396 328.762712,523.178125 L328.762712,523.178125 Z M276.491525,512.196875 L276.491525,562.135417 L250.355932,562.135417 L250.355932,512.196875 C250.355932,505.921875 257.020508,500.823438 263.423729,500.823438 C269.957627,500.823438 276.491525,505.921875 276.491525,512.196875 L276.491525,512.196875 Z M237.288136,512.196875 L237.288136,562.135417 L211.152542,562.135417 L211.152542,512.196875 C211.152542,505.921875 217.686441,500.823438 224.220339,500.823438 C230.623559,500.823438 237.288136,505.921875 237.288136,512.196875 L237.288136,512.196875 Z M198.084746,512.196875 L198.084746,562.135417 L158.881356,562.135417 L158.881356,512.196875 C158.881356,505.921875 168.159492,496.378646 178.483051,496.378646 C189.590678,496.378646 198.084746,505.921875 198.084746,512.196875 L198.084746,512.196875 Z M145.813559,535.335937 L145.813559,562.135417 L119.677966,562.135417 L119.677966,535.335937 C119.677966,529.060937 126.211864,523.9625 132.745763,523.9625 C139.279661,523.9625 145.813559,529.060937 145.813559,535.335937 L145.813559,535.335937 Z M106.610169,535.335937 L106.610169,562.135417 L67.4067797,562.135417 L67.4067797,535.335937 C67.4067797,529.060937 80.6052542,523.9625 87.0084746,523.9625 C93.5423729,523.9625 106.610169,529.060937 106.610169,535.335937 L106.610169,535.335937 Z M54.3389831,614.427083 L524.779661,614.427083 L524.779661,800.585417 C524.779661,804.76875 518.899153,810.520833 514.58678,810.520833 L65.0545763,810.520833 C60.8728814,810.520833 54.3389831,804.76875 54.3389831,800.585417 L54.3389831,614.427083 L54.3389831,614.427083 Z M719.881864,1241.92708 L44.2767797,1241.92708 C29.2488136,1241.92708 17.0957627,1230.42292 15.7889831,1215.78125 L748.500339,1215.78125 C747.062881,1230.42292 734.909831,1241.92708 719.881864,1241.92708 L719.881864,1241.92708 Z"/>
  </g>
</svg>
